<svg width="20" height="24" viewBox="0 0 20 24" fill="none" xmlns="http://www.w3.org/2000/svg">
    <path d="m10.059 23.545.234-.087c5.583-2.456 9.032-7.454 9.032-13.008V2.909h-3.186c-2.075 0-4.063-.702-5.642-2.047L10 .453l-.467.41c-1.52 1.315-3.566 2.046-5.7 2.046H.676v7.512c0 5.583 3.449 10.552 9.149 13.066l.234.058zm.672-1.958v-8.74h6.87c-.76 3.625-3.245 6.781-6.87 8.74zM17.863 4.37v6.05c0 .322-.058.615-.058.936h-7.074V2.821c1.579.964 3.45 1.549 5.408 1.549h1.724zm-15.726 0h1.696c1.987 0 3.858-.555 5.437-1.55v8.536H2.196a9.446 9.446 0 0 1-.059-.935V4.37zm.263 8.448h6.87v8.74c-3.625-1.93-6.11-5.086-6.87-8.74z" fill="#E9EAF3"/>
</svg>
