<svg width="20" height="24" viewBox="0 0 20 24" fill="none" xmlns="http://www.w3.org/2000/svg">
    <path d="m9.767 23.458.263.087.263-.117c5.554-2.455 9.032-7.453 9.032-13.007V2.909h-3.186a8.777 8.777 0 0 1-5.67-2.047L10 .453l-.467.41c-1.52 1.315-3.566 2.046-5.7 2.046H.676v7.512c0 5.554 3.449 10.552 9.09 13.037zM2.137 4.37h1.696c2.28 0 4.443-.701 6.167-2.017 1.725 1.286 3.888 1.988 6.139 2.017h1.754v6.05c0 4.882-3.011 9.267-7.863 11.547-4.882-2.28-7.893-6.665-7.893-11.546V4.37z" fill="#E9EAF3"/>
    <path d="m16.665 8.143-1.17-.877-6.08 8.184-3.507-2.689-.877 1.17 4.648 3.565 6.986-9.353z" fill="#E9EAF3"/>
</svg>
