<svg width="24" height="24" viewBox="0 0 24 24" fill="none" xmlns="http://www.w3.org/2000/svg">
    <path d="m19.687 7.673 2.25-2.25-3.361-3.362-2.338 2.338a11.136 11.136 0 0 0-1.871-.702V.336H9.63v3.537a8.475 8.475 0 0 0-1.666.73L5.422 2.062 2.061 5.422l2.63 2.63a6.182 6.182 0 0 0-.643 1.58H.336v4.764h3.712c.146.526.351 1.052.643 1.55l-2.63 2.63 3.361 3.361 2.543-2.543c.526.293 1.082.527 1.666.731v3.537h4.765v-3.361c.614-.176 1.228-.41 1.841-.702l2.339 2.338 3.361-3.361-2.25-2.25c.35-.615.643-1.258.818-1.93h3.157V9.63h-3.157c-.175-.701-.467-1.344-.818-1.958zm2.514 5.232h-2.865l-.117.585a6.642 6.642 0 0 1-1.082 2.514l-.321.497 2.075 2.075-1.315 1.286-2.105-2.104-.497.292a7 7 0 0 1-2.455.935l-.614.117v3.128h-1.812v-3.216l-.556-.146a7.298 7.298 0 0 1-2.28-.994l-.496-.35-2.339 2.338-1.286-1.286 2.397-2.397-.292-.497a7.42 7.42 0 0 1-.907-2.192l-.117-.585h-3.42v-1.812h3.42l.117-.585c.147-.73.468-1.49.907-2.192l.292-.497-2.397-2.397 1.286-1.286 2.339 2.338.496-.35a7.3 7.3 0 0 1 2.28-.994l.556-.146V1.768h1.841v3.128l.614.117c.848.146 1.666.468 2.456.935l.497.293 2.104-2.134 1.286 1.286-2.075 2.104.322.497c.526.76.876 1.608 1.081 2.514l.117.585H22.2v1.812z" fill="#E9EAF3"/>
    <path d="M12.203 6.766a5.227 5.227 0 0 0-5.232 5.232 5.227 5.227 0 0 0 5.232 5.232 5.227 5.227 0 0 0 5.232-5.232 5.227 5.227 0 0 0-5.232-5.232zm0 9.003a3.78 3.78 0 0 1-3.77-3.771 3.78 3.78 0 0 1 3.77-3.77 3.78 3.78 0 0 1 3.77 3.77 3.78 3.78 0 0 1-3.77 3.77z" fill="#E9EAF3"/>
</svg>
