<svg width="60" height="60" viewBox="0 0 60 60" fill="none" xmlns="http://www.w3.org/2000/svg">
<circle cx="30" cy="30" r="30" fill="#E9EAF3"/>
<path d="M37.2003 25.9763L33.3603 25.4225L31.6618 21.9517C31.3295 21.324 30.7018 20.9178 30.0003 20.9178C29.2988 20.9178 28.6711 21.324 28.3388 21.9517L26.6403 25.4225L22.8003 25.9763C22.0988 26.0871 21.508 26.5671 21.2865 27.2317C21.0649 27.9332 21.2495 28.6348 21.7665 29.1517L24.5357 31.8471L23.8711 35.6502C23.7603 36.3517 24.0188 37.0532 24.6095 37.4594C24.9418 37.6809 25.3111 37.8286 25.6803 37.8286C25.9757 37.8286 26.2711 37.7548 26.5295 37.6071L30.0003 35.7978L33.4342 37.6071C34.0618 37.9394 34.8003 37.8655 35.3542 37.4594C35.9449 37.0532 36.2034 36.3517 36.0926 35.6502L35.4649 31.8471L38.2342 29.1517C38.7511 28.6717 38.9357 27.9332 38.7142 27.2686C38.4926 26.5671 37.9018 26.0871 37.2003 25.9763ZM33.4711 31.1825L34.2834 35.9455L30.0003 33.7302L25.7172 35.9825L26.5295 31.2194L23.0588 27.8225L27.8588 27.1209L30.0003 22.764L32.1418 27.1209L36.9418 27.8225L33.4711 31.1825Z" fill="#3A3597"/>
<path d="M30 15.3046C21.8769 15.3046 15.3046 21.9138 15.3046 30C15.3046 38.123 21.9139 44.6953 30 44.6953C38.0862 44.6953 44.6954 38.0861 44.6954 30C44.6954 21.8769 38.1231 15.3046 30 15.3046ZM30 42.8492C22.9108 42.8492 17.1508 37.0892 17.1508 30C17.1508 22.9107 22.9108 17.1507 30 17.1507C37.0892 17.1507 42.8492 22.9107 42.8492 30C42.8492 37.0892 37.0892 42.8492 30 42.8492Z" fill="#3A3597"/>
</svg>
