<svg width="24" height="24" viewBox="0 0 24 24" fill="none" xmlns="http://www.w3.org/2000/svg">
<path d="M10 12.5H4C3.86739 12.5 3.74021 12.4473 3.64645 12.3536C3.55268 12.2598 3.5 12.1326 3.5 12V4C3.5 3.86739 3.55268 3.74021 3.64645 3.64645C3.74021 3.55268 3.86739 3.5 4 3.5H10C10.1326 3.5 10.2598 3.55268 10.3536 3.64645C10.4473 3.74021 10.5 3.86739 10.5 4V12C10.5 12.1326 10.4473 12.2598 10.3536 12.3536C10.2598 12.4473 10.1326 12.5 10 12.5ZM3.64645 20.3536C3.55268 20.2598 3.5 20.1326 3.5 20V16C3.5 15.8674 3.55268 15.7402 3.64645 15.6464C3.74021 15.5527 3.86739 15.5 4 15.5H10C10.1326 15.5 10.2598 15.5527 10.3536 15.6464C10.4473 15.7402 10.5 15.8674 10.5 16V20C10.5 20.1326 10.4473 20.2598 10.3536 20.3536C10.2598 20.4473 10.1326 20.5 10 20.5H4C3.86739 20.5 3.74021 20.4473 3.64645 20.3536ZM13.6464 20.3536C13.5527 20.2598 13.5 20.1326 13.5 20V13C13.5 12.8674 13.5527 12.7402 13.6464 12.6464C13.7402 12.5527 13.8674 12.5 14 12.5H20C20.1326 12.5 20.2598 12.5527 20.3536 12.6464C20.4473 12.7402 20.5 12.8674 20.5 13V20C20.5 20.1326 20.4473 20.2598 20.3536 20.3536C20.2598 20.4473 20.1326 20.5 20 20.5H14C13.8674 20.5 13.7402 20.4473 13.6464 20.3536ZM20 9.5H14C13.8674 9.5 13.7402 9.44732 13.6464 9.35355C13.5527 9.25978 13.5 9.13261 13.5 9V4C13.5 3.86739 13.5527 3.74021 13.6464 3.64645C13.7402 3.55268 13.8674 3.5 14 3.5H20C20.1326 3.5 20.2598 3.55268 20.3536 3.64645C20.4473 3.74021 20.5 3.86739 20.5 4V9C20.5 9.13261 20.4473 9.25979 20.3536 9.35355C20.2598 9.44732 20.1326 9.5 20 9.5Z" stroke="white"/>
</svg>
