<svg width="80" height="80" viewBox="0 0 80 80" fill="none" xmlns="http://www.w3.org/2000/svg">
<circle cx="40" cy="40" r="40" fill="#E9EAF3"/>
<path d="M53.4297 32.816V22.2422L51.1543 24.2945C45.8004 29.2022 39.0635 31.8791 32.1928 31.8791H27.5081C24.5635 31.8791 22.1543 34.2883 22.1543 37.233C22.1543 39.9099 24.1174 42.096 26.7051 42.4976L31.4343 55.1683C32.0143 56.7745 33.5312 57.756 35.0928 57.756C35.5389 57.756 35.9405 57.6668 36.3866 57.533C37.3681 57.176 38.1266 56.4622 38.5281 55.4806C38.9297 54.5437 38.9743 53.473 38.6174 52.536L35.0928 42.7653C40.9374 43.3899 46.5589 45.9776 51.1543 50.1714L53.4297 52.2237V41.6499C55.8835 41.4268 57.8466 39.553 57.8466 37.233C57.8466 34.913 55.8835 33.0837 53.4297 32.816ZM24.3851 37.233C24.3851 35.5376 25.7681 34.1099 27.5081 34.1099H30.6312V40.3114H27.5081C25.7681 40.356 24.3851 38.973 24.3851 37.233ZM36.5204 53.2945C36.6989 53.7406 36.6543 54.1868 36.4758 54.5883C36.2974 54.9899 35.9851 55.3022 35.5835 55.436C34.7805 55.7483 33.8435 55.3022 33.4866 54.4099L29.1143 42.5868H32.2374C32.3712 42.5868 32.5497 42.5868 32.6835 42.6314L36.5204 53.2945ZM51.1989 47.2714C45.8451 42.9437 39.4205 40.5345 32.862 40.356V34.1099C39.4205 33.976 45.8451 31.5668 51.1989 27.2391V47.2714ZM53.4297 39.3745V35.0914C54.6789 35.3145 55.6158 36.1622 55.6158 37.233C55.6158 38.3037 54.6789 39.196 53.4297 39.3745Z" fill="#3A3597"/>
</svg>
