<svg width="80" height="80" viewBox="0 0 80 80" fill="none" xmlns="http://www.w3.org/2000/svg">
<circle cx="40" cy="40" r="40" fill="#E9EAF3"/>
<path d="M22.0195 55.6136H57.9795V24.3828H22.0195V55.6136ZM31.5672 50.4828C31.5672 46.1105 35.1365 42.5413 39.5088 42.5413C43.8811 42.5413 47.4503 46.1105 47.4503 50.4828C47.4503 51.509 47.2272 52.4905 46.8257 53.3828H44.2826C44.818 52.5351 45.1303 51.509 45.1303 50.4828C45.1303 47.4044 42.6318 44.9059 39.5534 44.9059C36.4749 44.9059 33.9765 47.4044 33.9765 50.4828C33.9765 51.509 34.2888 52.5351 34.8241 53.3828H32.1918C31.8349 52.4459 31.5672 51.4644 31.5672 50.4828ZM36.2072 50.4828C36.2072 48.6536 37.7241 47.1367 39.5534 47.1367C41.3826 47.1367 42.8995 48.6536 42.8995 50.4828C42.8995 51.6874 42.2749 52.7582 41.2488 53.3828H41.2934H37.9472C36.8765 52.8028 36.2072 51.6874 36.2072 50.4828ZM49.2795 53.3828C49.458 52.8028 49.5918 52.1782 49.6365 51.5982H53.3841V49.3674H49.6365C49.4134 47.4044 48.6549 45.6197 47.4503 44.1474L50.1272 41.4705L48.5657 39.8643L45.8888 42.5413C44.4165 41.3813 42.6318 40.6228 40.6688 40.3997V36.5628H38.438V40.3551C36.4749 40.6228 34.6903 41.3813 33.218 42.5413L30.5411 39.8643L28.9349 41.4259L31.6118 44.1028C30.4518 45.6197 29.6934 47.4044 29.4703 49.3674H25.6334V51.5982H29.3811C29.4257 52.2228 29.6041 52.8028 29.738 53.3828H24.2503V35.3582H55.7488V53.3828H49.2795ZM55.7488 33.1274H24.2503V26.6136H55.7488V33.1274Z" fill="#3A3597"/>
<path d="M53.5625 28.5781H51.2871V30.8089H53.5625V28.5781Z" fill="#3A3597"/>
<path d="M49.1006 28.5781H46.8252V30.8089H49.1006V28.5781Z" fill="#3A3597"/>
</svg>
