<svg width="80" height="80" viewBox="0 0 80 80" fill="none" xmlns="http://www.w3.org/2000/svg">
<circle cx="40" cy="40" r="40" fill="#E9EAF3"/>
<path d="M39.9998 43.4349C36.4751 43.4349 33.709 40.6688 33.709 37.278C33.709 33.8872 36.4751 31.1211 39.8659 31.1211H39.9998C43.3905 31.1211 46.1567 33.8872 46.1567 37.278C46.1567 40.6688 43.3905 43.4349 39.9998 43.4349ZM39.8659 33.3519C37.6798 33.3519 35.9398 35.1365 35.9398 37.278C35.9398 39.4642 37.7244 41.2042 39.8659 41.2042C42.1859 41.2042 43.9259 39.4196 43.9259 37.278C43.9259 35.0919 42.1413 33.3519 39.9998 33.3519H39.8659Z" fill="#3A3597"/>
<path d="M49.6374 31.5222C46.9605 31.5222 44.9082 29.4253 44.9082 26.8822C44.9082 24.3391 47.0051 22.2422 49.5482 22.2422H49.6374C52.1805 22.2422 54.2774 24.3391 54.2774 26.8822C54.2774 29.4253 52.1805 31.5222 49.6374 31.5222ZM49.5482 24.473C48.2097 24.473 47.139 25.5437 47.139 26.8822C47.139 28.2206 48.2097 29.2914 49.5482 29.2914C50.9759 29.2914 52.0467 28.2206 52.0467 26.8822C52.0467 25.5437 50.9759 24.473 49.6374 24.473H49.5482Z" fill="#3A3597"/>
<path d="M57.6229 43.7932H55.3921V36.2086C55.3921 35.7624 55.2137 35.5394 55.1691 35.4947H48.7891V33.3086H55.2137C56.5521 33.3086 57.6229 34.6024 57.6229 36.2086V43.7932Z" fill="#3A3597"/>
<path d="M30.4519 31.5222C27.8196 31.5222 25.7227 29.4253 25.7227 26.8822C25.7227 24.3391 27.8196 22.2422 30.3627 22.2422H30.4519C32.995 22.2422 35.0919 24.3391 35.0919 26.8822C35.0919 29.4253 33.0396 31.5222 30.4519 31.5222ZM30.3627 24.473C29.0242 24.473 27.9534 25.5437 27.9534 26.8822C27.9534 28.2206 29.0242 29.2914 30.3627 29.2914C31.7903 29.2914 32.8611 28.2206 32.8611 26.8822C32.8611 25.5437 31.7903 24.473 30.4519 24.473H30.3627Z" fill="#3A3597"/>
<path d="M24.6077 43.7932H22.377V36.2086C22.377 34.6024 23.4031 33.3086 24.7416 33.3086H31.1662V35.5394H24.7416C24.7416 35.5394 24.5631 35.8071 24.5631 36.2086V43.7932H24.6077Z" fill="#3A3597"/>
<path d="M48.9234 57.7553H46.6926V48.7876C46.6926 48.1629 46.2018 47.6722 45.5772 47.6722H34.2895C33.6649 47.6722 33.1741 48.1629 33.1741 48.7876V57.7553H30.9434V48.7876C30.9434 46.9583 32.4603 45.4414 34.2895 45.4414H45.5772C47.4064 45.4414 48.9234 46.9583 48.9234 48.7876V57.7553Z" fill="#3A3597"/>
</svg>
