<svg width="198" height="37" viewBox="0 0 198 37" fill="none" xmlns="http://www.w3.org/2000/svg">
<g clip-path="url(#clip0_1_665)">
<path d="M3.72921 17.276L0.422171 13.9887C0.211083 13.7788 0.211083 13.4291 0.422171 13.1493L13.5096 0.139887C13.58 0.0699433 13.7207 0 13.8614 0H21.1087L3.72921 17.276Z" fill="white"/>
<path d="M9.92108 13.569L22.8678 0.699433C23.29 0.279773 23.9232 0 24.4861 0H34.9701C35.6034 0 36.1663 0.20983 36.5885 0.699433L49.5352 13.569L45.8059 17.276L31.452 2.86767C30.5373 1.95841 29.0597 1.95841 28.145 2.86767L13.6503 17.276L9.92108 13.569Z" fill="white"/>
<path d="M29.2007 4.26647L26.0344 7.41392L40.9512 22.2419L44.6804 18.5349L30.3265 4.26647C30.045 3.9867 29.5525 3.9867 29.2007 4.26647Z" fill="white"/>
<path d="M45.9469 19.7244L49.254 23.0117C49.465 23.2215 49.465 23.5712 49.254 23.851L36.1665 36.8605C36.0258 37.0004 35.8851 37.0004 35.7444 37.0004H28.5674L45.9469 19.7244Z" fill="white"/>
<path d="M39.6844 23.4314L26.7377 36.3009C26.3156 36.7206 25.6823 37.0004 25.1194 37.0004H14.6354C14.0021 37.0004 13.4392 36.7905 13.0171 36.3009L0 23.4314L3.72921 19.7244L18.2239 34.1327C19.1386 35.0419 20.6162 35.0419 21.5309 34.1327L36.0256 19.7244L39.6844 23.4314Z" fill="white"/>
<path d="M20.4055 32.7334L23.5718 29.5859L8.65499 14.8279L4.92578 18.5349L19.2094 32.7334C19.5612 33.0131 20.1241 33.0131 20.4055 32.7334Z" fill="white"/>
<path d="M83.9428 13.8492H78.6656C78.5249 13.0099 78.2434 12.2405 77.8213 11.541C77.3991 10.8416 76.9065 10.2821 76.3436 9.86241C75.7104 9.37281 75.0771 9.02309 74.3031 8.81326C73.5291 8.60343 72.6848 8.46354 71.8404 8.46354C70.2925 8.46354 68.8852 8.8832 67.6891 9.65258C66.4929 10.422 65.5078 11.541 64.8746 13.0798C64.1709 14.5486 63.8191 16.3671 63.8191 18.5354C63.8191 20.7036 64.1709 22.5921 64.8746 24.0609C65.5782 25.5297 66.4929 26.6488 67.6891 27.4182C68.8852 28.1875 70.2925 28.5373 71.8404 28.5373C72.6848 28.5373 73.5291 28.3974 74.2328 28.1875C75.0068 27.9777 75.64 27.628 76.2733 27.2083C76.9065 26.7887 77.3991 26.2291 77.8213 25.5297C78.2434 24.9002 78.5249 24.1308 78.6656 23.2915H83.9428C83.7317 24.6204 83.3095 25.9494 82.6763 27.1384C82.043 28.3274 81.1987 29.3766 80.1432 30.2858C79.0878 31.1951 77.8916 31.8945 76.4844 32.3841C75.0771 32.8737 73.5291 33.1535 71.7701 33.1535C69.237 33.1535 66.9854 32.594 65.0153 31.4049C63.0451 30.2159 61.4972 28.5373 60.301 26.369C59.1752 24.2008 58.6123 21.5429 58.6123 18.4654C58.6123 15.3879 59.1752 12.7301 60.3714 10.5618C61.4972 8.3936 63.1155 6.71496 65.0856 5.52593C67.0558 4.33689 69.3074 3.77734 71.8404 3.77734C73.4588 3.77734 74.9364 3.98717 76.3436 4.47678C77.7509 4.89644 78.9471 5.59587 80.0025 6.43519C81.0579 7.27451 81.9726 8.32366 82.6763 9.58264C83.2392 10.8416 83.7317 12.2405 83.9428 13.8492Z" fill="white"/>
<path d="M91.8237 4.19727L98.1563 14.6888H98.3674L104.77 4.19727H110.751L101.886 18.5356L110.892 32.874H104.841L98.3674 22.3825H98.1563L91.7533 32.8041H85.7021L94.7789 18.4657L85.8429 4.19727H91.8237Z" fill="white"/>
<path d="M138.685 18.4654C138.685 21.5429 138.122 24.2008 136.926 26.369C135.8 28.5373 134.182 30.2159 132.211 31.4049C130.241 32.594 127.99 33.1535 125.457 33.1535C122.924 33.1535 120.672 32.594 118.702 31.4049C116.732 30.2159 115.113 28.5373 113.988 26.369C112.862 24.2008 112.229 21.5429 112.229 18.4654C112.229 15.3879 112.791 12.7301 113.988 10.5618C115.113 8.3936 116.732 6.71496 118.702 5.52593C120.672 4.33689 122.924 3.77734 125.457 3.77734C127.99 3.77734 130.241 4.33689 132.211 5.52593C134.182 6.71496 135.8 8.3936 136.926 10.5618C138.052 12.7301 138.685 15.3879 138.685 18.4654ZM133.408 18.4654C133.408 16.2972 133.056 14.4787 132.423 12.9399C131.789 11.4012 130.804 10.2821 129.608 9.51269C128.412 8.74332 127.005 8.3936 125.457 8.3936C123.909 8.3936 122.501 8.74332 121.305 9.51269C120.109 10.2821 119.194 11.4012 118.491 12.9399C117.787 14.4087 117.506 16.2972 117.506 18.4654C117.506 20.6337 117.858 22.4522 118.491 23.991C119.194 25.4598 120.109 26.6488 121.305 27.4182C122.501 28.1875 123.909 28.5373 125.457 28.5373C127.005 28.5373 128.412 28.1875 129.608 27.4182C130.804 26.6488 131.719 25.5297 132.423 23.991C133.056 22.4522 133.408 20.6337 133.408 18.4654Z" fill="white"/>
<path d="M142.836 32.8041V4.19727H161.552V8.53375H148.043V16.2975H160.567V20.6339H148.043V28.4676H161.693V32.8041H142.836Z" fill="white"/>
<path d="M165.844 32.8031V11.3306H170.769V14.8977H170.98C171.402 13.6387 172.036 12.7294 173.021 12.03C174.006 11.3306 175.061 11.0508 176.328 11.0508C176.609 11.0508 176.891 11.0508 177.242 11.0508C177.594 11.0508 177.876 11.1207 178.087 11.1907V15.8769C177.876 15.8069 177.524 15.737 177.102 15.667C176.609 15.5971 176.187 15.5971 175.765 15.5971C174.85 15.5971 174.006 15.8069 173.302 16.1566C172.599 16.5763 171.965 17.0659 171.543 17.7653C171.121 18.4648 170.91 19.3041 170.91 20.2134V32.8031H165.844Z" fill="white"/>
<path d="M186.601 33.2235C185.264 33.2235 183.997 33.0137 182.942 32.5241C181.816 32.0345 180.972 31.3351 180.339 30.3559C179.705 29.3767 179.424 28.1876 179.424 26.7888C179.424 25.5997 179.635 24.5506 180.127 23.7812C180.55 23.0118 181.183 22.3823 181.957 21.8927C182.731 21.4031 183.646 21.0534 184.56 20.8436C185.545 20.5638 186.53 20.4239 187.586 20.284C188.852 20.1441 189.908 20.0043 190.682 19.9343C191.456 19.7944 192.019 19.6545 192.371 19.4447C192.722 19.2349 192.933 18.8852 192.933 18.3956V18.3256C192.933 17.2765 192.652 16.4372 192.019 15.8776C191.385 15.3181 190.471 15.0383 189.275 15.0383C188.008 15.0383 187.023 15.3181 186.319 15.8776C185.616 16.4372 185.123 17.0666 184.842 17.7661L180.057 17.0666C180.409 15.7377 181.042 14.6886 181.887 13.7793C182.731 12.87 183.786 12.2406 185.053 11.8209C186.319 11.4012 187.656 11.1914 189.204 11.1914C190.26 11.1914 191.315 11.3313 192.3 11.5411C193.356 11.751 194.27 12.1706 195.115 12.7302C195.959 13.2897 196.663 14.0591 197.155 14.9683C197.648 15.9475 197.929 17.1366 197.929 18.5355V32.8738H193.004V29.9362H192.863C192.582 30.5657 192.089 31.0553 191.597 31.6148C191.034 32.1044 190.33 32.5241 189.486 32.8738C188.712 33.0837 187.727 33.2235 186.601 33.2235ZM187.867 29.5165C188.923 29.5165 189.767 29.3067 190.541 28.8871C191.315 28.4674 191.878 27.9778 192.3 27.2784C192.722 26.5789 192.933 25.8795 192.933 25.1101V22.5922C192.793 22.732 192.511 22.8719 192.159 22.9419C191.808 23.0818 191.385 23.1517 190.893 23.2217C190.4 23.2916 189.978 23.3615 189.486 23.4315C188.993 23.5014 188.641 23.5714 188.29 23.5714C187.516 23.6413 186.882 23.8511 186.249 24.061C185.616 24.2708 185.194 24.6205 184.842 25.0402C184.49 25.4598 184.349 26.0194 184.349 26.6489C184.349 27.5581 184.701 28.2576 185.405 28.7472C185.968 29.2368 186.812 29.5165 187.867 29.5165Z" fill="white"/>
</g>
<defs>
<clipPath id="clip0_1_665">
<rect width="198" height="37" fill="white"/>
</clipPath>
</defs>
</svg>
