<svg width="647" height="853" viewBox="0 0 647 853" fill="none" xmlns="http://www.w3.org/2000/svg">
<path d="M164.588 0L561.868 398.067L637.541 322.244C642.838 316.937 642.838 308.596 637.541 303.289L338.635 3.79111C336.364 1.51644 332.959 0 329.175 0H164.588Z" fill="white" fill-opacity="0.04"/>
<path d="M-0.000209808 119.42V221.78L51.0787 170.6L-0.000209808 119.42Z" fill="white" fill-opacity="0.04"/>
<path opacity="0.2" d="M637.541 322.244C642.838 316.937 642.838 308.596 637.541 303.289L338.635 3.79111C336.364 1.51644 332.959 0 329.175 0H164.588L561.868 398.067L637.541 322.244Z" fill="white" fill-opacity="0.04"/>
<path opacity="0.2" d="M51.0792 170.6L0.000217438 119.42V221.78L51.0792 170.6Z" fill="white" fill-opacity="0.04"/>
<path opacity="0.2" d="M637.541 322.244C642.838 316.937 642.838 308.596 637.541 303.289L338.635 3.79111C336.364 1.51644 332.959 0 329.175 0H164.588L561.868 398.067L637.541 322.244Z" fill="white" fill-opacity="0.04"/>
<path d="M107.833 682.4L179.722 754.431C186.911 761.634 198.64 761.634 206.208 754.431L533.491 426.5L448.36 341.2L107.833 682.4Z" fill="white" fill-opacity="0.04"/>
<path d="M0.000244141 0V62.9324C1.13531 64.0698 2.27039 65.2071 3.40549 66.3444L334.851 398.067L419.983 312.767L123.346 15.5436C113.509 5.68667 99.888 0 85.5102 0H0.000244141V0Z" fill="white" fill-opacity="0.04"/>
<path opacity="0.2" d="M0.000217438 119.42V221.78L51.0792 170.6L0.000217438 119.42Z" fill="white" fill-opacity="0.04"/>
<path d="M0 631.22V801.82L35.566 837.456C45.4034 847.313 59.0245 853 73.024 853H312.906C326.905 853 340.526 847.313 350.364 837.456L647 540.233L561.868 454.933L230.423 787.035C209.613 807.886 175.939 807.886 155.129 787.035L0 631.22Z" fill="white" fill-opacity="0.04"/>
</svg>
