<svg width="60" height="60" viewBox="0 0 60 60" fill="none" xmlns="http://www.w3.org/2000/svg">
<circle cx="30" cy="30" r="30" fill="#E9EAF3"/>
<path d="M36.7196 45.2478H27.4149L15.7842 43.8447V33.6909L17.0026 32.5463C18.258 31.4017 19.8457 30.8109 21.5811 30.8847C23.1319 30.9586 24.5719 31.6232 25.6426 32.694H32.8057C34.7257 32.694 36.2765 34.2447 36.2765 36.1647C36.2765 36.7555 36.1288 37.2724 35.8703 37.7524H36.6826L38.898 30.4417C39.1934 29.334 40.1903 28.5586 41.3719 28.5586C42.7749 28.5586 43.9196 29.7032 43.9196 31.1063V37.974C43.9565 41.9986 40.7073 45.2478 36.7196 45.2478ZM17.6303 42.1832L27.5257 43.4017H36.7196C39.7103 43.4017 42.1103 40.9647 42.1103 38.0109V31.1432C42.1103 30.7371 41.778 30.4417 41.4088 30.4417C41.0765 30.4417 40.818 30.6632 40.7073 30.9586L38.0488 39.6355H25.2365V37.7894H32.8057C33.6919 37.7894 34.3934 37.0878 34.3934 36.2017C34.3934 35.3155 33.6549 34.5771 32.7688 34.5771H24.7934L24.5349 34.2447C23.7596 33.3586 22.6519 32.8047 21.4703 32.7678C20.2888 32.6571 19.1442 33.1001 18.258 33.9124L17.6303 34.5032V42.1832Z" fill="#3A3597"/>
<path d="M30.221 30.9972H30.1841C28.1164 30.9972 26.418 29.2987 26.418 27.231C26.418 25.1633 28.1164 23.4648 30.1841 23.4648C32.3257 23.4648 34.0241 25.1633 34.0241 27.231C34.0241 29.2987 32.3257 30.9972 30.221 30.9972ZM30.221 25.2741C29.0764 25.2741 28.2272 26.1233 28.2272 27.1941C28.2272 28.2648 29.0764 29.1141 30.1472 29.1141H30.221C31.2918 29.1141 32.141 28.2648 32.141 27.1941C32.141 26.1233 31.2918 25.2741 30.221 25.2741Z" fill="#3A3597"/>
<path d="M39.6368 23.9438H39.2306C36.6829 23.9438 34.6152 21.8762 34.6152 19.3285C34.6152 16.7808 36.6829 14.75 39.2306 14.75H39.6368C42.1845 14.75 44.2522 16.8177 44.2522 19.3654C44.2522 21.9131 42.1845 23.9438 39.6368 23.9438ZM39.2306 16.5962C37.7168 16.5962 36.4614 17.8146 36.4614 19.3654C36.4614 20.8792 37.6798 22.1346 39.2306 22.1346H39.6368C41.1506 22.1346 42.406 20.9162 42.406 19.3654C42.406 17.8515 41.1875 16.5962 39.6368 16.5962H39.2306Z" fill="#3A3597"/>
</svg>
