<svg width="20" height="20" viewBox="0 0 20 20" fill="none" xmlns="http://www.w3.org/2000/svg">
<g opacity="0.7">
<path d="M17.7131 9.1363C18.1081 9.65297 18.1081 10.3505 17.7131 10.8663C16.469 12.4905 13.484 15.8346 9.99895 15.8346C6.51395 15.8346 3.52895 12.4905 2.28478 10.8663C2.0926 10.6189 1.98828 10.3146 1.98828 10.0013C1.98828 9.68804 2.0926 9.38369 2.28478 9.1363C3.52895 7.51214 6.51395 4.16797 9.99895 4.16797C13.484 4.16797 16.469 7.51214 17.7131 9.1363V9.1363Z" stroke="white" stroke-width="2" stroke-linecap="round" stroke-linejoin="round"/>
<path d="M10 12.5C11.3807 12.5 12.5 11.3807 12.5 10C12.5 8.61929 11.3807 7.5 10 7.5C8.61929 7.5 7.5 8.61929 7.5 10C7.5 11.3807 8.61929 12.5 10 12.5Z" stroke="white" stroke-width="2" stroke-linecap="round" stroke-linejoin="round"/>
</g>
</svg>
