<svg width="18" height="17" viewBox="0 0 18 17" fill="none" xmlns="http://www.w3.org/2000/svg">
<path d="M16.101 16.3898H2.2864C1.82842 16.3898 1.38919 16.2142 1.06535 15.9016C0.741504 15.5891 0.55957 15.1651 0.55957 14.7231V5.59727C0.573923 5.3218 0.657809 5.0539 0.803927 4.81687C0.950044 4.57984 1.15397 4.38087 1.39795 4.23727L8.30526 0.237266C8.57354 0.0820084 8.88048 0 9.19329 0C9.5061 0 9.81303 0.0820084 10.0813 0.237266L16.9886 4.23727C17.5075 4.53977 17.8261 5.08143 17.8279 5.66643V14.7231C17.8279 15.1651 17.6459 15.5891 17.3221 15.9016C16.9982 16.2142 16.559 16.3898 16.101 16.3898ZM2.2864 6.27977V14.7231H16.101V6.27977L9.19372 10.7239L2.2864 6.27977ZM9.19372 1.66643L3.42265 5.0081L9.19372 8.72143L14.9639 5.0081L9.19372 1.66643V1.66643Z" fill="white"/>
</svg>
