<svg width="198" height="38" viewBox="0 0 198 38" fill="none" xmlns="http://www.w3.org/2000/svg">
<path d="M3.73098 17.276L0.423941 13.9887C0.212853 13.7788 0.212853 13.4291 0.423941 13.1493L13.5114 0.139887C13.5817 0.0699433 13.7224 0 13.8632 0H21.1105L3.73098 17.276Z" fill="white"/>
<path d="M9.92188 13.569L22.8686 0.699433C23.2907 0.279773 23.924 0 24.4869 0H34.9709C35.6042 0 36.1671 0.20983 36.5893 0.699433L49.5359 13.569L45.8067 17.276L31.4528 2.86767C30.5381 1.95841 29.0605 1.95841 28.1458 2.86767L13.6511 17.276L9.92188 13.569Z" fill="white"/>
<path d="M29.2015 4.26452L26.0352 7.41197L40.952 22.2399L44.6812 18.5329L30.3273 4.26452C30.0458 3.98474 29.5533 3.98474 29.2015 4.26452Z" fill="white"/>
<path d="M45.9459 19.7266L49.253 23.0139C49.4641 23.2237 49.4641 23.5734 49.253 23.8532L36.1656 36.8627C36.0248 37.0026 35.8841 37.0026 35.7434 37.0026H28.5664L45.9459 19.7266Z" fill="white"/>
<path d="M39.6844 23.4336L26.7377 36.3031C26.3156 36.7228 25.6823 37.0026 25.1194 37.0026H14.6354C14.0021 37.0026 13.4392 36.7927 13.0171 36.3031L0 23.4336L3.72921 19.7266L18.2239 34.1349C19.1386 35.0441 20.6162 35.0441 21.5309 34.1349L36.0256 19.7266L39.6844 23.4336Z" fill="white"/>
<path d="M20.4055 32.7336L23.5718 29.5862L8.65499 14.8281L4.92578 18.5351L19.2094 32.7336C19.5612 33.0134 20.1241 33.0134 20.4055 32.7336Z" fill="white"/>
<path d="M83.9438 13.8492H78.6666C78.5259 13.0099 78.2444 12.2405 77.8222 11.541C77.4001 10.8416 76.9075 10.2821 76.3446 9.86241C75.7114 9.37281 75.0781 9.02309 74.3041 8.81326C73.5301 8.60343 72.6858 8.46354 71.8414 8.46354C70.2934 8.46354 68.8862 8.8832 67.69 9.65258C66.4939 10.422 65.5088 11.541 64.8755 13.0798C64.1719 14.5486 63.8201 16.3671 63.8201 18.5354C63.8201 20.7036 64.1719 22.5921 64.8755 24.0609C65.5792 25.5297 66.4939 26.6488 67.69 27.4182C68.8862 28.1875 70.2934 28.5373 71.8414 28.5373C72.6858 28.5373 73.5301 28.3974 74.2337 28.1875C75.0077 27.9777 75.641 27.628 76.2743 27.2083C76.9075 26.7887 77.4001 26.2291 77.8222 25.5297C78.2444 24.9002 78.5259 24.1308 78.6666 23.2915H83.9438C83.7327 24.6204 83.3105 25.9494 82.6772 27.1384C82.044 28.3274 81.1996 29.3766 80.1442 30.2858C79.0888 31.1951 77.8926 31.8945 76.4853 32.3841C75.0781 32.8737 73.5301 33.1535 71.7711 33.1535C69.238 33.1535 66.9864 32.594 65.0163 31.4049C63.0461 30.2159 61.4981 28.5373 60.302 26.369C59.1762 24.2008 58.6133 21.5429 58.6133 18.4654C58.6133 15.3879 59.1762 12.7301 60.3723 10.5618C61.4981 8.3936 63.1165 6.71496 65.0866 5.52593C67.0568 4.33689 69.3084 3.77734 71.8414 3.77734C73.4598 3.77734 74.9374 3.98717 76.3446 4.47678C77.7519 4.89644 78.948 5.59587 80.0035 6.43519C81.0589 7.27451 81.9736 8.32366 82.6772 9.58264C83.2401 10.8416 83.7327 12.2405 83.9438 13.8492Z" fill="white"/>
<path d="M91.8247 4.19531L98.1573 14.6868H98.3684L104.771 4.19531H110.752L101.886 18.5337L110.893 32.8721H104.842L98.3684 22.3806H98.1573L91.7543 32.8021H85.7031L94.7799 18.4637L85.8438 4.19531H91.8247Z" fill="white"/>
<path d="M138.687 18.4654C138.687 21.5429 138.124 24.2008 136.928 26.369C135.802 28.5373 134.184 30.2159 132.213 31.4049C130.243 32.594 127.992 33.1535 125.459 33.1535C122.926 33.1535 120.674 32.594 118.704 31.4049C116.734 30.2159 115.115 28.5373 113.99 26.369C112.864 24.2008 112.23 21.5429 112.23 18.4654C112.23 15.3879 112.793 12.7301 113.99 10.5618C115.115 8.3936 116.734 6.71496 118.704 5.52593C120.674 4.33689 122.926 3.77734 125.459 3.77734C127.992 3.77734 130.243 4.33689 132.213 5.52593C134.184 6.71496 135.802 8.3936 136.928 10.5618C138.054 12.7301 138.687 15.3879 138.687 18.4654ZM133.41 18.4654C133.41 16.2972 133.058 14.4787 132.424 12.9399C131.791 11.4012 130.806 10.2821 129.61 9.51269C128.414 8.74332 127.007 8.3936 125.459 8.3936C123.911 8.3936 122.503 8.74332 121.307 9.51269C120.111 10.2821 119.196 11.4012 118.493 12.9399C117.789 14.4087 117.508 16.2972 117.508 18.4654C117.508 20.6337 117.859 22.4522 118.493 23.991C119.196 25.4598 120.111 26.6488 121.307 27.4182C122.503 28.1875 123.911 28.5373 125.459 28.5373C127.007 28.5373 128.414 28.1875 129.61 27.4182C130.806 26.6488 131.721 25.5297 132.424 23.991C133.058 22.4522 133.41 20.6337 133.41 18.4654Z" fill="white"/>
<path d="M142.836 32.8021V4.19531H161.552V8.5318H148.043V16.2955H160.567V20.632H148.043V28.4656H161.693V32.8021H142.836Z" fill="white"/>
<path d="M165.844 32.8031V11.3306H170.769V14.8977H170.98C171.402 13.6387 172.036 12.7294 173.021 12.03C174.006 11.3306 175.061 11.0508 176.328 11.0508C176.609 11.0508 176.891 11.0508 177.242 11.0508C177.594 11.0508 177.876 11.1207 178.087 11.1907V15.8769C177.876 15.8069 177.524 15.737 177.102 15.667C176.609 15.5971 176.187 15.5971 175.765 15.5971C174.85 15.5971 174.006 15.8069 173.302 16.1566C172.599 16.5763 171.965 17.0659 171.543 17.7653C171.121 18.4648 170.91 19.3041 170.91 20.2134V32.8031H165.844Z" fill="white"/>
<path d="M186.603 33.2235C185.266 33.2235 183.999 33.0137 182.944 32.5241C181.818 32.0345 180.974 31.3351 180.34 30.3559C179.707 29.3767 179.426 28.1876 179.426 26.7888C179.426 25.5997 179.637 24.5506 180.129 23.7812C180.552 23.0118 181.185 22.3823 181.959 21.8927C182.733 21.4031 183.648 21.0534 184.562 20.8436C185.547 20.5638 186.532 20.4239 187.588 20.284C188.854 20.1441 189.91 20.0043 190.684 19.9343C191.458 19.7944 192.021 19.6545 192.372 19.4447C192.724 19.2349 192.935 18.8852 192.935 18.3956V18.3256C192.935 17.2765 192.654 16.4372 192.021 15.8776C191.387 15.3181 190.473 15.0383 189.277 15.0383C188.01 15.0383 187.025 15.3181 186.321 15.8776C185.618 16.4372 185.125 17.0666 184.844 17.7661L180.059 17.0666C180.411 15.7377 181.044 14.6886 181.888 13.7793C182.733 12.87 183.788 12.2406 185.055 11.8209C186.321 11.4012 187.658 11.1914 189.206 11.1914C190.262 11.1914 191.317 11.3313 192.302 11.5411C193.358 11.751 194.272 12.1706 195.117 12.7302C195.961 13.2897 196.665 14.0591 197.157 14.9683C197.65 15.9475 197.931 17.1366 197.931 18.5355V32.8738H193.006V29.9362H192.865C192.584 30.5657 192.091 31.0553 191.598 31.6148C191.036 32.1044 190.332 32.5241 189.488 32.8738C188.714 33.0837 187.729 33.2235 186.603 33.2235ZM187.869 29.5165C188.925 29.5165 189.769 29.3067 190.543 28.8871C191.317 28.4674 191.88 27.9778 192.302 27.2784C192.724 26.5789 192.935 25.8795 192.935 25.1101V22.5922C192.795 22.732 192.513 22.8719 192.161 22.9419C191.81 23.0818 191.387 23.1517 190.895 23.2217C190.402 23.2916 189.98 23.3615 189.488 23.4315C188.995 23.5014 188.643 23.5714 188.291 23.5714C187.517 23.6413 186.884 23.8511 186.251 24.061C185.618 24.2708 185.196 24.6205 184.844 25.0402C184.492 25.4598 184.351 26.0194 184.351 26.6489C184.351 27.5581 184.703 28.2576 185.407 28.7472C185.969 29.2368 186.814 29.5165 187.869 29.5165Z" fill="white"/>
</svg>
