<svg width="50" height="50" viewBox="0 0 50 50" fill="none" xmlns="http://www.w3.org/2000/svg">
<circle cx="25" cy="25" r="25" fill="white" fill-opacity="0.05"/>
<path d="M24.9999 35.8695C24.4232 35.8667 23.8707 35.6371 23.4619 35.2303C23.0531 34.8235 22.8208 34.2723 22.8151 33.6956H27.1629C27.1652 33.9862 27.1098 34.2744 26.9999 34.5434C26.8593 34.866 26.6441 35.1505 26.3719 35.3735C26.0998 35.5965 25.7785 35.7516 25.4346 35.826H25.3835C25.2573 35.8523 25.1288 35.8669 24.9999 35.8695ZM33.6955 32.6086H16.3042V30.4347L18.4781 29.3478V23.3695C18.4208 21.8359 18.7672 20.3142 19.4825 18.9565C19.8345 18.3339 20.3145 17.7931 20.8908 17.3697C21.4671 16.9462 22.1267 16.6498 22.8259 16.4999V14.1304H27.1738V16.4999C29.977 17.1673 31.5216 19.6065 31.5216 23.3695V29.3478L33.6955 30.4347V32.6086Z" fill="white"/>
</svg>
