<svg width="17" height="16" viewBox="0 0 17 16" fill="none" xmlns="http://www.w3.org/2000/svg">
<path d="M16.0424 2.47461L13.8872 0.396484C13.6241 0.142578 13.272 0 12.8997 0C12.5273 0 12.1752 0.140625 11.9121 0.396484L9.59103 2.63281C9.32795 2.88672 9.18023 3.22852 9.18023 3.58789C9.18023 3.94922 9.32593 4.28711 9.59103 4.54297L11.4042 6.29492C10.9911 7.2238 10.3977 8.06777 9.65578 8.78125C8.91311 9.50195 8.04497 10.0703 7.08173 10.4727L5.26855 8.7207C5.00548 8.4668 4.65337 8.32422 4.28102 8.32422C4.09736 8.32356 3.91542 8.35829 3.74585 8.42638C3.57627 8.49446 3.42248 8.59452 3.29349 8.7207L0.970367 10.957C0.707295 11.2109 0.55957 11.5527 0.55957 11.9121C0.55957 12.2734 0.705272 12.6113 0.970367 12.8672L3.12351 14.9453C3.57275 15.3789 4.19198 15.627 4.8274 15.627C4.95894 15.627 5.08643 15.6172 5.21594 15.5957C7.89522 15.1699 10.5543 13.793 12.7013 11.7227C14.8464 9.64844 16.271 7.08203 16.7162 4.49414C16.8437 3.75977 16.5887 3.00391 16.0424 2.47461ZM15.2815 4.26172C14.8869 6.56445 13.6039 8.86133 11.6713 10.7266C9.73875 12.5918 7.36099 13.8301 4.97513 14.2109C4.67563 14.2598 4.36804 14.1621 4.14949 13.9531L2.0348 11.9121L4.27698 9.74609L6.70128 12.0898L6.7195 12.1074L7.1566 11.9512C8.48193 11.4809 9.68546 10.738 10.6838 9.77418C11.6821 8.81032 12.4513 7.64846 12.9381 6.36914L13.1 5.94727L10.6555 3.58984L12.8976 1.42383L15.0123 3.46484C15.2309 3.67578 15.3321 3.97266 15.2815 4.26172Z" fill="white"/>
</svg>
