<svg width="60" height="60" viewBox="0 0 60 60" fill="none" xmlns="http://www.w3.org/2000/svg">
<circle cx="30" cy="30" r="30" fill="#E9EAF3"/>
<path d="M15.1934 35.6124H26.0118V42.8862H22.3195V44.7324H37.3103V42.8862H33.7287V35.6124H44.8057V15.3047H15.1934V35.6124ZM31.8826 42.8493H27.858V35.6124H31.8457V42.8493H31.8826ZM17.0395 17.1508H42.9226V33.7662H17.0395V17.1508Z" fill="#3A3597"/>
<path d="M38.2335 18.9219C36.7196 18.9219 35.4642 20.1773 35.4642 21.6911C35.4642 22.0973 35.5381 22.4665 35.6858 22.7988L31.8089 26.9711C31.3289 26.528 30.6642 26.2326 29.9627 26.2326C29.1135 26.2326 28.3381 26.6388 27.8212 27.2665L24.2027 25.7526C24.2027 25.6419 24.2396 25.4942 24.2396 25.3834C24.2396 23.8696 22.9842 22.6142 21.4704 22.6142C19.9566 22.6142 18.7012 23.8326 18.7012 25.3834C18.7012 26.9342 19.9566 28.1526 21.4704 28.1526C22.2089 28.1526 22.8735 27.8573 23.3535 27.4142L27.1935 29.0388C27.1935 30.5526 28.4489 31.808 29.9627 31.808C31.4766 31.808 32.7319 30.5526 32.7319 29.0388C32.7319 28.928 32.7319 28.8542 32.695 28.7434L36.9781 24.165C37.3473 24.3126 37.7904 24.4603 38.2335 24.4603C39.7473 24.4603 41.0027 23.205 41.0027 21.6911C41.0027 20.1773 39.7842 18.9219 38.2335 18.9219ZM21.4704 26.3065C20.9535 26.3065 20.5473 25.9003 20.5473 25.3834C20.5473 24.8665 20.9535 24.4603 21.4704 24.4603C21.9873 24.4603 22.3935 24.8665 22.3935 25.3834C22.3935 25.8634 21.9873 26.3065 21.4704 26.3065ZM29.9627 29.925C29.4458 29.925 29.0396 29.5188 29.0396 29.0019C29.0396 28.485 29.4458 28.0788 29.9627 28.0788C30.4796 28.0788 30.8858 28.485 30.8858 29.0019C30.8858 29.5188 30.4427 29.925 29.9627 29.925ZM38.2335 22.6142C37.7166 22.6142 37.3104 22.208 37.3104 21.6911C37.3104 21.1742 37.7166 20.768 38.2335 20.768C38.7504 20.768 39.1566 21.1742 39.1566 21.6911C39.1566 22.1711 38.7504 22.6142 38.2335 22.6142Z" fill="#3A3597"/>
</svg>
