<svg width="60" height="60" viewBox="0 0 60 60" fill="none" xmlns="http://www.w3.org/2000/svg">
<circle cx="30" cy="30" r="30" fill="#E9EAF3"/>
<path d="M29.9997 44.9159C21.8397 44.9159 15.2305 38.3066 15.2305 30.1466V29.8513C15.2305 21.6913 21.8397 15.082 29.9997 15.082C38.1597 15.082 44.7689 21.6913 44.7689 29.8513V30.1466C44.7689 38.2697 38.1597 44.9159 29.9997 44.9159ZM29.9997 16.9282C22.8735 16.9282 17.0766 22.7251 17.0766 29.8513V30.1466C17.0766 37.2728 22.8735 43.0697 29.9997 43.0697C37.1259 43.0697 42.9228 37.2728 42.9228 30.1466V29.8513C42.9228 22.7251 37.1259 16.9282 29.9997 16.9282Z" fill="#3A3597"/>
<path d="M30.9223 20.3984H29.0762V39.1184H30.9223V20.3984Z" fill="#3A3597"/>
<path d="M31.4023 37.2728H26.3808V35.4266H31.4023C32.6946 35.4266 33.7284 34.3928 33.7284 33.1005C33.7284 31.8082 32.6946 30.7743 31.4023 30.7743H28.5961C26.3069 30.7743 24.4238 28.8912 24.4238 26.602C24.4238 24.3128 26.3069 22.4297 28.5961 22.4297H33.5438V24.2758H28.5961C27.3038 24.2758 26.27 25.3097 26.27 26.602C26.27 27.8943 27.3038 28.9281 28.5961 28.9281H31.4023C33.6915 28.9281 35.5746 30.8112 35.5746 33.1005C35.5746 35.3897 33.6915 37.2728 31.4023 37.2728Z" fill="#3A3597"/>
</svg>
