<svg width="80" height="80" viewBox="0 0 80 80" fill="none" xmlns="http://www.w3.org/2000/svg">
<circle cx="40" cy="40" r="40" fill="#E9EAF3"/>
<path d="M53.3402 29.2484L47.1832 22.1992H26.6602V57.8023H53.2955V29.2484H53.3402ZM51.1094 30.0961H46.1571V24.43L51.1094 30.0961ZM51.1094 55.5715H28.8909V24.43H43.8817V32.3715H51.0648V55.5715H51.1094Z" fill="#3A3597"/>
<path d="M40.0005 28.5781H31.2559V30.8089H40.0005V28.5781Z" fill="#3A3597"/>
<path d="M39.5098 36.4768L37.7698 35.0938L33.6652 40.1799L32.7283 38.9753L30.9883 40.3584L33.6652 43.7491L39.5098 36.4768Z" fill="#3A3597"/>
<path d="M34.0666 49.6838L33.1296 48.4792L31.3896 49.8623L34.0666 53.2977L39.8666 45.9807L38.1266 44.5977L34.0666 49.6838Z" fill="#3A3597"/>
<path d="M48.8785 37.7695H42.2754V40.0003H48.8785V37.7695Z" fill="#3A3597"/>
<path d="M48.8785 42.4531H42.2754V44.6839H48.8785V42.4531Z" fill="#3A3597"/>
<path d="M48.8785 46.918H42.2754V49.1487H48.8785V46.918Z" fill="#3A3597"/>
</svg>
