<svg width="24" height="24" viewBox="0 0 24 24" fill="none" xmlns="http://www.w3.org/2000/svg">
<path d="M19.6867 7.67286L21.9375 5.42209L18.5759 2.06055L16.2375 4.39901C15.6236 4.10671 15.0098 3.87286 14.3667 3.69748V0.335938H9.63132V3.87286C9.04671 4.04824 8.49132 4.31132 7.96517 4.60363L5.42209 2.06055L2.06055 5.42209L4.69132 8.05286C4.39901 8.54978 4.1944 9.07594 4.04824 9.63132H0.335938V14.3959H4.04824C4.1944 14.9221 4.39901 15.4482 4.69132 15.9452L2.06055 18.5759L5.42209 21.9375L7.96517 19.3944C8.49132 19.6867 9.04671 19.9205 9.63132 20.1252V23.6621H14.3959V20.3006C15.0098 20.1252 15.6236 19.8913 16.2375 19.599L18.5759 21.9375L21.9375 18.5759L19.6867 16.3252C20.0375 15.7113 20.3298 15.0682 20.5052 14.3959H23.6621V9.63132H20.5052C20.3298 8.92978 20.0375 8.28671 19.6867 7.67286ZM22.2006 12.9052H19.3359L19.219 13.4898C19.0436 14.3959 18.6636 15.2436 18.1375 16.0036L17.8159 16.5006L19.8913 18.5759L18.5759 19.8621L16.4713 17.7575L15.9744 18.0498C15.2144 18.5175 14.3667 18.839 13.519 18.9852L12.9052 19.1021V22.2298H11.0929V19.0144L10.5375 18.8682C9.68978 18.6636 8.92978 18.3129 8.25747 17.8744L7.76055 17.5236L5.42209 19.8621L4.13594 18.5759L6.53286 16.179L6.24055 15.6821C5.80209 14.9806 5.50978 14.2206 5.3344 13.4898L5.21747 12.9052H1.79748V11.0929H5.21747L5.3344 10.5082C5.48055 9.77747 5.80209 9.01747 6.24055 8.31594L6.53286 7.81901L4.13594 5.42209L5.42209 4.13594L7.76055 6.4744L8.25747 6.12363C8.92978 5.68517 9.68978 5.3344 10.5375 5.12978L11.0929 4.98363V1.76825H12.9344V4.89594L13.5482 5.01286C14.3959 5.15901 15.2144 5.48055 16.0036 5.94824L16.5006 6.24055L18.6052 4.10671L19.8913 5.39286L17.8159 7.49748L18.1375 7.9944C18.6636 8.7544 19.0144 9.60209 19.219 10.5082L19.3359 11.0929H22.2006V12.9052Z" fill="white"/>
<path d="M12.205 6.76562C9.31112 6.76562 6.97266 9.10409 6.97266 11.9979C6.97266 14.8918 9.31112 17.2302 12.205 17.2302C15.0988 17.2302 17.4373 14.8918 17.4373 11.9979C17.4373 9.10409 15.0988 6.76562 12.205 6.76562ZM12.205 15.7687C10.1296 15.7687 8.43419 14.0733 8.43419 11.9979C8.43419 9.92255 10.1296 8.22716 12.205 8.22716C14.2803 8.22716 15.9757 9.92255 15.9757 11.9979C15.9757 14.0733 14.2803 15.7687 12.205 15.7687Z" fill="white"/>
</svg>
