<svg width="20" height="20" viewBox="0 0 20 20" fill="none" xmlns="http://www.w3.org/2000/svg">
<path d="M0.253906 0.230469V19.8735H14.9493V4.1197L11.5524 0.230469H0.253906ZM13.7185 18.6674H1.48468V1.46124H9.75544V5.84278H13.7185V18.6674ZM13.7185 4.61201H10.9862V1.46124L13.7185 4.61201Z" fill="white"/>
<path d="M16.1094 2.00085V15.4655L17.9309 19.7978L19.7032 15.7116L19.7525 2.00085C19.7525 0.967007 18.9401 0.105469 17.9309 0.105469C16.9217 0.105469 16.1094 0.967007 16.1094 2.00085ZM18.5217 13.5209H17.3401V5.49624H18.5217V13.5209ZM18.5217 15.3424L17.9309 16.7209L17.3401 15.3424V14.7516H18.5217V15.3424ZM18.5217 2.00085V4.26547H17.3401V2.00085C17.3401 1.63162 17.6109 1.33624 17.9309 1.33624C18.2509 1.33624 18.5217 1.65624 18.5217 2.00085Z" fill="white"/>
<path d="M2.59375 17.2367H12.5876V9.1875H2.59375V17.2367ZM11.3568 16.006H3.82452V11.0829L7.59067 13.9875L11.3814 11.2552V16.006H11.3568ZM10.4214 10.4183L7.61529 12.4367L4.98144 10.4183H10.4214Z" fill="white"/>
<path d="M6.16335 2.9375H2.66797V4.16827H6.16335V2.9375Z" fill="white"/>
<path d="M8.57566 5.17578H2.66797V6.40655H8.57566V5.17578Z" fill="white"/>
</svg>
