<svg width="21" height="21" viewBox="0 0 21 21" fill="none" xmlns="http://www.w3.org/2000/svg">
<path d="M15.75 0C14.0421 0 12.5381 0.833327 11.5787 2.1H2.1C0.93975 2.1 0 3.03975 0 4.2V18.9C0 19.0869 0.0327797 19.2641 0.0779297 19.4373L11.1829 8.33232C11.468 9.02678 11.7978 9.68594 12.1201 10.3011C12.1279 10.3159 12.1329 10.3293 12.1406 10.3441L10.9348 11.55L18.8221 19.4373C18.8672 19.2641 18.9 19.0869 18.9 18.9V11.1932C19.0663 10.8393 19.2449 10.4796 19.4353 10.1083C20.1692 8.67505 21 7.0497 21 5.25C21 2.35515 18.6448 0 15.75 0ZM15.7213 2.13076C17.4611 2.13076 18.8713 3.54091 18.8713 5.28076C18.8702 7.90156 16.1458 10.5316 16.1458 13.2973C16.1458 13.5136 15.9355 13.6746 15.7192 13.6746C15.5029 13.6746 15.3255 13.4828 15.3255 13.2665C15.3255 10.5008 12.5713 8.14306 12.5713 5.28076C12.5713 3.54091 13.9814 2.13076 15.7213 2.13076ZM5.25205 4.2C6.06895 4.2 6.81186 4.51001 7.37256 5.02031L6.48662 5.9083C6.15377 5.62375 5.7235 5.44893 5.25205 5.44893C4.20205 5.44893 3.35098 6.3 3.35098 7.35C3.35098 8.39895 4.20205 9.25107 5.25205 9.25107C6.133 9.25107 6.74285 8.7278 6.9665 7.99805H5.25205V6.79629L8.21953 6.80039C8.47783 8.02784 7.89595 10.5 5.25205 10.5C3.51115 10.5 2.1 9.08985 2.1 7.35C2.1 5.61015 3.51115 4.2 5.25205 4.2ZM15.75 4.2C15.4715 4.2 15.2044 4.31062 15.0075 4.50754C14.8106 4.70445 14.7 4.97152 14.7 5.25C14.7 5.52848 14.8106 5.79555 15.0075 5.99246C15.2044 6.18937 15.4715 6.3 15.75 6.3C16.0285 6.3 16.2955 6.18937 16.4925 5.99246C16.6894 5.79555 16.8 5.52848 16.8 5.25C16.8 4.97152 16.6894 4.70445 16.4925 4.50754C16.2955 4.31062 16.0285 4.2 15.75 4.2ZM9.45 13.0348L1.5627 20.9221C1.73595 20.9672 1.9131 21 2.1 21H16.8C16.9869 21 17.1641 20.9672 17.3373 20.9221L9.45 13.0348Z" fill="#242424"/>
</svg>
