<svg width="60" height="60" viewBox="0 0 60 60" fill="none" xmlns="http://www.w3.org/2000/svg">
<circle cx="30" cy="30" r="30" fill="#E9EAF3"/>
<path d="M21.4343 41.5197L23.8343 44.7689L27.4897 37.1259C28.1912 37.5689 29.0035 37.8643 29.8897 37.8643C30.5912 37.8643 31.2928 37.6797 31.8835 37.3843L36.0558 44.8059L38.2343 41.7782L42.2589 41.7043L37.9758 33.9505C38.7143 33.4705 39.3051 32.9166 39.7112 32.2151C40.4866 30.8489 40.5235 29.2243 39.7851 27.8212C39.3789 27.0459 39.3789 26.0859 39.7851 25.3105C40.5235 23.9443 40.4866 22.2828 39.7112 20.9166C38.9358 19.5505 37.5328 18.7012 35.9451 18.6643C35.0589 18.5905 34.2466 18.1474 33.7666 17.372C32.9543 16.0428 31.5143 15.2305 29.9635 15.2305C28.3758 15.2305 26.9728 16.0059 26.1235 17.3351C25.6435 18.0735 24.8312 18.5535 23.9451 18.5905C22.3574 18.6643 20.9543 19.5135 20.142 20.8797C19.3666 22.2459 19.3297 23.8705 20.0682 25.2735C20.4743 26.0489 20.4743 27.0089 20.0682 27.7843C19.3297 29.1874 19.3666 30.812 20.142 32.1782C20.4743 32.732 20.9174 33.212 21.4343 33.5812L17.7051 41.5197H21.4343ZM39.1943 39.8582L37.3112 39.8951L36.2774 41.3351L33.3605 36.1659C33.4712 36.0182 33.6189 35.8705 33.7297 35.7228C34.2097 34.9843 35.022 34.5043 35.9082 34.4674C36.0189 34.4674 36.0928 34.4305 36.1666 34.4305L39.1943 39.8582ZM21.6928 28.6335C22.3943 27.3043 22.3943 25.7166 21.6928 24.3874C21.2497 23.5751 21.2866 22.6151 21.7297 21.8028C22.2097 20.9905 23.022 20.5105 23.9451 20.4735C25.4589 20.4366 26.8251 19.6243 27.6374 18.3689C28.1543 17.5566 29.0035 17.0766 29.9266 17.0766C30.8866 17.0766 31.7358 17.5566 32.2158 18.3689C33.0282 19.6612 34.3943 20.4366 35.9082 20.5105C36.8312 20.5474 37.6805 21.0643 38.1235 21.8397C38.6035 22.652 38.6035 23.612 38.1605 24.4243C37.4589 25.7535 37.4589 27.3412 38.1605 28.6705C38.6035 29.4828 38.5666 30.4797 38.1235 31.2551C37.6435 32.1043 36.7943 32.5843 35.8712 32.6212C34.3574 32.6582 32.9912 33.4705 32.1789 34.7259C31.6989 35.5382 30.8497 35.9812 29.9266 35.9812C29.0035 35.9812 28.1543 35.5012 27.6743 34.7259C26.862 33.4335 25.4958 32.6582 23.982 32.5843C23.0589 32.5474 22.2097 32.0674 21.7666 31.2551C21.2497 30.4428 21.2497 29.4828 21.6928 28.6335ZM23.0958 34.3197C23.3543 34.3566 23.6128 34.4305 23.9082 34.4305C24.7943 34.4674 25.6066 34.9474 26.0866 35.6859L26.1235 35.7228L23.502 41.1874L22.3574 39.6735H20.5851L23.0958 34.3197Z" fill="#3A3597"/>
<path d="M29.0038 25.2354V30.3308H30.8499V21.9492L27.2314 24.2015L28.1914 25.7523L29.0038 25.2354Z" fill="#3A3597"/>
</svg>
