<svg width="14" height="14" viewBox="0 0 14 14" fill="none" xmlns="http://www.w3.org/2000/svg">
<g clip-path="url(#clip0_53_8297)">
<path d="M5.75098 10.4982C5.671 10.498 5.59192 10.4813 5.51867 10.4492C5.44541 10.4171 5.37954 10.3702 5.32515 10.3116L2.49015 7.29574C2.38417 7.1828 2.3274 7.03239 2.33233 6.87759C2.33725 6.7228 2.40346 6.5763 2.5164 6.47032C2.62934 6.36435 2.77975 6.30757 2.93455 6.3125C3.08934 6.31742 3.23584 6.38363 3.34182 6.49657L5.74515 9.0574L10.651 3.69074C10.7008 3.62874 10.7627 3.57758 10.833 3.54039C10.9033 3.5032 10.9804 3.48078 11.0597 3.47448C11.1389 3.46819 11.2186 3.47817 11.2939 3.50381C11.3692 3.52945 11.4384 3.5702 11.4973 3.62357C11.5563 3.67693 11.6037 3.74178 11.6366 3.81414C11.6696 3.88649 11.6874 3.96482 11.689 4.04432C11.6906 4.12381 11.6759 4.2028 11.6459 4.27641C11.6159 4.35003 11.5711 4.41672 11.5143 4.47241L6.18265 10.3057C6.12878 10.3654 6.06313 10.4134 5.98985 10.4465C5.91657 10.4796 5.83723 10.4972 5.75682 10.4982H5.75098Z" fill="white"/>
<circle cx="7" cy="7" r="7" fill="white" fill-opacity="0.05"/>
</g>
<defs>
<clipPath id="clip0_53_8297">
<rect width="14" height="14" fill="white"/>
</clipPath>
</defs>
</svg>
