<svg width="20" height="20" viewBox="0 0 20 20" fill="none" xmlns="http://www.w3.org/2000/svg">
<path d="M16.668 18.3351H3.33464C2.89261 18.3351 2.46868 18.1595 2.15612 17.8469C1.84356 17.5344 1.66797 17.1104 1.66797 16.6684V7.54258C1.68182 7.26712 1.76278 6.99921 1.90381 6.76218C2.04484 6.52515 2.24166 6.32618 2.47714 6.18258L9.1438 2.18258C9.40273 2.02732 9.69897 1.94531 10.0009 1.94531C10.3028 1.94531 10.599 2.02732 10.858 2.18258L17.5246 6.18258C18.0255 6.48508 18.333 7.02675 18.3346 7.61175V16.6684C18.3346 17.1104 18.159 17.5344 17.8465 17.8469C17.5339 18.1595 17.11 18.3351 16.668 18.3351ZM3.33464 8.22508V16.6684H16.668V8.22508L10.0013 12.6692L3.33464 8.22508ZM10.0013 3.61175L4.4313 6.95341L10.0013 10.6667L15.5705 6.95341L10.0013 3.61175Z" fill="white"/>
</svg>
