<svg width="38" height="38" viewBox="0 0 38 38" fill="none" xmlns="http://www.w3.org/2000/svg">
<path d="M7.22021 29.2311H30.7802V8.76953H7.22021V29.2311ZM13.4756 25.8695C13.4756 23.0049 15.8141 20.6665 18.6787 20.6665C21.5433 20.6665 23.8818 23.0049 23.8818 25.8695C23.8818 26.5418 23.7356 27.1849 23.4725 27.7695H21.8064C22.1571 27.2141 22.3618 26.5418 22.3618 25.8695C22.3618 23.8526 20.7248 22.2157 18.7079 22.2157C16.691 22.2157 15.0541 23.8526 15.0541 25.8695C15.0541 26.5418 15.2587 27.2141 15.6094 27.7695H13.8848C13.651 27.1557 13.4756 26.5126 13.4756 25.8695ZM16.5156 25.8695C16.5156 24.6711 17.5094 23.6772 18.7079 23.6772C19.9064 23.6772 20.9002 24.6711 20.9002 25.8695C20.9002 26.6588 20.491 27.3603 19.8187 27.7695H19.8479H17.6556C16.9541 27.3895 16.5156 26.6588 16.5156 25.8695ZM25.0802 27.7695C25.1971 27.3895 25.2848 26.9803 25.3141 26.6003H27.7694V25.1388H25.3141C25.1679 23.8526 24.671 22.6834 23.8818 21.7188L25.6356 19.9649L24.6125 18.9126L22.8587 20.6665C21.8941 19.9065 20.7248 19.4095 19.4387 19.2634V16.7495H17.9771V19.2341C16.691 19.4095 15.5218 19.9065 14.5571 20.6665L12.8033 18.9126L11.751 19.9357L13.5048 21.6895C12.7448 22.6834 12.2479 23.8526 12.1018 25.1388H9.58791V26.6003H12.0433C12.0725 27.0095 12.1894 27.3895 12.2771 27.7695H8.68175V15.9603H29.3187V27.7695H25.0802ZM29.3187 14.4988H8.68175V10.2311H29.3187V14.4988Z" fill="#3A3597"/>
<path d="M27.8863 11.5156H26.3955V12.9772H27.8863V11.5156Z" fill="#3A3597"/>
<path d="M24.9634 11.5156H23.4727V12.9772H24.9634V11.5156Z" fill="#3A3597"/>
</svg>
