<svg width="42" height="42" viewBox="0 0 42 42" fill="none" xmlns="http://www.w3.org/2000/svg">
<path d="M33.7617 20.1598L32.3079 17.4782C31.9202 16.6059 31.0479 16.0567 30.111 16.0567H13.9894L9.46634 14.2475C9.11096 14.1182 8.75557 14.1505 8.4648 14.3767C8.14172 14.6352 7.98019 14.9905 8.0448 15.4105L9.14326 22.6475C9.20788 23.1967 9.69249 23.6167 10.2417 23.6167H16.4125L14.7325 26.8152L15.1525 27.849H18.6417L23.811 23.6167H31.5325C32.3402 23.6167 33.0833 23.1967 33.5356 22.5182C34.0202 21.8075 34.0848 20.9352 33.7617 20.1598ZM32.211 21.6136C32.0494 21.8398 31.8233 21.969 31.5648 21.969H23.2617L18.0925 26.2013H16.8648L19.0294 21.969H10.6617L9.78942 16.1213L13.5048 17.6075L30.0786 17.6721C30.4017 17.6721 30.6602 17.8659 30.8217 18.2213L32.2433 20.8705C32.3725 21.0967 32.3725 21.3875 32.211 21.6136Z" fill="#3A3597"/>
<path d="M17.7692 18.9961H16.1538V20.6115H17.7692V18.9961Z" fill="#3A3597"/>
<path d="M21.0002 18.9961H19.3848V20.6115H21.0002V18.9961Z" fill="#3A3597"/>
<path d="M24.005 18.9961H22.3896V20.6115H24.005V18.9961Z" fill="#3A3597"/>
<path d="M27.0094 18.9961H25.394V20.6115H27.0094V18.9961Z" fill="#3A3597"/>
</svg>
