<svg width="38" height="38" viewBox="0 0 38 38" fill="none" xmlns="http://www.w3.org/2000/svg">
<path d="M18.7954 18.5335C15.4046 18.5335 12.7446 16.0489 12.7446 12.9796C12.7446 9.9104 15.4046 7.42578 18.6492 7.42578H18.7954C22.0692 7.42578 24.7 9.9104 24.7 12.9796C24.7 16.0489 22.0692 18.5335 18.7954 18.5335ZM18.6492 8.88732C16.1939 8.88732 14.2062 10.7289 14.2062 12.9796C14.2062 15.2304 16.1939 17.0719 18.6492 17.0719C21.2508 17.0719 23.2385 15.2304 23.2385 12.9796C23.2385 10.7289 21.2508 8.88732 18.7954 8.88732H18.6492Z" fill="#3A3597"/>
<path d="M27.8278 30.5183H26.3662V23.3568C26.3662 22.5676 25.6647 21.9537 24.817 21.9537H13.2124C12.3354 21.9537 11.6339 22.5968 11.6339 23.3568V30.5183H10.1724V23.3568C10.1724 21.7783 11.517 20.4922 13.2124 20.4922H24.7877C26.4539 20.4922 27.7985 21.7783 27.7985 23.3568V30.5183H27.8278Z" fill="#3A3597"/>
<path d="M22.3033 30.5774H15.8726L18.2987 25.9004L16.9541 23.3281H21.2218L19.9064 25.9004L22.3033 30.5774ZM18.2403 29.1158H19.9064L19.0879 27.5081L18.2403 29.1158Z" fill="#3A3597"/>
</svg>
