<svg width="38" height="38" viewBox="0 0 38 38" fill="none" xmlns="http://www.w3.org/2000/svg">
<path d="M9.52929 30.664H28.4416C29.6401 30.664 30.6339 29.6702 30.6339 28.4717V9.5302C30.6339 8.33174 29.6401 7.33789 28.4416 7.33789H9.55852C8.36006 7.33789 7.36621 8.33174 7.36621 9.5302V28.501C7.36621 29.6994 8.33083 30.664 9.52929 30.664ZM8.82775 9.5302C8.82775 9.12097 9.14929 8.79943 9.55852 8.79943H28.4708C28.8801 8.79943 29.2016 9.12097 29.2016 9.5302V28.501C29.2016 28.9102 28.8801 29.2317 28.4708 29.2317H9.52929C9.12006 29.2317 8.79852 28.9102 8.79852 28.501V9.5302H8.82775Z" fill="#3A3597"/>
<path d="M20.4323 11.8984H10.3477V13.36H20.4323V11.8984Z" fill="#3A3597"/>
<path d="M20.4323 16.3711H10.3477V17.8326H20.4323V16.3711Z" fill="#3A3597"/>
<path d="M20.4323 20.5508H10.3477V22.0123H20.4323V20.5508Z" fill="#3A3597"/>
<path d="M20.4323 24.9062H10.3477V26.3678H20.4323V24.9062Z" fill="#3A3597"/>
<path d="M27.5356 11.4878L26.5418 10.4062L23.4141 13.2709L22.5079 12.3939L21.4849 13.4462L23.3556 15.2878L27.5356 11.4878Z" fill="#3A3597"/>
<path d="M27.5356 15.6987L26.5418 14.6172L23.4141 17.4818L22.5079 16.6049L21.4849 17.6572L23.3556 19.4987L27.5356 15.6987Z" fill="#3A3597"/>
<path d="M27.5356 19.937L26.5418 18.8555L23.4141 21.7201L22.5079 20.8139L21.4849 21.8662L23.3556 23.737L27.5356 19.937Z" fill="#3A3597"/>
<path d="M27.5356 24.146L26.5418 23.0645L23.4141 25.9291L22.5079 25.0521L21.4849 26.0752L23.3556 27.946L27.5356 24.146Z" fill="#3A3597"/>
</svg>
