<svg width="38" height="38" viewBox="0 0 38 38" fill="none" xmlns="http://www.w3.org/2000/svg">
<path d="M27.7984 14.2929V7.36523L26.3076 8.70985C22.7999 11.9252 18.3861 13.6791 13.8845 13.6791H10.8153C8.88608 13.6791 7.30762 15.2575 7.30762 17.1868C7.30762 18.9406 8.59377 20.3729 10.2892 20.636L13.3876 28.9375C13.7676 29.9898 14.7615 30.6329 15.7845 30.6329C16.0768 30.6329 16.3399 30.5745 16.6322 30.4868C17.2753 30.2529 17.7722 29.7852 18.0353 29.1422C18.2984 28.5283 18.3276 27.8268 18.0938 27.2129L15.7845 20.8114C19.6138 21.2206 23.2968 22.916 26.3076 25.6637L27.7984 27.0083V20.0806C29.4061 19.9345 30.6922 18.7068 30.6922 17.1868C30.6922 15.6668 29.4061 14.4683 27.7984 14.2929ZM8.76916 17.1868C8.76916 16.076 9.67531 15.1406 10.8153 15.1406H12.8615V19.2037H10.8153C9.67531 19.2329 8.76916 18.3268 8.76916 17.1868ZM16.7199 27.7098C16.8368 28.0022 16.8076 28.2945 16.6907 28.5575C16.5738 28.8206 16.3692 29.0252 16.1061 29.1129C15.5799 29.3175 14.9661 29.0252 14.7322 28.4406L11.8676 20.6945H13.9138C14.0015 20.6945 14.1184 20.6945 14.2061 20.7237L16.7199 27.7098ZM26.3368 23.7637C22.8292 20.9283 18.6199 19.3498 14.323 19.2329V15.1406C18.6199 15.0529 22.8292 13.4745 26.3368 10.6391V23.7637ZM27.7984 18.5899V15.7837C28.6168 15.9298 29.2307 16.4852 29.2307 17.1868C29.2307 17.8883 28.6168 18.4729 27.7984 18.5899Z" fill="#3A3597"/>
</svg>
