<svg width="38" height="38" viewBox="0 0 38 38" fill="none" xmlns="http://www.w3.org/2000/svg">
<path d="M19.0004 21.2513C16.6912 21.2513 14.8789 19.439 14.8789 17.2174C14.8789 14.9959 16.6912 13.1836 18.9128 13.1836H19.0004C21.222 13.1836 23.0343 14.9959 23.0343 17.2174C23.0343 19.439 21.222 21.2513 19.0004 21.2513ZM18.9128 14.6451C17.4804 14.6451 16.3404 15.8144 16.3404 17.2174C16.3404 18.6497 17.5097 19.7897 18.9128 19.7897C20.4328 19.7897 21.5728 18.6205 21.5728 17.2174C21.5728 15.7851 20.4035 14.6451 19.0004 14.6451H18.9128Z" fill="#3A3597"/>
<path d="M25.3143 13.4472C23.5604 13.4472 22.2158 12.0733 22.2158 10.4072C22.2158 8.74103 23.5897 7.36719 25.2558 7.36719H25.3143C26.9804 7.36719 28.3543 8.74103 28.3543 10.4072C28.3543 12.0733 26.9804 13.4472 25.3143 13.4472ZM25.2558 8.82873C24.3789 8.82873 23.6774 9.53026 23.6774 10.4072C23.6774 11.2841 24.3789 11.9856 25.2558 11.9856C26.1912 11.9856 26.8927 11.2841 26.8927 10.4072C26.8927 9.53026 26.1912 8.82873 25.3143 8.82873H25.2558Z" fill="#3A3597"/>
<path d="M30.5465 21.4864H29.0849V16.5172C29.0849 16.2249 28.968 16.0787 28.9388 16.0495H24.7588V14.6172H28.968C29.8449 14.6172 30.5465 15.4649 30.5465 16.5172V21.4864Z" fill="#3A3597"/>
<path d="M12.7449 13.4472C11.0203 13.4472 9.64648 12.0733 9.64648 10.4072C9.64648 8.74103 11.0203 7.36719 12.6865 7.36719H12.7449C14.4111 7.36719 15.7849 8.74103 15.7849 10.4072C15.7849 12.0733 14.4403 13.4472 12.7449 13.4472ZM12.6865 8.82873C11.8096 8.82873 11.108 9.53026 11.108 10.4072C11.108 11.2841 11.8096 11.9856 12.6865 11.9856C13.6219 11.9856 14.3234 11.2841 14.3234 10.4072C14.3234 9.53026 13.6219 8.82873 12.7449 8.82873H12.6865Z" fill="#3A3597"/>
<path d="M8.91564 21.4864H7.4541V16.5172C7.4541 15.4649 8.12641 14.6172 9.00333 14.6172H13.2126V16.0787H9.00333C9.00333 16.0787 8.88641 16.2541 8.88641 16.5172V21.4864H8.91564Z" fill="#3A3597"/>
<path d="M24.8464 30.6341H23.3849V24.7587C23.3849 24.3495 23.0633 24.0279 22.6541 24.0279H15.2587C14.8495 24.0279 14.5279 24.3495 14.5279 24.7587V30.6341H13.0664V24.7587C13.0664 23.5603 14.0603 22.5664 15.2587 22.5664H22.6541C23.8526 22.5664 24.8464 23.5603 24.8464 24.7587V30.6341Z" fill="#3A3597"/>
</svg>
