<svg width="38" height="38" viewBox="0 0 38 38" fill="none" xmlns="http://www.w3.org/2000/svg">
<path d="M14.557 30.7515H23.414H24.1447H30.5755V10.3485H27.7401V7.25H10.2601V10.3485H7.39551V30.7515H13.8263H14.557ZM20.6955 29.29H17.6263V25.0808H20.6955V29.29ZM29.1432 29.29H24.9047V11.81H29.1432V29.29ZM13.0955 29.29H8.85705V11.81H13.0955V29.29ZM11.7217 10.3485V8.71154H26.3078V10.3485H23.4432V29.29H22.157V23.6192H16.1647V29.3192H14.557V10.3485H11.7217Z" fill="#3A3597"/>
<path d="M11.7218 13.9453H10.2603V15.4069H11.7218V13.9453Z" fill="#3A3597"/>
<path d="M11.7218 17.0117H10.2603V18.4733H11.7218V17.0117Z" fill="#3A3597"/>
<path d="M11.7218 19.8203H10.2603V21.2819H11.7218V19.8203Z" fill="#3A3597"/>
<path d="M11.7218 22.625H10.2603V24.0865H11.7218V22.625Z" fill="#3A3597"/>
<path d="M17.6261 11.0781H16.1646V12.5397H17.6261V11.0781Z" fill="#3A3597"/>
<path d="M17.6261 14.1484H16.1646V15.61H17.6261V14.1484Z" fill="#3A3597"/>
<path d="M17.6261 16.9531H16.1646V18.4147H17.6261V16.9531Z" fill="#3A3597"/>
<path d="M17.6261 19.7617H16.1646V21.2233H17.6261V19.7617Z" fill="#3A3597"/>
<path d="M22.1569 11.0781H20.6953V12.5397H22.1569V11.0781Z" fill="#3A3597"/>
<path d="M22.1569 14.1484H20.6953V15.61H22.1569V14.1484Z" fill="#3A3597"/>
<path d="M22.1569 16.9531H20.6953V18.4147H22.1569V16.9531Z" fill="#3A3597"/>
<path d="M22.1569 19.7617H20.6953V21.2233H22.1569V19.7617Z" fill="#3A3597"/>
<path d="M11.7218 25.6953H10.2603V27.1569H11.7218V25.6953Z" fill="#3A3597"/>
<path d="M27.7403 13.9453H26.2788V15.4069H27.7403V13.9453Z" fill="#3A3597"/>
<path d="M27.7403 17.0117H26.2788V18.4733H27.7403V17.0117Z" fill="#3A3597"/>
<path d="M27.7403 19.8203H26.2788V21.2819H27.7403V19.8203Z" fill="#3A3597"/>
<path d="M27.7403 22.625H26.2788V24.0865H27.7403V22.625Z" fill="#3A3597"/>
<path d="M27.7403 25.6953H26.2788V27.1569H27.7403V25.6953Z" fill="#3A3597"/>
</svg>
