<svg width="38" height="38" viewBox="0 0 38 38" fill="none" xmlns="http://www.w3.org/2000/svg">
<path d="M19.0002 30.3121L19.5263 29.7567C19.8771 29.406 27.7694 21.1337 27.7694 16.4567C27.7694 11.6337 23.8233 7.6875 19.0002 7.6875C14.1771 7.6875 10.231 11.6337 10.231 16.4567C10.231 21.1337 18.1233 29.4352 18.474 29.786L19.0002 30.3121ZM19.0002 9.14904C23.034 9.14904 26.3079 12.4229 26.3079 16.4567C26.3079 19.6137 21.4556 25.5475 19.0002 28.2075C16.5448 25.5475 11.6925 19.6137 11.6925 16.4567C11.6925 12.4229 14.9663 9.14904 19.0002 9.14904Z" fill="#3A3597"/>
<path d="M19.0295 19.4394L22.4495 21.2224L21.8064 17.4224L24.5541 14.7332L20.7541 14.1778L19.0295 10.7578L17.3049 14.207L13.5049 14.7624L16.2526 17.4517L15.6095 21.2517L19.0295 19.4394ZM18.2987 15.5517L19.0295 14.0609L19.7603 15.5517L21.3972 15.7855L20.1987 16.9547L20.491 18.5917L19.0295 17.8317L17.5387 18.5624L17.831 16.9255L16.6326 15.7855L18.2987 15.5517Z" fill="#3A3597"/>
</svg>
