<svg width="146" height="32" viewBox="0 0 146 32" fill="none" xmlns="http://www.w3.org/2000/svg">
<g clip-path="url(#clip0_58_9869)">
<path d="M60.7176 6.40074V25.6007H57.4741V10.5341H57.4308L51.6358 25.6007H49.4735L43.5487 10.5341H43.5055V25.6007H40.5215V6.40074H45.1921L50.5547 20.623H50.6412L56.3064 6.40074H60.7176ZM63.3989 7.86741C63.3989 7.33407 63.5718 6.88963 63.9611 6.53407C64.3503 6.17852 64.7827 6.00074 65.3017 6.00074C65.8639 6.00074 66.3396 6.17852 66.6856 6.53407C67.0316 6.88963 67.2478 7.33407 67.2478 7.86741C67.2478 8.40074 67.0748 8.84518 66.6856 9.20074C66.2964 9.55629 65.8639 9.73407 65.3017 9.73407C64.7395 9.73407 64.307 9.55629 63.9611 9.20074C63.6151 8.80074 63.3989 8.35629 63.3989 7.86741ZM66.9018 11.823V25.6007H63.7448V11.823H66.9018ZM76.4593 23.2452C76.935 23.2452 77.4539 23.1563 78.0162 22.8896C78.5784 22.6674 79.0973 22.3563 79.573 22.0007V25.023C79.0541 25.3341 78.4919 25.5563 77.8432 25.6896C77.1945 25.823 76.5025 25.9118 75.7241 25.9118C73.7348 25.9118 72.1346 25.2896 70.9237 24.0007C69.6696 22.7118 69.0641 21.0674 69.0641 19.1118C69.0641 16.8896 69.7128 15.0674 70.967 13.6452C72.2211 12.223 73.9942 11.5118 76.3295 11.5118C76.935 11.5118 77.5404 11.6007 78.1026 11.7341C78.7081 11.8674 79.1838 12.0896 79.5298 12.2674V15.3785C79.0541 15.023 78.5351 14.7118 78.0594 14.5341C77.5404 14.3563 77.0215 14.223 76.5025 14.223C75.2484 14.223 74.2537 14.623 73.4753 15.4674C72.6968 16.3118 72.3509 17.423 72.3509 18.8452C72.3509 20.223 72.7401 21.3341 73.4753 22.0896C74.2105 22.8452 75.2051 23.2452 76.4593 23.2452ZM88.525 11.6007C88.7845 11.6007 89.0008 11.6007 89.217 11.6452C89.4332 11.6896 89.6062 11.7341 89.7359 11.7785V15.0674C89.563 14.9341 89.3467 14.8007 89.0008 14.7118C88.6548 14.623 88.3088 14.5341 87.8331 14.5341C87.0547 14.5341 86.406 14.8896 85.887 15.5563C85.3681 16.223 85.0653 17.2452 85.0653 18.6674V25.6007H81.9083V11.823H85.0653V14.0007H85.1086C85.4113 13.2452 85.8438 12.6674 86.406 12.223C87.0114 11.823 87.7034 11.6007 88.525 11.6007ZM89.9089 18.9341C89.9089 16.6674 90.5576 14.8452 91.7685 13.5119C93.0227 12.1785 94.7525 11.5118 96.9581 11.5118C99.0339 11.5118 100.677 12.1341 101.845 13.423C103.013 14.7119 103.618 16.4452 103.618 18.623C103.618 20.8452 102.969 22.623 101.758 23.9563C100.504 25.2896 98.8177 25.9563 96.6554 25.9563C94.5795 25.9563 92.9362 25.3341 91.7253 24.0896C90.5144 22.8007 89.9089 21.0674 89.9089 18.9341ZM93.1957 18.8007C93.1957 20.223 93.4984 21.3341 94.1471 22.0896C94.7958 22.8452 95.7039 23.2452 96.8716 23.2452C97.996 23.2452 98.9042 22.8896 99.5096 22.0896C100.115 21.3341 100.418 20.223 100.418 18.7118C100.418 17.2452 100.115 16.1341 99.5096 15.3341C98.9042 14.5785 97.996 14.1785 96.9149 14.1785C95.7472 14.1785 94.8823 14.5785 94.2336 15.3785C93.4984 16.223 93.1957 17.3341 93.1957 18.8007ZM108.332 15.4674C108.332 15.9118 108.462 16.3118 108.764 16.5785C109.067 16.8452 109.673 17.1563 110.667 17.5563C111.921 18.0896 112.83 18.6674 113.305 19.2896C113.824 19.9563 114.084 20.7119 114.084 21.6452C114.084 22.9341 113.608 23.9563 112.613 24.7563C111.662 25.5563 110.321 25.9118 108.678 25.9118C108.116 25.9118 107.51 25.823 106.818 25.6896C106.126 25.5563 105.564 25.3785 105.088 25.1563V21.9563C105.651 22.3563 106.299 22.7118 106.948 22.9341C107.597 23.1563 108.202 23.2896 108.764 23.2896C109.456 23.2896 110.019 23.2007 110.321 22.9785C110.667 22.7563 110.84 22.4452 110.84 21.9563C110.84 21.5119 110.667 21.1563 110.321 20.8007C109.975 20.4896 109.283 20.1341 108.332 19.7341C107.164 19.2452 106.343 18.6674 105.867 18.0452C105.391 17.423 105.132 16.623 105.132 15.6452C105.132 14.4007 105.607 13.3785 106.559 12.5785C107.51 11.7785 108.764 11.3785 110.278 11.3785C110.754 11.3785 111.273 11.423 111.835 11.5563C112.397 11.6896 112.916 11.823 113.305 11.9563V15.1118C112.873 14.8452 112.397 14.5785 111.835 14.3563C111.273 14.1341 110.71 14.0452 110.192 14.0452C109.586 14.0452 109.11 14.1785 108.808 14.4007C108.505 14.7119 108.332 15.023 108.332 15.4674ZM115.424 18.9341C115.424 16.6674 116.073 14.8452 117.284 13.5119C118.538 12.1785 120.268 11.5118 122.474 11.5118C124.549 11.5118 126.193 12.1341 127.36 13.423C128.528 14.7119 129.133 16.4452 129.133 18.623C129.133 20.8452 128.485 22.623 127.274 23.9563C126.02 25.2896 124.333 25.9563 122.171 25.9563C120.095 25.9563 118.452 25.3341 117.241 24.0896C116.073 22.8007 115.424 21.0674 115.424 18.9341ZM118.711 18.8007C118.711 20.223 119.014 21.3341 119.662 22.0896C120.311 22.8452 121.219 23.2452 122.387 23.2452C123.511 23.2452 124.42 22.8896 125.025 22.0896C125.63 21.3341 125.933 20.223 125.933 18.7118C125.933 17.2452 125.63 16.1341 125.025 15.3341C124.42 14.5785 123.511 14.1785 122.43 14.1785C121.263 14.1785 120.398 14.5785 119.749 15.3785C119.057 16.223 118.711 17.3341 118.711 18.8007ZM139.642 14.4896H134.928V25.6007H131.728V14.4896H129.479V11.823H131.728V9.91185C131.728 8.48963 132.204 7.28963 133.112 6.35629C134.02 5.42296 135.188 4.97852 136.615 4.97852C137.004 4.97852 137.35 5.02296 137.653 5.02296C137.956 5.02296 138.215 5.11185 138.431 5.20074V8.00074C138.345 7.95629 138.129 7.8674 137.869 7.77852C137.61 7.68963 137.307 7.64518 136.961 7.64518C136.312 7.64518 135.793 7.8674 135.447 8.26741C135.101 8.66741 134.928 9.33407 134.928 10.1341V11.7785H139.642V8.6674L142.799 7.68963V11.7785H146V14.4452H142.799V20.8896C142.799 21.7341 142.972 22.3118 143.232 22.6674C143.535 23.023 144.01 23.2007 144.659 23.2007C144.832 23.2007 145.048 23.1563 145.308 23.0674C145.567 22.9785 145.783 22.8896 145.956 22.7563V25.423C145.74 25.5563 145.437 25.6452 144.962 25.7341C144.486 25.823 144.053 25.8674 143.578 25.8674C142.237 25.8674 141.242 25.5119 140.594 24.8007C139.945 24.0896 139.599 22.9785 139.599 21.5119L139.642 14.4896Z" fill="#737373"/>
<path d="M14.7903 0H0V15.2H14.7903V0Z" fill="#F25022"/>
<path d="M31.1379 0H16.3477V15.2H31.1379V0Z" fill="#7FBA00"/>
<path d="M14.7903 16.8008H0V32.0008H14.7903V16.8008Z" fill="#00A4EF"/>
<path d="M31.1379 16.8008H16.3477V32.0008H31.1379V16.8008Z" fill="#FFB900"/>
</g>
<defs>
<clipPath id="clip0_58_9869">
<rect width="146" height="32" fill="white"/>
</clipPath>
</defs>
</svg>
