<svg width="617" height="929" viewBox="0 0 617 929" fill="none" xmlns="http://www.w3.org/2000/svg">
<g opacity="0.8">
<path d="M526.488 0.00195312L93.3414 433.535L10.8373 350.958C5.06204 345.177 5.06204 336.094 10.8373 330.313L336.729 4.13084C339.204 1.65351 342.916 0.00195312 347.042 0.00195312H526.488Z" fill="#3A3597" fill-opacity="0.3"/>
<path opacity="0.2" d="M10.8393 350.956C5.06399 345.175 5.06399 336.092 10.8393 330.311L336.731 4.12889C339.206 1.65156 342.918 0 347.044 0H526.49L93.3434 433.533L10.8393 350.956Z" fill="#3A3597" fill-opacity="0.3"/>
<path opacity="0.2" d="M10.8393 350.956C5.06399 345.175 5.06399 336.092 10.8393 330.311L336.731 4.12889C339.206 1.65156 342.918 0 347.044 0H526.49L93.3434 433.533L10.8393 350.956Z" fill="#3A3597" fill-opacity="0.3"/>
<path d="M588.367 743.198L509.988 821.647C502.15 829.491 489.362 829.491 481.112 821.647L124.281 464.498L217.098 371.598L588.367 743.198Z" fill="#3A3597" fill-opacity="0.3"/>
<path d="M705.939 0V68.5396C704.701 69.7782 703.464 71.0169 702.226 72.2556L340.858 433.533L248.041 340.633L571.457 16.9284C582.183 6.19333 597.034 0 612.709 0H705.939V0Z" fill="#3A3597" fill-opacity="0.3"/>
<path d="M705.938 687.46V873.26L667.161 912.072C656.435 922.807 641.584 929 626.321 929H364.783C349.52 929 334.669 922.807 323.944 912.072L0.527344 588.367L93.3445 495.467L454.713 857.158C477.401 879.866 514.115 879.866 536.804 857.158L705.938 687.46Z" fill="#3A3597" fill-opacity="0.3"/>
</g>
</svg>
