<svg width="17" height="17" viewBox="0 0 17 17" fill="none" xmlns="http://www.w3.org/2000/svg">
<path d="M2.82971 14.1699C1.63278 12.9729 1.63278 11.0271 2.82971 9.83013L5.62954 7.0303L4.29962 5.70038L1.49979 8.50021C-0.432094 10.4321 -0.432094 13.5679 1.49979 15.4998C3.43167 17.4317 6.56748 17.4317 8.49937 15.4998L11.2992 12.7L9.96928 11.37L7.16945 14.1699C5.97252 15.3668 4.02664 15.3668 2.82971 14.1699ZM6.39949 12L11.9992 6.40034L10.5992 5.00042L4.99958 10.6001L6.39949 12ZM8.49937 1.50063L5.69954 4.30046L7.02946 5.63038L9.82929 2.83055C11.0262 1.63362 12.9721 1.63362 14.169 2.83055C15.366 4.02748 15.366 5.97336 14.169 7.17029L11.3692 9.97012L12.6991 11.3L15.4989 8.50021C17.4308 6.56833 17.4308 3.43252 15.4989 1.50063C13.5671 -0.431252 10.4313 -0.431251 8.49937 1.50063Z" fill="#1D1B4B"/>
</svg>
