<svg width="50" height="50" viewBox="0 0 50 50" fill="none" xmlns="http://www.w3.org/2000/svg">
<circle cx="25" cy="25" r="25" fill="#E9EAF3" fill-opacity="0.1"/>
<path d="M14.4766 28.3049C14.8859 28.7141 15.4412 28.9772 16.0551 29.0064C15.9966 29.708 16.2305 30.468 16.8151 31.0233C17.2828 31.491 17.9259 31.7249 18.5397 31.7541C18.5397 32.3972 18.8028 33.011 19.2997 33.5372C19.7674 34.0049 20.4105 34.2387 21.0243 34.268C21.0243 34.911 21.2874 35.5249 21.7843 36.051C22.252 36.5187 22.8951 36.7818 23.5089 36.7818C24.1228 36.7818 24.7659 36.548 25.2336 36.051L26.7243 34.5603C26.9874 34.2972 27.192 33.9756 27.3089 33.6249C27.6597 33.8003 28.0397 33.9172 28.4489 33.9172C29.0628 33.9172 29.6474 33.6833 30.0859 33.2449C30.5536 32.7772 30.7582 32.1926 30.7582 31.5495C31.3428 31.5495 31.9859 31.3449 32.4243 30.8772C32.892 30.4095 33.0966 29.7956 33.0966 29.1818C33.7105 29.1818 34.3243 28.9772 34.7628 28.5095C35.4643 27.808 35.6105 26.7556 35.2305 25.8495C36.2828 24.4464 36.8966 22.8095 36.9843 21.0849C37.072 18.8926 36.312 16.9049 34.8505 15.4141C33.3889 13.9526 31.372 13.1926 29.1797 13.2803C27.4551 13.368 25.7889 14.011 24.3859 15.0633C21.3459 13.1341 17.4582 13.3972 15.032 15.8233C12.6059 18.2495 12.372 22.0495 14.2136 25.0603C13.512 26.0249 13.5705 27.3695 14.4766 28.3049ZM23.1874 16.028L19.1828 19.5356C18.8612 19.8572 18.6859 20.2372 18.6274 20.6756C18.5982 20.968 18.6274 21.2895 18.7736 21.5818C18.832 21.7572 18.9197 21.9033 19.0366 22.0495C19.0659 22.0787 19.1243 22.108 19.1828 22.1664C19.7966 22.7803 20.5566 23.1603 21.4336 23.1895C21.5212 23.1895 21.5797 23.1895 21.6674 23.1895C22.5151 23.1895 23.3043 22.8972 23.9474 22.3126L24.9705 21.4356C25.0874 21.3187 25.2628 21.2603 25.4382 21.2895C25.6136 21.2895 25.7597 21.3772 25.8766 21.4941C26.812 22.5756 28.3905 22.6926 29.5305 21.8741L33.4182 25.7618L33.6812 26.0249C33.7689 26.1126 33.8274 26.2295 33.8859 26.3464C34.0612 26.7556 34.032 27.1941 33.7397 27.4572C33.4474 27.7495 33.0089 27.7787 32.6289 27.5741C32.5412 27.5449 32.4243 27.4572 32.3366 27.3695L32.0736 27.1064L29.8228 24.8556L29.2966 25.3818L28.7997 25.908L31.0505 28.1587L31.3136 28.4218C31.4012 28.5095 31.4597 28.5972 31.5182 28.7141C31.6936 29.0941 31.6643 29.5326 31.4012 29.8249C31.1089 30.1172 30.6705 30.1464 30.2905 29.9418C30.1736 29.8833 30.0566 29.8249 29.9689 29.7372L29.7351 29.4741L27.4843 27.2233L26.9582 27.7495L26.432 28.2464L28.6828 30.4972L28.9459 30.7603C29.0336 30.848 29.092 30.9649 29.1505 31.0526C29.3551 31.4326 29.3259 31.9003 29.0336 32.1633C28.7412 32.4556 28.3028 32.4849 27.9228 32.2803C27.8351 32.2218 27.7182 32.1633 27.6305 32.0756L27.3674 31.8126L27.0459 31.491C26.9582 31.3156 26.812 31.1695 26.6659 31.0233C26.5197 30.8772 26.3736 30.7603 26.1982 30.6726L25.1166 29.5618C24.9997 29.1233 24.7659 28.6556 24.4151 28.3049C23.9182 27.808 23.2459 27.5741 22.6028 27.5741C22.5736 26.9895 22.3397 26.3756 21.8428 25.8787C21.3166 25.3526 20.6151 25.1187 19.9136 25.1772C19.8843 24.5633 19.6505 24.008 19.1536 23.511C18.9197 23.2772 18.6566 23.1018 18.3643 22.9849C18.1012 22.868 17.8089 22.8095 17.5166 22.8095C17.0197 22.7803 16.4936 22.9264 16.0843 23.2187C15.9382 23.3064 15.8212 23.3941 15.7043 23.511L15.2659 23.9495C14.0089 21.5818 14.2136 18.688 16.0551 16.8464C17.8966 15.0049 20.7905 14.7418 23.1874 16.028ZM34.2951 24.651L30.612 20.9387L31.4012 20.2372L30.4074 19.1556L29.0043 20.4126L28.712 20.6756C28.1859 21.1141 27.3966 21.0556 26.9289 20.5587C26.5489 20.1495 26.052 19.8864 25.4966 19.8572C24.9412 19.7987 24.4151 20.0033 23.9766 20.3541L22.9536 21.231C22.1643 21.9618 20.9659 21.9033 20.2059 21.1433C20.2059 21.1141 20.1474 21.0849 20.1182 21.0556C20.0305 20.9387 20.0305 20.7633 20.1474 20.6464L24.9705 16.408L24.9997 16.4372C26.2274 15.4141 27.7182 14.8003 29.2382 14.7418C31.0212 14.6541 32.6289 15.268 33.7982 16.4372C34.9674 17.6064 35.5812 19.2433 35.4936 20.9972C35.4643 22.3126 35.0259 23.5403 34.2951 24.651ZM25.7012 33.508L25.6136 33.5664L24.2105 34.9695C23.8305 35.3495 23.1874 35.3495 22.7489 34.911C22.3689 34.531 22.3689 33.888 22.7489 33.508L22.9828 33.2741L23.6259 32.631L24.2105 32.0464C24.2689 32.0172 24.2982 32.0172 24.3274 31.988C24.5905 31.7541 24.9705 31.6956 25.3212 31.8418C25.4382 31.9003 25.5843 31.988 25.7012 32.1049C25.9059 32.3095 25.9936 32.5726 25.9643 32.8649C25.9643 33.0987 25.8766 33.3326 25.7012 33.508ZM20.0889 31.3156C20.1474 31.228 20.2059 31.111 20.2643 31.0526L20.5566 30.7603L21.0828 30.2341L21.9012 29.3864L21.9597 29.328C22.1059 29.211 22.252 29.1526 22.3982 29.0941C22.4859 29.0649 22.5736 29.0356 22.6612 29.0356C22.9243 29.0356 23.2166 29.1526 23.4212 29.3572C23.6259 29.5618 23.7136 29.8541 23.6843 30.1464C23.6843 30.3803 23.5966 30.6141 23.4212 30.7895L22.5151 31.6956L22.0182 32.1926L21.7259 32.4849C21.6382 32.5726 21.5505 32.631 21.4628 32.6603C21.0828 32.8356 20.6151 32.7772 20.2643 32.4264C19.972 32.1341 19.9136 31.6664 20.0889 31.3156ZM17.6043 28.831C17.6336 28.7141 17.692 28.6264 17.7797 28.5387L18.072 28.2464L18.5982 27.7203L19.4166 26.9018C19.4751 26.8433 19.5336 26.8141 19.592 26.7849C19.7382 26.6972 19.9136 26.6387 20.0889 26.6387C20.352 26.6387 20.6443 26.7556 20.8489 26.9895C21.1412 27.2818 21.1997 27.691 21.0828 28.0418C21.0536 28.1587 20.9659 28.2756 20.8782 28.3633L20.0305 29.1818L19.5336 29.708L19.2412 30.0003C19.1536 30.088 19.0659 30.1464 18.9489 30.1756C18.5689 30.351 18.1305 30.2926 17.7797 29.9418C17.4874 29.6495 17.4289 29.1818 17.6043 28.831ZM15.4705 25.8203L15.5874 25.7033L16.1136 25.1772L16.7274 24.5633C16.7566 24.5341 16.7566 24.5341 16.7859 24.5341C16.8443 24.4756 16.8736 24.4464 16.932 24.4172C17.0782 24.3295 17.2536 24.271 17.3997 24.271C17.6628 24.271 17.9551 24.388 18.1597 24.5926C18.3351 24.768 18.452 25.031 18.452 25.2941C18.452 25.4695 18.3936 25.6156 18.3059 25.7618C18.3059 25.8495 18.2474 25.9372 18.1889 25.9956L17.5166 26.668L16.9905 27.1941L16.932 27.2526C16.7566 27.428 16.552 27.5156 16.3182 27.5449C16.2889 27.5449 16.2597 27.5741 16.2305 27.5741C15.9674 27.5741 15.7043 27.4864 15.4705 27.2233C15.2366 26.9895 15.1782 26.6972 15.2074 26.4049C15.2366 26.171 15.3243 25.9664 15.4705 25.8203Z" fill="white"/>
</svg>
