<svg width="50" height="50" viewBox="0 0 50 50" fill="none" xmlns="http://www.w3.org/2000/svg">
<circle cx="25" cy="25" r="25" fill="#E9EAF3" fill-opacity="0.1"/>
<path d="M21.3469 26.1689V28.1566L26.0238 28.2151V26.2274C26.4623 26.0228 26.8423 25.7889 27.1638 25.4966C28.3623 24.5028 29.0346 23.0412 29.0346 21.492C29.0346 18.5982 26.6669 16.2305 23.6854 16.2305C20.7915 16.2305 18.4238 18.5982 18.4238 21.492C18.4238 22.9828 19.0669 24.4151 20.1777 25.4089C20.4992 25.672 20.9084 25.9643 21.3469 26.1689ZM23.7731 17.692C25.8777 17.692 27.5731 19.3874 27.5731 21.492C27.5731 22.6028 27.0761 23.6551 26.2284 24.3859C25.9069 24.6489 25.4977 24.8828 25.03 25.0582L24.5623 25.2043V26.7243H22.8377V25.2043L22.37 25.0289C21.9023 24.8535 21.4346 24.5612 21.1715 24.3274C20.3531 23.5966 19.9146 22.5735 19.9146 21.492C19.9146 19.3874 21.61 17.692 23.7731 17.692Z" fill="white"/>
<path d="M25.0887 29.3281H21.9902V30.7897H25.0887V29.3281Z" fill="white"/>
<path d="M22.399 21.4043C22.7206 20.732 23.4513 20.2936 24.1821 20.2936V18.832C22.8667 18.832 21.639 19.592 21.0837 20.7613L20.9375 21.0536L22.2529 21.6966L22.399 21.4043Z" fill="white"/>
<path d="M17.8679 29.5318V36.6641H27.5432V33.741H28.7417C30.7879 33.741 32.4832 32.0749 32.4832 29.9995V28.158H33.9448C34.4417 28.158 34.9094 27.8656 35.1432 27.398C35.3479 26.9595 35.3186 26.4333 35.0263 26.0533L32.4832 21.698C32.3956 17.1087 28.6248 13.4256 24.0648 13.4256C24.0648 13.4256 23.3632 13.3672 23.0417 13.3672C22.8371 13.3672 21.5802 13.5133 21.5217 13.5133C17.5756 14.2441 14.7109 17.6641 14.7109 21.698C14.7109 22.8964 14.974 24.0656 15.5002 25.2056L17.8679 29.5318ZM21.7556 14.9456C21.7556 14.9456 22.8371 14.8287 23.0417 14.7995C23.3048 14.7995 23.9479 14.858 24.0063 14.858C27.8648 14.858 31.0217 18.0149 31.0217 21.8733V22.078L33.6817 26.6672H31.0217V29.9703C31.0217 31.2272 29.9986 32.2503 28.7417 32.2503H26.8417H26.1109H24.1817V33.7118H26.1109V35.1733H19.3294V29.1518L16.8156 24.5333C16.4063 23.6272 16.2017 22.6626 16.2017 21.698C16.2017 18.3949 18.5402 15.5595 21.7556 14.9456Z" fill="white"/>
</svg>
