<svg width="80" height="80" viewBox="0 0 80 80" fill="none" xmlns="http://www.w3.org/2000/svg">
<circle cx="40" cy="40" r="40" fill="#3A3597"/>
<path d="M39.9999 57.2667L40.8029 56.419C41.3383 55.8836 53.3845 43.2575 53.3845 36.119C53.3845 28.7575 47.3614 22.7344 39.9999 22.7344C32.6383 22.7344 26.6152 28.7575 26.6152 36.119C26.6152 43.2575 38.6614 55.9282 39.1968 56.4636L39.9999 57.2667ZM39.9999 24.9651C46.1568 24.9651 51.1537 29.9621 51.1537 36.119C51.1537 40.9375 43.7475 49.9944 39.9999 54.0544C36.2522 49.9944 28.846 40.9375 28.846 36.119C28.846 29.9621 33.8429 24.9651 39.9999 24.9651Z" fill="#E9EAF3"/>
<path d="M40.0446 40.6687L45.2646 43.3903L44.2831 37.5903L48.4769 33.4857L42.6769 32.638L40.0446 27.418L37.4123 32.6826L31.6123 33.5303L35.8062 37.6349L34.8246 43.4349L40.0446 40.6687ZM38.9292 34.7349L40.0446 32.4595L41.16 34.7349L43.6585 35.0918L41.8292 36.8764L42.2754 39.3749L40.0446 38.2149L37.7692 39.3303L38.2154 36.8318L36.3862 35.0918L38.9292 34.7349Z" fill="#E9EAF3"/>
</svg>
