<svg width="80" height="80" viewBox="0 0 80 80" fill="none" xmlns="http://www.w3.org/2000/svg">
<circle cx="40" cy="40" r="40" fill="#3A3597"/>
<path d="M57.6231 38.8393L55.6154 35.1362C55.08 33.9316 53.8754 33.1732 52.5815 33.1732H30.3185L24.0723 30.6747C23.5815 30.4962 23.0908 30.5408 22.6892 30.8532C22.2431 31.2101 22.02 31.7008 22.1092 32.2808L23.6262 42.2747C23.7154 43.0332 24.3846 43.6132 25.1431 43.6132H33.6646L31.3446 48.0301L31.9246 49.4578H36.7431L43.8815 43.6132H54.5446C55.66 43.6132 56.6862 43.0332 57.3108 42.0962C57.98 41.1147 58.0692 39.9101 57.6231 38.8393ZM55.4815 40.847C55.2585 41.1593 54.9462 41.3378 54.5892 41.3378H43.1231L35.9846 47.1824H34.2892L37.2785 41.3378H25.7231L24.5185 33.2624L29.6492 35.3147L52.5369 35.4039C52.9831 35.4039 53.34 35.6716 53.5631 36.1624L55.5262 39.8208C55.7046 40.1332 55.7046 40.5347 55.4815 40.847Z" fill="#E9EAF3"/>
<path d="M35.5384 37.2344H33.3076V39.4651H35.5384V37.2344Z" fill="#E9EAF3"/>
<path d="M40.0003 37.2344H37.7695V39.4651H40.0003V37.2344Z" fill="#E9EAF3"/>
<path d="M44.1497 37.2344H41.9189V39.4651H44.1497V37.2344Z" fill="#E9EAF3"/>
<path d="M48.2981 37.2344H46.0674V39.4651H48.2981V37.2344Z" fill="#E9EAF3"/>
</svg>
