<svg width="80" height="80" viewBox="0 0 80 80" fill="none" xmlns="http://www.w3.org/2000/svg">
<circle cx="40" cy="40" r="40" fill="#3A3597"/>
<path d="M39.6875 39.2859C34.5121 39.2859 30.4521 35.4936 30.4521 30.809C30.4521 26.1243 34.5121 22.332 39.4645 22.332H39.6875C44.6845 22.332 48.6998 26.1243 48.6998 30.809C48.6998 35.4936 44.6845 39.2859 39.6875 39.2859ZM39.4645 24.5628C35.7168 24.5628 32.6829 27.3736 32.6829 30.809C32.6829 34.2443 35.7168 37.0551 39.4645 37.0551C43.4352 37.0551 46.4691 34.2443 46.4691 30.809C46.4691 27.3736 43.4352 24.5628 39.6875 24.5628H39.4645Z" fill="#E9EAF3"/>
<path d="M53.4741 57.5765H51.2433V46.6457C51.2433 45.4411 50.1725 44.5042 48.8787 44.5042H31.1664C29.8279 44.5042 28.7571 45.4857 28.7571 46.6457V57.5765H26.5264V46.6457C26.5264 44.2365 28.5787 42.2734 31.1664 42.2734H48.8341C51.3771 42.2734 53.4294 44.2365 53.4294 46.6457V57.5765H53.4741Z" fill="#E9EAF3"/>
<path d="M45.0419 57.6662H35.2266L38.9296 50.5277L36.8773 46.6016H43.3912L41.3835 50.5277L45.0419 57.6662ZM38.8404 55.4354H41.3835L40.1343 52.9816L38.8404 55.4354Z" fill="#E9EAF3"/>
</svg>
