<?xml version="1.0" standalone="no"?>
<!DOCTYPE svg PUBLIC "-//W3C//DTD SVG 1.1//EN" "http://www.w3.org/Graphics/SVG/1.1/DTD/svg11.dtd" >
<svg xmlns="http://www.w3.org/2000/svg" xmlns:xlink="http://www.w3.org/1999/xlink" version="1.1">
<metadata>
Created by FontForge 20190801 at Tue May 30 11:28:41 2017
 By www-data
Copyright (c) 2017 by Daniel Hernandez. All rights reserved.
</metadata>
<defs>
<font id="LotaGrotesqueExtraLight" horiz-adv-x="0" >
  <font-face 
    font-family="LotaGrotesqueExtraLight"
    font-weight="275"
    font-stretch="normal"
    units-per-em="1000"
    panose-1="0 0 3 0 0 0 0 0 0 0"
    ascent="800"
    descent="-200"
    x-height="483"
    cap-height="678"
    bbox="-510 -216 1324 860"
    underline-thickness="50"
    underline-position="-100"
    unicode-range="U+0020-FB02"
  />
<missing-glyph horiz-adv-x="406" 
 />
    <glyph glyph-name="fi" unicode="fi" horiz-adv-x="540" 
d="M455 483v-483h-36v451h-278v-451h-36v451h-69v32h69v72q0 71 42.5 111.5t112.5 40.5q41 0 62 -7l-2 -32q-18 6 -58 6q-57 0 -89 -31t-32 -88v-72h314zM438 678q14 0 24 -10.5t10 -24.5q0 -15 -10 -25t-24 -10t-24.5 10t-10.5 25q0 14 10.5 24.5t24.5 10.5z" />
    <glyph glyph-name="fl" unicode="fl" horiz-adv-x="547" 
d="M105 559q0 71 42.5 111t112.5 40q44 0 62 -6l-2 -33q-16 7 -58 7q-56 0 -88.5 -31.5t-32.5 -87.5v-76h178v-32h-178v-451h-36v451h-69v32h69v76zM426 700h35v-700h-35v700z" />
    <glyph glyph-name=".notdef" horiz-adv-x="406" 
 />
    <glyph glyph-name=".null" 
 />
    <glyph glyph-name="nonmarkingreturn" horiz-adv-x="333" 
 />
    <glyph glyph-name="space" unicode=" " horiz-adv-x="252" 
 />
    <glyph glyph-name="exclam" unicode="!" horiz-adv-x="232" 
d="M135 700l-3 -539h-33l-3 539h39zM115 62q16 0 25.5 -9.5t9.5 -25.5t-9.5 -25.5t-25.5 -9.5t-26 9.5t-10 25.5t10 25.5t26 9.5z" />
    <glyph glyph-name="quotedbl" unicode="&#x22;" horiz-adv-x="261" 
d="M66 569l-2 170h33l-2 -170h-29zM167 569l-3 170h33l-2 -170h-28z" />
    <glyph glyph-name="numbersign" unicode="#" horiz-adv-x="585" 
d="M548 426h-137l-23 -157h129v-33h-134l-34 -236h-33l34 236h-146l-34 -236h-33l34 236h-134v33h139l23 157h-131v32h136l32 221h33l-32 -221h146l32 221h33l-32 -221h132v-32zM355 269l23 157h-146l-23 -157h146z" />
    <glyph glyph-name="dollar" unicode="$" horiz-adv-x="563" 
d="M517 169q0 -76 -59 -121.5t-152 -51.5v-102h-36v101q-103 4 -167 55t-64 140h36q0 -74 57.5 -117.5t152.5 -44.5q88 1 142 39t53 102q0 48 -23 79t-60 46t-81.5 25t-89.5 21.5t-82 28.5t-60 52.5t-23 88.5q0 78 57 123.5t149 50.5v102h36v-102q93 -5 147.5 -53t54.5 -132
h-36q-1 76 -51.5 114t-134.5 38t-134.5 -36.5t-50.5 -103.5q0 -45 23 -74.5t60 -43.5t81.5 -23t89.5 -20.5t82 -30t60 -56.5t23 -94z" />
    <glyph glyph-name="percent" unicode="%" horiz-adv-x="787" 
d="M232 0l289 685h36l-289 -685h-36zM181 303q-66 0 -103.5 49t-37.5 141t37.5 141t102.5 49q66 0 103 -49t37 -141t-36.5 -141t-102.5 -49zM180 335q49 0 76 40.5t27 117.5t-27 117.5t-76 40.5t-75.5 -40.5t-26.5 -117.5t26.5 -117.5t75.5 -40.5zM607 -5q-66 0 -103.5 49
t-37.5 141t37 141.5t103 49.5t103 -49t37 -142q0 -92 -37 -141t-102 -49zM606 28q49 0 76 40t27 117t-27 117.5t-76 40.5t-75.5 -40.5t-26.5 -117.5t26.5 -117t75.5 -40z" />
    <glyph glyph-name="ampersand" unicode="&#x26;" horiz-adv-x="581" 
d="M555 0h-44l-57 66q-70 -70 -183 -70q-99 0 -158.5 50.5t-59.5 135.5q0 59 32.5 101.5t105.5 83.5l-13 15q-38 44 -53 78t-15 74q0 65 46.5 108t119.5 43q68 0 111 -37.5t43 -101.5q0 -94 -139 -163l-46 -25l209 -241q39 59 39 145h35q0 -102 -52 -171zM147 534
q-1 -60 61 -133l15 -17l53 27q118 60 118 135q0 48 -32.5 77t-85.5 29q-57 0 -93.5 -32.5t-35.5 -85.5zM273 29q101 0 159 61l-219 252q-65 -36 -94 -73.5t-29 -86.5q-1 -70 49.5 -111.5t133.5 -41.5z" />
    <glyph glyph-name="quotesingle" unicode="'" horiz-adv-x="160" 
d="M66 569l-2 170h33l-3 -170h-28z" />
    <glyph glyph-name="parenleft" unicode="(" horiz-adv-x="252" 
d="M58 298q0 142 42.5 254.5t90.5 174.5h36q-17 -22 -34.5 -53t-42 -86t-40 -131.5t-15.5 -158.5t15.5 -159t40 -131.5t42.5 -86t34 -52.5h-36q-48 62 -90.5 174.5t-42.5 254.5z" />
    <glyph glyph-name="parenright" unicode=")" horiz-adv-x="252" 
d="M194 298q0 -143 -42.5 -255.5t-91.5 -173.5h-36q16 21 34 52.5t42.5 86t40 131.5t15.5 159t-15.5 158.5t-39.5 131.5t-42 86.5t-35 52.5h36q49 -61 91.5 -173.5t42.5 -255.5z" />
    <glyph glyph-name="asterisk" unicode="*" horiz-adv-x="373" 
d="M314 609l-106 -31l73 -94l-28 -19l-67 98l-67 -99l-28 20l73 94l-106 31l10 32l104 -37l-3 119h34l-3 -119l104 37z" />
    <glyph glyph-name="plus" unicode="+" horiz-adv-x="467" 
d="M426 363v-32h-175v-186h-35v186h-175v32h175v185h35v-185h175z" />
    <glyph glyph-name="comma" unicode="," horiz-adv-x="197" 
d="M58 -77q19 0 33.5 17.5t14.5 44.5q-3 -1 -10 -1q-18 0 -28 11t-10 27q0 17 11.5 27.5t27.5 10.5q42 0 42 -58q0 -46 -25.5 -76.5t-55.5 -29.5v27z" />
    <glyph glyph-name="hyphen" unicode="-" horiz-adv-x="436" 
d="M71 270v31h294v-31h-294z" />
    <glyph glyph-name="period" unicode="." horiz-adv-x="199" 
d="M99 66q16 0 26 -9.5t10 -25.5t-10 -25.5t-26 -9.5q-15 0 -25 9.5t-10 25.5t10 25.5t25 9.5z" />
    <glyph glyph-name="slash" unicode="/" horiz-adv-x="388" 
d="M31 -20l290 726h37l-289 -726h-38z" />
    <glyph glyph-name="zero" unicode="0" horiz-adv-x="612" 
d="M306 -4q-115 0 -179 88t-64 256t64 256.5t179 88.5t179 -88.5t64 -256.5t-64 -256t-179 -88zM306 29q98 0 152 80t54 231t-54.5 231.5t-151.5 80.5t-151.5 -80.5t-54.5 -231.5t54.5 -231t151.5 -80z" />
    <glyph glyph-name="one" unicode="1" horiz-adv-x="348" 
d="M214 33h112v-33h-277v33h129v590q-45 -45 -129 -45v30q90 0 140 71h25v-646z" />
    <glyph glyph-name="two" unicode="2" horiz-adv-x="539" 
d="M113 33h373v-33h-428v28h1l261 258q63 61 92.5 107.5t29.5 106.5q-1 76 -49.5 114t-122.5 38q-78 0 -128 -44.5t-50 -128.5h-36q0 99 61 152.5t153 53.5q89 0 148.5 -47.5t59.5 -137.5q1 -64 -31 -118t-96 -115z" />
    <glyph glyph-name="three" unicode="3" horiz-adv-x="555" 
d="M363 355q60 -19 94 -62.5t35 -111.5q-1 -91 -62.5 -138t-159.5 -47q-97 0 -156.5 51t-59.5 149h36q-1 -83 50.5 -125t131.5 -42q81 0 132 38t51 112q-1 79 -51.5 118t-131.5 39h-60v33h50q73 0 126.5 35.5t54.5 104.5q-1 72 -48 107.5t-119 35.5q-75 0 -123 -41t-47 -114
h-36q-1 87 58 137.5t152 50.5q87 0 143 -45t57 -131q-1 -57 -32.5 -96t-84.5 -58z" />
    <glyph glyph-name="four" unicode="4" horiz-adv-x="546" 
d="M511 222v-34h-98v-188h-36v188h-351v31l339 460h48v-457h98zM70 223v-1h307v413h-1z" />
    <glyph glyph-name="five" unicode="5" horiz-adv-x="542" 
d="M276 427q97 0 155.5 -59t58.5 -158q0 -98 -59.5 -156t-159.5 -58q-98 0 -158 56t-60 147h36q-1 -76 49 -123t133 -47q84 0 133 49t50 132q-1 85 -50.5 134.5t-130.5 49.5q-88 0 -162 -58l-34 17l27 326h356v-34h-325l-21 -269q73 51 162 51z" />
    <glyph glyph-name="six" unicode="6" horiz-adv-x="575" 
d="M304 424q96 0 155 -60.5t59 -153.5t-60.5 -153.5t-159.5 -60.5q-110 0 -172.5 85t-62.5 254q0 172 64 261t176 89q87 0 142.5 -45t56.5 -119h-37q-1 60 -46.5 95t-114.5 35q-95 0 -150 -80.5t-55 -234.5q0 -31 1 -46q22 60 78.5 97t125.5 37zM299 29q82 0 132 51t50 130
t-48.5 130t-128.5 51q-90 0 -150 -63.5t-34 -154.5q44 -144 179 -144z" />
    <glyph glyph-name="seven" unicode="7" horiz-adv-x="465" 
d="M133 0l270 644v1h-383v34h422v-31l-270 -648h-39z" />
    <glyph glyph-name="eight" unicode="8" horiz-adv-x="581" 
d="M379 356q66 -17 104 -61t38 -111q0 -88 -64.5 -138t-166.5 -50t-166.5 50t-64.5 138q0 67 38 111t104 61q-54 19 -85 60t-31 95q0 77 56.5 125.5t148.5 48.5t148.5 -48.5t56.5 -125.5q0 -54 -31 -95t-85 -60zM121 511q-1 -59 44.5 -99.5t124.5 -40.5q80 0 125 40.5
t44 99.5q1 59 -44 100t-125 41q-79 0 -124.5 -41t-44.5 -100zM290 29q88 0 141.5 42.5t52.5 112.5q1 72 -52 113.5t-142 41.5t-142 -41.5t-52 -113.5q-1 -70 52.5 -112.5t141.5 -42.5z" />
    <glyph glyph-name="nine" unicode="9" horiz-adv-x="575" 
d="M276 685q110 0 172.5 -84.5t62.5 -255.5q0 -172 -64 -260.5t-176 -88.5q-87 0 -142.5 45t-55.5 118h36q1 -60 46.5 -95t114.5 -35q96 0 150.5 80.5t54.5 235.5q0 31 -1 45q-22 -59 -79 -96t-125 -37q-96 -1 -155 59.5t-59 154.5q0 93 60.5 153.5t159.5 60.5zM270 290
q90 0 150 63.5t34 154.5q-45 143 -179 143q-82 0 -132 -51t-50 -130t48 -129.5t129 -50.5z" />
    <glyph glyph-name="colon" unicode=":" horiz-adv-x="220" 
d="M109 412q16 0 26 -9.5t10 -25.5t-10 -25.5t-26 -9.5q-15 0 -25 9.5t-10 25.5t10 25.5t25 9.5zM109 66q16 0 26 -9.5t10 -25.5t-10 -25.5t-26 -9.5q-15 0 -25 9.5t-10 25.5t10 25.5t25 9.5z" />
    <glyph glyph-name="semicolon" unicode=";" horiz-adv-x="240" 
d="M118 412q16 0 26 -9.5t10 -25.5t-10 -25.5t-26 -9.5q-15 0 -25 9.5t-10 25.5t10 25.5t25 9.5zM80 -77q19 0 33.5 17.5t14.5 44.5q-3 -1 -10 -1q-18 0 -28 11t-10 27q0 17 11.5 27.5t27.5 10.5q42 0 42 -58q0 -46 -25.5 -76.5t-55.5 -29.5v27z" />
    <glyph glyph-name="less" unicode="&#x3c;" horiz-adv-x="499" 
d="M419 563v-37l-352 -177l352 -177v-37l-384 195v38z" />
    <glyph glyph-name="equal" unicode="=" horiz-adv-x="538" 
d="M77 431v32h384v-32h-384zM77 231v32h384v-32h-384z" />
    <glyph glyph-name="greater" unicode="&#x3e;" horiz-adv-x="499" 
d="M80 563l384 -195v-38l-384 -195v37l352 177l-352 177v37z" />
    <glyph glyph-name="question" unicode="?" horiz-adv-x="429" 
d="M356 552q0 62 -40 92t-101 30q-69 0 -108 -39.5t-39 -116.5h-36q0 92 50.5 140.5t135.5 48.5q78 0 126.5 -40t48.5 -115q0 -35 -18 -69t-43.5 -62.5t-51 -58t-43.5 -67t-18 -77.5v-57h-34v58q0 44 17.5 84t42.5 70t50.5 58t43 59t17.5 62zM202 62q16 0 25.5 -10t9.5 -25
q0 -16 -10 -25.5t-26 -9.5t-25.5 9.5t-9.5 25.5t10 25.5t26 9.5z" />
    <glyph glyph-name="at" unicode="@" horiz-adv-x="893" 
d="M426 38q-82 1 -132.5 57.5t-49.5 147.5q-1 91 50 147.5t133 56.5q52 0 91.5 -25t58.5 -69v89h36v-304q0 -69 60 -71q56 1 91.5 59.5t35.5 151.5q-1 155 -94.5 247t-249.5 91q-164 1 -265.5 -102.5t-101.5 -272.5q0 -164 99.5 -265.5t259.5 -100.5q79 -1 152.5 26
t127.5 76l18 -26q-60 -52 -138 -80.5t-162 -27.5q-172 1 -281 111.5t-110 283.5q0 180 111 295t287 115q171 0 275.5 -102.5t104.5 -268.5q1 -104 -44 -172t-115 -70q-43 -1 -69.5 26t-27.5 71q-40 -92 -151 -94zM429 415q-66 1 -108 -47.5t-41 -125.5q-1 -76 40.5 -124
t108.5 -48q64 0 106 43.5t42 109.5v39q0 66 -42.5 110t-105.5 43z" />
    <glyph glyph-name="A" unicode="A" horiz-adv-x="607" 
d="M545 0l-75 199h-333l-75 -199h-38l257 678h44l257 -678h-37zM150 233h307l-154 408z" />
    <glyph glyph-name="B" unicode="B" horiz-adv-x="621" 
d="M429 356q52 -12 90 -52t38 -121q0 -83 -53 -133t-137 -50h-264v678h261q77 0 123.5 -44.5t46.5 -119.5q0 -39 -12 -70t-30.5 -48t-33.5 -25.5t-29 -12.5v-2zM497 510q0 64 -37.5 100t-100.5 36h-219v-276h214q66 0 104.5 37.5t38.5 102.5zM370 33q67 0 108 40.5t41 110.5
q0 154 -162 154h-217v-305h230z" />
    <glyph glyph-name="C" unicode="C" horiz-adv-x="685" 
d="M358 29q104 0 167.5 57.5t73.5 147.5h35q-10 -106 -83 -172t-193 -66q-130 0 -214.5 94t-84.5 249q0 154 85 249.5t214 95.5q119 0 192.5 -67t83.5 -173h-35q-10 90 -74 148.5t-167 58.5q-113 0 -187.5 -86t-74.5 -226t74 -225t188 -85z" />
    <glyph glyph-name="D" unicode="D" horiz-adv-x="705" 
d="M339 679q135 0 220.5 -91.5t85.5 -247.5q0 -157 -85.5 -248.5t-219.5 -91.5h-237v678zM340 33q117 0 193 83.5t76 223.5t-76 222.5t-194 82.5h-200v-612h201z" />
    <glyph glyph-name="E" unicode="E" horiz-adv-x="592" 
d="M139 33h400v-33h-436v678h435v-33h-399v-274h368v-33h-368v-305z" />
    <glyph glyph-name="F" unicode="F" horiz-adv-x="554" 
d="M526 646h-387v-300h346v-33h-346v-313h-36v678h423v-32z" />
    <glyph glyph-name="G" unicode="G" horiz-adv-x="714" 
d="M359 337h286v-337h-30v155q-29 -72 -95.5 -115.5t-158.5 -43.5q-136 0 -219 91.5t-83 251.5q0 156 86 250.5t226 94.5q120 0 189.5 -62.5t80.5 -165.5h-36q-10 87 -70 141t-164 54q-124 0 -199.5 -85t-75.5 -227q0 -145 73 -227.5t191 -82.5q110 0 181 66t72 159v50h-254
v33z" />
    <glyph glyph-name="H" unicode="H" horiz-adv-x="711" 
d="M571 678h37v-678h-37v338h-432v-338h-36v678h36v-307h432v307z" />
    <glyph glyph-name="I" unicode="I" horiz-adv-x="242" 
d="M103 0v678h36v-678h-36z" />
    <glyph glyph-name="J" unicode="J" horiz-adv-x="494" 
d="M66 190q1 -76 39 -118.5t108 -42.5q73 0 110.5 46.5t37.5 123.5v479h36v-477q0 -92 -47 -148.5t-137 -56.5q-88 0 -135.5 52t-47.5 142h36z" />
    <glyph glyph-name="K" unicode="K" horiz-adv-x="617" 
d="M568 0l-274 356l-155 -170v-186h-36v678h36v-444l405 444h47l-272 -295l293 -383h-44z" />
    <glyph glyph-name="L" unicode="L" horiz-adv-x="540" 
d="M139 33h386v-33h-422v678h36v-645z" />
    <glyph glyph-name="M" unicode="M" horiz-adv-x="814" 
d="M652 678h59v-678h-36v644l-251 -644h-34l-251 644v-644h-35l-1 678h59l245 -635z" />
    <glyph glyph-name="N" unicode="N" horiz-adv-x="710" 
d="M571 678h36v-678h-37l-431 622v-622h-36v678h37l431 -622v622z" />
    <glyph glyph-name="O" unicode="O" horiz-adv-x="744" 
d="M372 -4q-138 0 -225.5 91.5t-87.5 250.5t88 252.5t226 93.5q136 0 223.5 -92t87.5 -251t-87.5 -252t-224.5 -93zM372 29q121 0 198.5 84t77.5 227t-77.5 227t-198.5 84t-198.5 -84t-77.5 -227t77.5 -227t198.5 -84z" />
    <glyph glyph-name="P" unicode="P" horiz-adv-x="599" 
d="M355 678q88 0 146.5 -46t58.5 -139q0 -95 -58.5 -142t-146.5 -47h-216v-304h-36v678h252zM355 337q72 0 120 39t48 115t-48 115.5t-120 39.5h-216v-309h216z" />
    <glyph glyph-name="Q" unicode="Q" horiz-adv-x="744" 
d="M684 341q0 -154 -82.5 -246.5t-213.5 -98.5q63 -83 166 -83l3 -37q-136 0 -209 121q-129 8 -209 98.5t-80 242.5q0 159 88 252.5t226 93.5q136 0 223.5 -92t87.5 -251zM372 29q121 0 198.5 84t77.5 227t-77.5 227t-198.5 84t-198.5 -84t-77.5 -227t77.5 -227t198.5 -84z
" />
    <glyph glyph-name="R" unicode="R" horiz-adv-x="632" 
d="M609 34l4 -32q-14 -6 -39 -6q-36 0 -59 17.5t-45 63.5l-108 219h-14h-209v-296h-36v678h245q88 0 146.5 -47.5t58.5 -144.5q0 -79 -41 -125t-107 -60l106 -220q26 -52 67 -52q18 0 31 5zM139 328h209q72 0 120 40t48 119t-48 119t-120 40h-209v-318z" />
    <glyph glyph-name="S" unicode="S" horiz-adv-x="585" 
d="M109 511q0 -45 23 -74.5t60 -43.5t81.5 -23t89.5 -20.5t82 -30t60 -56.5t23 -94q0 -81 -66 -127t-168 -47q-108 1 -176 52t-68 143h36q0 -74 57.5 -117.5t152.5 -44.5q88 1 142 39t53 102q0 48 -23 79t-60 46t-81.5 25t-89.5 21.5t-82 28.5t-60 52.5t-23 88.5
q0 82 62.5 128t161.5 46q101 0 160.5 -48.5t59.5 -136.5h-36q-1 76 -51.5 114t-134.5 38t-134.5 -36.5t-50.5 -103.5z" />
    <glyph glyph-name="T" unicode="T" horiz-adv-x="534" 
d="M248 0v645h-234v33h506v-33h-235v-645h-37z" />
    <glyph glyph-name="U" unicode="U" horiz-adv-x="692" 
d="M560 678h36v-411q0 -132 -63.5 -201.5t-186.5 -69.5q-124 0 -187.5 69.5t-63.5 201.5v411h36v-411q0 -238 215 -238q214 0 214 238v411z" />
    <glyph glyph-name="V" unicode="V" horiz-adv-x="597" 
d="M535 678h37l-253 -678h-42l-252 678h36l237 -636z" />
    <glyph glyph-name="W" unicode="W" horiz-adv-x="916" 
d="M850 678h37l-202 -678h-44l-184 636l-184 -636h-43l-202 678h37l186 -639l185 639h43l185 -639z" />
    <glyph glyph-name="X" unicode="X" horiz-adv-x="574" 
d="M558 0h-42l-229 323l-228 -323h-42l245 346l-231 332h42l214 -309l213 309h42l-229 -331z" />
    <glyph glyph-name="Y" unicode="Y" horiz-adv-x="592" 
d="M565 678l-251 -373v-305h-36v305l-250 373h41l227 -339l227 339h42z" />
    <glyph glyph-name="Z" unicode="Z" horiz-adv-x="555" 
d="M77 33h442v-33h-485v31l438 614h-428v33h471v-31z" />
    <glyph glyph-name="bracketleft" unicode="[" horiz-adv-x="262" 
d="M98 -130v856h131v-32h-96v-792h96v-32h-131z" />
    <glyph glyph-name="backslash" unicode="\" horiz-adv-x="388" 
d="M357 -20h-39l-288 726h36z" />
    <glyph glyph-name="bracketright" unicode="]" horiz-adv-x="262" 
d="M165 -130h-132v32h97v792h-97v32h132v-856z" />
    <glyph glyph-name="asciicircum" unicode="^" horiz-adv-x="343" 
d="M54 515l94 197h47l94 -197h-33l-85 166l-84 -166h-33z" />
    <glyph glyph-name="underscore" unicode="_" horiz-adv-x="386" 
d="M0 -75v30h386v-30h-386z" />
    <glyph glyph-name="grave" unicode="`" horiz-adv-x="235" 
d="M132 565l-72 147h49l53 -147h-30z" />
    <glyph glyph-name="a" unicode="a" horiz-adv-x="524" 
d="M503 34l4 -32q-18 -6 -39 -6q-33 0 -51.5 20.5t-18.5 58.5v24q-21 -42 -71.5 -72.5t-126.5 -30.5q-72 0 -110.5 33.5t-38.5 90.5q0 149 249 149h98v42q0 66 -41 105t-111 39q-64 0 -104 -33t-45 -89h-35q5 71 55.5 113t130.5 42q85 0 135.5 -48t50.5 -129v-232
q0 -50 40 -50q16 0 29 5zM208 26q49 0 88.5 17t60 40.5t31 42.5t10.5 29v85h-99q-212 0 -212 -118q0 -45 31 -70.5t90 -25.5z" />
    <glyph glyph-name="b" unicode="b" horiz-adv-x="581" 
d="M312 488q96 0 155 -67t59 -176q0 -112 -61 -180.5t-159 -68.5q-66 0 -114 31t-71 86l-1 -113h-34v700h35v-332q24 56 75 88t116 32zM305 27q82 0 133.5 60.5t51.5 157.5q0 95 -50 152.5t-129 57.5q-80 0 -135 -54.5t-55 -134.5v-49q0 -81 52.5 -135.5t131.5 -54.5z" />
    <glyph glyph-name="c" unicode="c" horiz-adv-x="526" 
d="M277 -9q-102 0 -162.5 67.5t-60.5 180.5q0 112 61.5 180.5t162.5 68.5q83 0 138 -48.5t63 -124.5h-37q-8 60 -52.5 100t-111.5 40q-85 0 -136.5 -59t-51.5 -156q0 -100 51 -158t136 -58q67 0 112 39.5t53 98.5h37q-8 -75 -63.5 -123t-138.5 -48z" />
    <glyph glyph-name="d" unicode="d" horiz-adv-x="581" 
d="M459 700h36v-700h-35l-1 115q-23 -55 -73.5 -87t-115.5 -32q-96 0 -156 66t-60 176q0 111 61.5 180.5t160.5 69.5q65 0 112.5 -30.5t70.5 -84.5v327zM272 28q79 0 133 54.5t54 134.5v49q0 82 -52 136t-131 54q-82 0 -134 -61t-52 -158q0 -95 51 -152t131 -57z" />
    <glyph glyph-name="e" unicode="e" horiz-adv-x="542" 
d="M489 246v-12h-399q1 -95 52.5 -151t136.5 -56q72 0 117.5 36.5t53.5 90.5h36q-9 -69 -65 -114t-143 -45q-103 0 -163.5 66t-60.5 177q0 112 62.5 181t161.5 69q97 0 154 -66t57 -176zM279 455q-79 0 -130.5 -52t-57.5 -140h362q-4 90 -50 141t-124 51z" />
    <glyph glyph-name="f" unicode="f" horiz-adv-x="336" 
d="M262 678q-56 0 -88.5 -31.5t-32.5 -87.5v-76h178v-32h-178v-451h-36v451h-69v32h69v76q0 71 42.5 111t112.5 40q44 0 62 -6l-2 -33q-16 7 -58 7z" />
    <glyph glyph-name="g" unicode="g" horiz-adv-x="574" 
d="M455 483h34v-486q0 -99 -58 -153t-158 -54q-91 0 -142 37t-58 107h36q12 -112 164 -112q84 0 132 45.5t48 129.5v114q-24 -54 -71 -84.5t-109 -30.5q-98 0 -158.5 67t-60.5 179t60.5 179t158.5 67q62 0 109.5 -31t70.5 -86zM275 27q75 0 126.5 54.5t51.5 135.5v48
q0 80 -52 135t-126 55q-83 0 -134 -57.5t-51 -155.5q0 -99 51 -157t134 -58z" />
    <glyph glyph-name="h" unicode="h" horiz-adv-x="555" 
d="M297 488q83 0 130.5 -50.5t47.5 -136.5v-301h-36v294q0 74 -39.5 117.5t-110.5 43.5q-77 0 -122 -47t-45 -105v-303h-36v700h35v-317q21 48 67 76.5t109 28.5z" />
    <glyph glyph-name="i" unicode="i" horiz-adv-x="207" 
d="M139 643q0 -15 -10 -25t-24 -10t-24.5 10t-10.5 25q0 14 10.5 24.5t24.5 10.5t24 -10.5t10 -24.5zM86 0v483h36v-483h-36z" />
    <glyph glyph-name="j" unicode="j" horiz-adv-x="215" 
d="M149 643q0 -15 -10.5 -25t-24.5 -10t-24.5 10t-10.5 25q0 14 10.5 24.5t24.5 10.5t24.5 -10.5t10.5 -24.5zM-10 -205q-40 0 -62 10l3 32q18 -9 54 -9q109 0 109 118v537h35v-537q0 -74 -36 -112.5t-103 -38.5z" />
    <glyph glyph-name="k" unicode="k" horiz-adv-x="452" 
d="M400 0l-193 256l-86 -90v-166h-35v700h35v-485l255 268h46l-192 -202l212 -281h-42z" />
    <glyph glyph-name="l" unicode="l" horiz-adv-x="218" 
d="M189 34l4 -32q-19 -6 -40 -6q-70 0 -70 79v625h36v-620q0 -51 41 -51q16 0 29 5z" />
    <glyph glyph-name="m" unicode="m" horiz-adv-x="875" 
d="M627 488q75 0 121.5 -49t46.5 -132v-307h-36v300q0 72 -39 113.5t-100 41.5q-74 0 -118 -47.5t-44 -104.5v-303h-36v305q0 66 -39.5 108t-99.5 42q-74 0 -118 -47.5t-44 -104.5v-303h-35v483h33l2 -99q20 47 64 75.5t105 28.5q59 0 102 -33.5t59 -88.5q17 54 63.5 88
t112.5 34z" />
    <glyph glyph-name="n" unicode="n" horiz-adv-x="555" 
d="M297 488q84 0 131 -50.5t47 -138.5v-299h-36v292q0 76 -39.5 119.5t-110.5 43.5q-77 0 -122.5 -47.5t-45.5 -104.5v-303h-35v483h33l2 -101q21 48 67 77t109 29z" />
    <glyph glyph-name="o" unicode="o" horiz-adv-x="559" 
d="M280 488q101 0 163 -67.5t62 -178.5q0 -110 -62 -178.5t-163 -68.5t-163.5 67.5t-62.5 176.5q0 112 62.5 180.5t163.5 68.5zM280 455q-85 0 -137.5 -59t-52.5 -155t52.5 -155t137.5 -59t137 59t52 155t-52 155t-137 59z" />
    <glyph glyph-name="p" unicode="p" horiz-adv-x="581" 
d="M312 488q96 0 155 -67t59 -176q0 -112 -61 -180.5t-159 -68.5q-66 0 -114 31t-71 85v-312h-35v683h34l1 -115q24 56 75 88t116 32zM305 27q82 0 133.5 60.5t51.5 157.5q0 95 -50 152.5t-129 57.5q-80 0 -135 -54.5t-55 -134.5v-49q0 -81 52.5 -135.5t131.5 -54.5z" />
    <glyph glyph-name="q" unicode="q" horiz-adv-x="581" 
d="M460 483h35v-683h-36v314q-24 -55 -74 -86.5t-115 -31.5q-96 0 -156 66t-60 176q0 111 61.5 180.5t160.5 69.5q65 0 112.5 -31t70.5 -85zM272 28q79 0 133 54.5t54 134.5v49q0 82 -52 136t-131 54q-82 0 -134 -61t-52 -158q0 -95 51 -152t131 -57z" />
    <glyph glyph-name="r" unicode="r" horiz-adv-x="309" 
d="M262 488q12 0 27 -3v-34q-8 2 -28 2q-44 0 -77.5 -33t-48 -73.5t-14.5 -76.5v-270h-35v483h33l2 -120q16 54 52 89.5t89 35.5z" />
    <glyph glyph-name="s" unicode="s" horiz-adv-x="456" 
d="M99 362q0 -42 31.5 -64t76 -30t89.5 -18t76.5 -40t31.5 -84q0 -60 -49 -95t-126 -35q-82 0 -131 36.5t-49 103.5h34q1 -50 40 -79t105 -29q62 0 101 26.5t39 71.5q0 43 -31.5 66t-76 32t-89.5 19t-76.5 39t-31.5 80q0 58 47.5 92t122.5 34q74 0 117.5 -35.5t44.5 -99.5
h-34q-1 49 -36 75.5t-93 26.5q-59 0 -96 -24.5t-37 -68.5z" />
    <glyph glyph-name="t" unicode="t" horiz-adv-x="337" 
d="M324 42l2 -32q-33 -15 -78 -15q-72 0 -109.5 37.5t-37.5 109.5v309h-78v32h80v149h34v-149h178v-32h-178v-309q0 -115 113 -115q42 0 74 15z" />
    <glyph glyph-name="u" unicode="u" horiz-adv-x="543" 
d="M422 483h35v-483h-33l-2 101q-21 -48 -65.5 -76.5t-104.5 -28.5q-80 0 -126 49t-46 133v305h36v-299q0 -72 38.5 -114t105.5 -42q73 0 117.5 47.5t44.5 104.5v303z" />
    <glyph glyph-name="v" unicode="v" horiz-adv-x="485" 
d="M419 483h37l-191 -483h-45l-192 483h40l168 -429q4 -7 7 -19h2q1 7 5 19z" />
    <glyph glyph-name="w" unicode="w" horiz-adv-x="701" 
d="M629 483h40l-144 -483h-48l-117 398l-9 37h-1l-9 -37l-117 -398h-48l-144 483h40l121 -424q1 -3 2.5 -9t3 -10t1.5 -5h2q0 1 1.5 5t3.5 10l3 9l122 424h37l122 -424l3 -9t3.5 -10t1.5 -5h2q0 1 1.5 5t3 9.5t2.5 9.5z" />
    <glyph glyph-name="x" unicode="x" horiz-adv-x="433" 
d="M407 0h-42l-148 220l-148 -220h-42l169 246l-167 237h43l146 -211l144 211h41l-164 -236z" />
    <glyph glyph-name="y" unicode="y" horiz-adv-x="482" 
d="M418 483h37l-189 -483l-36 -91q-24 -61 -58 -87.5t-85 -26.5q-40 0 -62 10l4 32q18 -9 53 -9q80 0 114 86l29 72l-194 497h40l166 -429l6 -19h2q4 15 6 19z" />
    <glyph glyph-name="z" unicode="z" horiz-adv-x="433" 
d="M81 31h315v-31h-358v31l307 420h-300v32h343v-31z" />
    <glyph glyph-name="braceleft" unicode="{" horiz-adv-x="275" 
d="M38 315h10q25 0 44 17t19 52v238q0 51 27 78t75 27h31v-33h-31q-67 0 -67 -72v-241q0 -39 -16.5 -59.5t-32.5 -23.5q49 -18 49 -83v-241q0 -72 67 -72h31v-33h-31q-48 0 -75 27t-27 78v238q0 35 -19 52.5t-44 17.5h-10v33z" />
    <glyph glyph-name="bar" unicode="|" horiz-adv-x="231" 
d="M98 -155v855h35v-855h-35z" />
    <glyph glyph-name="braceright" unicode="}" horiz-adv-x="275" 
d="M237 315v-33h-10q-25 0 -44 -17.5t-19 -52.5v-238q0 -51 -27.5 -78t-74.5 -27h-31v33h31q67 0 67 72v241q0 65 49 83q-16 3 -32.5 23.5t-16.5 59.5v241q0 72 -67 72h-31v33h31q47 0 74.5 -27t27.5 -78v-238q0 -35 19 -52t44 -17h10z" />
    <glyph glyph-name="asciitilde" unicode="~" horiz-adv-x="502" 
d="M171 380q-26 0 -42.5 -14t-16.5 -41h-30q0 41 23 63.5t65 22.5q40 0 89.5 -30t76.5 -30t43.5 14.5t15.5 40.5h30q1 -41 -23.5 -63.5t-65.5 -22.5q-38 0 -88 30t-77 30z" />
    <glyph glyph-name="exclamdown" unicode="&#xa1;" horiz-adv-x="218" 
d="M108 418q-16 0 -26 9.5t-10 25.5t10 25.5t26 9.5t26 -9.5t10 -25.5t-10 -25.5t-26 -9.5zM128 -200h-39l4 519h32z" />
    <glyph glyph-name="cent" unicode="&#xa2;" horiz-adv-x="527" 
d="M279 105q67 0 111 39.5t52 98.5h37q-8 -71 -57 -117.5t-125 -51.5v-103h-36v103q-94 6 -150 73.5t-56 173.5t56 173.5t150 73.5v102h36v-102q76 -5 125.5 -52.5t56.5 -118.5h-37q-8 60 -52.5 99.5t-110.5 39.5q-85 0 -136.5 -58.5t-51.5 -156.5t51.5 -157t136.5 -59z" />
    <glyph glyph-name="sterling" unicode="&#xa3;" horiz-adv-x="565" 
d="M182 170q0 -93 -41 -137h370v-33h-466v29q56 0 78 29.5t22 104.5q0 51 -11 139h-87v33h83q-9 83 -9 144q1 97 52 151.5t142 54.5q89 0 142.5 -51t53.5 -137h-36q0 71 -43 113t-116 42q-76 0 -117 -45t-41 -128q0 -63 9 -144h242v-33h-238q11 -86 11 -132z" />
    <glyph glyph-name="currency" unicode="&#xa4;" horiz-adv-x="554" 
d="M462 319q0 -73 -40 -124l67 -68l-24 -24l-68 67q-47 -41 -120 -41q-72 0 -122 42l-69 -69l-24 25l69 69q-39 51 -39 123q0 74 40 125l-68 67l25 24l67 -67q49 41 121 41q73 0 123 -42l68 68l24 -25l-68 -68q38 -52 38 -123zM277 164q69 0 110 43.5t41 111.5
q0 67 -41.5 111t-109.5 44t-109 -44t-41 -111q0 -68 40.5 -111.5t109.5 -43.5z" />
    <glyph glyph-name="yen" unicode="&#xa5;" horiz-adv-x="589" 
d="M563 678l-230 -342h139v-33h-160v-101h160v-33h-160v-169h-36v169h-159v33h159v101h-159v33h138l-229 342h41l227 -339l227 339h42z" />
    <glyph glyph-name="brokenbar" unicode="&#xa6;" horiz-adv-x="237" 
d="M101 364v336h35v-336h-35zM101 -155v333h35v-333h-35z" />
    <glyph glyph-name="section" unicode="&#xa7;" horiz-adv-x="516" 
d="M355 113q85 -42 85 -138q0 -73 -51.5 -114.5t-137.5 -41.5q-88 0 -144.5 44t-56.5 123h35q-1 -61 45 -98t120 -37q69 0 111.5 33t42.5 91q0 45 -25 74t-62.5 40t-81 24t-81 26t-62.5 45t-25 82q0 49 31.5 83t85.5 49q-47 19 -73.5 50t-26.5 87q1 69 52.5 109t130.5 40
q80 0 130 -42t50 -117h-34q0 61 -40.5 94t-103.5 33t-106 -31.5t-43 -85.5q0 -38 18.5 -63t48.5 -37t65.5 -20.5t71.5 -18.5t66 -26t48.5 -48t18.5 -79q0 -43 -28 -78.5t-74 -51.5zM103 266q0 -25 9.5 -44t23 -30.5t37 -21.5t42.5 -15t49 -12.5t48 -13.5q49 12 79 43t30 71
q0 33 -13 56.5t-37.5 37.5t-50 22t-60.5 17q-12 3 -18 4q-61 -4 -100 -35.5t-39 -78.5z" />
    <glyph glyph-name="dieresis" unicode="&#xa8;" horiz-adv-x="316" 
d="M64 675q15 0 24.5 -9.5t9.5 -24.5q0 -14 -9.5 -23.5t-24.5 -9.5t-24.5 9.5t-9.5 23.5q0 15 9.5 24.5t24.5 9.5zM233 675q15 0 24.5 -9.5t9.5 -24.5q0 -14 -9.5 -23.5t-24.5 -9.5t-24.5 9.5t-9.5 23.5q0 15 9.5 24.5t24.5 9.5z" />
    <glyph glyph-name="copyright" unicode="&#xa9;" horiz-adv-x="793" 
d="M397 -4q-149 -1 -244.5 97t-95.5 247q1 150 96 247.5t243 96.5q148 1 243.5 -97t95.5 -247t-95 -247t-243 -97zM396 26q133 0 219.5 90t86.5 224q1 134 -86 224t-220 90t-219.5 -90t-86.5 -224t86.5 -224t219.5 -90zM403 160q55 0 92.5 32.5t43.5 82.5h35
q-7 -64 -53.5 -105t-116.5 -41q-87 0 -139.5 58.5t-52.5 153.5t52.5 152.5t139.5 57.5q70 0 116.5 -41.5t53.5 -105.5h-35q-6 50 -43.5 83t-92.5 33q-71 0 -113.5 -49t-42.5 -131t42.5 -131t113.5 -49z" />
    <glyph glyph-name="ordfeminine" unicode="&#xaa;" horiz-adv-x="431" 
d="M213 685q66 0 104.5 -36.5t38.5 -97.5v-233h-34l-2 72q-15 -30 -52 -52.5t-92 -22.5t-87 26t-32 68q0 111 207 111h56v31q0 47 -29 75t-79 28q-45 0 -73.5 -23.5t-32.5 -63.5h-35q5 54 43 86t99 32zM184 345q35 0 63 11.5t43 28t22.5 30.5t7.5 21v58h-57q-170 0 -170 -82
q0 -31 24 -49t67 -18z" />
    <glyph glyph-name="guillemotleft" unicode="&#xab;" horiz-adv-x="423" 
d="M44 238v12l128 141h41l-131 -147l132 -148h-42zM184 238v12l128 141h41l-131 -147l132 -148h-42z" />
    <glyph glyph-name="registered" unicode="&#xae;" horiz-adv-x="504" 
d="M252 685q87 0 141.5 -56t54.5 -142t-54.5 -142t-141.5 -56t-141.5 56t-54.5 142t54.5 142t141.5 56zM252 314q74 0 121.5 49.5t47.5 123.5t-47.5 123.5t-121.5 49.5t-121.5 -49.5t-47.5 -123.5t47.5 -123.5t121.5 -49.5zM296 472q12 -10 27 -47t27 -53h-33q-9 13 -19 39
t-19.5 41t-22.5 15h-52v-95h-30v235h90q36 0 58 -17.5t22 -52.5q0 -51 -48 -65zM204 491h60q49 0 49 46q0 45 -49 45h-60v-91z" />
    <glyph glyph-name="macron" unicode="&#xaf;" horiz-adv-x="345" 
d="M50 626v32h245v-32h-245z" />
    <glyph glyph-name="degree" unicode="&#xb0;" horiz-adv-x="347" 
d="M295 584q0 -55 -34.5 -88.5t-87.5 -33.5q-52 0 -86 33.5t-34 88.5q0 54 34 87.5t86 33.5q53 0 87.5 -33.5t34.5 -87.5zM266 584q0 41 -26.5 67t-66.5 26q-39 0 -65 -26t-26 -67t26 -67.5t65 -26.5q40 0 66.5 26t26.5 68z" />
    <glyph glyph-name="plusminus" unicode="&#xb1;" horiz-adv-x="538" 
d="M286 402h175v-32h-175v-186h-35v186h-175v32h175v185h35v-185zM77 87v32h384v-32h-384z" />
    <glyph glyph-name="acute" unicode="&#xb4;" horiz-adv-x="235" 
d="M91 565h-30l53 147h49z" />
    <glyph glyph-name="paragraph" unicode="&#xb6;" horiz-adv-x="541" 
d="M399 -143v788h-82v-788h-36v459h-54q-89 0 -143.5 50t-54.5 130q0 81 54.5 132t143.5 51h208v-822h-36z" />
    <glyph glyph-name="periodcentered" unicode="&#xb7;" horiz-adv-x="215" 
d="M107 407q16 0 26 -9.5t10 -25.5t-10 -25.5t-26 -9.5q-15 0 -25 9.5t-10 25.5t10 25.5t25 9.5z" />
    <glyph glyph-name="cedilla" unicode="&#xb8;" horiz-adv-x="253" 
d="M70 -153q18 -8 45 -8q61 0 61 44q0 49 -80 49l17 80h26l-12 -58q78 -6 78 -70q0 -34 -24 -54t-67 -20q-30 0 -50 9z" />
    <glyph glyph-name="ordmasculine" unicode="&#xba;" horiz-adv-x="450" 
d="M225 685q77 0 124 -51.5t47 -134.5q0 -82 -47 -133t-124 -51t-124.5 51t-47.5 133q0 83 47.5 134.5t124.5 51.5zM225 653q-61 0 -98 -42.5t-37 -111.5q0 -68 37 -110.5t98 -42.5t97.5 42t36.5 111t-36.5 111.5t-97.5 42.5z" />
    <glyph glyph-name="guillemotright" unicode="&#xbb;" horiz-adv-x="423" 
d="M239 238l-128 -142h-42l132 148l-131 147h41l128 -141v-12zM379 238l-128 -142h-42l132 148l-131 147h41l128 -141v-12z" />
    <glyph glyph-name="onequarter" unicode="&#xbc;" horiz-adv-x="658" 
d="M454 685h36l-289 -685h-36zM217 334v-29h-168v29h71v275h-70v24q42 0 59 9.5t23 36.5h22v-345h63zM625 126v-29h-53v-97h-34v97h-192v29l179 248h47v-248h53zM382 128v-2h157v212h-2z" />
    <glyph glyph-name="onehalf" unicode="&#xbd;" horiz-adv-x="702" 
d="M457 685h36l-289 -685h-36zM217 334v-29h-168v29h71v275h-71v24q43 0 60 9.5t23 36.5h22v-345h63zM465 29h195v-29h-249v23l149 142q31 29 45.5 52.5t14.5 54.5q0 37 -23.5 56.5t-60.5 19.5q-39 0 -63.5 -23t-23.5 -65h-35q0 56 35 87t88 31q51 0 84.5 -28t33.5 -78
q0 -64 -71 -130z" />
    <glyph glyph-name="threequarters" unicode="&#xbe;" horiz-adv-x="709" 
d="M511 685h35l-289 -685h-36zM295 410q0 -51 -35.5 -78.5t-90.5 -27.5q-56 0 -91.5 29.5t-35.5 84.5h35q0 -42 25.5 -63t67.5 -21q40 0 64.5 19t24.5 56q0 38 -25 57.5t-66 19.5h-32v28h27q38 0 63.5 17t26.5 52q0 35 -23.5 53t-60.5 18q-38 0 -61 -20.5t-23 -58.5h-35
q0 51 32.5 80t86.5 29q52 0 85.5 -26t33.5 -74q0 -59 -55 -83q62 -23 62 -91zM676 126v-29h-53v-97h-35v97h-192v29l180 248h47v-248h53zM433 128v-2h156v212h-2z" />
    <glyph glyph-name="questiondown" unicode="&#xbf;" horiz-adv-x="426" 
d="M226 422q-16 0 -25.5 10t-9.5 26q0 15 10 25t26 10t25.5 -10t9.5 -26q0 -15 -10 -25t-26 -10zM360 -21h36q0 -92 -50.5 -140.5t-135.5 -48.5q-78 0 -126.5 40t-48.5 115q0 43 18 80t43.5 63.5t51 52.5t43.5 60.5t18 74.5v48h34v-49q0 -44 -17.5 -81t-43 -63.5
t-50.5 -52.5t-42.5 -60t-17.5 -73q0 -61 40 -91.5t101 -30.5q68 0 107.5 39.5t39.5 116.5z" />
    <glyph glyph-name="Agrave" unicode="&#xc0;" horiz-adv-x="607" 
d="M330 718h-36l-70 122h53zM545 0l-75 199h-333l-75 -199h-38l257 678h44l257 -678h-37zM150 233h307l-154 408z" />
    <glyph glyph-name="Aacute" unicode="&#xc1;" horiz-adv-x="607" 
d="M391 840l-72 -122h-36l51 122h57zM545 0l-75 199h-333l-75 -199h-38l257 678h44l257 -678h-37zM150 233h307l-154 408z" />
    <glyph glyph-name="Acircumflex" unicode="&#xc2;" horiz-adv-x="607" 
d="M303 810l-83 -92h-34l92 122h51l91 -122h-33zM545 0l-75 199h-333l-75 -199h-38l257 678h44l257 -678h-37zM150 233h307l-154 408z" />
    <glyph glyph-name="Atilde" unicode="&#xc3;" horiz-adv-x="607" 
d="M242 793q-19 0 -31 -12.5t-13 -36.5h-31q0 38 19.5 60.5t54.5 22.5q33 0 66.5 -27.5t55.5 -27.5q43 0 42 50h32q0 -40 -19.5 -61.5t-53.5 -21.5q-33 0 -67.5 27t-54.5 27zM545 0l-75 199h-333l-75 -199h-38l257 678h44l257 -678h-37zM150 233h307l-154 408z" />
    <glyph glyph-name="Adieresis" unicode="&#xc4;" horiz-adv-x="607" 
d="M219 744q-15 0 -24.5 9t-9.5 24t9.5 24t24.5 9t24.5 -9t9.5 -24t-9.5 -24t-24.5 -9zM388 744q-14 0 -23.5 9t-9.5 24t9.5 24t23.5 9q15 0 24.5 -9t9.5 -24t-9.5 -24t-24.5 -9zM545 0l-75 199h-333l-75 -199h-38l257 678h44l257 -678h-37zM150 233h307l-154 408z" />
    <glyph glyph-name="Aring" unicode="&#xc5;" horiz-adv-x="607" 
d="M304 708q-33 0 -55 21.5t-22 53.5q0 33 22 55t55 22t54.5 -22t21.5 -55q0 -32 -21.5 -53.5t-54.5 -21.5zM304 830q-22 0 -34.5 -13t-12.5 -34q0 -20 12.5 -33.5t34.5 -13.5q21 0 33.5 13.5t12.5 33.5q0 21 -12.5 34t-33.5 13zM545 0l-75 199h-333l-75 -199h-38l257 678
h44l257 -678h-37zM150 233h307l-154 408z" />
    <glyph glyph-name="AE" unicode="&#xc6;" horiz-adv-x="981" 
d="M528 33h400v-33h-436v199h-313l-140 -199h-42l474 678h456v-33h-399v-274h368v-33h-368v-305zM203 233h289v411h-1z" />
    <glyph glyph-name="Ccedilla" unicode="&#xc7;" horiz-adv-x="685" 
d="M358 29q104 0 167.5 57.5t73.5 147.5h35q-10 -104 -81 -170t-188 -68l-9 -42q78 -6 78 -70q0 -34 -24 -54t-67 -20q-31 0 -50 9l6 28q18 -8 45 -8q61 0 61 44q0 49 -80 49l14 65q-124 7 -202 100t-78 242q0 154 85 249.5t214 95.5q119 0 192.5 -67t83.5 -173h-35
q-10 90 -74 148.5t-167 58.5q-113 0 -187.5 -86t-74.5 -226t74 -225t188 -85z" />
    <glyph glyph-name="Egrave" unicode="&#xc8;" horiz-adv-x="592" 
d="M350 718h-36l-70 122h53zM139 33h400v-33h-436v678h435v-33h-399v-274h368v-33h-368v-305z" />
    <glyph glyph-name="Eacute" unicode="&#xc9;" horiz-adv-x="592" 
d="M410 840l-72 -122h-36l51 122h57zM139 33h400v-33h-436v678h435v-33h-399v-274h368v-33h-368v-305z" />
    <glyph glyph-name="Ecircumflex" unicode="&#xca;" horiz-adv-x="592" 
d="M323 810l-83 -92h-34l92 122h51l91 -122h-33zM139 33h400v-33h-436v678h435v-33h-399v-274h368v-33h-368v-305z" />
    <glyph glyph-name="Edieresis" unicode="&#xcb;" horiz-adv-x="592" 
d="M238 744q-15 0 -24.5 9t-9.5 24t9.5 24t24.5 9t24.5 -9t9.5 -24t-9.5 -24t-24.5 -9zM407 744q-14 0 -23.5 9t-9.5 24t9.5 24t23.5 9q15 0 24.5 -9t9.5 -24t-9.5 -24t-24.5 -9zM139 33h400v-33h-436v678h435v-33h-399v-274h368v-33h-368v-305z" />
    <glyph glyph-name="Igrave" unicode="&#xcc;" horiz-adv-x="242" 
d="M112 718l-70 122h53l53 -122h-36zM103 0v678h36v-678h-36z" />
    <glyph glyph-name="Iacute" unicode="&#xcd;" horiz-adv-x="242" 
d="M137 718h-36l51 122h57zM103 0v678h36v-678h-36z" />
    <glyph glyph-name="Icircumflex" unicode="&#xce;" horiz-adv-x="242" 
d="M147 840l91 -122h-33l-84 92l-83 -92h-34l92 122h51zM103 0v678h36v-678h-36z" />
    <glyph glyph-name="Idieresis" unicode="&#xcf;" horiz-adv-x="242" 
d="M37 810q15 0 24.5 -9t9.5 -24t-9.5 -24t-24.5 -9t-24.5 9t-9.5 24t9.5 24t24.5 9zM206 810q15 0 24.5 -9t9.5 -24t-9.5 -24t-24.5 -9q-14 0 -23.5 9t-9.5 24t9.5 24t23.5 9zM103 0v678h36v-678h-36z" />
    <glyph glyph-name="Eth" unicode="&#xd0;" horiz-adv-x="711" 
d="M345 679q135 0 220.5 -91.5t85.5 -247.5q0 -157 -85.5 -248.5t-219.5 -91.5h-237v324h-78v30h78v324zM346 33q117 0 193 83.5t76 223.5t-76 222.5t-194 82.5h-200v-291h190v-30h-190v-291h201z" />
    <glyph glyph-name="Ntilde" unicode="&#xd1;" horiz-adv-x="710" 
d="M294 793q-19 0 -31 -12.5t-13 -36.5h-31q0 38 19.5 60.5t54.5 22.5q33 0 66.5 -27.5t55.5 -27.5q43 0 42 50h32q0 -40 -19.5 -61.5t-53.5 -21.5q-33 0 -67.5 27t-54.5 27zM571 678h36v-678h-37l-431 622v-622h-36v678h37l431 -622v622z" />
    <glyph glyph-name="Ograve" unicode="&#xd2;" horiz-adv-x="744" 
d="M362 718l-70 122h53l53 -122h-36zM372 -4q-138 0 -225.5 91.5t-87.5 250.5t88 252.5t226 93.5q136 0 223.5 -92t87.5 -251t-87.5 -252t-224.5 -93zM372 29q121 0 198.5 84t77.5 227t-77.5 227t-198.5 84t-198.5 -84t-77.5 -227t77.5 -227t198.5 -84z" />
    <glyph glyph-name="Oacute" unicode="&#xd3;" horiz-adv-x="744" 
d="M387 718h-36l51 122h57zM372 -4q-138 0 -225.5 91.5t-87.5 250.5t88 252.5t226 93.5q136 0 223.5 -92t87.5 -251t-87.5 -252t-224.5 -93zM372 29q121 0 198.5 84t77.5 227t-77.5 227t-198.5 84t-198.5 -84t-77.5 -227t77.5 -227t198.5 -84z" />
    <glyph glyph-name="Ocircumflex" unicode="&#xd4;" horiz-adv-x="744" 
d="M397 840l91 -122h-33l-84 92l-83 -92h-34l92 122h51zM372 -4q-138 0 -225.5 91.5t-87.5 250.5t88 252.5t226 93.5q136 0 223.5 -92t87.5 -251t-87.5 -252t-224.5 -93zM372 29q121 0 198.5 84t77.5 227t-77.5 227t-198.5 84t-198.5 -84t-77.5 -227t77.5 -227t198.5 -84z
" />
    <glyph glyph-name="Otilde" unicode="&#xd5;" horiz-adv-x="744" 
d="M310 793q-19 0 -31 -12.5t-13 -36.5h-31q0 38 19.5 60.5t54.5 22.5q33 0 66.5 -27.5t55.5 -27.5q43 0 42 50h32q0 -40 -19.5 -61.5t-53.5 -21.5q-33 0 -67.5 27t-54.5 27zM372 -4q-138 0 -225.5 91.5t-87.5 250.5t88 252.5t226 93.5q136 0 223.5 -92t87.5 -251
t-87.5 -252t-224.5 -93zM372 29q121 0 198.5 84t77.5 227t-77.5 227t-198.5 84t-198.5 -84t-77.5 -227t77.5 -227t198.5 -84z" />
    <glyph glyph-name="Odieresis" unicode="&#xd6;" horiz-adv-x="744" 
d="M287 810q15 0 24.5 -9t9.5 -24t-9.5 -24t-24.5 -9t-24.5 9t-9.5 24t9.5 24t24.5 9zM456 810q15 0 24.5 -9t9.5 -24t-9.5 -24t-24.5 -9q-14 0 -23.5 9t-9.5 24t9.5 24t23.5 9zM372 -4q-138 0 -225.5 91.5t-87.5 250.5t88 252.5t226 93.5q136 0 223.5 -92t87.5 -251
t-87.5 -252t-224.5 -93zM372 29q121 0 198.5 84t77.5 227t-77.5 227t-198.5 84t-198.5 -84t-77.5 -227t77.5 -227t198.5 -84z" />
    <glyph glyph-name="multiply" unicode="&#xd7;" horiz-adv-x="453" 
d="M387 486l-139 -139l139 -139l-23 -22l-138 139l-139 -139l-23 21l140 140l-140 139l23 22l139 -139l138 138z" />
    <glyph glyph-name="Oslash" unicode="&#xd8;" horiz-adv-x="744" 
d="M569 618q115 -94 115 -277q0 -159 -87.5 -252t-224.5 -93q-95 0 -169 46l-56 -88h-40l68 107q-116 93 -116 277q0 159 88 252.5t226 93.5q96 0 169 -47l50 79h39zM96 340q0 -162 99 -248l328 515q-65 44 -151 44q-121 0 -198.5 -84t-77.5 -227zM372 29q121 0 198.5 84
t77.5 227q0 161 -99 247l-327 -515q66 -43 150 -43z" />
    <glyph glyph-name="Ugrave" unicode="&#xd9;" horiz-adv-x="692" 
d="M336 718l-70 122h53l53 -122h-36zM560 678h36v-411q0 -132 -63.5 -201.5t-186.5 -69.5q-124 0 -187.5 69.5t-63.5 201.5v411h36v-411q0 -238 215 -238q214 0 214 238v411z" />
    <glyph glyph-name="Uacute" unicode="&#xda;" horiz-adv-x="692" 
d="M361 718h-36l51 122h57zM560 678h36v-411q0 -132 -63.5 -201.5t-186.5 -69.5q-124 0 -187.5 69.5t-63.5 201.5v411h36v-411q0 -238 215 -238q214 0 214 238v411z" />
    <glyph glyph-name="Ucircumflex" unicode="&#xdb;" horiz-adv-x="692" 
d="M371 840l91 -122h-33l-84 92l-83 -92h-34l92 122h51zM560 678h36v-411q0 -132 -63.5 -201.5t-186.5 -69.5q-124 0 -187.5 69.5t-63.5 201.5v411h36v-411q0 -238 215 -238q214 0 214 238v411z" />
    <glyph glyph-name="Udieresis" unicode="&#xdc;" horiz-adv-x="692" 
d="M261 810q15 0 24.5 -9t9.5 -24t-9.5 -24t-24.5 -9t-24.5 9t-9.5 24t9.5 24t24.5 9zM430 810q15 0 24.5 -9t9.5 -24t-9.5 -24t-24.5 -9q-14 0 -23.5 9t-9.5 24t9.5 24t23.5 9zM560 678h36v-411q0 -132 -63.5 -201.5t-186.5 -69.5q-124 0 -187.5 69.5t-63.5 201.5v411h36
v-411q0 -238 215 -238q214 0 214 238v411z" />
    <glyph glyph-name="Yacute" unicode="&#xdd;" horiz-adv-x="592" 
d="M383 840l-72 -122h-36l51 122h57zM565 678l-251 -373v-305h-36v305l-250 373h41l227 -339l227 339h42z" />
    <glyph glyph-name="Thorn" unicode="&#xde;" horiz-adv-x="614" 
d="M362 532q86 0 142 -47t56 -141t-55.5 -140.5t-142.5 -46.5h-223v-157h-36v678h36v-146h223zM362 190q71 0 116 39t45 115q0 77 -45 116t-116 39h-223v-309h223z" />
    <glyph glyph-name="germandbls" unicode="&#xdf;" horiz-adv-x="517" 
d="M315 374q73 -14 111.5 -60.5t38.5 -121.5q0 -91 -57.5 -141.5t-164.5 -50.5h-61v32h61q90 0 138 41.5t48 118.5q0 78 -48 120t-138 42h-55v30h30q84 0 130 45t46 116q0 61 -35 97.5t-98 36.5q-67 0 -103.5 -41t-36.5 -109v-529h-35v529q0 83 46.5 132t128.5 49
q79 0 124 -44.5t45 -119.5q0 -60 -30 -105t-85 -67z" />
    <glyph glyph-name="agrave" unicode="&#xe0;" horiz-adv-x="524" 
d="M305 565h-30l-72 147h49zM503 34l4 -32q-18 -6 -39 -6q-33 0 -51.5 20.5t-18.5 58.5v24q-21 -42 -71.5 -72.5t-126.5 -30.5q-72 0 -110.5 33.5t-38.5 90.5q0 149 249 149h98v42q0 66 -41 105t-111 39q-64 0 -104 -33t-45 -89h-35q5 71 55.5 113t130.5 42q85 0 135.5 -48
t50.5 -129v-232q0 -50 40 -50q16 0 29 5zM208 26q49 0 88.5 17t60 40.5t31 42.5t10.5 29v85h-99q-212 0 -212 -118q0 -45 31 -70.5t90 -25.5z" />
    <glyph glyph-name="aacute" unicode="&#xe1;" horiz-adv-x="524" 
d="M345 712l-72 -147h-30l53 147h49zM503 34l4 -32q-18 -6 -39 -6q-33 0 -51.5 20.5t-18.5 58.5v24q-21 -42 -71.5 -72.5t-126.5 -30.5q-72 0 -110.5 33.5t-38.5 90.5q0 149 249 149h98v42q0 66 -41 105t-111 39q-64 0 -104 -33t-45 -89h-35q5 71 55.5 113t130.5 42
q85 0 135.5 -48t50.5 -129v-232q0 -50 40 -50q16 0 29 5zM208 26q49 0 88.5 17t60 40.5t31 42.5t10.5 29v85h-99q-212 0 -212 -118q0 -45 31 -70.5t90 -25.5z" />
    <glyph glyph-name="acircumflex" unicode="&#xe2;" horiz-adv-x="524" 
d="M268 681l-84 -116h-33l94 147h47l94 -147h-33zM503 34l4 -32q-18 -6 -39 -6q-33 0 -51.5 20.5t-18.5 58.5v24q-21 -42 -71.5 -72.5t-126.5 -30.5q-72 0 -110.5 33.5t-38.5 90.5q0 149 249 149h98v42q0 66 -41 105t-111 39q-64 0 -104 -33t-45 -89h-35q5 71 55.5 113
t130.5 42q85 0 135.5 -48t50.5 -129v-232q0 -50 40 -50q16 0 29 5zM208 26q49 0 88.5 17t60 40.5t31 42.5t10.5 29v85h-99q-212 0 -212 -118q0 -45 31 -70.5t90 -25.5z" />
    <glyph glyph-name="atilde" unicode="&#xe3;" horiz-adv-x="524" 
d="M202 651q-20 0 -33 -14t-13 -41h-30q0 41 19.5 64t56.5 23q35 0 68 -30.5t55 -30.5q21 0 34 15t13 41h30q0 -42 -21 -64.5t-55 -22.5q-33 0 -67.5 30t-56.5 30zM503 34l4 -32q-18 -6 -39 -6q-33 0 -51.5 20.5t-18.5 58.5v24q-21 -42 -71.5 -72.5t-126.5 -30.5
q-72 0 -110.5 33.5t-38.5 90.5q0 149 249 149h98v42q0 66 -41 105t-111 39q-64 0 -104 -33t-45 -89h-35q5 71 55.5 113t130.5 42q85 0 135.5 -48t50.5 -129v-232q0 -50 40 -50q16 0 29 5zM208 26q49 0 88.5 17t60 40.5t31 42.5t10.5 29v85h-99q-212 0 -212 -118
q0 -45 31 -70.5t90 -25.5z" />
    <glyph glyph-name="adieresis" unicode="&#xe4;" horiz-adv-x="524" 
d="M186 608q-15 0 -24.5 9.5t-9.5 23.5q0 15 9.5 24.5t24.5 9.5t24.5 -9.5t9.5 -24.5q0 -14 -9.5 -23.5t-24.5 -9.5zM355 608q-15 0 -24.5 9.5t-9.5 23.5q0 15 9.5 24.5t24.5 9.5t24.5 -9.5t9.5 -24.5q0 -14 -9.5 -23.5t-24.5 -9.5zM503 34l4 -32q-18 -6 -39 -6
q-33 0 -51.5 20.5t-18.5 58.5v24q-21 -42 -71.5 -72.5t-126.5 -30.5q-72 0 -110.5 33.5t-38.5 90.5q0 149 249 149h98v42q0 66 -41 105t-111 39q-64 0 -104 -33t-45 -89h-35q5 71 55.5 113t130.5 42q85 0 135.5 -48t50.5 -129v-232q0 -50 40 -50q16 0 29 5zM208 26
q49 0 88.5 17t60 40.5t31 42.5t10.5 29v85h-99q-212 0 -212 -118q0 -45 31 -70.5t90 -25.5z" />
    <glyph glyph-name="aring" unicode="&#xe5;" horiz-adv-x="524" 
d="M268 562q-33 0 -55 21.5t-22 53.5q0 33 22 55t55 22t54.5 -22t21.5 -55q0 -32 -21.5 -53.5t-54.5 -21.5zM268 684q-22 0 -34.5 -13t-12.5 -34q0 -20 12.5 -33.5t34.5 -13.5q21 0 33.5 13.5t12.5 33.5q0 21 -12.5 34t-33.5 13zM503 34l4 -32q-18 -6 -39 -6
q-33 0 -51.5 20.5t-18.5 58.5v24q-21 -42 -71.5 -72.5t-126.5 -30.5q-72 0 -110.5 33.5t-38.5 90.5q0 149 249 149h98v42q0 66 -41 105t-111 39q-64 0 -104 -33t-45 -89h-35q5 71 55.5 113t130.5 42q85 0 135.5 -48t50.5 -129v-232q0 -50 40 -50q16 0 29 5zM208 26
q49 0 88.5 17t60 40.5t31 42.5t10.5 29v85h-99q-212 0 -212 -118q0 -45 31 -70.5t90 -25.5z" />
    <glyph glyph-name="ae" unicode="&#xe6;" horiz-adv-x="877" 
d="M824 246v-12h-389q1 -95 53 -152.5t134 -57.5q65 0 110 38t53 92h36q-9 -70 -63.5 -116.5t-135.5 -46.5q-68 0 -120.5 33.5t-78.5 93.5q-31 -57 -88.5 -89.5t-131.5 -32.5q-71 0 -113 34t-42 90q0 147 280 147h71v44q0 66 -41 105t-109 39q-62 0 -102 -33t-44 -89h-36
q6 71 55 113t127 42q68 0 115 -31.5t63 -87.5q28 56 78 87.5t113 31.5q93 0 149.5 -66.5t56.5 -175.5zM618 455q-76 0 -126 -52.5t-56 -139.5h352q-4 90 -49.5 141t-120.5 51zM210 27q46 0 85.5 16t62.5 39t36 42t16 32q-11 39 -11 82h-71q-244 0 -244 -116q0 -43 34 -69
t92 -26z" />
    <glyph glyph-name="ccedilla" unicode="&#xe7;" horiz-adv-x="526" 
d="M277 24q67 0 112 39.5t53 98.5h37q-8 -74 -62 -122t-136 -49l-8 -40q78 -6 78 -70q0 -34 -24 -54t-67 -20q-30 0 -50 9l6 28q18 -8 45 -8q61 0 61 44q0 49 -80 49l13 63q-93 7 -147 73.5t-54 173.5q0 112 61.5 180.5t162.5 68.5q83 0 138 -48.5t63 -124.5h-37
q-8 60 -52.5 100t-111.5 40q-85 0 -136.5 -59t-51.5 -156q0 -100 51 -158t136 -58z" />
    <glyph glyph-name="egrave" unicode="&#xe8;" horiz-adv-x="542" 
d="M315 565h-30l-72 147h49zM489 246v-12h-399q1 -95 52.5 -151t136.5 -56q72 0 117.5 36.5t53.5 90.5h36q-9 -69 -65 -114t-143 -45q-103 0 -163.5 66t-60.5 177q0 112 62.5 181t161.5 69q97 0 154 -66t57 -176zM279 455q-79 0 -130.5 -52t-57.5 -140h362q-4 90 -50 141
t-124 51z" />
    <glyph glyph-name="eacute" unicode="&#xe9;" horiz-adv-x="542" 
d="M355 712l-72 -147h-30l53 147h49zM489 246v-12h-399q1 -95 52.5 -151t136.5 -56q72 0 117.5 36.5t53.5 90.5h36q-9 -69 -65 -114t-143 -45q-103 0 -163.5 66t-60.5 177q0 112 62.5 181t161.5 69q97 0 154 -66t57 -176zM279 455q-79 0 -130.5 -52t-57.5 -140h362
q-4 90 -50 141t-124 51z" />
    <glyph glyph-name="ecircumflex" unicode="&#xea;" horiz-adv-x="542" 
d="M278 681l-84 -116h-33l94 147h47l94 -147h-33zM489 246v-12h-399q1 -95 52.5 -151t136.5 -56q72 0 117.5 36.5t53.5 90.5h36q-9 -69 -65 -114t-143 -45q-103 0 -163.5 66t-60.5 177q0 112 62.5 181t161.5 69q97 0 154 -66t57 -176zM279 455q-79 0 -130.5 -52t-57.5 -140
h362q-4 90 -50 141t-124 51z" />
    <glyph glyph-name="edieresis" unicode="&#xeb;" horiz-adv-x="542" 
d="M196 608q-15 0 -24.5 9.5t-9.5 23.5q0 15 9.5 24.5t24.5 9.5t24.5 -9.5t9.5 -24.5q0 -14 -9.5 -23.5t-24.5 -9.5zM365 608q-15 0 -24.5 9.5t-9.5 23.5q0 15 9.5 24.5t24.5 9.5t24.5 -9.5t9.5 -24.5q0 -14 -9.5 -23.5t-24.5 -9.5zM489 246v-12h-399q1 -95 52.5 -151
t136.5 -56q72 0 117.5 36.5t53.5 90.5h36q-9 -69 -65 -114t-143 -45q-103 0 -163.5 66t-60.5 177q0 112 62.5 181t161.5 69q97 0 154 -66t57 -176zM279 455q-79 0 -130.5 -52t-57.5 -140h362q-4 90 -50 141t-124 51z" />
    <glyph glyph-name="igrave" unicode="&#xec;" horiz-adv-x="207" 
d="M92 565l-72 147h49l53 -147h-30zM86 0v483h36v-483h-36z" />
    <glyph glyph-name="iacute" unicode="&#xed;" horiz-adv-x="207" 
d="M111 565h-30l53 147h49zM86 0v483h36v-483h-36z" />
    <glyph glyph-name="icircumflex" unicode="&#xee;" horiz-adv-x="207" 
d="M-13 565l94 147h47l94 -147h-33l-85 116l-84 -116h-33zM86 0v483h36v-483h-36z" />
    <glyph glyph-name="idieresis" unicode="&#xef;" horiz-adv-x="207" 
d="M21 675q15 0 24.5 -9.5t9.5 -24.5q0 -14 -9.5 -23.5t-24.5 -9.5t-24.5 9.5t-9.5 23.5q0 15 9.5 24.5t24.5 9.5zM190 675q15 0 24.5 -9.5t9.5 -24.5q0 -14 -9.5 -23.5t-24.5 -9.5t-24.5 9.5t-9.5 23.5q0 15 9.5 24.5t24.5 9.5zM86 0v483h36v-483h-36z" />
    <glyph glyph-name="eth" unicode="&#xf0;" horiz-adv-x="569" 
d="M363 622q143 -124 143 -359q0 -133 -61.5 -200.5t-168.5 -67.5q-91 0 -156.5 64t-65.5 167q0 109 64 174t160 65q74 0 123 -39t66 -89q-15 162 -129 263l-79 -70l-18 23l74 66q-67 50 -144 63l9 29q90 -19 160 -70l62 55l19 -23zM276 27q87 0 139.5 56.5t53.5 155.5
q-1 75 -54.5 134.5t-135.5 59.5q-81 0 -135 -57t-54 -150q0 -88 54.5 -143.5t131.5 -55.5z" />
    <glyph glyph-name="ntilde" unicode="&#xf1;" horiz-adv-x="555" 
d="M220 651q-20 0 -33 -14t-13 -41h-30q0 41 19.5 64t56.5 23q35 0 68 -30.5t55 -30.5q21 0 34 15t13 41h30q0 -42 -21 -64.5t-55 -22.5q-33 0 -67.5 30t-56.5 30zM297 488q84 0 131 -50.5t47 -138.5v-299h-36v292q0 76 -39.5 119.5t-110.5 43.5q-77 0 -122.5 -47.5
t-45.5 -104.5v-303h-35v483h33l2 -101q21 48 67 77t109 29z" />
    <glyph glyph-name="ograve" unicode="&#xf2;" horiz-adv-x="559" 
d="M286 565l-72 147h49l53 -147h-30zM280 488q101 0 163 -67.5t62 -178.5q0 -110 -62 -178.5t-163 -68.5t-163.5 67.5t-62.5 176.5q0 112 62.5 180.5t163.5 68.5zM280 455q-85 0 -137.5 -59t-52.5 -155t52.5 -155t137.5 -59t137 59t52 155t-52 155t-137 59z" />
    <glyph glyph-name="oacute" unicode="&#xf3;" horiz-adv-x="559" 
d="M284 565h-30l53 147h49zM280 488q101 0 163 -67.5t62 -178.5q0 -110 -62 -178.5t-163 -68.5t-163.5 67.5t-62.5 176.5q0 112 62.5 180.5t163.5 68.5zM280 455q-85 0 -137.5 -59t-52.5 -155t52.5 -155t137.5 -59t137 59t52 155t-52 155t-137 59z" />
    <glyph glyph-name="ocircumflex" unicode="&#xf4;" horiz-adv-x="559" 
d="M163 565l94 147h47l94 -147h-33l-85 116l-84 -116h-33zM280 488q101 0 163 -67.5t62 -178.5q0 -110 -62 -178.5t-163 -68.5t-163.5 67.5t-62.5 176.5q0 112 62.5 180.5t163.5 68.5zM280 455q-85 0 -137.5 -59t-52.5 -155t52.5 -155t137.5 -59t137 59t52 155t-52 155
t-137 59z" />
    <glyph glyph-name="otilde" unicode="&#xf5;" horiz-adv-x="559" 
d="M214 651q-20 0 -33 -14t-13 -41h-30q0 41 19.5 64t56.5 23q35 0 68 -30.5t55 -30.5q21 0 34 15t13 41h30q0 -42 -21 -64.5t-55 -22.5q-33 0 -67.5 30t-56.5 30zM280 488q101 0 163 -67.5t62 -178.5q0 -110 -62 -178.5t-163 -68.5t-163.5 67.5t-62.5 176.5
q0 112 62.5 180.5t163.5 68.5zM280 455q-85 0 -137.5 -59t-52.5 -155t52.5 -155t137.5 -59t137 59t52 155t-52 155t-137 59z" />
    <glyph glyph-name="odieresis" unicode="&#xf6;" horiz-adv-x="559" 
d="M197 675q15 0 24.5 -9.5t9.5 -24.5q0 -14 -9.5 -23.5t-24.5 -9.5t-24.5 9.5t-9.5 23.5q0 15 9.5 24.5t24.5 9.5zM366 675q15 0 24.5 -9.5t9.5 -24.5q0 -14 -9.5 -23.5t-24.5 -9.5t-24.5 9.5t-9.5 23.5q0 15 9.5 24.5t24.5 9.5zM280 488q101 0 163 -67.5t62 -178.5
q0 -110 -62 -178.5t-163 -68.5t-163.5 67.5t-62.5 176.5q0 112 62.5 180.5t163.5 68.5zM280 455q-85 0 -137.5 -59t-52.5 -155t52.5 -155t137.5 -59t137 59t52 155t-52 155t-137 59z" />
    <glyph glyph-name="divide" unicode="&#xf7;" horiz-adv-x="531" 
d="M266 540q17 0 27.5 -10.5t10.5 -26.5t-10.5 -26.5t-27.5 -10.5q-16 0 -26.5 10.5t-10.5 26.5t10.5 26.5t26.5 10.5zM73 331v32h384v-32h-384zM266 233q17 0 27.5 -10.5t10.5 -26.5t-10.5 -26.5t-27.5 -10.5q-16 0 -26.5 10.5t-10.5 26.5t10.5 26.5t26.5 10.5z" />
    <glyph glyph-name="oslash" unicode="&#xf8;" horiz-adv-x="559" 
d="M419 443q86 -68 86 -201q0 -110 -62 -178.5t-163 -68.5q-66 0 -116 29l-33 -55h-33l43 71q-87 66 -87 199q0 112 62.5 180.5t163.5 68.5q66 0 116 -29l32 53h33zM90 241q0 -112 69 -171l219 359q-43 26 -98 26q-85 0 -137.5 -59t-52.5 -155zM280 27q85 0 137 59t52 155
q0 113 -69 171l-218 -359q43 -26 98 -26z" />
    <glyph glyph-name="ugrave" unicode="&#xf9;" horiz-adv-x="543" 
d="M307 565h-30l-72 147h49zM422 483h35v-483h-33l-2 101q-21 -48 -65.5 -76.5t-104.5 -28.5q-80 0 -126 49t-46 133v305h36v-299q0 -72 38.5 -114t105.5 -42q73 0 117.5 47.5t44.5 104.5v303z" />
    <glyph glyph-name="uacute" unicode="&#xfa;" horiz-adv-x="543" 
d="M347 712l-72 -147h-30l53 147h49zM422 483h35v-483h-33l-2 101q-21 -48 -65.5 -76.5t-104.5 -28.5q-80 0 -126 49t-46 133v305h36v-299q0 -72 38.5 -114t105.5 -42q73 0 117.5 47.5t44.5 104.5v303z" />
    <glyph glyph-name="ucircumflex" unicode="&#xfb;" horiz-adv-x="543" 
d="M271 681l-84 -116h-33l94 147h47l94 -147h-33zM422 483h35v-483h-33l-2 101q-21 -48 -65.5 -76.5t-104.5 -28.5q-80 0 -126 49t-46 133v305h36v-299q0 -72 38.5 -114t105.5 -42q73 0 117.5 47.5t44.5 104.5v303z" />
    <glyph glyph-name="udieresis" unicode="&#xfc;" horiz-adv-x="543" 
d="M188 608q-15 0 -24.5 9.5t-9.5 23.5q0 15 9.5 24.5t24.5 9.5t24.5 -9.5t9.5 -24.5q0 -14 -9.5 -23.5t-24.5 -9.5zM357 608q-15 0 -24.5 9.5t-9.5 23.5q0 15 9.5 24.5t24.5 9.5t24.5 -9.5t9.5 -24.5q0 -14 -9.5 -23.5t-24.5 -9.5zM422 483h35v-483h-33l-2 101
q-21 -48 -65.5 -76.5t-104.5 -28.5q-80 0 -126 49t-46 133v305h36v-299q0 -72 38.5 -114t105.5 -42q73 0 117.5 47.5t44.5 104.5v303z" />
    <glyph glyph-name="yacute" unicode="&#xfd;" horiz-adv-x="482" 
d="M323 712l-72 -147h-30l53 147h49zM418 483h37l-189 -483l-36 -91q-24 -61 -58 -87.5t-85 -26.5q-40 0 -62 10l4 32q18 -9 53 -9q80 0 114 86l29 72l-194 497h40l166 -429l6 -19h2q4 15 6 19z" />
    <glyph glyph-name="thorn" unicode="&#xfe;" horiz-adv-x="581" 
d="M312 488q96 0 155 -67t59 -176q0 -112 -61 -180.5t-159 -68.5q-66 0 -114 31t-71 85v-312h-35v900h35v-331q25 55 75.5 87t115.5 32zM305 27q82 0 133.5 60.5t51.5 157.5q0 95 -50 152.5t-129 57.5q-80 0 -135 -54.5t-55 -134.5v-49q0 -81 52.5 -135.5t131.5 -54.5z" />
    <glyph glyph-name="ydieresis" unicode="&#xff;" horiz-adv-x="482" 
d="M164 608q-15 0 -24.5 9.5t-9.5 23.5q0 15 9.5 24.5t24.5 9.5t24.5 -9.5t9.5 -24.5q0 -14 -9.5 -23.5t-24.5 -9.5zM333 608q-15 0 -24.5 9.5t-9.5 23.5q0 15 9.5 24.5t24.5 9.5t24.5 -9.5t9.5 -24.5q0 -14 -9.5 -23.5t-24.5 -9.5zM418 483h37l-189 -483l-36 -91
q-24 -61 -58 -87.5t-85 -26.5q-40 0 -62 10l4 32q18 -9 53 -9q80 0 114 86l29 72l-194 497h40l166 -429l6 -19h2q4 15 6 19z" />
    <glyph glyph-name="Amacron" unicode="&#x100;" horiz-adv-x="607" 
d="M426 795v-32h-245v32h245zM545 0l-75 199h-333l-75 -199h-38l257 678h44l257 -678h-37zM150 233h307l-154 408z" />
    <glyph glyph-name="amacron" unicode="&#x101;" horiz-adv-x="524" 
d="M394 658v-32h-245v32h245zM503 34l4 -32q-18 -6 -39 -6q-33 0 -51.5 20.5t-18.5 58.5v24q-21 -42 -71.5 -72.5t-126.5 -30.5q-72 0 -110.5 33.5t-38.5 90.5q0 149 249 149h98v42q0 66 -41 105t-111 39q-64 0 -104 -33t-45 -89h-35q5 71 55.5 113t130.5 42q85 0 135.5 -48
t50.5 -129v-232q0 -50 40 -50q16 0 29 5zM208 26q49 0 88.5 17t60 40.5t31 42.5t10.5 29v85h-99q-212 0 -212 -118q0 -45 31 -70.5t90 -25.5z" />
    <glyph glyph-name="Abreve" unicode="&#x102;" horiz-adv-x="607" 
d="M304 718q-53 0 -81 32t-28 90h34q0 -43 19 -66.5t56 -22.5q75 1 75 89h34q0 -58 -28 -90t-81 -32zM545 0l-75 199h-333l-75 -199h-38l257 678h44l257 -678h-37zM150 233h307l-154 408z" />
    <glyph glyph-name="abreve" unicode="&#x103;" horiz-adv-x="524" 
d="M269 563q-55 0 -87 36.5t-32 103.5h32q0 -55 23.5 -82.5t62.5 -26.5q87 2 87 109h32q0 -67 -32 -103.5t-86 -36.5zM503 34l4 -32q-18 -6 -39 -6q-33 0 -51.5 20.5t-18.5 58.5v24q-21 -42 -71.5 -72.5t-126.5 -30.5q-72 0 -110.5 33.5t-38.5 90.5q0 149 249 149h98v42
q0 66 -41 105t-111 39q-64 0 -104 -33t-45 -89h-35q5 71 55.5 113t130.5 42q85 0 135.5 -48t50.5 -129v-232q0 -50 40 -50q16 0 29 5zM208 26q49 0 88.5 17t60 40.5t31 42.5t10.5 29v85h-99q-212 0 -212 -118q0 -45 31 -70.5t90 -25.5z" />
    <glyph glyph-name="Aogonek" unicode="&#x104;" horiz-adv-x="607" 
d="M596 -146l13 -22q-22 -22 -63 -22q-34 0 -57 19.5t-23 57.5q0 67 78 117l-74 195h-333l-75 -199h-38l257 678h44l257 -678q-3 -2 -9 -5t-20.5 -14t-26 -23t-20.5 -30.5t-9 -37.5q0 -26 14.5 -38.5t36.5 -12.5q29 0 48 15zM150 233h307l-154 408z" />
    <glyph glyph-name="aogonek" unicode="&#x105;" horiz-adv-x="524" 
d="M522 -144l13 -22q-22 -22 -63 -22q-34 0 -57 19.5t-23 57.5q0 62 64 108q-27 3 -42.5 23.5t-15.5 54.5v24q-21 -42 -71.5 -72.5t-126.5 -30.5q-72 0 -110.5 33.5t-38.5 90.5q0 149 249 149h98v42q0 66 -41 105t-111 39q-64 0 -104 -33t-45 -89h-35q5 71 55.5 113
t130.5 42q85 0 135.5 -48t50.5 -129v-232q0 -50 40 -50q16 0 29 5l4 -30l1 -2q-3 -2 -9 -5t-20.5 -14t-26 -23t-20.5 -30.5t-9 -37.5q0 -26 14.5 -38.5t36.5 -12.5q29 0 48 15zM208 26q49 0 88.5 17t60 40.5t31 42.5t10.5 29v85h-99q-212 0 -212 -118q0 -45 31 -70.5
t90 -25.5z" />
    <glyph glyph-name="Cacute" unicode="&#x106;" horiz-adv-x="685" 
d="M373 708h-36l51 122h57zM358 29q104 0 167.5 57.5t73.5 147.5h35q-10 -106 -83 -172t-193 -66q-130 0 -214.5 94t-84.5 249q0 154 85 249.5t214 95.5q119 0 192.5 -67t83.5 -173h-35q-10 90 -74 148.5t-167 58.5q-113 0 -187.5 -86t-74.5 -226t74 -225t188 -85z" />
    <glyph glyph-name="cacute" unicode="&#x107;" horiz-adv-x="526" 
d="M282 565h-30l53 147h49zM277 -9q-102 0 -162.5 67.5t-60.5 180.5q0 112 61.5 180.5t162.5 68.5q83 0 138 -48.5t63 -124.5h-37q-8 60 -52.5 100t-111.5 40q-85 0 -136.5 -59t-51.5 -156q0 -100 51 -158t136 -58q67 0 112 39.5t53 98.5h37q-8 -75 -63.5 -123t-138.5 -48z
" />
    <glyph glyph-name="Ccircumflex" unicode="&#x108;" horiz-adv-x="685" 
d="M383 830l91 -122h-33l-84 92l-83 -92h-34l92 122h51zM358 29q104 0 167.5 57.5t73.5 147.5h35q-10 -106 -83 -172t-193 -66q-130 0 -214.5 94t-84.5 249q0 154 85 249.5t214 95.5q119 0 192.5 -67t83.5 -173h-35q-10 90 -74 148.5t-167 58.5q-113 0 -187.5 -86
t-74.5 -226t74 -225t188 -85z" />
    <glyph glyph-name="ccircumflex" unicode="&#x109;" horiz-adv-x="526" 
d="M160 565l94 147h47l94 -147h-33l-85 116l-84 -116h-33zM277 -9q-102 0 -162.5 67.5t-60.5 180.5q0 112 61.5 180.5t162.5 68.5q83 0 138 -48.5t63 -124.5h-37q-8 60 -52.5 100t-111.5 40q-85 0 -136.5 -59t-51.5 -156q0 -100 51 -158t136 -58q67 0 112 39.5t53 98.5h37
q-8 -75 -63.5 -123t-138.5 -48z" />
    <glyph glyph-name="Cdotaccent" unicode="&#x10a;" horiz-adv-x="685" 
d="M357 800q16 0 26 -9.5t10 -25.5t-10 -25.5t-26 -9.5t-25.5 9.5t-9.5 25.5t9.5 25.5t25.5 9.5zM358 29q104 0 167.5 57.5t73.5 147.5h35q-10 -106 -83 -172t-193 -66q-130 0 -214.5 94t-84.5 249q0 154 85 249.5t214 95.5q119 0 192.5 -67t83.5 -173h-35q-10 90 -74 148.5
t-167 58.5q-113 0 -187.5 -86t-74.5 -226t74 -225t188 -85z" />
    <glyph glyph-name="cdotaccent" unicode="&#x10b;" horiz-adv-x="526" 
d="M277 678q15 0 25 -9.5t10 -25.5t-10 -25.5t-25 -9.5q-16 0 -26 9.5t-10 25.5t10 25.5t26 9.5zM277 -9q-102 0 -162.5 67.5t-60.5 180.5q0 112 61.5 180.5t162.5 68.5q83 0 138 -48.5t63 -124.5h-37q-8 60 -52.5 100t-111.5 40q-85 0 -136.5 -59t-51.5 -156
q0 -100 51 -158t136 -58q67 0 112 39.5t53 98.5h37q-8 -75 -63.5 -123t-138.5 -48z" />
    <glyph glyph-name="Ccaron" unicode="&#x10c;" horiz-adv-x="685" 
d="M383 708h-51l-92 122h34l83 -91l84 91h33zM358 29q104 0 167.5 57.5t73.5 147.5h35q-10 -106 -83 -172t-193 -66q-130 0 -214.5 94t-84.5 249q0 154 85 249.5t214 95.5q119 0 192.5 -67t83.5 -173h-35q-10 90 -74 148.5t-167 58.5q-113 0 -187.5 -86t-74.5 -226t74 -225
t188 -85z" />
    <glyph glyph-name="ccaron" unicode="&#x10d;" horiz-adv-x="526" 
d="M159 712h34l84 -116l84 116h34l-94 -147h-47zM277 -9q-102 0 -162.5 67.5t-60.5 180.5q0 112 61.5 180.5t162.5 68.5q83 0 138 -48.5t63 -124.5h-37q-8 60 -52.5 100t-111.5 40q-85 0 -136.5 -59t-51.5 -156q0 -100 51 -158t136 -58q67 0 112 39.5t53 98.5h37
q-8 -75 -63.5 -123t-138.5 -48z" />
    <glyph glyph-name="Dcaron" unicode="&#x10e;" horiz-adv-x="705" 
d="M367 714h-51l-92 122h34l83 -91l84 91h33zM339 679q135 0 220.5 -91.5t85.5 -247.5q0 -157 -85.5 -248.5t-219.5 -91.5h-237v678zM340 33q117 0 193 83.5t76 223.5t-76 222.5t-194 82.5h-200v-612h201z" />
    <glyph glyph-name="dcaron" unicode="&#x10f;" horiz-adv-x="589" 
d="M595 723q37 0 37 -50q0 -47 -21.5 -74t-48.5 -26v26q15 0 26 14t11 38q-39 0 -39 36q0 17 10 26.5t25 9.5zM459 372v328h36v-700h-35l-1 113q-23 -55 -72 -86t-113 -31q-100 0 -160 66t-60 177t62 180t162 69q63 0 110.5 -31t70.5 -85zM276 27q77 0 130 54.5t53 137.5v46
q0 81 -51.5 135.5t-128.5 54.5q-84 0 -136.5 -60t-52.5 -156q0 -97 50.5 -154.5t135.5 -57.5z" />
    <glyph glyph-name="Dcroat" unicode="&#x110;" horiz-adv-x="711" 
d="M345 679q135 0 220.5 -91.5t85.5 -247.5q0 -157 -85.5 -248.5t-219.5 -91.5h-237v324h-78v30h78v324zM346 33q117 0 193 83.5t76 223.5t-76 222.5t-194 82.5h-200v-291h190v-30h-190v-291h201z" />
    <glyph glyph-name="dcroat" unicode="&#x111;" horiz-adv-x="581" 
d="M554 620v-28h-59v-592h-35l-1 115q-23 -55 -73.5 -87t-115.5 -32q-96 0 -156 66t-60 176q0 111 61.5 180.5t160.5 69.5q65 0 112.5 -30.5t70.5 -84.5v219h-141v28h141v80h36v-80h59zM272 28q79 0 133 54.5t54 134.5v49q0 82 -52 136t-131 54q-82 0 -134 -61t-52 -158
q0 -95 51 -152t131 -57z" />
    <glyph glyph-name="Emacron" unicode="&#x112;" horiz-adv-x="592" 
d="M446 795v-32h-245v32h245zM139 33h400v-33h-436v678h435v-33h-399v-274h368v-33h-368v-305z" />
    <glyph glyph-name="emacron" unicode="&#x113;" horiz-adv-x="542" 
d="M405 658v-32h-245v32h245zM489 246v-12h-399q1 -95 52.5 -151t136.5 -56q72 0 117.5 36.5t53.5 90.5h36q-9 -69 -65 -114t-143 -45q-103 0 -163.5 66t-60.5 177q0 112 62.5 181t161.5 69q97 0 154 -66t57 -176zM279 455q-79 0 -130.5 -52t-57.5 -140h362q-4 90 -50 141
t-124 51z" />
    <glyph glyph-name="Ebreve" unicode="&#x114;" horiz-adv-x="592" 
d="M323 718q-53 0 -81 32t-28 90h34q0 -43 19 -66.5t56 -22.5q75 1 75 89h34q0 -58 -28 -90t-81 -32zM139 33h400v-33h-436v678h435v-33h-399v-274h368v-33h-368v-305z" />
    <glyph glyph-name="ebreve" unicode="&#x115;" horiz-adv-x="542" 
d="M279 563q-55 0 -87 36.5t-32 103.5h32q0 -55 23.5 -82.5t62.5 -26.5q87 2 87 109h32q0 -67 -32 -103.5t-86 -36.5zM489 246v-12h-399q1 -95 52.5 -151t136.5 -56q72 0 117.5 36.5t53.5 90.5h36q-9 -69 -65 -114t-143 -45q-103 0 -163.5 66t-60.5 177q0 112 62.5 181
t161.5 69q97 0 154 -66t57 -176zM279 455q-79 0 -130.5 -52t-57.5 -140h362q-4 90 -50 141t-124 51z" />
    <glyph glyph-name="Edotaccent" unicode="&#x116;" horiz-adv-x="592" 
d="M323 740q-16 0 -25.5 9.5t-9.5 25.5t9.5 25.5t25.5 9.5t26 -9.5t10 -25.5t-10 -25.5t-26 -9.5zM139 33h400v-33h-436v678h435v-33h-399v-274h368v-33h-368v-305z" />
    <glyph glyph-name="edotaccent" unicode="&#x117;" horiz-adv-x="542" 
d="M279 608q-16 0 -26 9.5t-10 25.5t10 25.5t26 9.5q15 0 25 -9.5t10 -25.5t-10 -25.5t-25 -9.5zM489 246v-12h-399q1 -95 52.5 -151t136.5 -56q72 0 117.5 36.5t53.5 90.5h36q-9 -69 -65 -114t-143 -45q-103 0 -163.5 66t-60.5 177q0 112 62.5 181t161.5 69q97 0 154 -66
t57 -176zM279 455q-79 0 -130.5 -52t-57.5 -140h362q-4 90 -50 141t-124 51z" />
    <glyph glyph-name="Eogonek" unicode="&#x118;" horiz-adv-x="592" 
d="M554 -146l13 -22q-22 -22 -63 -22q-34 0 -57 19.5t-23 57.5q0 67 72 113h-393v678h435v-33h-399v-274h368v-33h-368v-305h400v-31l1 -2q-3 -2 -9 -5t-20.5 -14t-26 -23t-20.5 -30.5t-9 -37.5q0 -26 14.5 -38.5t36.5 -12.5q29 0 48 15z" />
    <glyph glyph-name="eogonek" unicode="&#x119;" horiz-adv-x="542" 
d="M489 246v-12h-399q1 -95 52.5 -151t136.5 -56q72 0 117.5 36.5t53.5 90.5h36q-11 -86 -89 -130v-1q-3 -2 -9 -5t-20.5 -14t-26 -23t-20.5 -30.5t-9 -37.5q0 -26 14.5 -38.5t36.5 -12.5q29 0 48 15l13 -22q-22 -22 -63 -22q-34 0 -57 19.5t-23 57.5q0 49 41 88
q-21 -3 -44 -3q-103 0 -163.5 66t-60.5 177q0 112 62.5 181t161.5 69q97 0 154 -66t57 -176zM279 455q-79 0 -130.5 -52t-57.5 -140h362q-4 90 -50 141t-124 51z" />
    <glyph glyph-name="Ecaron" unicode="&#x11a;" horiz-adv-x="592" 
d="M349 718h-51l-92 122h34l83 -91l84 91h33zM139 33h400v-33h-436v678h435v-33h-399v-274h368v-33h-368v-305z" />
    <glyph glyph-name="ecaron" unicode="&#x11b;" horiz-adv-x="542" 
d="M303 565h-47l-95 147h34l84 -116l84 116h34zM489 246v-12h-399q1 -95 52.5 -151t136.5 -56q72 0 117.5 36.5t53.5 90.5h36q-9 -69 -65 -114t-143 -45q-103 0 -163.5 66t-60.5 177q0 112 62.5 181t161.5 69q97 0 154 -66t57 -176zM279 455q-79 0 -130.5 -52t-57.5 -140
h362q-4 90 -50 141t-124 51z" />
    <glyph glyph-name="Gcircumflex" unicode="&#x11c;" horiz-adv-x="714" 
d="M367 810l-83 -92h-34l92 122h51l91 -122h-33zM359 337h286v-337h-30v155q-29 -72 -95.5 -115.5t-158.5 -43.5q-136 0 -219 91.5t-83 251.5q0 156 86 250.5t226 94.5q120 0 189.5 -62.5t80.5 -165.5h-36q-10 87 -70 141t-164 54q-124 0 -199.5 -85t-75.5 -227
q0 -145 73 -227.5t191 -82.5q110 0 181 66t72 159v50h-254v33z" />
    <glyph glyph-name="gcircumflex" unicode="&#x11d;" horiz-adv-x="574" 
d="M291 681l-84 -116h-33l94 147h47l94 -147h-33zM455 483h34v-486q0 -99 -58 -153t-158 -54q-91 0 -142 37t-58 107h36q12 -112 164 -112q84 0 132 45.5t48 129.5v114q-24 -54 -71 -84.5t-109 -30.5q-98 0 -158.5 67t-60.5 179t60.5 179t158.5 67q62 0 109.5 -31t70.5 -86z
M275 27q75 0 126.5 54.5t51.5 135.5v48q0 80 -52 135t-126 55q-83 0 -134 -57.5t-51 -155.5q0 -99 51 -157t134 -58z" />
    <glyph glyph-name="Gbreve" unicode="&#x11e;" horiz-adv-x="714" 
d="M368 718q-53 0 -81 32t-28 90h34q0 -43 19 -66.5t56 -22.5q75 1 75 89h34q0 -58 -28 -90t-81 -32zM359 337h286v-337h-30v155q-29 -72 -95.5 -115.5t-158.5 -43.5q-136 0 -219 91.5t-83 251.5q0 156 86 250.5t226 94.5q120 0 189.5 -62.5t80.5 -165.5h-36q-10 87 -70 141
t-164 54q-124 0 -199.5 -85t-75.5 -227q0 -145 73 -227.5t191 -82.5q110 0 181 66t72 159v50h-254v33z" />
    <glyph glyph-name="gbreve" unicode="&#x11f;" horiz-adv-x="574" 
d="M291 563q-55 0 -87 36.5t-32 103.5h32q0 -55 23.5 -82.5t62.5 -26.5q87 2 87 109h32q0 -67 -32 -103.5t-86 -36.5zM455 483h34v-486q0 -99 -58 -153t-158 -54q-91 0 -142 37t-58 107h36q12 -112 164 -112q84 0 132 45.5t48 129.5v114q-24 -54 -71 -84.5t-109 -30.5
q-98 0 -158.5 67t-60.5 179t60.5 179t158.5 67q62 0 109.5 -31t70.5 -86zM275 27q75 0 126.5 54.5t51.5 135.5v48q0 80 -52 135t-126 55q-83 0 -134 -57.5t-51 -155.5q0 -99 51 -157t134 -58z" />
    <glyph glyph-name="Gdotaccent" unicode="&#x120;" horiz-adv-x="714" 
d="M367 740q-16 0 -25.5 9.5t-9.5 25.5t9.5 25.5t25.5 9.5t26 -9.5t10 -25.5t-10 -25.5t-26 -9.5zM359 337h286v-337h-30v155q-29 -72 -95.5 -115.5t-158.5 -43.5q-136 0 -219 91.5t-83 251.5q0 156 86 250.5t226 94.5q120 0 189.5 -62.5t80.5 -165.5h-36q-10 87 -70 141
t-164 54q-124 0 -199.5 -85t-75.5 -227q0 -145 73 -227.5t191 -82.5q110 0 181 66t72 159v50h-254v33z" />
    <glyph glyph-name="gdotaccent" unicode="&#x121;" horiz-adv-x="574" 
d="M291 608q-16 0 -26 9.5t-10 25.5t10 25.5t26 9.5q15 0 25 -9.5t10 -25.5t-10 -25.5t-25 -9.5zM455 483h34v-486q0 -99 -58 -153t-158 -54q-91 0 -142 37t-58 107h36q12 -112 164 -112q84 0 132 45.5t48 129.5v114q-24 -54 -71 -84.5t-109 -30.5q-98 0 -158.5 67
t-60.5 179t60.5 179t158.5 67q62 0 109.5 -31t70.5 -86zM275 27q75 0 126.5 54.5t51.5 135.5v48q0 80 -52 135t-126 55q-83 0 -134 -57.5t-51 -155.5q0 -99 51 -157t134 -58z" />
    <glyph glyph-name="Gcommaaccent" unicode="&#x122;" horiz-adv-x="714" 
d="M359 337h286v-337h-30v155q-29 -72 -95.5 -115.5t-158.5 -43.5q-136 0 -219 91.5t-83 251.5q0 156 86 250.5t226 94.5q120 0 189.5 -62.5t80.5 -165.5h-36q-10 87 -70 141t-164 54q-124 0 -199.5 -85t-75.5 -227q0 -145 73 -227.5t191 -82.5q110 0 181 66t72 159v50h-254
v33zM362 -49q36 0 36 -51q0 -43 -21.5 -69.5t-46.5 -24.5v26q14 0 24.5 13t10.5 34q-18 0 -28.5 10t-10.5 26q0 17 10.5 26.5t25.5 9.5z" />
    <glyph glyph-name="gcommaaccent" unicode="&#x123;" horiz-adv-x="574" 
d="M276 558q-36 0 -36 51q0 43 21.5 69.5t46.5 24.5v-26q-14 0 -24.5 -13t-10.5 -34q18 0 28.5 -10t10.5 -26q0 -17 -10.5 -26.5t-25.5 -9.5zM455 483h34v-486q0 -99 -58 -153t-158 -54q-91 0 -142 37t-58 107h36q12 -112 164 -112q84 0 132 45.5t48 129.5v114
q-24 -54 -71 -84.5t-109 -30.5q-98 0 -158.5 67t-60.5 179t60.5 179t158.5 67q62 0 109.5 -31t70.5 -86zM275 27q75 0 126.5 54.5t51.5 135.5v48q0 80 -52 135t-126 55q-83 0 -134 -57.5t-51 -155.5q0 -99 51 -157t134 -58z" />
    <glyph glyph-name="Hcircumflex" unicode="&#x124;" horiz-adv-x="711" 
d="M356 802l-83 -92h-34l92 122h51l91 -122h-33zM571 678h37v-678h-37v338h-432v-338h-36v678h36v-307h432v307z" />
    <glyph glyph-name="hcircumflex" unicode="&#x125;" horiz-adv-x="555" 
d="M187 730l-84 92l-83 -92h-34l92 122h51l91 -122h-33zM297 488q83 0 130.5 -50.5t47.5 -136.5v-301h-36v294q0 74 -39.5 117.5t-110.5 43.5q-77 0 -122 -47t-45 -105v-303h-36v700h35v-317q21 48 67 76.5t109 28.5z" />
    <glyph glyph-name="Hbar" unicode="&#x126;" horiz-adv-x="711" 
d="M653 582v-30h-45v-552h-37v338h-432v-338h-36v552h-43v30h43v96h36v-96h432v96h37v-96h45zM571 371v181h-432v-181h432z" />
    <glyph glyph-name="hbar" unicode="&#x127;" horiz-adv-x="555" 
d="M297 488q83 0 130.5 -50.5t47.5 -136.5v-301h-36v294q0 74 -39.5 117.5t-110.5 43.5q-77 0 -122 -47t-45 -105v-303h-36v592h-59v28h59v80h35v-80h142v-28h-142v-209q21 48 67 76.5t109 28.5z" />
    <glyph glyph-name="Itilde" unicode="&#x128;" horiz-adv-x="242" 
d="M60 793q-19 0 -31 -12.5t-13 -36.5h-31q0 38 19.5 60.5t54.5 22.5q33 0 66.5 -27.5t55.5 -27.5q43 0 42 50h32q0 -40 -19.5 -61.5t-53.5 -21.5q-33 0 -67.5 27t-54.5 27zM103 0v678h36v-678h-36z" />
    <glyph glyph-name="itilde" unicode="&#x129;" horiz-adv-x="207" 
d="M38 651q-20 0 -33 -14t-13 -41h-30q0 41 19.5 64t56.5 23q35 0 68 -30.5t55 -30.5q21 0 34 15t13 41h30q0 -42 -21 -64.5t-55 -22.5q-33 0 -67.5 30t-56.5 30zM86 0v483h36v-483h-36z" />
    <glyph glyph-name="Imacron" unicode="&#x12a;" horiz-adv-x="242" 
d="M-1 763v32h245v-32h-245zM103 0v678h36v-678h-36z" />
    <glyph glyph-name="imacron" unicode="&#x12b;" horiz-adv-x="207" 
d="M-15 626v32h245v-32h-245zM86 0v483h36v-483h-36z" />
    <glyph glyph-name="Ibreve" unicode="&#x12c;" horiz-adv-x="242" 
d="M231 840q0 -58 -28 -90t-81 -32t-81 32t-28 90h34q0 -43 19 -66.5t56 -22.5q75 1 75 89h34zM103 0v678h36v-678h-36z" />
    <glyph glyph-name="ibreve" unicode="&#x12d;" horiz-adv-x="207" 
d="M222 703q0 -67 -32 -103.5t-86 -36.5q-55 0 -87 36.5t-32 103.5h32q0 -55 23.5 -82.5t62.5 -26.5q87 2 87 109h32zM86 0v483h36v-483h-36z" />
    <glyph glyph-name="Iogonek" unicode="&#x12e;" horiz-adv-x="242" 
d="M154 -146l13 -22q-22 -22 -63 -22q-34 0 -57 19.5t-23 57.5q0 69 79 117v674h36v-676l1 -2q-3 -2 -9 -5t-20.5 -14t-26 -23t-20.5 -30.5t-9 -37.5q0 -26 14.5 -38.5t36.5 -12.5q29 0 48 15z" />
    <glyph glyph-name="iogonek" unicode="&#x12f;" horiz-adv-x="207" 
d="M105 608q-14 0 -24.5 10t-10.5 25q0 14 10.5 24.5t24.5 10.5t24 -10.5t10 -24.5q0 -15 -10 -25t-24 -10zM136 -146l13 -22q-22 -22 -63 -22q-34 0 -57 19.5t-23 57.5q0 69 80 118v478h36v-483q-3 -2 -9 -5t-20.5 -14t-26 -23t-20.5 -30.5t-9 -37.5q0 -26 14.5 -38.5
t36.5 -12.5q29 0 48 15z" />
    <glyph glyph-name="Idotaccent" unicode="&#x130;" horiz-adv-x="242" 
d="M121 810q16 0 26 -9.5t10 -25.5t-10 -25.5t-26 -9.5t-25.5 9.5t-9.5 25.5t9.5 25.5t25.5 9.5zM103 0v678h36v-678h-36z" />
    <glyph glyph-name="dotlessi" unicode="&#x131;" horiz-adv-x="207" 
d="M86 0v483h36v-483h-36z" />
    <glyph glyph-name="IJ" unicode="&#x132;" horiz-adv-x="744" 
d="M103 0v678h36v-678h-36zM316 190q1 -76 39 -118.5t108 -42.5q73 0 110.5 46.5t37.5 123.5v479h36v-477q0 -92 -47 -148.5t-137 -56.5q-88 0 -135.5 52t-47.5 142h36z" />
    <glyph glyph-name="ij" unicode="&#x133;" horiz-adv-x="423" 
d="M139 643q0 -15 -10 -25t-24 -10t-24.5 10t-10.5 25q0 14 10.5 24.5t24.5 10.5t24 -10.5t10 -24.5zM357 643q0 -15 -10.5 -25t-24.5 -10t-24.5 10t-10.5 25q0 14 10.5 24.5t24.5 10.5t24.5 -10.5t10.5 -24.5zM86 0v483h36v-483h-36zM198 -205q-40 0 -62 10l3 32
q18 -9 54 -9q109 0 109 118v537h35v-537q0 -74 -36 -112.5t-103 -38.5z" />
    <glyph glyph-name="Jcircumflex" unicode="&#x134;" horiz-adv-x="494" 
d="M403 837l91 -122h-33l-84 92l-83 -92h-34l92 122h51zM66 190q1 -76 39 -118.5t108 -42.5q73 0 110.5 46.5t37.5 123.5v479h36v-477q0 -92 -47 -148.5t-137 -56.5q-88 0 -135.5 52t-47.5 142h36z" />
    <glyph glyph-name="jcircumflex" unicode="&#x135;" horiz-adv-x="215" 
d="M-8 565l94 147h47l94 -147h-33l-85 116l-84 -116h-33zM-10 -205q-40 0 -62 10l3 32q18 -9 54 -9q109 0 109 118v537h35v-537q0 -74 -36 -112.5t-103 -38.5z" />
    <glyph glyph-name="Kcommaaccent" unicode="&#x136;" horiz-adv-x="617" 
d="M319 383l293 -383h-44l-274 356l-155 -170v-186h-36v678h36v-444l405 444h47zM335 -49q36 0 36 -51q0 -43 -21.5 -69.5t-46.5 -24.5v26q14 0 24.5 13t10.5 34q-18 0 -28.5 10t-10.5 26q0 17 10.5 26.5t25.5 9.5z" />
    <glyph glyph-name="kcommaaccent" unicode="&#x137;" horiz-adv-x="452" 
d="M230 281l212 -281h-42l-193 256l-86 -90v-166h-35v700h35v-485l255 268h46zM240 -49q36 0 36 -51q0 -43 -21.5 -69.5t-46.5 -24.5v26q14 0 24.5 13t10.5 34q-18 0 -28.5 10t-10.5 26q0 17 10.5 26.5t25.5 9.5z" />
    <glyph glyph-name="kgreenlandic" unicode="&#x138;" horiz-adv-x="452" 
d="M400 0l-193 256l-86 -90v-166h-35v483h35v-268l255 268h46l-192 -202l212 -281h-42z" />
    <glyph glyph-name="Lacute" unicode="&#x139;" horiz-adv-x="540" 
d="M209 840l-72 -122h-36l51 122h57zM139 33h386v-33h-422v678h36v-645z" />
    <glyph glyph-name="lacute" unicode="&#x13a;" horiz-adv-x="218" 
d="M190 852l-72 -122h-36l51 122h57zM189 34l4 -32q-19 -6 -40 -6q-70 0 -70 79v625h36v-620q0 -51 41 -51q16 0 29 5z" />
    <glyph glyph-name="Lcommaaccent" unicode="&#x13b;" horiz-adv-x="540" 
d="M139 33h386v-33h-422v678h36v-645zM317 -49q36 0 36 -51q0 -43 -21.5 -69.5t-46.5 -24.5v26q14 0 24.5 13t10.5 34q-18 0 -28.5 10t-10.5 26q0 17 10.5 26.5t25.5 9.5z" />
    <glyph glyph-name="lcommaaccent" unicode="&#x13c;" horiz-adv-x="218" 
d="M153 -4q-70 0 -70 79v625h36v-620q0 -51 41 -51q16 0 29 5l4 -32q-19 -6 -40 -6zM129 -49q36 0 36 -51q0 -43 -21.5 -69.5t-46.5 -24.5v26q14 0 24.5 13t10.5 34q-18 0 -28.5 10t-10.5 26q0 17 10.5 26.5t25.5 9.5z" />
    <glyph glyph-name="Lcaron" unicode="&#x13d;" horiz-adv-x="541" 
d="M397 625q-19 0 -29.5 10t-10.5 26q0 17 10.5 26.5t25.5 9.5q36 0 36 -51q0 -43 -21 -69.5t-46 -24.5v26q14 0 24.5 13t10.5 34zM139 33h386v-33h-422v678h36v-645z" />
    <glyph glyph-name="lcaron" unicode="&#x13e;" horiz-adv-x="218" 
d="M218 746q36 0 36 -51q0 -43 -21 -69.5t-46 -24.5v26q14 0 24.5 13t10.5 34q-19 0 -29.5 10t-10.5 26q0 17 10.5 26.5t25.5 9.5zM160 29q16 0 29 5l4 -32q-19 -6 -40 -6q-70 0 -70 79v625h36v-620q0 -51 41 -51z" />
    <glyph glyph-name="Ldot" unicode="&#x13f;" horiz-adv-x="541" 
d="M139 33h386v-33h-422v678h36v-645zM391 298q-15 0 -25 9.5t-10 25.5t10 25.5t25 9.5q16 0 26 -9.5t10 -25.5t-10 -25.5t-26 -9.5z" />
    <glyph glyph-name="ldot" unicode="&#x140;" horiz-adv-x="241" 
d="M160 29q16 0 29 5l4 -32q-19 -6 -40 -6q-70 0 -70 79v625h36v-620q0 -51 41 -51zM224 379q16 0 26 -9.5t10 -25.5t-10 -25.5t-26 -9.5q-15 0 -25 9.5t-10 25.5t10 25.5t25 9.5z" />
    <glyph glyph-name="Lslash" unicode="&#x141;" horiz-adv-x="556" 
d="M155 33h386v-33h-422v280l-90 -56l-15 29l105 65v360h36v-338l140 87l15 -29l-155 -96v-269z" />
    <glyph glyph-name="lslash" unicode="&#x142;" horiz-adv-x="259" 
d="M190 29q16 0 29 5l4 -32q-20 -6 -40 -6q-70 0 -70 79v252l-67 -41l-14 25l81 50v339h36v-317l64 40l15 -26l-79 -48v-269q0 -51 41 -51z" />
    <glyph glyph-name="Nacute" unicode="&#x143;" horiz-adv-x="710" 
d="M443 840l-72 -122h-36l51 122h57zM571 678h36v-678h-37l-431 622v-622h-36v678h37l431 -622v622z" />
    <glyph glyph-name="nacute" unicode="&#x144;" horiz-adv-x="555" 
d="M362 712l-72 -147h-30l53 147h49zM297 488q84 0 131 -50.5t47 -138.5v-299h-36v292q0 76 -39.5 119.5t-110.5 43.5q-77 0 -122.5 -47.5t-45.5 -104.5v-303h-35v483h33l2 -101q21 48 67 77t109 29z" />
    <glyph glyph-name="Ncommaaccent" unicode="&#x145;" horiz-adv-x="710" 
d="M571 678h36v-678h-37l-431 622v-622h-36v678h37l431 -622v622zM355 -49q36 0 36 -51q0 -43 -21.5 -69.5t-46.5 -24.5v26q14 0 24.5 13t10.5 34q-18 0 -28.5 10t-10.5 26q0 17 10.5 26.5t25.5 9.5z" />
    <glyph glyph-name="ncommaaccent" unicode="&#x146;" horiz-adv-x="555" 
d="M297 488q84 0 131 -50.5t47 -138.5v-299h-36v292q0 76 -39.5 119.5t-110.5 43.5q-77 0 -122.5 -47.5t-45.5 -104.5v-303h-35v483h33l2 -101q21 48 67 77t109 29zM279 -49q36 0 36 -51q0 -43 -21.5 -69.5t-46.5 -24.5v26q14 0 24.5 13t10.5 34q-18 0 -28.5 10t-10.5 26
q0 17 10.5 26.5t25.5 9.5z" />
    <glyph glyph-name="Ncaron" unicode="&#x147;" horiz-adv-x="710" 
d="M381 718h-51l-92 122h34l83 -91l84 91h33zM571 678h36v-678h-37l-431 622v-622h-36v678h37l431 -622v622z" />
    <glyph glyph-name="ncaron" unicode="&#x148;" horiz-adv-x="555" 
d="M310 565h-47l-95 147h34l84 -116l84 116h34zM297 488q84 0 131 -50.5t47 -138.5v-299h-36v292q0 76 -39.5 119.5t-110.5 43.5q-77 0 -122.5 -47.5t-45.5 -104.5v-303h-35v483h33l2 -101q21 48 67 77t109 29z" />
    <glyph glyph-name="napostrophe" unicode="&#x149;" horiz-adv-x="592" 
d="M75 687q36 0 36 -51q0 -43 -21 -69.5t-46 -24.5v26q14 0 24.5 13t10.5 34q-19 0 -29.5 10t-10.5 26q0 17 10.5 26.5t25.5 9.5zM333 488q84 0 131 -50.5t47 -138.5v-299h-36v292q0 76 -39.5 119.5t-110.5 43.5q-77 0 -122.5 -47.5t-45.5 -104.5v-303h-35v483h33l2 -101
q21 48 67 77t109 29z" />
    <glyph glyph-name="Eng" unicode="&#x14a;" horiz-adv-x="710" 
d="M571 678h36v-732q0 -74 -36.5 -112.5t-103.5 -38.5q-40 0 -62 10l4 32q18 -9 53 -9q52 0 80 29.5t28 86.5v56l-431 622v-622h-36v678h37l431 -622v622z" />
    <glyph glyph-name="eng" unicode="&#x14b;" horiz-adv-x="555" 
d="M297 488q84 0 131 -50.5t47 -138.5v-353q0 -74 -36.5 -112.5t-103.5 -38.5q-41 0 -61 10l3 32q18 -9 54 -9q108 0 108 118v346q0 76 -39.5 119.5t-110.5 43.5q-77 0 -122.5 -47.5t-45.5 -104.5v-303h-35v483h33l2 -101q21 48 67 77t109 29z" />
    <glyph glyph-name="Omacron" unicode="&#x14c;" horiz-adv-x="744" 
d="M249 763v32h245v-32h-245zM372 -4q-138 0 -225.5 91.5t-87.5 250.5t88 252.5t226 93.5q136 0 223.5 -92t87.5 -251t-87.5 -252t-224.5 -93zM372 29q121 0 198.5 84t77.5 227t-77.5 227t-198.5 84t-198.5 -84t-77.5 -227t77.5 -227t198.5 -84z" />
    <glyph glyph-name="omacron" unicode="&#x14d;" horiz-adv-x="559" 
d="M161 626v32h245v-32h-245zM280 488q101 0 163 -67.5t62 -178.5q0 -110 -62 -178.5t-163 -68.5t-163.5 67.5t-62.5 176.5q0 112 62.5 180.5t163.5 68.5zM280 455q-85 0 -137.5 -59t-52.5 -155t52.5 -155t137.5 -59t137 59t52 155t-52 155t-137 59z" />
    <glyph glyph-name="Obreve" unicode="&#x14e;" horiz-adv-x="744" 
d="M481 840q0 -58 -28 -90t-81 -32t-81 32t-28 90h34q0 -43 19 -66.5t56 -22.5q75 1 75 89h34zM372 -4q-138 0 -225.5 91.5t-87.5 250.5t88 252.5t226 93.5q136 0 223.5 -92t87.5 -251t-87.5 -252t-224.5 -93zM372 29q121 0 198.5 84t77.5 227t-77.5 227t-198.5 84
t-198.5 -84t-77.5 -227t77.5 -227t198.5 -84z" />
    <glyph glyph-name="obreve" unicode="&#x14f;" horiz-adv-x="559" 
d="M398 703q0 -67 -32 -103.5t-86 -36.5q-55 0 -87 36.5t-32 103.5h32q0 -55 23.5 -82.5t62.5 -26.5q87 2 87 109h32zM280 488q101 0 163 -67.5t62 -178.5q0 -110 -62 -178.5t-163 -68.5t-163.5 67.5t-62.5 176.5q0 112 62.5 180.5t163.5 68.5zM280 455q-85 0 -137.5 -59
t-52.5 -155t52.5 -155t137.5 -59t137 59t52 155t-52 155t-137 59z" />
    <glyph glyph-name="Ohungarumlaut" unicode="&#x150;" horiz-adv-x="744" 
d="M307 718h-31l63 122h51zM421 718h-31l63 122h51zM372 -4q-138 0 -225.5 91.5t-87.5 250.5t88 252.5t226 93.5q136 0 223.5 -92t87.5 -251t-87.5 -252t-224.5 -93zM372 29q121 0 198.5 84t77.5 227t-77.5 227t-198.5 84t-198.5 -84t-77.5 -227t77.5 -227t198.5 -84z" />
    <glyph glyph-name="ohungarumlaut" unicode="&#x151;" horiz-adv-x="559" 
d="M238 565h-29l51 147h51zM357 565h-30l51 147h51zM280 488q101 0 163 -67.5t62 -178.5q0 -110 -62 -178.5t-163 -68.5t-163.5 67.5t-62.5 176.5q0 112 62.5 180.5t163.5 68.5zM280 455q-85 0 -137.5 -59t-52.5 -155t52.5 -155t137.5 -59t137 59t52 155t-52 155t-137 59z
" />
    <glyph glyph-name="OE" unicode="&#x152;" horiz-adv-x="1138" 
d="M685 33h400v-33h-436v168q-38 -82 -111 -127t-166 -45q-138 0 -225.5 91.5t-87.5 250.5t88 252.5t226 93.5q93 0 165.5 -44.5t110.5 -125.5v164h435v-33h-399v-274h368v-33h-368v-305zM372 29q121 0 198.5 84t77.5 227t-77.5 227t-198.5 84t-198.5 -84t-77.5 -227
t77.5 -227t198.5 -84z" />
    <glyph glyph-name="oe" unicode="&#x153;" horiz-adv-x="956" 
d="M903 234h-398q0 -8 -1 -12q5 -90 56 -142.5t133 -52.5q72 0 117.5 36.5t53.5 90.5h36q-9 -69 -65 -114t-143 -45q-75 0 -129 36.5t-77 101.5q-26 -65 -79.5 -101.5t-126.5 -36.5q-101 0 -163.5 67.5t-62.5 176.5q0 112 62.5 180.5t163.5 68.5q74 0 128 -37t79 -103
q26 66 79.5 103t125.5 37q97 0 154 -66t57 -176v-12zM280 27q80 0 131.5 53t56.5 141v17q0 13 1 20q-5 89 -56.5 143t-132.5 54q-85 0 -137.5 -59t-52.5 -155t52.5 -155t137.5 -59zM693 455q-79 0 -130.5 -52t-57.5 -140h362q-4 90 -50 141t-124 51z" />
    <glyph glyph-name="Racute" unicode="&#x154;" horiz-adv-x="632" 
d="M390 840l-72 -122h-36l51 122h57zM609 34l4 -32q-14 -6 -39 -6q-36 0 -59 17.5t-45 63.5l-108 219h-14h-209v-296h-36v678h245q88 0 146.5 -47.5t58.5 -144.5q0 -79 -41 -125t-107 -60l106 -220q26 -52 67 -52q18 0 31 5zM139 328h209q72 0 120 40t48 119t-48 119
t-120 40h-209v-318z" />
    <glyph glyph-name="racute" unicode="&#x155;" horiz-adv-x="309" 
d="M253 712l-72 -147h-30l53 147h49zM262 488q12 0 27 -3v-34q-8 2 -28 2q-44 0 -77.5 -33t-48 -73.5t-14.5 -76.5v-270h-35v483h33l2 -120q16 54 52 89.5t89 35.5z" />
    <glyph glyph-name="Rcommaaccent" unicode="&#x156;" horiz-adv-x="632" 
d="M609 34l4 -32q-14 -6 -39 -6q-36 0 -59 17.5t-45 63.5l-108 219h-14h-209v-296h-36v678h245q88 0 146.5 -47.5t58.5 -144.5q0 -79 -41 -125t-107 -60l106 -220q26 -52 67 -52q18 0 31 5zM139 328h209q72 0 120 40t48 119t-48 119t-120 40h-209v-318zM325 -49q36 0 36 -51
q0 -43 -21.5 -69.5t-46.5 -24.5v26q14 0 24.5 13t10.5 34q-18 0 -28.5 10t-10.5 26q0 17 10.5 26.5t25.5 9.5z" />
    <glyph glyph-name="rcommaaccent" unicode="&#x157;" horiz-adv-x="309" 
d="M262 488q12 0 27 -3v-34q-8 2 -28 2q-44 0 -77.5 -33t-48 -73.5t-14.5 -76.5v-270h-35v483h33l2 -120q16 54 52 89.5t89 35.5zM105 -49q36 0 36 -51q0 -43 -21.5 -69.5t-46.5 -24.5v26q14 0 24.5 13t10.5 34q-18 0 -28.5 10t-10.5 26q0 17 10.5 26.5t25.5 9.5z" />
    <glyph glyph-name="Rcaron" unicode="&#x158;" horiz-adv-x="632" 
d="M328 718h-51l-92 122h34l83 -91l84 91h33zM609 34l4 -32q-14 -6 -39 -6q-36 0 -59 17.5t-45 63.5l-108 219h-14h-209v-296h-36v678h245q88 0 146.5 -47.5t58.5 -144.5q0 -79 -41 -125t-107 -60l106 -220q26 -52 67 -52q18 0 31 5zM139 328h209q72 0 120 40t48 119
t-48 119t-120 40h-209v-318z" />
    <glyph glyph-name="rcaron" unicode="&#x159;" horiz-adv-x="309" 
d="M200 565h-47l-95 147h34l84 -116l84 116h34zM121 363q16 54 52 89.5t89 35.5q12 0 27 -3v-34q-8 2 -28 2q-44 0 -77.5 -33t-48 -73.5t-14.5 -76.5v-270h-35v483h33z" />
    <glyph glyph-name="Sacute" unicode="&#x15a;" horiz-adv-x="585" 
d="M385 832l-72 -122h-36l51 122h57zM109 511q0 -45 23 -74.5t60 -43.5t81.5 -23t89.5 -20.5t82 -30t60 -56.5t23 -94q0 -81 -66 -127t-168 -47q-108 1 -176 52t-68 143h36q0 -74 57.5 -117.5t152.5 -44.5q88 1 142 39t53 102q0 48 -23 79t-60 46t-81.5 25t-89.5 21.5
t-82 28.5t-60 52.5t-23 88.5q0 82 62.5 128t161.5 46q101 0 160.5 -48.5t59.5 -136.5h-36q-1 76 -51.5 114t-134.5 38t-134.5 -36.5t-50.5 -103.5z" />
    <glyph glyph-name="sacute" unicode="&#x15b;" horiz-adv-x="456" 
d="M308 712l-72 -147h-30l53 147h49zM99 362q0 -42 31.5 -64t76 -30t89.5 -18t76.5 -40t31.5 -84q0 -60 -49 -95t-126 -35q-82 0 -131 36.5t-49 103.5h34q1 -50 40 -79t105 -29q62 0 101 26.5t39 71.5q0 43 -31.5 66t-76 32t-89.5 19t-76.5 39t-31.5 80q0 58 47.5 92
t122.5 34q74 0 117.5 -35.5t44.5 -99.5h-34q-1 49 -36 75.5t-93 26.5q-59 0 -96 -24.5t-37 -68.5z" />
    <glyph glyph-name="Scircumflex" unicode="&#x15c;" horiz-adv-x="585" 
d="M297 802l-83 -92h-34l92 122h51l91 -122h-33zM109 511q0 -45 23 -74.5t60 -43.5t81.5 -23t89.5 -20.5t82 -30t60 -56.5t23 -94q0 -81 -66 -127t-168 -47q-108 1 -176 52t-68 143h36q0 -74 57.5 -117.5t152.5 -44.5q88 1 142 39t53 102q0 48 -23 79t-60 46t-81.5 25
t-89.5 21.5t-82 28.5t-60 52.5t-23 88.5q0 82 62.5 128t161.5 46q101 0 160.5 -48.5t59.5 -136.5h-36q-1 76 -51.5 114t-134.5 38t-134.5 -36.5t-50.5 -103.5z" />
    <glyph glyph-name="scircumflex" unicode="&#x15d;" horiz-adv-x="456" 
d="M232 681l-84 -116h-33l94 147h47l94 -147h-33zM99 362q0 -42 31.5 -64t76 -30t89.5 -18t76.5 -40t31.5 -84q0 -60 -49 -95t-126 -35q-82 0 -131 36.5t-49 103.5h34q1 -50 40 -79t105 -29q62 0 101 26.5t39 71.5q0 43 -31.5 66t-76 32t-89.5 19t-76.5 39t-31.5 80
q0 58 47.5 92t122.5 34q74 0 117.5 -35.5t44.5 -99.5h-34q-1 49 -36 75.5t-93 26.5q-59 0 -96 -24.5t-37 -68.5z" />
    <glyph glyph-name="Scedilla" unicode="&#x15e;" horiz-adv-x="585" 
d="M528 169q0 -80 -65.5 -126t-166.5 -48l-8 -41q78 -6 78 -70q0 -34 -24 -54t-67 -20q-31 0 -50 9l6 28q18 -8 45 -8q61 0 61 44q0 49 -80 49l14 64q-100 6 -160.5 56.5t-60.5 137.5h36q0 -74 57.5 -117.5t152.5 -44.5q88 1 142 39t53 102q0 48 -23 79t-60 46t-81.5 25
t-89.5 21.5t-82 28.5t-60 52.5t-23 88.5q0 82 62.5 128t161.5 46q101 0 160.5 -48.5t59.5 -136.5h-36q-1 76 -51.5 114t-134.5 38t-134.5 -36.5t-50.5 -103.5q0 -45 23 -74.5t60 -43.5t81.5 -23t89.5 -20.5t82 -30t60 -56.5t23 -94z" />
    <glyph glyph-name="scedilla" unicode="&#x15f;" horiz-adv-x="456" 
d="M404 126q0 -58 -47 -93t-122 -37l-9 -42q78 -6 78 -70q0 -34 -24 -54t-67 -20q-31 0 -50 9l6 28q18 -8 45 -8q61 0 61 44q0 49 -80 49l14 65q-73 4 -116.5 40t-43.5 99h34q1 -50 40 -79t105 -29q62 0 101 26.5t39 71.5q0 43 -31.5 66t-76 32t-89.5 19t-76.5 39t-31.5 80
q0 58 47.5 92t122.5 34q74 0 117.5 -35.5t44.5 -99.5h-34q-1 49 -36 75.5t-93 26.5q-59 0 -96 -24.5t-37 -68.5q0 -42 31.5 -64t76 -30t89.5 -18t76.5 -40t31.5 -84z" />
    <glyph glyph-name="Scaron" unicode="&#x160;" horiz-adv-x="585" 
d="M324 710h-51l-92 122h34l83 -91l84 91h33zM109 511q0 -45 23 -74.5t60 -43.5t81.5 -23t89.5 -20.5t82 -30t60 -56.5t23 -94q0 -81 -66 -127t-168 -47q-108 1 -176 52t-68 143h36q0 -74 57.5 -117.5t152.5 -44.5q88 1 142 39t53 102q0 48 -23 79t-60 46t-81.5 25
t-89.5 21.5t-82 28.5t-60 52.5t-23 88.5q0 82 62.5 128t161.5 46q101 0 160.5 -48.5t59.5 -136.5h-36q-1 76 -51.5 114t-134.5 38t-134.5 -36.5t-50.5 -103.5z" />
    <glyph glyph-name="scaron" unicode="&#x161;" horiz-adv-x="456" 
d="M256 565h-47l-95 147h34l84 -116l84 116h34zM99 362q0 -42 31.5 -64t76 -30t89.5 -18t76.5 -40t31.5 -84q0 -60 -49 -95t-126 -35q-82 0 -131 36.5t-49 103.5h34q1 -50 40 -79t105 -29q62 0 101 26.5t39 71.5q0 43 -31.5 66t-76 32t-89.5 19t-76.5 39t-31.5 80
q0 58 47.5 92t122.5 34q74 0 117.5 -35.5t44.5 -99.5h-34q-1 49 -36 75.5t-93 26.5q-59 0 -96 -24.5t-37 -68.5z" />
    <glyph glyph-name="uni0162" unicode="&#x162;" horiz-adv-x="534" 
d="M285 0h-6l-10 -46q78 -6 78 -70q0 -34 -24 -54t-67 -20q-30 0 -50 9l6 28q18 -8 45 -8q61 0 61 44q0 49 -80 49l14 68h-4v645h-234v33h506v-33h-235v-645z" />
    <glyph glyph-name="uni0163" unicode="&#x163;" horiz-adv-x="337" 
d="M209 -46q78 -6 78 -70q0 -34 -24 -54t-67 -20q-30 0 -50 9l6 28q18 -8 45 -8q61 0 61 44q0 49 -80 49l15 70q-92 26 -92 140v309h-78v32h80v149h34v-149h178v-32h-178v-309q0 -115 113 -115q42 0 74 15l2 -32q-33 -15 -78 -15q-12 0 -30 2z" />
    <glyph glyph-name="Tcaron" unicode="&#x164;" horiz-adv-x="534" 
d="M292 718h-51l-92 122h34l83 -91l84 91h33zM248 0v645h-234v33h506v-33h-235v-645h-37z" />
    <glyph glyph-name="tcaron" unicode="&#x165;" horiz-adv-x="337" 
d="M272 651q-19 0 -29.5 10t-10.5 26q0 17 10.5 26.5t25.5 9.5q37 0 37 -53q0 -42 -21.5 -64.5t-48.5 -22.5v26q16 0 26.5 10.5t10.5 31.5zM324 42l2 -32q-33 -15 -78 -15q-72 0 -109.5 37.5t-37.5 109.5v309h-78v32h80v149h34v-149h178v-32h-178v-309q0 -115 113 -115
q42 0 74 15z" />
    <glyph glyph-name="Tbar" unicode="&#x166;" horiz-adv-x="544" 
d="M525 645h-235v-267h133v-30h-133v-348h-37v348h-134v30h134v267h-234v33h506v-33z" />
    <glyph glyph-name="tbar" unicode="&#x167;" horiz-adv-x="339" 
d="M326 42l2 -32q-33 -15 -78 -15q-72 0 -109.5 37.5t-37.5 109.5v122h-63v28h63v159h-78v32h80v149h34v-149h178v-32h-178v-159h150v-28h-150v-122q0 -115 113 -115q42 0 74 15z" />
    <glyph glyph-name="Utilde" unicode="&#x168;" horiz-adv-x="692" 
d="M284 793q-19 0 -31 -12.5t-13 -36.5h-31q0 38 19.5 60.5t54.5 22.5q33 0 66.5 -27.5t55.5 -27.5q43 0 42 50h32q0 -40 -19.5 -61.5t-53.5 -21.5q-33 0 -67.5 27t-54.5 27zM560 678h36v-411q0 -132 -63.5 -201.5t-186.5 -69.5q-124 0 -187.5 69.5t-63.5 201.5v411h36v-411
q0 -238 215 -238q214 0 214 238v411z" />
    <glyph glyph-name="utilde" unicode="&#x169;" horiz-adv-x="543" 
d="M205 651q-20 0 -33 -14t-13 -41h-30q0 41 19.5 64t56.5 23q35 0 68 -30.5t55 -30.5q21 0 34 15t13 41h30q0 -42 -21 -64.5t-55 -22.5q-33 0 -67.5 30t-56.5 30zM422 483h35v-483h-33l-2 101q-21 -48 -65.5 -76.5t-104.5 -28.5q-80 0 -126 49t-46 133v305h36v-299
q0 -72 38.5 -114t105.5 -42q73 0 117.5 47.5t44.5 104.5v303z" />
    <glyph glyph-name="Umacron" unicode="&#x16a;" horiz-adv-x="692" 
d="M223 763v32h245v-32h-245zM560 678h36v-411q0 -132 -63.5 -201.5t-186.5 -69.5q-124 0 -187.5 69.5t-63.5 201.5v411h36v-411q0 -238 215 -238q214 0 214 238v411z" />
    <glyph glyph-name="umacron" unicode="&#x16b;" horiz-adv-x="543" 
d="M397 658v-32h-245v32h245zM422 483h35v-483h-33l-2 101q-21 -48 -65.5 -76.5t-104.5 -28.5q-80 0 -126 49t-46 133v305h36v-299q0 -72 38.5 -114t105.5 -42q73 0 117.5 47.5t44.5 104.5v303z" />
    <glyph glyph-name="Ubreve" unicode="&#x16c;" horiz-adv-x="692" 
d="M455 840q0 -58 -28 -90t-81 -32t-81 32t-28 90h34q0 -43 19 -66.5t56 -22.5q75 1 75 89h34zM560 678h36v-411q0 -132 -63.5 -201.5t-186.5 -69.5q-124 0 -187.5 69.5t-63.5 201.5v411h36v-411q0 -238 215 -238q214 0 214 238v411z" />
    <glyph glyph-name="ubreve" unicode="&#x16d;" horiz-adv-x="543" 
d="M271 563q-55 0 -87 36.5t-32 103.5h32q0 -55 23.5 -82.5t62.5 -26.5q87 2 87 109h32q0 -67 -32 -103.5t-86 -36.5zM422 483h35v-483h-33l-2 101q-21 -48 -65.5 -76.5t-104.5 -28.5q-80 0 -126 49t-46 133v305h36v-299q0 -72 38.5 -114t105.5 -42q73 0 117.5 47.5
t44.5 104.5v303z" />
    <glyph glyph-name="Uring" unicode="&#x16e;" horiz-adv-x="692" 
d="M346 708q-33 0 -55 21.5t-22 53.5q0 33 22 55t55 22t54.5 -22t21.5 -55q0 -32 -21.5 -53.5t-54.5 -21.5zM346 736q21 0 33.5 13.5t12.5 33.5q0 21 -12.5 34t-33.5 13q-22 0 -34.5 -13t-12.5 -34q0 -20 12.5 -33.5t34.5 -13.5zM560 678h36v-411q0 -132 -63.5 -201.5
t-186.5 -69.5q-124 0 -187.5 69.5t-63.5 201.5v411h36v-411q0 -238 215 -238q214 0 214 238v411z" />
    <glyph glyph-name="uring" unicode="&#x16f;" horiz-adv-x="543" 
d="M271 562q-33 0 -55 21.5t-22 53.5q0 33 22 55t55 22t54.5 -22t21.5 -55q0 -32 -21.5 -53.5t-54.5 -21.5zM271 684q-22 0 -34.5 -13t-12.5 -34q0 -20 12.5 -33.5t34.5 -13.5q21 0 33.5 13.5t12.5 33.5q0 21 -12.5 34t-33.5 13zM422 483h35v-483h-33l-2 101
q-21 -48 -65.5 -76.5t-104.5 -28.5q-80 0 -126 49t-46 133v305h36v-299q0 -72 38.5 -114t105.5 -42q73 0 117.5 47.5t44.5 104.5v303z" />
    <glyph glyph-name="Uhungarumlaut" unicode="&#x170;" horiz-adv-x="692" 
d="M281 718h-31l63 122h51zM395 718h-31l63 122h51zM560 678h36v-411q0 -132 -63.5 -201.5t-186.5 -69.5q-124 0 -187.5 69.5t-63.5 201.5v411h36v-411q0 -238 215 -238q214 0 214 238v411z" />
    <glyph glyph-name="uhungarumlaut" unicode="&#x171;" horiz-adv-x="543" 
d="M302 712l-73 -147h-29l51 147h51zM420 712l-72 -147h-30l51 147h51zM422 483h35v-483h-33l-2 101q-21 -48 -65.5 -76.5t-104.5 -28.5q-80 0 -126 49t-46 133v305h36v-299q0 -72 38.5 -114t105.5 -42q73 0 117.5 47.5t44.5 104.5v303z" />
    <glyph glyph-name="Uogonek" unicode="&#x172;" horiz-adv-x="692" 
d="M560 678h36v-411q0 -207 -151 -257q-3 -2 -9 -5t-20.5 -14t-26 -23t-20.5 -30.5t-9 -37.5q0 -26 14.5 -38.5t36.5 -12.5q29 0 48 15l13 -22q-22 -22 -63 -22q-34 0 -57 19.5t-23 57.5q0 56 55 101q-24 -2 -38 -2q-124 0 -187.5 69.5t-63.5 201.5v411h36v-411
q0 -238 215 -238q214 0 214 238v411z" />
    <glyph glyph-name="uogonek" unicode="&#x173;" horiz-adv-x="543" 
d="M472 -146l13 -22q-22 -22 -63 -22q-34 0 -57 19.5t-23 57.5q0 71 82 119l-2 95q-21 -48 -65.5 -76.5t-104.5 -28.5q-80 0 -126 49t-46 133v305h36v-299q0 -72 38.5 -114t105.5 -42q73 0 117.5 47.5t44.5 104.5v303h35v-481l1 -2q-3 -2 -9 -5t-20.5 -14t-26 -23
t-20.5 -30.5t-9 -37.5q0 -26 14.5 -38.5t36.5 -12.5q29 0 48 15z" />
    <glyph glyph-name="Wcircumflex" unicode="&#x174;" horiz-adv-x="916" 
d="M457 810l-83 -92h-34l92 122h51l91 -122h-33zM850 678h37l-202 -678h-44l-184 636l-184 -636h-43l-202 678h37l186 -639l185 639h43l185 -639z" />
    <glyph glyph-name="wcircumflex" unicode="&#x175;" horiz-adv-x="701" 
d="M351 681l-84 -116h-33l94 147h47l94 -147h-33zM629 483h40l-144 -483h-48l-117 398l-9 37h-1l-9 -37l-117 -398h-48l-144 483h40l121 -424q1 -3 2.5 -9t3 -10t1.5 -5h2q0 1 1.5 5t3.5 10l3 9l122 424h37l122 -424l3 -9t3.5 -10t1.5 -5h2q0 1 1.5 5t3 9.5t2.5 9.5z" />
    <glyph glyph-name="Ycircumflex" unicode="&#x176;" horiz-adv-x="592" 
d="M295 810l-83 -92h-34l92 122h51l91 -122h-33zM565 678l-251 -373v-305h-36v305l-250 373h41l227 -339l227 339h42z" />
    <glyph glyph-name="ycircumflex" unicode="&#x177;" horiz-adv-x="482" 
d="M247 681l-84 -116h-33l94 147h47l94 -147h-33zM418 483h37l-189 -483l-36 -91q-24 -61 -58 -87.5t-85 -26.5q-40 0 -62 10l4 32q18 -9 53 -9q80 0 114 86l29 72l-194 497h40l166 -429l6 -19h2q4 15 6 19z" />
    <glyph glyph-name="Ydieresis" unicode="&#x178;" horiz-adv-x="592" 
d="M211 744q-15 0 -24.5 9t-9.5 24t9.5 24t24.5 9t24.5 -9t9.5 -24t-9.5 -24t-24.5 -9zM380 744q-14 0 -23.5 9t-9.5 24t9.5 24t23.5 9q15 0 24.5 -9t9.5 -24t-9.5 -24t-24.5 -9zM565 678l-251 -373v-305h-36v305l-250 373h41l227 -339l227 339h42z" />
    <glyph glyph-name="Zacute" unicode="&#x179;" horiz-adv-x="555" 
d="M356 840l-72 -122h-36l51 122h57zM77 33h442v-33h-485v31l438 614h-428v33h471v-31z" />
    <glyph glyph-name="zacute" unicode="&#x17a;" horiz-adv-x="433" 
d="M298 712l-72 -147h-30l53 147h49zM81 31h315v-31h-358v31l307 420h-300v32h343v-31z" />
    <glyph glyph-name="Zdotaccent" unicode="&#x17b;" horiz-adv-x="555" 
d="M268 740q-16 0 -25.5 9.5t-9.5 25.5t9.5 25.5t25.5 9.5t26 -9.5t10 -25.5t-10 -25.5t-26 -9.5zM77 33h442v-33h-485v31l438 614h-428v33h471v-31z" />
    <glyph glyph-name="zdotaccent" unicode="&#x17c;" horiz-adv-x="433" 
d="M222 608q-16 0 -26 9.5t-10 25.5t10 25.5t26 9.5q15 0 25 -9.5t10 -25.5t-10 -25.5t-25 -9.5zM81 31h315v-31h-358v31l307 420h-300v32h343v-31z" />
    <glyph glyph-name="Zcaron" unicode="&#x17d;" horiz-adv-x="555" 
d="M294 718h-51l-92 122h34l83 -91l84 91h33zM77 33h442v-33h-485v31l438 614h-428v33h471v-31z" />
    <glyph glyph-name="zcaron" unicode="&#x17e;" horiz-adv-x="433" 
d="M246 565h-47l-95 147h34l84 -116l84 116h34zM81 31h315v-31h-358v31l307 420h-300v32h343v-31z" />
    <glyph glyph-name="uni018F" unicode="&#x18f;" horiz-adv-x="701" 
d="M347 684q138 0 216.5 -94.5t77.5 -250.5q-1 -158 -82.5 -250.5t-214.5 -92.5q-136 0 -213 88.5t-76 246.5v10h549q1 144 -69.5 227t-187.5 83q-101 0 -165.5 -53.5t-77.5 -135.5h-36q15 97 89.5 159.5t189.5 62.5zM345 29q111 0 180.5 73.5t77.5 204.5l-513 1
q5 -136 73.5 -207.5t181.5 -71.5z" />
    <glyph glyph-name="uni019D" unicode="&#x19d;" horiz-adv-x="710" 
d="M571 678h36v-678h-37l-431 622v-676q0 -74 -36 -112.5t-103 -38.5q-40 0 -62 10l4 32q18 -9 53 -9q52 0 80 29.5t28 86.5v734h37l431 -622v622z" />
    <glyph glyph-name="Gcaron" unicode="&#x1e6;" horiz-adv-x="714" 
d="M394 718h-51l-92 122h34l83 -91l84 91h33zM359 337h286v-337h-30v155q-29 -72 -95.5 -115.5t-158.5 -43.5q-136 0 -219 91.5t-83 251.5q0 156 86 250.5t226 94.5q120 0 189.5 -62.5t80.5 -165.5h-36q-10 87 -70 141t-164 54q-124 0 -199.5 -85t-75.5 -227
q0 -145 73 -227.5t191 -82.5q110 0 181 66t72 159v50h-254v33z" />
    <glyph glyph-name="gcaron" unicode="&#x1e7;" horiz-adv-x="574" 
d="M315 565h-47l-95 147h34l84 -116l84 116h34zM455 483h34v-486q0 -99 -58 -153t-158 -54q-91 0 -142 37t-58 107h36q12 -112 164 -112q84 0 132 45.5t48 129.5v114q-24 -54 -71 -84.5t-109 -30.5q-98 0 -158.5 67t-60.5 179t60.5 179t158.5 67q62 0 109.5 -31t70.5 -86z
M275 27q75 0 126.5 54.5t51.5 135.5v48q0 80 -52 135t-126 55q-83 0 -134 -57.5t-51 -155.5q0 -99 51 -157t134 -58z" />
    <glyph glyph-name="uni01EA" unicode="&#x1ea;" horiz-adv-x="744" 
d="M684 341q0 -136 -64 -224t-171 -113q-3 -2 -9 -5t-20.5 -14t-26 -23t-20.5 -30.5t-9 -37.5q0 -26 14.5 -38.5t36.5 -12.5q29 0 48 15l13 -22q-22 -22 -63 -22q-34 0 -57 19.5t-23 57.5q0 59 62 106q-8 -1 -23 -1q-138 0 -225.5 91.5t-87.5 250.5t88 252.5t226 93.5
q136 0 223.5 -92t87.5 -251zM372 29q121 0 198.5 84t77.5 227t-77.5 227t-198.5 84t-198.5 -84t-77.5 -227t77.5 -227t198.5 -84z" />
    <glyph glyph-name="uni01EB" unicode="&#x1eb;" horiz-adv-x="559" 
d="M358 8q-84 -47 -84 -110q0 -26 14.5 -38.5t36.5 -12.5q29 0 48 15l13 -22q-22 -22 -63 -22q-34 0 -57 19.5t-23 57.5q0 56 55 101q-6 -1 -18 -1q-101 0 -163.5 67.5t-62.5 176.5q0 112 62.5 180.5t163.5 68.5t163 -67.5t62 -178.5q0 -87 -39 -149t-108 -85zM90 241
q0 -96 52.5 -155t137.5 -59t137 59t52 155t-52 155t-137 59t-137.5 -59t-52.5 -155z" />
    <glyph glyph-name="Aringacute" unicode="&#x1fa;" horiz-adv-x="607" 
d="M545 0l-75 199h-333l-75 -199h-38l253 666q-23 8 -36.5 27t-13.5 44q0 33 22 55t55 22q48 0 68 -42l32 68h47l-73 -120q-8 -41 -48 -54l252 -666h-37zM257 737q0 -20 12.5 -33.5t34.5 -13.5q21 0 33.5 13.5t12.5 33.5q0 21 -12.5 34t-33.5 13q-22 0 -34.5 -13t-12.5 -34z
M150 233h307l-154 408z" />
    <glyph glyph-name="aringacute" unicode="&#x1fb;" horiz-adv-x="524" 
d="M268 562q-33 0 -55 21.5t-22 53.5q0 33 22 55t55 22q45 0 66 -38l33 88h45l-69 -142q-5 -26 -25.5 -43t-49.5 -17zM268 684q-22 0 -34.5 -13t-12.5 -34q0 -20 12.5 -33.5t34.5 -13.5q21 0 33.5 13.5t12.5 33.5q0 21 -12.5 34t-33.5 13zM503 34l4 -32q-18 -6 -39 -6
q-33 0 -51.5 20.5t-18.5 58.5v24q-21 -42 -71.5 -72.5t-126.5 -30.5q-72 0 -110.5 33.5t-38.5 90.5q0 149 249 149h98v42q0 66 -41 105t-111 39q-64 0 -104 -33t-45 -89h-35q5 71 55.5 113t130.5 42q85 0 135.5 -48t50.5 -129v-232q0 -50 40 -50q16 0 29 5zM208 26
q49 0 88.5 17t60 40.5t31 42.5t10.5 29v85h-99q-212 0 -212 -118q0 -45 31 -70.5t90 -25.5z" />
    <glyph glyph-name="AEacute" unicode="&#x1fc;" horiz-adv-x="981" 
d="M604 840l-72 -122h-36l51 122h57zM528 33h400v-33h-436v199h-313l-140 -199h-42l474 678h456v-33h-399v-274h368v-33h-368v-305zM203 233h289v411h-1z" />
    <glyph glyph-name="aeacute" unicode="&#x1fd;" horiz-adv-x="877" 
d="M505 712l-72 -147h-30l53 147h49zM824 246v-12h-389q1 -95 53 -152.5t134 -57.5q65 0 110 38t53 92h36q-9 -70 -63.5 -116.5t-135.5 -46.5q-68 0 -120.5 33.5t-78.5 93.5q-31 -57 -88.5 -89.5t-131.5 -32.5q-71 0 -113 34t-42 90q0 147 280 147h71v44q0 66 -41 105
t-109 39q-62 0 -102 -33t-44 -89h-36q6 71 55 113t127 42q68 0 115 -31.5t63 -87.5q28 56 78 87.5t113 31.5q93 0 149.5 -66.5t56.5 -175.5zM618 455q-76 0 -126 -52.5t-56 -139.5h352q-4 90 -49.5 141t-120.5 51zM210 27q46 0 85.5 16t62.5 39t36 42t16 32q-11 39 -11 82
h-71q-244 0 -244 -116q0 -43 34 -69t92 -26z" />
    <glyph glyph-name="Oslashacute" unicode="&#x1fe;" horiz-adv-x="744" 
d="M420 829l-72 -122h-36l51 122h57zM569 618q115 -94 115 -277q0 -159 -87.5 -252t-224.5 -93q-95 0 -169 46l-56 -88h-40l68 107q-116 93 -116 277q0 159 88 252.5t226 93.5q96 0 169 -47l50 79h39zM96 340q0 -162 99 -248l328 515q-65 44 -151 44q-121 0 -198.5 -84
t-77.5 -227zM372 29q121 0 198.5 84t77.5 227q0 161 -99 247l-327 -515q66 -43 150 -43z" />
    <glyph glyph-name="oslashacute" unicode="&#x1ff;" horiz-adv-x="559" 
d="M350 712l-72 -147h-30l53 147h49zM419 443q86 -68 86 -201q0 -110 -62 -178.5t-163 -68.5q-66 0 -116 29l-33 -55h-33l43 71q-87 66 -87 199q0 112 62.5 180.5t163.5 68.5q66 0 116 -29l32 53h33zM90 241q0 -112 69 -171l219 359q-43 26 -98 26q-85 0 -137.5 -59
t-52.5 -155zM280 27q85 0 137 59t52 155q0 113 -69 171l-218 -359q43 -26 98 -26z" />
    <glyph glyph-name="Scommaaccent" unicode="&#x218;" horiz-adv-x="585" 
d="M109 511q0 -45 23 -74.5t60 -43.5t81.5 -23t89.5 -20.5t82 -30t60 -56.5t23 -94q0 -81 -66 -127t-168 -47q-108 1 -176 52t-68 143h36q0 -74 57.5 -117.5t152.5 -44.5q88 1 142 39t53 102q0 48 -23 79t-60 46t-81.5 25t-89.5 21.5t-82 28.5t-60 52.5t-23 88.5
q0 82 62.5 128t161.5 46q101 0 160.5 -48.5t59.5 -136.5h-36q-1 76 -51.5 114t-134.5 38t-134.5 -36.5t-50.5 -103.5zM303 -49q36 0 36 -51q0 -43 -21.5 -69.5t-46.5 -24.5v26q14 0 24.5 13t10.5 34q-18 0 -28.5 10t-10.5 26q0 17 10.5 26.5t25.5 9.5z" />
    <glyph glyph-name="scommaaccent" unicode="&#x219;" horiz-adv-x="456" 
d="M99 362q0 -42 31.5 -64t76 -30t89.5 -18t76.5 -40t31.5 -84q0 -60 -49 -95t-126 -35q-82 0 -131 36.5t-49 103.5h34q1 -50 40 -79t105 -29q62 0 101 26.5t39 71.5q0 43 -31.5 66t-76 32t-89.5 19t-76.5 39t-31.5 80q0 58 47.5 92t122.5 34q74 0 117.5 -35.5t44.5 -99.5
h-34q-1 49 -36 75.5t-93 26.5q-59 0 -96 -24.5t-37 -68.5zM229 -49q36 0 36 -51q0 -43 -21.5 -69.5t-46.5 -24.5v26q14 0 24.5 13t10.5 34q-18 0 -28.5 10t-10.5 26q0 17 10.5 26.5t25.5 9.5z" />
    <glyph glyph-name="uni021A" unicode="&#x21a;" horiz-adv-x="534" 
d="M248 0v645h-234v33h506v-33h-235v-645h-37zM233 -168q14 0 24.5 13t10.5 34q-18 0 -28.5 10t-10.5 26q0 17 10.5 26.5t25.5 9.5q36 0 36 -51q0 -43 -21.5 -69.5t-46.5 -24.5v26z" />
    <glyph glyph-name="uni021B" unicode="&#x21b;" horiz-adv-x="337" 
d="M324 42l2 -32q-33 -15 -78 -15q-72 0 -109.5 37.5t-37.5 109.5v309h-78v32h80v149h34v-149h178v-32h-178v-309q0 -115 113 -115q42 0 74 15zM212 -49q36 0 36 -51q0 -43 -21.5 -69.5t-46.5 -24.5v26q14 0 24.5 13t10.5 34q-18 0 -28.5 10t-10.5 26q0 17 10.5 26.5
t25.5 9.5z" />
    <glyph glyph-name="uni0232" unicode="&#x232;" horiz-adv-x="592" 
d="M418 795v-32h-245v32h245zM565 678l-251 -373v-305h-36v305l-250 373h41l227 -339l227 339h42z" />
    <glyph glyph-name="uni0233" unicode="&#x233;" horiz-adv-x="482" 
d="M373 658v-32h-245v32h245zM418 483h37l-189 -483l-36 -91q-24 -61 -58 -87.5t-85 -26.5q-40 0 -62 10l4 32q18 -9 53 -9q80 0 114 86l29 72l-194 497h40l166 -429l6 -19h2q4 15 6 19z" />
    <glyph glyph-name="uni0237" unicode="&#x237;" horiz-adv-x="215" 
d="M-10 -205q-40 0 -62 10l3 32q18 -9 54 -9q109 0 109 118v537h35v-537q0 -74 -36 -112.5t-103 -38.5z" />
    <glyph glyph-name="uni0259" unicode="&#x259;" horiz-adv-x="542" 
d="M267 488q100 0 160 -65.5t60 -177.5q0 -113 -61.5 -181.5t-161.5 -68.5q-99 0 -155 64.5t-56 176.5v12h398q-1 97 -51 152t-132 55q-71 0 -118.5 -38t-57.5 -92h-36q11 69 68.5 116t142.5 47zM264 27q79 0 129 51.5t57 140.5h-362q5 -92 51 -142t125 -50z" />
    <glyph glyph-name="uni0272" unicode="&#x272;" horiz-adv-x="555" 
d="M297 488q84 0 131 -50.5t47 -138.5v-299h-36v292q0 76 -39.5 119.5t-110.5 43.5q-77 0 -122.5 -47.5t-45.5 -104.5v-357q0 -73 -34.5 -112t-94.5 -39q-40 0 -62 10l3 32q18 -9 54 -9q46 0 72.5 30.5t26.5 87.5v537h33l2 -101q21 48 67 77t109 29z" />
    <glyph glyph-name="circumflex" unicode="&#x2c6;" horiz-adv-x="312" 
d="M37 565l94 147h47l94 -147h-33l-85 116l-84 -116h-33z" />
    <glyph glyph-name="caron" unicode="&#x2c7;" horiz-adv-x="308" 
d="M19 712h34l84 -116l84 116h34l-94 -147h-47z" />
    <glyph glyph-name="breve" unicode="&#x2d8;" horiz-adv-x="290" 
d="M263 703q0 -67 -32 -103.5t-86 -36.5q-55 0 -87 36.5t-32 103.5h32q0 -55 23.5 -82.5t62.5 -26.5q87 2 87 109h32z" />
    <glyph glyph-name="dotaccent" unicode="&#x2d9;" horiz-adv-x="170" 
d="M66 678q15 0 25 -9.5t10 -25.5t-10 -25.5t-25 -9.5q-16 0 -26 9.5t-10 25.5t10 25.5t26 9.5z" />
    <glyph glyph-name="ring" unicode="&#x2da;" horiz-adv-x="237" 
d="M118 562q-33 0 -55 21.5t-22 53.5q0 33 22 55t55 22t54.5 -22t21.5 -55q0 -32 -21.5 -53.5t-54.5 -21.5zM118 590q21 0 33.5 13.5t12.5 33.5q0 21 -12.5 34t-33.5 13q-22 0 -34.5 -13t-12.5 -34q0 -20 12.5 -33.5t34.5 -13.5z" />
    <glyph glyph-name="ogonek" unicode="&#x2db;" horiz-adv-x="237" 
d="M188 -168q-22 -22 -63 -22q-34 0 -57 19.5t-23 57.5q0 25 11 47.5t26 37t30.5 25.5t26.5 16l11 5l11 -18q-3 -2 -9 -5t-20.5 -14t-26 -23t-20.5 -30.5t-9 -37.5q0 -26 14.5 -38.5t36.5 -12.5q29 0 48 15z" />
    <glyph glyph-name="tilde" unicode="&#x2dc;" horiz-adv-x="360" 
d="M114 651q-20 0 -33 -14t-13 -41h-30q0 41 19.5 64t56.5 23q35 0 68 -30.5t55 -30.5q21 0 34 15t13 41h30q0 -42 -21 -64.5t-55 -22.5q-33 0 -67.5 30t-56.5 30z" />
    <glyph glyph-name="hungarumlaut" unicode="&#x2dd;" horiz-adv-x="343" 
d="M88 565h-29l51 147h51zM207 565h-30l51 147h51z" />
    <glyph glyph-name="gravecomb" unicode="&#x300;" 
d="M-94 565l-72 147h49l53 -147h-30z" />
    <glyph glyph-name="acutecomb" unicode="&#x301;" 
d="M-144 565h-30l53 147h49z" />
    <glyph glyph-name="uni0302" unicode="&#x302;" 
d="M-272 565l94 147h47l94 -147h-33l-85 116l-84 -116h-33z" />
    <glyph glyph-name="tildecomb" unicode="&#x303;" 
d="M-246 651q-20 0 -33 -14t-13 -41h-30q0 41 19.5 64t56.5 23q35 0 68 -30.5t55 -30.5q21 0 34 15t13 41h30q0 -42 -21 -64.5t-55 -22.5q-33 0 -67.5 30t-56.5 30z" />
    <glyph glyph-name="uni0304" unicode="&#x304;" 
d="M-295 626v32h245v-32h-245z" />
    <glyph glyph-name="uni0306" unicode="&#x306;" 
d="M-26 703q0 -67 -32 -103.5t-86 -36.5q-55 0 -87 36.5t-32 103.5h32q0 -55 23.5 -82.5t62.5 -26.5q87 2 87 109h32z" />
    <glyph glyph-name="uni0307" unicode="&#x307;" 
d="M-65 678q15 0 25 -9.5t10 -25.5t-10 -25.5t-25 -9.5q-16 0 -26 9.5t-10 25.5t10 25.5t26 9.5z" />
    <glyph glyph-name="uni0308" unicode="&#x308;" 
d="M-233 675q15 0 24.5 -9.5t9.5 -24.5q0 -14 -9.5 -23.5t-24.5 -9.5t-24.5 9.5t-9.5 23.5q0 15 9.5 24.5t24.5 9.5zM-64 675q15 0 24.5 -9.5t9.5 -24.5q0 -14 -9.5 -23.5t-24.5 -9.5t-24.5 9.5t-9.5 23.5q0 15 9.5 24.5t24.5 9.5z" />
    <glyph glyph-name="uni030A" unicode="&#x30a;" 
d="M-118 562q-33 0 -55 21.5t-22 53.5q0 33 22 55t55 22t54.5 -22t21.5 -55q0 -32 -21.5 -53.5t-54.5 -21.5zM-118 590q21 0 33.5 13.5t12.5 33.5q0 21 -12.5 34t-33.5 13q-22 0 -34.5 -13t-12.5 -34q0 -20 12.5 -33.5t34.5 -13.5z" />
    <glyph glyph-name="uni030B" unicode="&#x30b;" 
d="M-263 565h-29l51 147h51zM-144 565h-30l51 147h51z" />
    <glyph glyph-name="uni030C" unicode="&#x30c;" 
d="M-255 712h34l84 -116l84 116h34l-94 -147h-47z" />
    <glyph glyph-name="dotbelowcomb" unicode="&#x323;" 
d="M-65 -89q15 0 25 -9.5t10 -25.5t-10 -25.5t-25 -9.5q-16 0 -26 9.5t-10 25.5t10 25.5t26 9.5z" />
    <glyph glyph-name="uni0326" unicode="&#x326;" 
d="M-117 -168q14 0 24.5 13t10.5 34q-18 0 -28.5 10t-10.5 26q0 17 10.5 26.5t25.5 9.5q36 0 36 -51q0 -43 -21.5 -69.5t-46.5 -24.5v26z" />
    <glyph glyph-name="uni0327" unicode="&#x327;" 
d="M-183 -153q18 -8 45 -8q61 0 61 44q0 49 -80 49l17 80h26l-12 -58q78 -6 78 -70q0 -34 -24 -54t-67 -20q-31 0 -50 9z" />
    <glyph glyph-name="uni0328" unicode="&#x328;" 
d="M-50 -168q-22 -22 -63 -22q-34 0 -57 19.5t-23 57.5q0 39 26.5 72t52.5 46l26 13l11 -18q-3 -2 -9 -5t-20.5 -14t-26 -23t-20.5 -30.5t-9 -37.5q0 -26 14.5 -38.5t36.5 -12.5q29 0 48 15z" />
    <glyph glyph-name="uni0335" unicode="&#x335;" 
d="M-256 209h236v-28h-236v28z" />
    <glyph glyph-name="uni0336" unicode="&#x336;" 
d="M-319 211h304v-30h-304v30z" />
    <glyph glyph-name="uni0337" unicode="&#x337;" 
d="M-215 351l181 112l14 -26l-181 -111z" />
    <glyph glyph-name="uni0338" unicode="&#x338;" 
d="M-80 522h33l-330 -543h-33z" />
    <glyph glyph-name="Wgrave" unicode="&#x1e80;" horiz-adv-x="916" 
d="M483 718h-36l-70 122h53zM850 678h37l-202 -678h-44l-184 636l-184 -636h-43l-202 678h37l186 -639l185 639h43l185 -639z" />
    <glyph glyph-name="wgrave" unicode="&#x1e81;" horiz-adv-x="701" 
d="M387 565h-30l-72 147h49zM629 483h40l-144 -483h-48l-117 398l-9 37h-1l-9 -37l-117 -398h-48l-144 483h40l121 -424q1 -3 2.5 -9t3 -10t1.5 -5h2q0 1 1.5 5t3.5 10l3 9l122 424h37l122 -424l3 -9t3.5 -10t1.5 -5h2q0 1 1.5 5t3 9.5t2.5 9.5z" />
    <glyph glyph-name="Wacute" unicode="&#x1e82;" horiz-adv-x="916" 
d="M544 840l-72 -122h-36l51 122h57zM850 678h37l-202 -678h-44l-184 636l-184 -636h-43l-202 678h37l186 -639l185 639h43l185 -639z" />
    <glyph glyph-name="wacute" unicode="&#x1e83;" horiz-adv-x="701" 
d="M427 712l-72 -147h-30l53 147h49zM629 483h40l-144 -483h-48l-117 398l-9 37h-1l-9 -37l-117 -398h-48l-144 483h40l121 -424q1 -3 2.5 -9t3 -10t1.5 -5h2q0 1 1.5 5t3.5 10l3 9l122 424h37l122 -424l3 -9t3.5 -10t1.5 -5h2q0 1 1.5 5t3 9.5t2.5 9.5z" />
    <glyph glyph-name="Wdieresis" unicode="&#x1e84;" horiz-adv-x="916" 
d="M372 744q-15 0 -24.5 9t-9.5 24t9.5 24t24.5 9t24.5 -9t9.5 -24t-9.5 -24t-24.5 -9zM541 744q-14 0 -23.5 9t-9.5 24t9.5 24t23.5 9q15 0 24.5 -9t9.5 -24t-9.5 -24t-24.5 -9zM850 678h37l-202 -678h-44l-184 636l-184 -636h-43l-202 678h37l186 -639l185 639h43
l185 -639z" />
    <glyph glyph-name="wdieresis" unicode="&#x1e85;" horiz-adv-x="701" 
d="M268 608q-15 0 -24.5 9.5t-9.5 23.5q0 15 9.5 24.5t24.5 9.5t24.5 -9.5t9.5 -24.5q0 -14 -9.5 -23.5t-24.5 -9.5zM437 608q-15 0 -24.5 9.5t-9.5 23.5q0 15 9.5 24.5t24.5 9.5t24.5 -9.5t9.5 -24.5q0 -14 -9.5 -23.5t-24.5 -9.5zM629 483h40l-144 -483h-48l-117 398
l-9 37h-1l-9 -37l-117 -398h-48l-144 483h40l121 -424q1 -3 2.5 -9t3 -10t1.5 -5h2q0 1 1.5 5t3.5 10l3 9l122 424h37l122 -424l3 -9t3.5 -10t1.5 -5h2q0 1 1.5 5t3 9.5t2.5 9.5z" />
    <glyph glyph-name="uni1E9E" unicode="&#x1e9e;" horiz-adv-x="640" 
d="M375 378q100 -1 155.5 -51t55.5 -138q0 -89 -57.5 -139t-163.5 -50h-73v32h73q89 0 137 41t48 116q0 74 -47 116t-131 42h-37v31l181 268h-265q-55 0 -86 -32.5t-31 -89.5v-524h-37v523q0 70 41 112.5t110 42.5h318v-21z" />
    <glyph glyph-name="uni1EA0" unicode="&#x1ea0;" horiz-adv-x="607" 
d="M582 0h-37l-75 199h-333l-75 -199h-38l257 678h44zM150 233h307l-154 408zM304 -89q15 0 25 -9.5t10 -25.5t-10 -25.5t-25 -9.5q-16 0 -26 9.5t-10 25.5t10 25.5t26 9.5z" />
    <glyph glyph-name="uni1EA1" unicode="&#x1ea1;" horiz-adv-x="524" 
d="M503 34l4 -32q-18 -6 -39 -6q-33 0 -51.5 20.5t-18.5 58.5v24q-21 -42 -71.5 -72.5t-126.5 -30.5q-72 0 -110.5 33.5t-38.5 90.5q0 149 249 149h98v42q0 66 -41 105t-111 39q-64 0 -104 -33t-45 -89h-35q5 71 55.5 113t130.5 42q85 0 135.5 -48t50.5 -129v-232
q0 -50 40 -50q16 0 29 5zM208 26q49 0 88.5 17t60 40.5t31 42.5t10.5 29v85h-99q-212 0 -212 -118q0 -45 31 -70.5t90 -25.5zM247 -89q15 0 25 -9.5t10 -25.5t-10 -25.5t-25 -9.5q-16 0 -26 9.5t-10 25.5t10 25.5t26 9.5z" />
    <glyph glyph-name="uni1EB8" unicode="&#x1eb8;" horiz-adv-x="592" 
d="M139 33h400v-33h-436v678h435v-33h-399v-274h368v-33h-368v-305zM324 -89q15 0 25 -9.5t10 -25.5t-10 -25.5t-25 -9.5q-16 0 -26 9.5t-10 25.5t10 25.5t26 9.5z" />
    <glyph glyph-name="uni1EB9" unicode="&#x1eb9;" horiz-adv-x="542" 
d="M489 246v-12h-399q1 -95 52.5 -151t136.5 -56q72 0 117.5 36.5t53.5 90.5h36q-9 -69 -65 -114t-143 -45q-103 0 -163.5 66t-60.5 177q0 112 62.5 181t161.5 69q97 0 154 -66t57 -176zM279 455q-79 0 -130.5 -52t-57.5 -140h362q-4 90 -50 141t-124 51zM283 -89
q15 0 25 -9.5t10 -25.5t-10 -25.5t-25 -9.5q-16 0 -26 9.5t-10 25.5t10 25.5t26 9.5z" />
    <glyph glyph-name="uni1EBC" unicode="&#x1ebc;" horiz-adv-x="592" 
d="M262 793q-19 0 -31 -12.5t-13 -36.5h-31q0 38 19.5 60.5t54.5 22.5q33 0 66.5 -27.5t55.5 -27.5q43 0 42 50h32q0 -40 -19.5 -61.5t-53.5 -21.5q-33 0 -67.5 27t-54.5 27zM139 33h400v-33h-436v678h435v-33h-399v-274h368v-33h-368v-305z" />
    <glyph glyph-name="uni1EBD" unicode="&#x1ebd;" horiz-adv-x="542" 
d="M213 651q-20 0 -33 -14t-13 -41h-30q0 41 19.5 64t56.5 23q35 0 68 -30.5t55 -30.5q21 0 34 15t13 41h30q0 -42 -21 -64.5t-55 -22.5q-33 0 -67.5 30t-56.5 30zM489 246v-12h-399q1 -95 52.5 -151t136.5 -56q72 0 117.5 36.5t53.5 90.5h36q-9 -69 -65 -114t-143 -45
q-103 0 -163.5 66t-60.5 177q0 112 62.5 181t161.5 69q97 0 154 -66t57 -176zM279 455q-79 0 -130.5 -52t-57.5 -140h362q-4 90 -50 141t-124 51z" />
    <glyph glyph-name="uni1ECA" unicode="&#x1eca;" horiz-adv-x="242" 
d="M103 0v678h36v-678h-36zM122 -89q15 0 25 -9.5t10 -25.5t-10 -25.5t-25 -9.5q-16 0 -26 9.5t-10 25.5t10 25.5t26 9.5z" />
    <glyph glyph-name="uni1ECB" unicode="&#x1ecb;" horiz-adv-x="207" 
d="M104 678q15 0 25 -9.5t10 -25.5t-10 -25.5t-25 -9.5q-16 0 -26 9.5t-10 25.5t10 25.5t26 9.5zM86 0v483h36v-483h-36zM104 -89q15 0 25 -9.5t10 -25.5t-10 -25.5t-25 -9.5q-16 0 -26 9.5t-10 25.5t10 25.5t26 9.5z" />
    <glyph glyph-name="uni1ECC" unicode="&#x1ecc;" horiz-adv-x="744" 
d="M372 -4q-138 0 -225.5 91.5t-87.5 250.5t88 252.5t226 93.5q136 0 223.5 -92t87.5 -251t-87.5 -252t-224.5 -93zM372 29q121 0 198.5 84t77.5 227t-77.5 227t-198.5 84t-198.5 -84t-77.5 -227t77.5 -227t198.5 -84zM373 -89q15 0 25 -9.5t10 -25.5t-10 -25.5t-25 -9.5
q-16 0 -26 9.5t-10 25.5t10 25.5t26 9.5z" />
    <glyph glyph-name="uni1ECD" unicode="&#x1ecd;" horiz-adv-x="559" 
d="M280 488q101 0 163 -67.5t62 -178.5q0 -110 -62 -178.5t-163 -68.5t-163.5 67.5t-62.5 176.5q0 112 62.5 180.5t163.5 68.5zM280 455q-85 0 -137.5 -59t-52.5 -155t52.5 -155t137.5 -59t137 59t52 155t-52 155t-137 59zM280 -89q15 0 25 -9.5t10 -25.5t-10 -25.5
t-25 -9.5q-16 0 -26 9.5t-10 25.5t10 25.5t26 9.5z" />
    <glyph glyph-name="uni1EE4" unicode="&#x1ee4;" horiz-adv-x="692" 
d="M560 678h36v-411q0 -132 -63.5 -201.5t-186.5 -69.5q-124 0 -187.5 69.5t-63.5 201.5v411h36v-411q0 -238 215 -238q214 0 214 238v411zM346 -89q15 0 25 -9.5t10 -25.5t-10 -25.5t-25 -9.5q-16 0 -26 9.5t-10 25.5t10 25.5t26 9.5z" />
    <glyph glyph-name="uni1EE5" unicode="&#x1ee5;" horiz-adv-x="543" 
d="M422 483h35v-483h-33l-2 101q-21 -48 -65.5 -76.5t-104.5 -28.5q-80 0 -126 49t-46 133v305h36v-299q0 -72 38.5 -114t105.5 -42q73 0 117.5 47.5t44.5 104.5v303zM278 -89q15 0 25 -9.5t10 -25.5t-10 -25.5t-25 -9.5q-16 0 -26 9.5t-10 25.5t10 25.5t26 9.5z" />
    <glyph glyph-name="Ygrave" unicode="&#x1ef2;" horiz-adv-x="592" 
d="M322 718h-36l-70 122h53zM565 678l-251 -373v-305h-36v305l-250 373h41l227 -339l227 339h42z" />
    <glyph glyph-name="ygrave" unicode="&#x1ef3;" horiz-adv-x="482" 
d="M283 565h-30l-72 147h49zM418 483h37l-189 -483l-36 -91q-24 -61 -58 -87.5t-85 -26.5q-40 0 -62 10l4 32q18 -9 53 -9q80 0 114 86l29 72l-194 497h40l166 -429l6 -19h2q4 15 6 19z" />
    <glyph glyph-name="uni1EF8" unicode="&#x1ef8;" horiz-adv-x="592" 
d="M234 793q-19 0 -31 -12.5t-13 -36.5h-31q0 38 19.5 60.5t54.5 22.5q33 0 66.5 -27.5t55.5 -27.5q43 0 42 50h32q0 -40 -19.5 -61.5t-53.5 -21.5q-33 0 -67.5 27t-54.5 27zM565 678l-251 -373v-305h-36v305l-250 373h41l227 -339l227 339h42z" />
    <glyph glyph-name="uni1EF9" unicode="&#x1ef9;" horiz-adv-x="482" 
d="M181 651q-20 0 -33 -14t-13 -41h-30q0 41 19.5 64t56.5 23q35 0 68 -30.5t55 -30.5q21 0 34 15t13 41h30q0 -42 -21 -64.5t-55 -22.5q-33 0 -67.5 30t-56.5 30zM418 483h37l-189 -483l-36 -91q-24 -61 -58 -87.5t-85 -26.5q-40 0 -62 10l4 32q18 -9 53 -9q80 0 114 86
l29 72l-194 497h40l166 -429l6 -19h2q4 15 6 19z" />
    <glyph glyph-name="endash" unicode="&#x2013;" horiz-adv-x="529" 
d="M71 270v31h386v-31h-386z" />
    <glyph glyph-name="emdash" unicode="&#x2014;" horiz-adv-x="795" 
d="M71 270v31h652v-31h-652z" />
    <glyph glyph-name="quoteleft" unicode="&#x2018;" horiz-adv-x="194" 
d="M136 695q-19 0 -33.5 -17.5t-14.5 -44.5q3 1 10 1q18 0 28 -11t10 -27q0 -17 -11.5 -27.5t-27.5 -10.5q-42 0 -42 58q0 46 25.5 76.5t55.5 29.5v-27z" />
    <glyph glyph-name="quoteright" unicode="&#x2019;" horiz-adv-x="194" 
d="M63 585q19 0 33.5 17.5t14.5 44.5q-3 -1 -10 -1q-18 0 -28 11t-10 27q0 17 11.5 27.5t27.5 10.5q42 0 42 -58q0 -46 -25.5 -76.5t-55.5 -29.5v27z" />
    <glyph glyph-name="quotesinglbase" unicode="&#x201a;" horiz-adv-x="211" 
d="M65 -57q19 0 33.5 17.5t14.5 44.5q-3 -1 -10 -1q-18 0 -28 11t-10 27q0 17 11.5 27.5t27.5 10.5q42 0 42 -58q0 -46 -25.5 -76.5t-55.5 -29.5v27z" />
    <glyph glyph-name="quotedblleft" unicode="&#x201c;" horiz-adv-x="312" 
d="M136 695q-19 0 -33.5 -17.5t-14.5 -44.5q3 1 10 1q18 0 28 -11t10 -27q0 -17 -11.5 -27.5t-27.5 -10.5q-42 0 -42 58q0 46 25.5 76.5t55.5 29.5v-27zM253 695q-19 0 -33.5 -17.5t-14.5 -44.5q3 1 10 1q18 0 28 -11t10 -27q0 -17 -11.5 -27.5t-27.5 -10.5q-42 0 -42 58
q0 46 25.5 76.5t55.5 29.5v-27z" />
    <glyph glyph-name="quotedblright" unicode="&#x201d;" horiz-adv-x="312" 
d="M63 585q19 0 33.5 17.5t14.5 44.5q-3 -1 -10 -1q-18 0 -28 11t-10 27q0 17 11.5 27.5t27.5 10.5q42 0 42 -58q0 -46 -25.5 -76.5t-55.5 -29.5v27zM181 585q19 0 33.5 17.5t14.5 44.5q-3 -1 -10 -1q-18 0 -28 11t-10 27q0 17 11.5 27.5t27.5 10.5q42 0 42 -58
q0 -46 -25.5 -76.5t-55.5 -29.5v27z" />
    <glyph glyph-name="quotedblbase" unicode="&#x201e;" horiz-adv-x="314" 
d="M58 -77q19 0 33.5 17.5t14.5 44.5q-3 -1 -10 -1q-18 0 -28 11t-10 27q0 17 11.5 27.5t27.5 10.5q42 0 42 -58q0 -46 -25.5 -76.5t-55.5 -29.5v27zM176 -77q19 0 33.5 17.5t14.5 44.5q-3 -1 -10 -1q-18 0 -28 11t-10 27q0 17 11.5 27.5t27.5 10.5q42 0 42 -58
q0 -46 -25.5 -76.5t-55.5 -29.5v27z" />
    <glyph glyph-name="dagger" unicode="&#x2020;" horiz-adv-x="364" 
d="M302 584v-32h-103v-286h-35v286h-102v32h102v116h35v-116h103z" />
    <glyph glyph-name="daggerdbl" unicode="&#x2021;" horiz-adv-x="364" 
d="M302 554h-103v-142h103v-32h-103v-114h-35v114h-102v32h102v142h-102v32h102v114h35v-114h103v-32z" />
    <glyph glyph-name="bullet" unicode="&#x2022;" horiz-adv-x="327" 
d="M164 421q31 0 51 -19.5t20 -50.5t-20 -50.5t-51 -19.5q-32 0 -52 19.5t-20 50.5t20 50.5t52 19.5z" />
    <glyph glyph-name="ellipsis" unicode="&#x2026;" horiz-adv-x="481" 
d="M99 66q16 0 26 -9.5t10 -25.5t-10 -25.5t-26 -9.5q-15 0 -25 9.5t-10 25.5t10 25.5t25 9.5zM240 66q16 0 26 -9.5t10 -25.5t-10 -25.5t-26 -9.5q-15 0 -25 9.5t-10 25.5t10 25.5t25 9.5zM381 66q16 0 26 -9.5t10 -25.5t-10 -25.5t-26 -9.5q-15 0 -25 9.5t-10 25.5
t10 25.5t25 9.5z" />
    <glyph glyph-name="perthousand" unicode="&#x2030;" horiz-adv-x="1028" 
d="M521 685h36l-289 -685h-36zM320 493q0 -92 -36.5 -141t-102.5 -49t-103.5 49t-37.5 141t37.5 141t102.5 49q66 0 103 -49t37 -141zM180 335q49 0 76 40.5t27 117.5t-27 117.5t-76 40.5t-75.5 -40.5t-26.5 -117.5t26.5 -117.5t75.5 -40.5zM849 376q66 0 103 -49t37 -142
q0 -92 -37 -141t-103 -49q-88 0 -121 82q-35 -82 -121 -82q-66 0 -103.5 49t-37.5 141t37 141.5t103 49.5q87 0 122 -82q33 82 121 82zM606 28q49 0 76 40t27 117t-27 117.5t-76 40.5t-75.5 -40.5t-26.5 -117.5t26.5 -117t75.5 -40zM849 28q49 0 75.5 40t26.5 117
t-26.5 117.5t-75.5 40.5t-76 -40.5t-27 -117.5t27 -117t76 -40z" />
    <glyph glyph-name="guilsinglleft" unicode="&#x2039;" horiz-adv-x="283" 
d="M44 238v12l128 141h41l-131 -147l132 -148h-42z" />
    <glyph glyph-name="guilsinglright" unicode="&#x203a;" horiz-adv-x="283" 
d="M239 238l-128 -142h-42l132 148l-131 147h41l128 -141v-12z" />
    <glyph glyph-name="fraction" unicode="&#x2044;" horiz-adv-x="134" 
d="M-96 0l289 685h36l-289 -685h-36z" />
    <glyph glyph-name="Euro" unicode="&#x20ac;" horiz-adv-x="694" 
d="M408 29q77 0 125.5 39t67.5 102h37q-22 -78 -80 -126t-149 -48q-107 0 -180.5 68t-93.5 190h-97l7 33h86q-2 32 -2 51q0 18 2 52h-93l7 33h91q19 123 92.5 192t179.5 69q91 1 149.5 -48t80.5 -128h-37q-20 64 -68.5 103.5t-124.5 39.5q-90 0 -153.5 -60t-81.5 -168h246
l-8 -33h-243q-2 -34 -2 -52q0 -19 2 -51h251l-8 -33h-238q18 -106 81.5 -165.5t153.5 -59.5z" />
    <glyph glyph-name="trademark" unicode="&#x2122;" horiz-adv-x="682" 
d="M31 651v28h248v-28h-109v-258h-30v258h-109zM561 679h38v-286h-30v238l-96 -238h-25l-97 238v-238h-29v286h41l97 -244z" />
    <glyph glyph-name="oneeighth" unicode="&#x215b;" horiz-adv-x="721" 
d="M457 685h36l-289 -685h-36zM216 334v-29h-168v29h71v275h-71v24q43 0 60 9.5t23 36.5h22v-345h63zM606 199q74 -25 74 -96q0 -48 -38 -77.5t-97 -29.5t-97 29.5t-38 77.5q0 71 73 96q-59 25 -59 84q0 43 34 71.5t87 28.5q52 0 86 -28.5t34 -71.5q0 -59 -59 -84zM457 282
q0 -30 24 -50.5t64 -20.5q41 0 64.5 20.5t22.5 50.5q1 28 -23 50t-64 22t-64 -21.5t-24 -50.5zM545 25q45 0 73.5 22.5t27.5 56.5q1 37 -27 58t-74 21t-74 -21t-27 -58q-1 -34 27.5 -56.5t73.5 -22.5z" />
    <glyph glyph-name="threeeighths" unicode="&#x215c;" horiz-adv-x="747" 
d="M505 685h36l-289 -685h-36zM295 410q0 -51 -35.5 -78.5t-90.5 -27.5q-57 0 -92.5 29.5t-35.5 84.5h35q0 -42 25.5 -63t67.5 -21q40 0 64.5 19t25.5 56q-1 38 -26 57.5t-66 19.5h-32v28h28q38 0 63.5 17t25.5 52t-23.5 53t-59.5 18q-39 0 -62 -20.5t-23 -58.5h-34
q-1 51 32 80t87 29q51 0 84.5 -26t34.5 -74q-1 -59 -56 -83q62 -23 63 -91zM632 199q74 -25 74 -96q0 -48 -38 -77.5t-97 -29.5t-97 29.5t-38 77.5q0 71 73 96q-59 25 -59 84q0 43 34 71.5t87 28.5q52 0 86 -28.5t34 -71.5q0 -59 -59 -84zM483 282q0 -30 24 -50.5t64 -20.5
q41 0 64.5 20.5t22.5 50.5q1 28 -23 50t-64 22t-64 -21.5t-24 -50.5zM571 25q45 0 73.5 22.5t27.5 56.5q1 37 -27 58t-74 21t-74 -21t-27 -58q-1 -34 27.5 -56.5t73.5 -22.5z" />
    <glyph glyph-name="fiveeighths" unicode="&#x215d;" horiz-adv-x="769" 
d="M517 685h35l-289 -685h-35zM299 424q0 -53 -36.5 -87t-94.5 -34q-57 0 -93 34t-36 87h34q0 -40 26 -65t69 -25t69.5 25t27.5 65q-1 44 -25.5 67.5t-69.5 23.5q-46 0 -88 -32l-30 12l18 184h210v-30h-182l-12 -129q40 25 87 25q58 0 92 -31.5t34 -89.5zM654 199
q74 -25 74 -96q0 -48 -38 -77.5t-97 -29.5t-97 29.5t-38 77.5q0 71 73 96q-59 25 -59 84q0 43 34 71.5t87 28.5q52 0 86 -28.5t34 -71.5q0 -59 -59 -84zM505 282q0 -30 24 -50.5t64 -20.5q41 0 64.5 20.5t22.5 50.5q1 28 -23 50t-64 22t-64 -21.5t-24 -50.5zM593 25
q45 0 73.5 22.5t27.5 56.5q1 37 -27 58t-74 21t-74 -21t-27 -58q-1 -34 27.5 -56.5t73.5 -22.5z" />
    <glyph glyph-name="seveneighths" unicode="&#x215e;" horiz-adv-x="715" 
d="M437 685h36l-289 -685h-36zM285 679v-29l-145 -346h-37l146 343v2h-221v30h257zM596 199q73 -25 73 -96q0 -48 -38 -77.5t-97 -29.5t-97 29.5t-38 77.5q0 71 74 96q-59 25 -59 84q0 43 34 71.5t86 28.5q53 0 87 -28.5t34 -71.5q0 -59 -59 -84zM447 282q-1 -30 23 -50.5
t64 -20.5q41 0 64.5 20.5t23.5 50.5q0 28 -24 50t-64 22t-64 -21.5t-23 -50.5zM534 25q45 0 73.5 22.5t27.5 56.5q1 37 -27 58t-74 21t-73.5 -21t-27.5 -58q0 -34 28.5 -56.5t72.5 -22.5z" />
    <glyph glyph-name="minus" unicode="&#x2212;" horiz-adv-x="538" 
d="M77 331v32h384v-32h-384z" />
    <glyph glyph-name="approxequal" unicode="&#x2248;" horiz-adv-x="540" 
d="M79 423v33q45 32 113 32q33 0 84.5 -16t79.5 -16q63 0 107 34v-33q-49 -33 -110 -32q-33 1 -85.5 16.5t-79.5 15.5q-29 0 -60.5 -10t-48.5 -24zM79 227v34q45 32 113 32q33 0 84.5 -16t79.5 -16q63 0 107 34v-34q-49 -33 -110 -32q-33 1 -85.5 16.5t-79.5 15.5
q-29 0 -60.5 -10t-48.5 -24z" />
    <glyph glyph-name="notequal" unicode="&#x2260;" horiz-adv-x="538" 
d="M460 431h-136l-86 -168h222v-32h-239l-55 -108h-32l55 108h-113v32h130l86 168h-216v32h232l55 107h32l-55 -107h120v-32z" />
    <glyph glyph-name="uniF8FF" unicode="&#xf8ff;" horiz-adv-x="1422" 
d="M677 606q0 28 17.5 46.5t42.5 18.5q26 0 43.5 -18.5t17.5 -46.5q0 -26 -18 -44.5t-43 -18.5t-42.5 18.5t-17.5 44.5zM215 281h-117q0 141 9 326h98q10 -205 10 -326zM680 281q0 95 3 153h-60l3 -68q4 -4 15 -4q13 0 18 5v-77q-14 -15 -67 -15q-80 0 -80 68q0 13 1.5 51
t1.5 40h-21v82l117 31l1 -18h174q10 -66 10 -248h-116zM321 276q-90 0 -90 118q0 141 132 141q121 0 121 -122v-132h-81l-8 63q-13 -68 -74 -68zM1068 281h-112q0 27 1 58.5t1 38.5q0 30 -14 30q-18 0 -18 -30q0 -7 1.5 -38.5t1.5 -58.5h-112q0 182 10 248h79q5 -57 5 -79
q2 15 6.5 31t24 35t48.5 19q42 0 57.5 -26t17.5 -85zM1324 407q0 -131 -121 -131q-119 0 -119 129q0 130 121 130q119 0 119 -128zM382 390q0 27 -23 27q-22 0 -22 -27q0 -31 22 -31q23 0 23 31zM1226 390q0 27 -23 27q-20 0 -20 -27q0 -31 20 -31q23 0 23 31zM419 248h102
q10 -55 10 -144q0 -84 -33 -120t-116 -36q-62 0 -86 18v86q26 -17 69 -17q20 0 33 6.5t16 12t3 10.5q-14 -11 -48 -11q-88 0 -88 86v14h-54l3 -68q6 -4 15 -4q13 0 18 5v-76q-19 -15 -67 -15q-44 0 -61.5 17.5t-17.5 56.5t3 84h-18v83l115 30l-1 -18h173v-124q0 -17 3 -22.5
t12 -5.5q15 0 15 28v124zM718 253q37 0 58 -30.5t21 -87.5q0 -140 -135 -140q1 -16 1 -41h-116q0 144 10 294h76q7 -45 7 -80q17 85 78 85zM1049 132q0 -22 -3 -36h-122q11 -19 49 -19q33 0 54 12v-78q-23 -16 -76 -16q-139 0 -139 127q0 61 32.5 96t90.5 35q54 0 84 -31.5
t30 -89.5zM958 113q3 28 -16 28q-23 0 -23 -28h39zM657 75q10 0 23 8.5t13 29.5q0 24 -20 24q-21 0 -21 -32q0 -15 5 -30zM1053 14q0 -24 23 -24q24 0 24 24q0 23 -24 23q-23 0 -23 -23zM1058 14q0 18 18 18t18 -18q0 -19 -18 -19t-18 19zM1086 2l-6 9q7 0 7 8q0 7 -10 7
h-11v-24h5v9h5l4 -9h6zM1078 16h-7v6h7q4 0 4 -3t-4 -3z" />
    <glyph glyph-name="J.ss01" horiz-adv-x="466" 
d="M50 40q52 -7 104 -7q92 0 135.5 40.5t43.5 122.5v483h36v-483q0 -196 -214 -196q-53 0 -105 7v33z" />
    <glyph glyph-name="Jcircumflex.ss01" horiz-adv-x="477" 
d="M376 837l91 -122h-33l-84 92l-83 -92h-34l92 122h51zM50 40q52 -7 104 -7q92 0 135.5 40.5t43.5 122.5v483h36v-483q0 -196 -214 -196q-53 0 -105 7v33z" />
    <glyph glyph-name="K.ss01" horiz-adv-x="617" 
d="M616 34l4 -32q-16 -6 -39 -6q-32 0 -53 16.5t-52 64.5l-181 279l-156 -170v-186h-36v678h36v-444l405 444h47l-269 -293l195 -304q20 -31 34.5 -41.5t32.5 -10.5t32 5z" />
    <glyph glyph-name="Kcommaaccent.ss01" horiz-adv-x="617" 
d="M616 34l4 -32q-16 -6 -39 -6q-32 0 -53 16.5t-52 64.5l-181 279l-156 -170v-186h-36v678h36v-444l405 444h47l-269 -293l195 -304q20 -31 34.5 -41.5t32.5 -10.5t32 5zM327 -49q36 0 36 -51q0 -43 -21.5 -69.5t-46.5 -24.5v26q14 0 24.5 13t10.5 34q-18 0 -28.5 10
t-10.5 26q0 17 10.5 26.5t25.5 9.5z" />
    <glyph glyph-name="R.ss01" horiz-adv-x="618" 
d="M562 0h-44l-143 297q-9 -1 -27 -1h-209v-296h-36v678h245q88 0 146.5 -47t58.5 -143q0 -76 -37.5 -122t-100.5 -62zM139 328h209q72 0 120 40t48 119t-48 119t-120 40h-209v-318z" />
    <glyph glyph-name="Racute.ss01" horiz-adv-x="618" 
d="M390 840l-72 -122h-36l51 122h57zM562 0h-44l-143 297q-9 -1 -27 -1h-209v-296h-36v678h245q88 0 146.5 -47t58.5 -143q0 -76 -37.5 -122t-100.5 -62zM139 328h209q72 0 120 40t48 119t-48 119t-120 40h-209v-318z" />
    <glyph glyph-name="Rcaron.ss01" horiz-adv-x="618" 
d="M328 718h-51l-92 122h34l83 -91l84 91h33zM562 0h-44l-143 297q-9 -1 -27 -1h-209v-296h-36v678h245q88 0 146.5 -47t58.5 -143q0 -76 -37.5 -122t-100.5 -62zM139 328h209q72 0 120 40t48 119t-48 119t-120 40h-209v-318z" />
    <glyph glyph-name="Rcommaaccent.ss01" horiz-adv-x="618" 
d="M562 0h-44l-143 297q-9 -1 -27 -1h-209v-296h-36v678h245q88 0 146.5 -47t58.5 -143q0 -76 -37.5 -122t-100.5 -62zM139 328h209q72 0 120 40t48 119t-48 119t-120 40h-209v-318zM323 -49q36 0 36 -51q0 -43 -21.5 -69.5t-46.5 -24.5v26q14 0 24.5 13t10.5 34
q-18 0 -28.5 10t-10.5 26q0 17 10.5 26.5t25.5 9.5z" />
    <glyph glyph-name="i.loclTRK" horiz-adv-x="207" 
d="M104 678q15 0 25 -9.5t10 -25.5t-10 -25.5t-25 -9.5q-16 0 -26 9.5t-10 25.5t10 25.5t26 9.5zM86 0v483h36v-483h-36z" />
    <glyph glyph-name="a.ss01" horiz-adv-x="514" 
d="M248 488q86 0 136 -50t50 -140v-298h-35l-1 99q-20 -41 -68.5 -72t-122.5 -31t-115 33.5t-41 92.5q0 74 63.5 110.5t174.5 36.5h109v30q0 74 -41 115t-111 41q-63 0 -104 -33t-45 -89h-35q5 71 56.5 113t129.5 42zM214 26q47 0 85.5 17t58 40t30 42.5t10.5 29.5v85h-109
q-95 0 -148.5 -29.5t-53.5 -87.5q0 -45 33.5 -71t93.5 -26z" />
    <glyph glyph-name="aacute.ss01" horiz-adv-x="514" 
d="M326 712l-72 -147h-30l53 147h49zM248 488q86 0 136 -50t50 -140v-298h-35l-1 99q-20 -41 -68.5 -72t-122.5 -31t-115 33.5t-41 92.5q0 74 63.5 110.5t174.5 36.5h109v30q0 74 -41 115t-111 41q-63 0 -104 -33t-45 -89h-35q5 71 56.5 113t129.5 42zM214 26q47 0 85.5 17
t58 40t30 42.5t10.5 29.5v85h-109q-95 0 -148.5 -29.5t-53.5 -87.5q0 -45 33.5 -71t93.5 -26z" />
    <glyph glyph-name="abreve.ss01" horiz-adv-x="514" 
d="M250 563q-55 0 -87 36.5t-32 103.5h32q0 -55 23.5 -82.5t62.5 -26.5q87 2 87 109h32q0 -67 -32 -103.5t-86 -36.5zM248 488q86 0 136 -50t50 -140v-298h-35l-1 99q-20 -41 -68.5 -72t-122.5 -31t-115 33.5t-41 92.5q0 74 63.5 110.5t174.5 36.5h109v30q0 74 -41 115
t-111 41q-63 0 -104 -33t-45 -89h-35q5 71 56.5 113t129.5 42zM214 26q47 0 85.5 17t58 40t30 42.5t10.5 29.5v85h-109q-95 0 -148.5 -29.5t-53.5 -87.5q0 -45 33.5 -71t93.5 -26z" />
    <glyph glyph-name="acircumflex.ss01" horiz-adv-x="514" 
d="M249 681l-84 -116h-33l94 147h47l94 -147h-33zM248 488q86 0 136 -50t50 -140v-298h-35l-1 99q-20 -41 -68.5 -72t-122.5 -31t-115 33.5t-41 92.5q0 74 63.5 110.5t174.5 36.5h109v30q0 74 -41 115t-111 41q-63 0 -104 -33t-45 -89h-35q5 71 56.5 113t129.5 42zM214 26
q47 0 85.5 17t58 40t30 42.5t10.5 29.5v85h-109q-95 0 -148.5 -29.5t-53.5 -87.5q0 -45 33.5 -71t93.5 -26z" />
    <glyph glyph-name="adieresis.ss01" horiz-adv-x="514" 
d="M167 608q-15 0 -24.5 9.5t-9.5 23.5q0 15 9.5 24.5t24.5 9.5t24.5 -9.5t9.5 -24.5q0 -14 -9.5 -23.5t-24.5 -9.5zM336 608q-15 0 -24.5 9.5t-9.5 23.5q0 15 9.5 24.5t24.5 9.5t24.5 -9.5t9.5 -24.5q0 -14 -9.5 -23.5t-24.5 -9.5zM248 488q86 0 136 -50t50 -140v-298h-35
l-1 99q-20 -41 -68.5 -72t-122.5 -31t-115 33.5t-41 92.5q0 74 63.5 110.5t174.5 36.5h109v30q0 74 -41 115t-111 41q-63 0 -104 -33t-45 -89h-35q5 71 56.5 113t129.5 42zM214 26q47 0 85.5 17t58 40t30 42.5t10.5 29.5v85h-109q-95 0 -148.5 -29.5t-53.5 -87.5
q0 -45 33.5 -71t93.5 -26z" />
    <glyph glyph-name="uni1EA1.ss01" horiz-adv-x="514" 
d="M248 488q86 0 136 -50t50 -140v-298h-35l-1 99q-20 -41 -68.5 -72t-122.5 -31t-115 33.5t-41 92.5q0 74 63.5 110.5t174.5 36.5h109v30q0 74 -41 115t-111 41q-63 0 -104 -33t-45 -89h-35q5 71 56.5 113t129.5 42zM214 26q47 0 85.5 17t58 40t30 42.5t10.5 29.5v85h-109
q-95 0 -148.5 -29.5t-53.5 -87.5q0 -45 33.5 -71t93.5 -26zM247 -89q15 0 25 -9.5t10 -25.5t-10 -25.5t-25 -9.5q-16 0 -26 9.5t-10 25.5t10 25.5t26 9.5z" />
    <glyph glyph-name="agrave.ss01" horiz-adv-x="514" 
d="M286 565h-30l-72 147h49zM248 488q86 0 136 -50t50 -140v-298h-35l-1 99q-20 -41 -68.5 -72t-122.5 -31t-115 33.5t-41 92.5q0 74 63.5 110.5t174.5 36.5h109v30q0 74 -41 115t-111 41q-63 0 -104 -33t-45 -89h-35q5 71 56.5 113t129.5 42zM214 26q47 0 85.5 17t58 40
t30 42.5t10.5 29.5v85h-109q-95 0 -148.5 -29.5t-53.5 -87.5q0 -45 33.5 -71t93.5 -26z" />
    <glyph glyph-name="amacron.ss01" horiz-adv-x="514" 
d="M375 658v-32h-245v32h245zM248 488q86 0 136 -50t50 -140v-298h-35l-1 99q-20 -41 -68.5 -72t-122.5 -31t-115 33.5t-41 92.5q0 74 63.5 110.5t174.5 36.5h109v30q0 74 -41 115t-111 41q-63 0 -104 -33t-45 -89h-35q5 71 56.5 113t129.5 42zM214 26q47 0 85.5 17t58 40
t30 42.5t10.5 29.5v85h-109q-95 0 -148.5 -29.5t-53.5 -87.5q0 -45 33.5 -71t93.5 -26z" />
    <glyph glyph-name="aogonek.ss01" horiz-adv-x="514" 
d="M448 -146l13 -22q-22 -22 -63 -22q-34 0 -57 19.5t-23 57.5q0 69 81 119l-1 93q-20 -41 -68.5 -72t-122.5 -31t-115 33.5t-41 92.5q0 74 63.5 110.5t174.5 36.5h109v30q0 74 -41 115t-111 41q-63 0 -104 -33t-45 -89h-35q5 71 56.5 113t129.5 42q86 0 136 -50t50 -140
v-298q-3 -2 -9 -5t-20.5 -14t-26 -23t-20.5 -30.5t-9 -37.5q0 -26 14.5 -38.5t36.5 -12.5q29 0 48 15zM214 26q47 0 85.5 17t58 40t30 42.5t10.5 29.5v85h-109q-95 0 -148.5 -29.5t-53.5 -87.5q0 -45 33.5 -71t93.5 -26z" />
    <glyph glyph-name="aring.ss01" horiz-adv-x="514" 
d="M249 562q-33 0 -55 21.5t-22 53.5q0 33 22 55t55 22t54.5 -22t21.5 -55q0 -32 -21.5 -53.5t-54.5 -21.5zM249 684q-22 0 -34.5 -13t-12.5 -34q0 -20 12.5 -33.5t34.5 -13.5q21 0 33.5 13.5t12.5 33.5q0 21 -12.5 34t-33.5 13zM248 488q86 0 136 -50t50 -140v-298h-35
l-1 99q-20 -41 -68.5 -72t-122.5 -31t-115 33.5t-41 92.5q0 74 63.5 110.5t174.5 36.5h109v30q0 74 -41 115t-111 41q-63 0 -104 -33t-45 -89h-35q5 71 56.5 113t129.5 42zM214 26q47 0 85.5 17t58 40t30 42.5t10.5 29.5v85h-109q-95 0 -148.5 -29.5t-53.5 -87.5
q0 -45 33.5 -71t93.5 -26z" />
    <glyph glyph-name="aringacute.ss01" horiz-adv-x="514" 
d="M249 562q-33 0 -55 21.5t-22 53.5q0 33 22 55t55 22q46 0 67 -39l32 88h44l-68 -138q-4 -27 -24.5 -45t-50.5 -18zM249 684q-22 0 -34.5 -13t-12.5 -34q0 -20 12.5 -33.5t34.5 -13.5q21 0 33.5 13.5t12.5 33.5q0 21 -12.5 34t-33.5 13zM248 488q86 0 136 -50t50 -140
v-298h-35l-1 99q-20 -41 -68.5 -72t-122.5 -31t-115 33.5t-41 92.5q0 74 63.5 110.5t174.5 36.5h109v30q0 74 -41 115t-111 41q-63 0 -104 -33t-45 -89h-35q5 71 56.5 113t129.5 42zM214 26q47 0 85.5 17t58 40t30 42.5t10.5 29.5v85h-109q-95 0 -148.5 -29.5t-53.5 -87.5
q0 -45 33.5 -71t93.5 -26z" />
    <glyph glyph-name="atilde.ss01" horiz-adv-x="514" 
d="M183 651q-20 0 -33 -14t-13 -41h-30q0 41 19.5 64t56.5 23q35 0 68 -30.5t55 -30.5q21 0 34 15t13 41h30q0 -42 -21 -64.5t-55 -22.5q-33 0 -67.5 30t-56.5 30zM248 488q86 0 136 -50t50 -140v-298h-35l-1 99q-20 -41 -68.5 -72t-122.5 -31t-115 33.5t-41 92.5
q0 74 63.5 110.5t174.5 36.5h109v30q0 74 -41 115t-111 41q-63 0 -104 -33t-45 -89h-35q5 71 56.5 113t129.5 42zM214 26q47 0 85.5 17t58 40t30 42.5t10.5 29.5v85h-109q-95 0 -148.5 -29.5t-53.5 -87.5q0 -45 33.5 -71t93.5 -26z" />
    <glyph glyph-name="f.ss01" horiz-adv-x="336" 
d="M361 591h-33q1 39 -24.5 63t-68.5 24t-68.5 -24.5t-25.5 -67.5v-103h177v-32h-177v-451h-36v451h-69v32h69v103q0 57 36 90.5t94 33.5q57 0 91.5 -34t34.5 -85z" />
    <glyph glyph-name="g.ss01" horiz-adv-x="577" 
d="M455 483h34v-465q0 -228 -244 -228q-81 0 -146 28v35q72 -31 146 -31q208 0 208 197v93q-23 -54 -70.5 -84.5t-109.5 -31.5q-98 0 -158.5 67t-60.5 179t60.5 179t158.5 67q62 0 109.5 -31t70.5 -86zM275 27q75 0 126.5 54.5t51.5 135.5v48q0 80 -52 135t-126 55
q-83 0 -134 -57.5t-51 -155.5q0 -99 51 -157t134 -58z" />
    <glyph glyph-name="gbreve.ss01" horiz-adv-x="577" 
d="M291 563q-55 0 -87 36.5t-32 103.5h32q0 -55 23.5 -82.5t62.5 -26.5q87 2 87 109h32q0 -67 -32 -103.5t-86 -36.5zM455 483h34v-465q0 -228 -244 -228q-81 0 -146 28v35q72 -31 146 -31q208 0 208 197v93q-23 -54 -70.5 -84.5t-109.5 -31.5q-98 0 -158.5 67t-60.5 179
t60.5 179t158.5 67q62 0 109.5 -31t70.5 -86zM275 27q75 0 126.5 54.5t51.5 135.5v48q0 80 -52 135t-126 55q-83 0 -134 -57.5t-51 -155.5q0 -99 51 -157t134 -58z" />
    <glyph glyph-name="gcaron.ss01" horiz-adv-x="577" 
d="M315 565h-47l-95 147h34l84 -116l84 116h34zM455 483h34v-465q0 -228 -244 -228q-81 0 -146 28v35q72 -31 146 -31q208 0 208 197v93q-23 -54 -70.5 -84.5t-109.5 -31.5q-98 0 -158.5 67t-60.5 179t60.5 179t158.5 67q62 0 109.5 -31t70.5 -86zM275 27q75 0 126.5 54.5
t51.5 135.5v48q0 80 -52 135t-126 55q-83 0 -134 -57.5t-51 -155.5q0 -99 51 -157t134 -58z" />
    <glyph glyph-name="gcircumflex.ss01" horiz-adv-x="577" 
d="M290 681l-84 -116h-33l94 147h47l94 -147h-33zM455 483h34v-465q0 -228 -244 -228q-81 0 -146 28v35q72 -31 146 -31q208 0 208 197v93q-23 -54 -70.5 -84.5t-109.5 -31.5q-98 0 -158.5 67t-60.5 179t60.5 179t158.5 67q62 0 109.5 -31t70.5 -86zM275 27q75 0 126.5 54.5
t51.5 135.5v48q0 80 -52 135t-126 55q-83 0 -134 -57.5t-51 -155.5q0 -99 51 -157t134 -58z" />
    <glyph glyph-name="gcommaaccent.ss01" horiz-adv-x="577" 
d="M276 558q-36 0 -36 51q0 43 21.5 69.5t46.5 24.5v-26q-14 0 -24.5 -13t-10.5 -34q18 0 28.5 -10t10.5 -26q0 -17 -10.5 -26.5t-25.5 -9.5zM455 483h34v-465q0 -228 -244 -228q-81 0 -146 28v35q72 -31 146 -31q208 0 208 197v93q-23 -54 -70.5 -84.5t-109.5 -31.5
q-98 0 -158.5 67t-60.5 179t60.5 179t158.5 67q62 0 109.5 -31t70.5 -86zM275 27q75 0 126.5 54.5t51.5 135.5v48q0 80 -52 135t-126 55q-83 0 -134 -57.5t-51 -155.5q0 -99 51 -157t134 -58z" />
    <glyph glyph-name="gdotaccent.ss01" horiz-adv-x="577" 
d="M291 608q-16 0 -26 9.5t-10 25.5t10 25.5t26 9.5q15 0 25 -9.5t10 -25.5t-10 -25.5t-25 -9.5zM455 483h34v-465q0 -228 -244 -228q-81 0 -146 28v35q72 -31 146 -31q208 0 208 197v93q-23 -54 -70.5 -84.5t-109.5 -31.5q-98 0 -158.5 67t-60.5 179t60.5 179t158.5 67
q62 0 109.5 -31t70.5 -86zM275 27q75 0 126.5 54.5t51.5 135.5v48q0 80 -52 135t-126 55q-83 0 -134 -57.5t-51 -155.5q0 -99 51 -157t134 -58z" />
    <glyph glyph-name="j.ss01" horiz-adv-x="215" 
d="M149 643q0 -15 -10.5 -25t-24.5 -10t-24.5 10t-10.5 25q0 14 10.5 24.5t24.5 10.5t24.5 -10.5t10.5 -24.5zM9 -178q40 0 62.5 22.5t22.5 68.5v570h35v-571q0 -60 -32.5 -91t-87.5 -31q-53 0 -86 30t-33 90h33q0 -44 23.5 -66t62.5 -22z" />
    <glyph glyph-name="uni0237.ss01" horiz-adv-x="215" 
d="M9 -178q40 0 62.5 22.5t22.5 68.5v570h35v-571q0 -60 -32.5 -91t-87.5 -31q-53 0 -86 30t-33 90h33q0 -44 23.5 -66t62.5 -22z" />
    <glyph glyph-name="jcircumflex.ss01" horiz-adv-x="215" 
d="M-8 565l94 147h47l94 -147h-33l-85 116l-84 -116h-33zM9 -210q-53 0 -86 30t-33 90h33q0 -44 23.5 -66t62.5 -22q40 0 62.5 22.5t22.5 68.5v570h35v-571q0 -60 -32.5 -91t-87.5 -31z" />
    <glyph glyph-name="l.ss01" horiz-adv-x="207" 
d="M86 0v700h35v-700h-35z" />
    <glyph glyph-name="lacute.ss01" horiz-adv-x="207" 
d="M120 730h-36l51 122h57zM86 0v700h35v-700h-35z" />
    <glyph glyph-name="lcaron.ss01" horiz-adv-x="215" 
d="M188 599q15 0 26 14t11 38q-39 0 -39 36q0 17 10 26.5t25 9.5q37 0 37 -50q0 -47 -21.5 -74t-48.5 -26v26zM86 0v700h35v-700h-35z" />
    <glyph glyph-name="lcommaaccent.ss01" horiz-adv-x="207" 
d="M86 0v700h35v-700h-35zM70 -168q14 0 24.5 13t10.5 34q-18 0 -28.5 10t-10.5 26q0 17 10.5 26.5t25.5 9.5q36 0 36 -51q0 -43 -21.5 -69.5t-46.5 -24.5v26z" />
    <glyph glyph-name="ldot.ss01" horiz-adv-x="244" 
d="M86 0v700h35v-700h-35zM226 379q16 0 26 -9.5t10 -25.5t-10 -25.5t-26 -9.5q-15 0 -25 9.5t-10 25.5t10 25.5t25 9.5z" />
    <glyph glyph-name="lslash.ss01" horiz-adv-x="259" 
d="M228 397l-79 -48v-349h-36v327l-67 -41l-14 25l81 50v339h36v-317l64 40z" />
    <glyph glyph-name="t.ss01" horiz-adv-x="392" 
d="M345 143h33q0 -71 -35.5 -109t-100.5 -38q-64 0 -100.5 38t-36.5 114v303h-82v32h84v149h35v-149h204v-32h-204l-1 -281v-22q0 -120 102 -120q103 0 102 115z" />
    <glyph glyph-name="tbar.ss01" horiz-adv-x="406" 
d="M345 143h33q0 -71 -35.5 -109t-100.5 -38q-64 0 -100.5 38t-36.5 114v116h-65v28h65v159h-82v32h84v149h35v-149h204v-32h-204l-1 -159h148v-28h-148v-116q0 -120 102 -120q103 0 102 115z" />
    <glyph glyph-name="tcaron.ss01" horiz-adv-x="406" 
d="M272 651q-19 0 -29.5 10t-10.5 26q0 17 10.5 26.5t25.5 9.5q37 0 37 -53q0 -42 -21.5 -64.5t-48.5 -22.5v26q16 0 26.5 10.5t10.5 31.5zM345 143h33q0 -71 -35.5 -109t-100.5 -38q-64 0 -100.5 38t-36.5 114v303h-82v32h84v149h35v-149h204v-32h-204l-1 -281v-22
q0 -120 102 -120q103 0 102 115z" />
    <glyph glyph-name="uni0163.ss01" horiz-adv-x="406" 
d="M242 -4h-6l-9 -42q78 -6 78 -70q0 -34 -24 -54t-67 -20q-30 0 -50 9l6 28q18 -8 45 -8q61 0 61 44q0 49 -80 49l14 67q-105 18 -105 149v303h-82v32h84v149h35v-149h204v-32h-204l-1 -281v-22q0 -120 102 -120q103 0 102 115h33q0 -71 -35.5 -109t-100.5 -38z" />
    <glyph glyph-name="uni021B.ss01" horiz-adv-x="406" 
d="M345 143h33q0 -71 -35.5 -109t-100.5 -38q-64 0 -100.5 38t-36.5 114v303h-82v32h84v149h35v-149h204v-32h-204l-1 -281v-22q0 -120 102 -120q103 0 102 115zM233 -49q36 0 36 -51q0 -43 -21.5 -69.5t-46.5 -24.5v26q14 0 24.5 13t10.5 34q-18 0 -28.5 10t-10.5 26
q0 17 10.5 26.5t25.5 9.5z" />
    <glyph glyph-name="u.ss01" horiz-adv-x="556" 
d="M527 34l4 -32q-19 -6 -40 -6q-33 0 -51 20.5t-18 58.5v23q-21 -47 -65 -75t-104 -28q-76 0 -124.5 50.5t-48.5 132.5v305h36v-299q0 -71 39.5 -114t102.5 -43q75 0 119.5 47.5t44.5 105.5v303h35v-403q0 -51 41 -51q16 0 29 5z" />
    <glyph glyph-name="uacute.ss01" horiz-adv-x="556" 
d="M347 712l-72 -147h-30l53 147h49zM527 34l4 -32q-19 -6 -40 -6q-33 0 -51 20.5t-18 58.5v23q-21 -47 -65 -75t-104 -28q-76 0 -124.5 50.5t-48.5 132.5v305h36v-299q0 -71 39.5 -114t102.5 -43q75 0 119.5 47.5t44.5 105.5v303h35v-403q0 -51 41 -51q16 0 29 5z" />
    <glyph glyph-name="ubreve.ss01" horiz-adv-x="556" 
d="M271 563q-55 0 -87 36.5t-32 103.5h32q0 -55 23.5 -82.5t62.5 -26.5q87 2 87 109h32q0 -67 -32 -103.5t-86 -36.5zM527 34l4 -32q-19 -6 -40 -6q-33 0 -51 20.5t-18 58.5v23q-21 -47 -65 -75t-104 -28q-76 0 -124.5 50.5t-48.5 132.5v305h36v-299q0 -71 39.5 -114
t102.5 -43q75 0 119.5 47.5t44.5 105.5v303h35v-403q0 -51 41 -51q16 0 29 5z" />
    <glyph glyph-name="ucircumflex.ss01" horiz-adv-x="556" 
d="M271 681l-84 -116h-33l94 147h47l94 -147h-33zM527 34l4 -32q-19 -6 -40 -6q-33 0 -51 20.5t-18 58.5v23q-21 -47 -65 -75t-104 -28q-76 0 -124.5 50.5t-48.5 132.5v305h36v-299q0 -71 39.5 -114t102.5 -43q75 0 119.5 47.5t44.5 105.5v303h35v-403q0 -51 41 -51
q16 0 29 5z" />
    <glyph glyph-name="udieresis.ss01" horiz-adv-x="556" 
d="M188 608q-15 0 -24.5 9.5t-9.5 23.5q0 15 9.5 24.5t24.5 9.5t24.5 -9.5t9.5 -24.5q0 -14 -9.5 -23.5t-24.5 -9.5zM357 608q-15 0 -24.5 9.5t-9.5 23.5q0 15 9.5 24.5t24.5 9.5t24.5 -9.5t9.5 -24.5q0 -14 -9.5 -23.5t-24.5 -9.5zM527 34l4 -32q-19 -6 -40 -6
q-33 0 -51 20.5t-18 58.5v23q-21 -47 -65 -75t-104 -28q-76 0 -124.5 50.5t-48.5 132.5v305h36v-299q0 -71 39.5 -114t102.5 -43q75 0 119.5 47.5t44.5 105.5v303h35v-403q0 -51 41 -51q16 0 29 5z" />
    <glyph glyph-name="uni1EE5.ss01" horiz-adv-x="556" 
d="M527 34l4 -32q-19 -6 -40 -6q-33 0 -51 20.5t-18 58.5v23q-21 -47 -65 -75t-104 -28q-76 0 -124.5 50.5t-48.5 132.5v305h36v-299q0 -71 39.5 -114t102.5 -43q75 0 119.5 47.5t44.5 105.5v303h35v-403q0 -51 41 -51q16 0 29 5zM275 -89q15 0 25 -9.5t10 -25.5t-10 -25.5
t-25 -9.5q-16 0 -26 9.5t-10 25.5t10 25.5t26 9.5z" />
    <glyph glyph-name="ugrave.ss01" horiz-adv-x="556" 
d="M307 565h-30l-72 147h49zM527 34l4 -32q-19 -6 -40 -6q-33 0 -51 20.5t-18 58.5v23q-21 -47 -65 -75t-104 -28q-76 0 -124.5 50.5t-48.5 132.5v305h36v-299q0 -71 39.5 -114t102.5 -43q75 0 119.5 47.5t44.5 105.5v303h35v-403q0 -51 41 -51q16 0 29 5z" />
    <glyph glyph-name="uhungarumlaut.ss01" horiz-adv-x="556" 
d="M302 712l-73 -147h-29l51 147h51zM420 712l-72 -147h-30l51 147h51zM527 34l4 -32q-19 -6 -40 -6q-33 0 -51 20.5t-18 58.5v23q-21 -47 -65 -75t-104 -28q-76 0 -124.5 50.5t-48.5 132.5v305h36v-299q0 -71 39.5 -114t102.5 -43q75 0 119.5 47.5t44.5 105.5v303h35v-403
q0 -51 41 -51q16 0 29 5z" />
    <glyph glyph-name="umacron.ss01" horiz-adv-x="556" 
d="M397 658v-32h-245v32h245zM527 34l4 -32q-19 -6 -40 -6q-33 0 -51 20.5t-18 58.5v23q-21 -47 -65 -75t-104 -28q-76 0 -124.5 50.5t-48.5 132.5v305h36v-299q0 -71 39.5 -114t102.5 -43q75 0 119.5 47.5t44.5 105.5v303h35v-403q0 -51 41 -51q16 0 29 5z" />
    <glyph glyph-name="uogonek.ss01" horiz-adv-x="556" 
d="M545 -144l13 -22q-22 -22 -63 -22q-34 0 -57 19.5t-23 57.5q0 59 64 108q-57 6 -57 78v23q-21 -47 -65 -75t-104 -28q-76 0 -124.5 50.5t-48.5 132.5v305h36v-299q0 -71 39.5 -114t102.5 -43q75 0 119.5 47.5t44.5 105.5v303h35v-403q0 -51 41 -51q16 0 29 5l4 -32
q-3 -2 -9 -5t-20.5 -14t-26 -23t-20.5 -30.5t-9 -37.5q0 -26 14.5 -38.5t36.5 -12.5q29 0 48 15z" />
    <glyph glyph-name="uring.ss01" horiz-adv-x="556" 
d="M271 562q-33 0 -55 21.5t-22 53.5q0 33 22 55t55 22t54.5 -22t21.5 -55q0 -32 -21.5 -53.5t-54.5 -21.5zM271 684q-22 0 -34.5 -13t-12.5 -34q0 -20 12.5 -33.5t34.5 -13.5q21 0 33.5 13.5t12.5 33.5q0 21 -12.5 34t-33.5 13zM527 34l4 -32q-19 -6 -40 -6q-33 0 -51 20.5
t-18 58.5v23q-21 -47 -65 -75t-104 -28q-76 0 -124.5 50.5t-48.5 132.5v305h36v-299q0 -71 39.5 -114t102.5 -43q75 0 119.5 47.5t44.5 105.5v303h35v-403q0 -51 41 -51q16 0 29 5z" />
    <glyph glyph-name="utilde.ss01" horiz-adv-x="556" 
d="M205 651q-20 0 -33 -14t-13 -41h-30q0 41 19.5 64t56.5 23q35 0 68 -30.5t55 -30.5q21 0 34 15t13 41h30q0 -42 -21 -64.5t-55 -22.5q-33 0 -67.5 30t-56.5 30zM527 34l4 -32q-19 -6 -40 -6q-33 0 -51 20.5t-18 58.5v23q-21 -47 -65 -75t-104 -28q-76 0 -124.5 50.5
t-48.5 132.5v305h36v-299q0 -71 39.5 -114t102.5 -43q75 0 119.5 47.5t44.5 105.5v303h35v-403q0 -51 41 -51q16 0 29 5z" />
    <glyph glyph-name="y.ss01" horiz-adv-x="543" 
d="M422 483h35v-496q0 -98 -50.5 -147.5t-138.5 -49.5q-83 0 -132.5 37.5t-55.5 106.5h35q6 -55 46 -83.5t106 -28.5q72 0 113.5 40.5t41.5 124.5v112q-21 -47 -65.5 -75t-104.5 -28q-80 0 -126 49t-46 133v305h36v-299q0 -72 38.5 -114t105.5 -42q73 0 117.5 47.5
t44.5 104.5v303z" />
    <glyph glyph-name="yacute.ss01" horiz-adv-x="543" 
d="M348 712l-72 -147h-30l53 147h49zM422 483h35v-496q0 -98 -50.5 -147.5t-138.5 -49.5q-83 0 -132.5 37.5t-55.5 106.5h35q6 -55 46 -83.5t106 -28.5q72 0 113.5 40.5t41.5 124.5v112q-21 -47 -65.5 -75t-104.5 -28q-80 0 -126 49t-46 133v305h36v-299q0 -72 38.5 -114
t105.5 -42q73 0 117.5 47.5t44.5 104.5v303z" />
    <glyph glyph-name="ycircumflex.ss01" horiz-adv-x="543" 
d="M271 681l-84 -116h-33l94 147h47l94 -147h-33zM422 483h35v-496q0 -98 -50.5 -147.5t-138.5 -49.5q-83 0 -132.5 37.5t-55.5 106.5h35q6 -55 46 -83.5t106 -28.5q72 0 113.5 40.5t41.5 124.5v112q-21 -47 -65.5 -75t-104.5 -28q-80 0 -126 49t-46 133v305h36v-299
q0 -72 38.5 -114t105.5 -42q73 0 117.5 47.5t44.5 104.5v303z" />
    <glyph glyph-name="ydieresis.ss01" horiz-adv-x="543" 
d="M187 608q-15 0 -24.5 9.5t-9.5 23.5q0 15 9.5 24.5t24.5 9.5t24.5 -9.5t9.5 -24.5q0 -14 -9.5 -23.5t-24.5 -9.5zM356 608q-15 0 -24.5 9.5t-9.5 23.5q0 15 9.5 24.5t24.5 9.5t24.5 -9.5t9.5 -24.5q0 -14 -9.5 -23.5t-24.5 -9.5zM422 483h35v-496q0 -98 -50.5 -147.5
t-138.5 -49.5q-83 0 -132.5 37.5t-55.5 106.5h35q6 -55 46 -83.5t106 -28.5q72 0 113.5 40.5t41.5 124.5v112q-21 -47 -65.5 -75t-104.5 -28q-80 0 -126 49t-46 133v305h36v-299q0 -72 38.5 -114t105.5 -42q73 0 117.5 47.5t44.5 104.5v303z" />
    <glyph glyph-name="ygrave.ss01" horiz-adv-x="543" 
d="M297 565h-30l-72 147h49zM422 483h35v-496q0 -98 -50.5 -147.5t-138.5 -49.5q-83 0 -132.5 37.5t-55.5 106.5h35q6 -55 46 -83.5t106 -28.5q72 0 113.5 40.5t41.5 124.5v112q-21 -47 -65.5 -75t-104.5 -28q-80 0 -126 49t-46 133v305h36v-299q0 -72 38.5 -114t105.5 -42
q73 0 117.5 47.5t44.5 104.5v303z" />
    <glyph glyph-name="uni0233.ss01" horiz-adv-x="543" 
d="M401 658v-32h-245v32h245zM422 483h35v-496q0 -98 -50.5 -147.5t-138.5 -49.5q-83 0 -132.5 37.5t-55.5 106.5h35q6 -55 46 -83.5t106 -28.5q72 0 113.5 40.5t41.5 124.5v112q-21 -47 -65.5 -75t-104.5 -28q-80 0 -126 49t-46 133v305h36v-299q0 -72 38.5 -114t105.5 -42
q73 0 117.5 47.5t44.5 104.5v303z" />
    <glyph glyph-name="uni1EF9.ss01" horiz-adv-x="543" 
d="M208 651q-20 0 -33 -14t-13 -41h-30q0 41 19.5 64t56.5 23q35 0 68 -30.5t55 -30.5q21 0 34 15t13 41h30q0 -42 -21 -64.5t-55 -22.5q-33 0 -67.5 30t-56.5 30zM422 483h35v-496q0 -98 -50.5 -147.5t-138.5 -49.5q-83 0 -132.5 37.5t-55.5 106.5h35q6 -55 46 -83.5
t106 -28.5q72 0 113.5 40.5t41.5 124.5v112q-21 -47 -65.5 -75t-104.5 -28q-80 0 -126 49t-46 133v305h36v-299q0 -72 38.5 -114t105.5 -42q73 0 117.5 47.5t44.5 104.5v303z" />
    <glyph glyph-name="f.ss02" horiz-adv-x="336" 
d="M263 668q-63 0 -92.5 -29.5t-29.5 -94.5v-61h178v-32h-178v-451h-36v451h-69v32h69v61q0 156 156 156q23 0 60 -3v-33q-33 4 -58 4z" />
    <glyph glyph-name="g.ss02" horiz-adv-x="577" 
d="M455 483h34v-482q0 -100 -59.5 -150.5t-186.5 -50.5q-75 0 -144 7v33q77 -8 144 -8q110 0 160 42t50 127v111q-23 -54 -70.5 -84.5t-109.5 -31.5q-98 0 -158.5 67t-60.5 179t60.5 179t158.5 67q62 0 109.5 -31t70.5 -86zM275 27q75 0 126.5 54.5t51.5 135.5v48
q0 80 -52 135t-126 55q-83 0 -134 -57.5t-51 -155.5q0 -99 51 -157t134 -58z" />
    <glyph glyph-name="gbreve.ss02" horiz-adv-x="577" 
d="M291 563q-55 0 -87 36.5t-32 103.5h32q0 -55 23.5 -82.5t62.5 -26.5q87 2 87 109h32q0 -67 -32 -103.5t-86 -36.5zM455 483h34v-482q0 -100 -59.5 -150.5t-186.5 -50.5q-75 0 -144 7v33q77 -8 144 -8q110 0 160 42t50 127v111q-23 -54 -70.5 -84.5t-109.5 -31.5
q-98 0 -158.5 67t-60.5 179t60.5 179t158.5 67q62 0 109.5 -31t70.5 -86zM275 27q75 0 126.5 54.5t51.5 135.5v48q0 80 -52 135t-126 55q-83 0 -134 -57.5t-51 -155.5q0 -99 51 -157t134 -58z" />
    <glyph glyph-name="gcaron.ss02" horiz-adv-x="577" 
d="M315 565h-47l-95 147h34l84 -116l84 116h34zM455 483h34v-482q0 -100 -59.5 -150.5t-186.5 -50.5q-75 0 -144 7v33q77 -8 144 -8q110 0 160 42t50 127v111q-23 -54 -70.5 -84.5t-109.5 -31.5q-98 0 -158.5 67t-60.5 179t60.5 179t158.5 67q62 0 109.5 -31t70.5 -86z
M275 27q75 0 126.5 54.5t51.5 135.5v48q0 80 -52 135t-126 55q-83 0 -134 -57.5t-51 -155.5q0 -99 51 -157t134 -58z" />
    <glyph glyph-name="gcircumflex.ss02" horiz-adv-x="577" 
d="M290 681l-84 -116h-33l94 147h47l94 -147h-33zM455 483h34v-482q0 -100 -59.5 -150.5t-186.5 -50.5q-75 0 -144 7v33q77 -8 144 -8q110 0 160 42t50 127v111q-23 -54 -70.5 -84.5t-109.5 -31.5q-98 0 -158.5 67t-60.5 179t60.5 179t158.5 67q62 0 109.5 -31t70.5 -86z
M275 27q75 0 126.5 54.5t51.5 135.5v48q0 80 -52 135t-126 55q-83 0 -134 -57.5t-51 -155.5q0 -99 51 -157t134 -58z" />
    <glyph glyph-name="gcommaaccent.ss02" horiz-adv-x="574" 
d="M278 558q-36 0 -36 51q0 43 21.5 69.5t46.5 24.5v-26q-14 0 -24.5 -13t-10.5 -34q18 0 28.5 -10t10.5 -26q0 -17 -10.5 -26.5t-25.5 -9.5zM455 483h34v-482q0 -100 -59.5 -150.5t-186.5 -50.5q-75 0 -144 7v33q77 -8 144 -8q110 0 160 42t50 127v111q-23 -54 -70.5 -84.5
t-109.5 -31.5q-98 0 -158.5 67t-60.5 179t60.5 179t158.5 67q62 0 109.5 -31t70.5 -86zM275 27q75 0 126.5 54.5t51.5 135.5v48q0 80 -52 135t-126 55q-83 0 -134 -57.5t-51 -155.5q0 -99 51 -157t134 -58z" />
    <glyph glyph-name="gdotaccent.ss02" horiz-adv-x="577" 
d="M291 608q-16 0 -26 9.5t-10 25.5t10 25.5t26 9.5q15 0 25 -9.5t10 -25.5t-10 -25.5t-25 -9.5zM455 483h34v-482q0 -100 -59.5 -150.5t-186.5 -50.5q-75 0 -144 7v33q77 -8 144 -8q110 0 160 42t50 127v111q-23 -54 -70.5 -84.5t-109.5 -31.5q-98 0 -158.5 67t-60.5 179
t60.5 179t158.5 67q62 0 109.5 -31t70.5 -86zM275 27q75 0 126.5 54.5t51.5 135.5v48q0 80 -52 135t-126 55q-83 0 -134 -57.5t-51 -155.5q0 -99 51 -157t134 -58z" />
    <glyph glyph-name="j.ss02" horiz-adv-x="215" 
d="M149 643q0 -15 -10.5 -25t-24.5 -10t-24.5 10t-10.5 25q0 14 10.5 24.5t24.5 10.5t24.5 -10.5t10.5 -24.5zM-16 -201q-22 0 -60 3v33q33 -4 58 -4q112 0 112 124v528h35v-528q0 -156 -145 -156z" />
    <glyph glyph-name="uni0237.ss02" horiz-adv-x="215" 
d="M-16 -201q-22 0 -60 3v33q33 -4 58 -4q112 0 112 124v528h35v-528q0 -156 -145 -156z" />
    <glyph glyph-name="jcircumflex.ss02" horiz-adv-x="215" 
d="M-8 565l94 147h47l94 -147h-33l-85 116l-84 -116h-33zM-16 -201q-22 0 -60 3v33q33 -4 58 -4q112 0 112 124v528h35v-528q0 -156 -145 -156z" />
    <glyph glyph-name="t.ss02" horiz-adv-x="337" 
d="M262 32q29 0 62 4v-32q-33 -4 -64 -4q-82 0 -120.5 36.5t-38.5 119.5v295h-78v32h80v149h34v-149h178v-32h-178v-295q0 -68 28.5 -96t96.5 -28z" />
    <glyph glyph-name="tbar.ss02" horiz-adv-x="337" 
d="M262 32q29 0 62 4v-32q-33 -4 -64 -4q-82 0 -120.5 36.5t-38.5 119.5v108h-61v28h61v159h-78v32h80v149h34v-149h178v-32h-178v-159h152v-28h-152v-108q0 -68 28.5 -96t96.5 -28z" />
    <glyph glyph-name="tcaron.ss02" horiz-adv-x="337" 
d="M272 651q-19 0 -29.5 10t-10.5 26q0 17 10.5 26.5t25.5 9.5q37 0 37 -53q0 -42 -21.5 -64.5t-48.5 -22.5v26q16 0 26.5 10.5t10.5 31.5zM262 32q29 0 62 4v-32q-33 -4 -64 -4q-82 0 -120.5 36.5t-38.5 119.5v295h-78v32h80v149h34v-149h178v-32h-178v-295q0 -68 28.5 -96
t96.5 -28z" />
    <glyph glyph-name="uni0163.ss02" horiz-adv-x="337" 
d="M260 0q-22 0 -41 3l-10 -49q78 -6 78 -70q0 -34 -24 -54t-67 -20q-30 0 -50 9l6 28q18 -8 45 -8q61 0 61 44q0 49 -80 49l16 75q-93 25 -93 149v295h-78v32h80v149h34v-149h178v-32h-178v-295q0 -68 28.5 -96t96.5 -28q29 0 62 4v-32q-33 -4 -64 -4z" />
    <glyph glyph-name="uni021B.ss02" horiz-adv-x="337" 
d="M262 32q29 0 62 4v-32q-33 -4 -64 -4q-82 0 -120.5 36.5t-38.5 119.5v295h-78v32h80v149h34v-149h178v-32h-178v-295q0 -68 28.5 -96t96.5 -28zM212 -49q36 0 36 -51q0 -43 -21.5 -69.5t-46.5 -24.5v26q14 0 24.5 13t10.5 34q-18 0 -28.5 10t-10.5 26q0 17 10.5 26.5
t25.5 9.5z" />
    <glyph glyph-name="y.ss02" horiz-adv-x="543" 
d="M422 483h35v-482q0 -98 -54 -149.5t-160 -51.5q-75 0 -144 7v33q78 -8 144 -8q179 0 179 169v98q-21 -47 -65.5 -75t-104.5 -28q-80 0 -126 49t-46 133v305h36v-299q0 -72 38.5 -114t105.5 -42q73 0 117.5 47.5t44.5 104.5v303z" />
    <glyph glyph-name="yacute.ss02" horiz-adv-x="543" 
d="M348 712l-72 -147h-30l53 147h49zM422 483h35v-482q0 -98 -54 -149.5t-160 -51.5q-75 0 -144 7v33q78 -8 144 -8q179 0 179 169v98q-21 -47 -65.5 -75t-104.5 -28q-80 0 -126 49t-46 133v305h36v-299q0 -72 38.5 -114t105.5 -42q73 0 117.5 47.5t44.5 104.5v303z" />
    <glyph glyph-name="ycircumflex.ss02" horiz-adv-x="543" 
d="M271 681l-84 -116h-33l94 147h47l94 -147h-33zM422 483h35v-482q0 -98 -54 -149.5t-160 -51.5q-75 0 -144 7v33q78 -8 144 -8q179 0 179 169v98q-21 -47 -65.5 -75t-104.5 -28q-80 0 -126 49t-46 133v305h36v-299q0 -72 38.5 -114t105.5 -42q73 0 117.5 47.5t44.5 104.5
v303z" />
    <glyph glyph-name="ydieresis.ss02" horiz-adv-x="543" 
d="M187 608q-15 0 -24.5 9.5t-9.5 23.5q0 15 9.5 24.5t24.5 9.5t24.5 -9.5t9.5 -24.5q0 -14 -9.5 -23.5t-24.5 -9.5zM356 608q-15 0 -24.5 9.5t-9.5 23.5q0 15 9.5 24.5t24.5 9.5t24.5 -9.5t9.5 -24.5q0 -14 -9.5 -23.5t-24.5 -9.5zM422 483h35v-482q0 -98 -54 -149.5
t-160 -51.5q-75 0 -144 7v33q78 -8 144 -8q179 0 179 169v98q-21 -47 -65.5 -75t-104.5 -28q-80 0 -126 49t-46 133v305h36v-299q0 -72 38.5 -114t105.5 -42q73 0 117.5 47.5t44.5 104.5v303z" />
    <glyph glyph-name="ygrave.ss02" horiz-adv-x="543" 
d="M297 565h-30l-72 147h49zM422 483h35v-482q0 -98 -54 -149.5t-160 -51.5q-75 0 -144 7v33q78 -8 144 -8q179 0 179 169v98q-21 -47 -65.5 -75t-104.5 -28q-80 0 -126 49t-46 133v305h36v-299q0 -72 38.5 -114t105.5 -42q73 0 117.5 47.5t44.5 104.5v303z" />
    <glyph glyph-name="uni0233.ss02" horiz-adv-x="543" 
d="M401 658v-32h-245v32h245zM422 483h35v-482q0 -98 -54 -149.5t-160 -51.5q-75 0 -144 7v33q78 -8 144 -8q179 0 179 169v98q-21 -47 -65.5 -75t-104.5 -28q-80 0 -126 49t-46 133v305h36v-299q0 -72 38.5 -114t105.5 -42q73 0 117.5 47.5t44.5 104.5v303z" />
    <glyph glyph-name="uni1EF9.ss02" horiz-adv-x="543" 
d="M208 651q-20 0 -33 -14t-13 -41h-30q0 41 19.5 64t56.5 23q35 0 68 -30.5t55 -30.5q21 0 34 15t13 41h30q0 -42 -21 -64.5t-55 -22.5q-33 0 -67.5 30t-56.5 30zM422 483h35v-482q0 -98 -54 -149.5t-160 -51.5q-75 0 -144 7v33q78 -8 144 -8q179 0 179 169v98
q-21 -47 -65.5 -75t-104.5 -28q-80 0 -126 49t-46 133v305h36v-299q0 -72 38.5 -114t105.5 -42q73 0 117.5 47.5t44.5 104.5v303z" />
    <glyph glyph-name="y.ss03" horiz-adv-x="543" 
d="M422 483h35v-464q0 -229 -221 -229q-70 0 -145 28v35q79 -31 146 -31q185 0 185 197v80q-21 -47 -65.5 -75t-104.5 -28q-80 0 -126 49t-46 133v305h36v-299q0 -72 38.5 -114t105.5 -42q73 0 117.5 47.5t44.5 104.5v303z" />
    <glyph glyph-name="yacute.ss03" horiz-adv-x="543" 
d="M348 712l-72 -147h-30l53 147h49zM422 483h35v-464q0 -229 -221 -229q-70 0 -145 28v35q79 -31 146 -31q185 0 185 197v80q-21 -47 -65.5 -75t-104.5 -28q-80 0 -126 49t-46 133v305h36v-299q0 -72 38.5 -114t105.5 -42q73 0 117.5 47.5t44.5 104.5v303z" />
    <glyph glyph-name="ycircumflex.ss03" horiz-adv-x="543" 
d="M271 681l-84 -116h-33l94 147h47l94 -147h-33zM422 483h35v-464q0 -229 -221 -229q-70 0 -145 28v35q79 -31 146 -31q185 0 185 197v80q-21 -47 -65.5 -75t-104.5 -28q-80 0 -126 49t-46 133v305h36v-299q0 -72 38.5 -114t105.5 -42q73 0 117.5 47.5t44.5 104.5v303z" />
    <glyph glyph-name="ydieresis.ss03" horiz-adv-x="543" 
d="M187 608q-15 0 -24.5 9.5t-9.5 23.5q0 15 9.5 24.5t24.5 9.5t24.5 -9.5t9.5 -24.5q0 -14 -9.5 -23.5t-24.5 -9.5zM356 608q-15 0 -24.5 9.5t-9.5 23.5q0 15 9.5 24.5t24.5 9.5t24.5 -9.5t9.5 -24.5q0 -14 -9.5 -23.5t-24.5 -9.5zM422 483h35v-464q0 -229 -221 -229
q-70 0 -145 28v35q79 -31 146 -31q185 0 185 197v80q-21 -47 -65.5 -75t-104.5 -28q-80 0 -126 49t-46 133v305h36v-299q0 -72 38.5 -114t105.5 -42q73 0 117.5 47.5t44.5 104.5v303z" />
    <glyph glyph-name="ygrave.ss03" horiz-adv-x="543" 
d="M297 565h-30l-72 147h49zM422 483h35v-464q0 -229 -221 -229q-70 0 -145 28v35q79 -31 146 -31q185 0 185 197v80q-21 -47 -65.5 -75t-104.5 -28q-80 0 -126 49t-46 133v305h36v-299q0 -72 38.5 -114t105.5 -42q73 0 117.5 47.5t44.5 104.5v303z" />
    <glyph glyph-name="uni0233.ss03" horiz-adv-x="543" 
d="M401 658v-32h-245v32h245zM422 483h35v-464q0 -229 -221 -229q-70 0 -145 28v35q79 -31 146 -31q185 0 185 197v80q-21 -47 -65.5 -75t-104.5 -28q-80 0 -126 49t-46 133v305h36v-299q0 -72 38.5 -114t105.5 -42q73 0 117.5 47.5t44.5 104.5v303z" />
    <glyph glyph-name="uni1EF9.ss03" horiz-adv-x="543" 
d="M208 651q-20 0 -33 -14t-13 -41h-30q0 41 19.5 64t56.5 23q35 0 68 -30.5t55 -30.5q21 0 34 15t13 41h30q0 -42 -21 -64.5t-55 -22.5q-33 0 -67.5 30t-56.5 30zM422 483h35v-464q0 -229 -221 -229q-70 0 -145 28v35q79 -31 146 -31q185 0 185 197v80q-21 -47 -65.5 -75
t-104.5 -28q-80 0 -126 49t-46 133v305h36v-299q0 -72 38.5 -114t105.5 -42q73 0 117.5 47.5t44.5 104.5v303z" />
    <glyph glyph-name="a.sc" horiz-adv-x="532" 
d="M468 0l-62 145h-281l-62 -145h-37l217 509h45l217 -509h-37zM138 176h255l-127 300z" />
    <glyph glyph-name="aacute.sc" horiz-adv-x="532" 
d="M346 739l-72 -147h-30l53 147h49zM468 0l-62 145h-281l-62 -145h-37l217 509h45l217 -509h-37zM138 176h255l-127 300z" />
    <glyph glyph-name="abreve.sc" horiz-adv-x="532" 
d="M270 590q-55 0 -87 36.5t-32 103.5h32q0 -55 23.5 -82.5t62.5 -26.5q87 2 87 109h32q0 -67 -32 -103.5t-86 -36.5zM468 0l-62 145h-281l-62 -145h-37l217 509h45l217 -509h-37zM138 176h255l-127 300z" />
    <glyph glyph-name="acircumflex.sc" horiz-adv-x="532" 
d="M269 708l-84 -116h-33l94 147h47l94 -147h-33zM468 0l-62 145h-281l-62 -145h-37l217 509h45l217 -509h-37zM138 176h255l-127 300z" />
    <glyph glyph-name="adieresis.sc" horiz-adv-x="532" 
d="M187 635q-15 0 -24.5 9.5t-9.5 23.5q0 15 9.5 24.5t24.5 9.5t24.5 -9.5t9.5 -24.5q0 -14 -9.5 -23.5t-24.5 -9.5zM356 635q-15 0 -24.5 9.5t-9.5 23.5q0 15 9.5 24.5t24.5 9.5t24.5 -9.5t9.5 -24.5q0 -14 -9.5 -23.5t-24.5 -9.5zM468 0l-62 145h-281l-62 -145h-37
l217 509h45l217 -509h-37zM138 176h255l-127 300z" />
    <glyph glyph-name="uni1EA1.sc" horiz-adv-x="532" 
d="M505 0h-37l-62 145h-281l-62 -145h-37l217 509h45zM138 176h255l-127 300zM266 -89q15 0 25 -9.5t10 -25.5t-10 -25.5t-25 -9.5q-16 0 -26 9.5t-10 25.5t10 25.5t26 9.5z" />
    <glyph glyph-name="agrave.sc" horiz-adv-x="532" 
d="M306 592h-30l-72 147h49zM468 0l-62 145h-281l-62 -145h-37l217 509h45l217 -509h-37zM138 176h255l-127 300z" />
    <glyph glyph-name="amacron.sc" horiz-adv-x="532" 
d="M395 685v-32h-245v32h245zM468 0l-62 145h-281l-62 -145h-37l217 509h45l217 -509h-37zM138 176h255l-127 300z" />
    <glyph glyph-name="aogonek.sc" horiz-adv-x="532" 
d="M520 -146l13 -22q-22 -22 -63 -22q-34 0 -57 19.5t-23 57.5q0 66 77 116l-61 142h-281l-62 -145h-37l217 509h45l215 -504l3 -5q-3 -2 -9 -5t-20.5 -14t-26 -23t-20.5 -30.5t-9 -37.5q0 -26 14.5 -38.5t36.5 -12.5q29 0 48 15zM138 176h255l-127 300z" />
    <glyph glyph-name="aring.sc" horiz-adv-x="532" 
d="M270 589q-33 0 -55 21.5t-22 53.5q0 33 22 55t55 22t54.5 -22t21.5 -55q0 -32 -21.5 -53.5t-54.5 -21.5zM270 711q-22 0 -34.5 -13t-12.5 -34q0 -20 12.5 -33.5t34.5 -13.5q21 0 33.5 13.5t12.5 33.5q0 21 -12.5 34t-33.5 13zM468 0l-62 145h-281l-62 -145h-37l217 509
h45l217 -509h-37zM138 176h255l-127 300z" />
    <glyph glyph-name="aringacute.sc" horiz-adv-x="532" 
d="M270 589q-33 0 -55 21.5t-22 53.5q0 33 22 55t55 22q49 0 69 -43l38 90h43l-76 -141q-5 -26 -25.5 -42t-48.5 -16zM270 711q-22 0 -34.5 -13t-12.5 -34q0 -20 12.5 -33.5t34.5 -13.5q21 0 33.5 13.5t12.5 33.5q0 21 -12.5 34t-33.5 13zM468 0l-62 145h-281l-62 -145h-37
l217 509h45l217 -509h-37zM138 176h255l-127 300z" />
    <glyph glyph-name="atilde.sc" horiz-adv-x="532" 
d="M203 678q-20 0 -33 -14t-13 -41h-30q0 41 19.5 64t56.5 23q35 0 68 -30.5t55 -30.5q21 0 34 15t13 41h30q0 -42 -21 -64.5t-55 -22.5q-33 0 -67.5 30t-56.5 30zM468 0l-62 145h-281l-62 -145h-37l217 509h45l217 -509h-37zM138 176h255l-127 300z" />
    <glyph glyph-name="ae.sc" horiz-adv-x="773" 
d="M420 33h301v-33h-338v145h-235l-102 -145h-41l357 509h358v-33h-300v-194h275v-33h-275v-216zM170 176h213v300h-1z" />
    <glyph glyph-name="aeacute.sc" horiz-adv-x="773" 
d="M480 739l-72 -147h-30l53 147h49zM420 33h301v-33h-338v145h-235l-102 -145h-41l357 509h358v-33h-300v-194h275v-33h-275v-216zM170 176h213v300h-1z" />
    <glyph glyph-name="b.sc" horiz-adv-x="541" 
d="M374 267q43 -8 75.5 -39t32.5 -90q0 -63 -42 -100.5t-112 -37.5h-236v509h230q65 0 103 -33.5t38 -90.5q0 -38 -18.5 -65.5t-36 -37t-34.5 -13.5v-2zM426 381q0 46 -30 71.5t-82 25.5h-185v-198h178q55 0 87 26.5t32 74.5zM323 31q56 0 89 29t33 80q0 110 -135 110h-181
v-219h194z" />
    <glyph glyph-name="c.sc" horiz-adv-x="595" 
d="M309 29q87 0 140 41.5t62 106.5h35q-9 -79 -71 -129.5t-165 -50.5q-111 0 -183.5 71.5t-72.5 185.5q0 116 72.5 188t183.5 72q102 0 164.5 -51t71.5 -131h-35q-9 65 -62 107t-140 42q-94 0 -156 -63t-62 -164q0 -100 62 -162.5t156 -62.5z" />
    <glyph glyph-name="cacute.sc" horiz-adv-x="595" 
d="M314 592h-30l53 147h49zM309 29q87 0 140 41.5t62 106.5h35q-9 -79 -71 -129.5t-165 -50.5q-111 0 -183.5 71.5t-72.5 185.5q0 116 72.5 188t183.5 72q102 0 164.5 -51t71.5 -131h-35q-9 65 -62 107t-140 42q-94 0 -156 -63t-62 -164q0 -100 62 -162.5t156 -62.5z" />
    <glyph glyph-name="ccaron.sc" horiz-adv-x="595" 
d="M192 739h34l84 -116l84 116h34l-94 -147h-47zM309 29q87 0 140 41.5t62 106.5h35q-9 -79 -71 -129.5t-165 -50.5q-111 0 -183.5 71.5t-72.5 185.5q0 116 72.5 188t183.5 72q102 0 164.5 -51t71.5 -131h-35q-9 65 -62 107t-140 42q-94 0 -156 -63t-62 -164
q0 -100 62 -162.5t156 -62.5z" />
    <glyph glyph-name="ccedilla.sc" horiz-adv-x="595" 
d="M309 29q87 0 140 41.5t62 106.5h35q-9 -78 -69 -128t-160 -52l-9 -43q78 -6 78 -70q0 -34 -24 -54t-67 -20q-31 0 -50 9l6 28q18 -8 45 -8q61 0 61 44q0 49 -80 49l14 66q-104 6 -170.5 76.5t-66.5 179.5q0 116 72.5 188t183.5 72q102 0 164.5 -51t71.5 -131h-35
q-9 65 -62 107t-140 42q-94 0 -156 -63t-62 -164q0 -100 62 -162.5t156 -62.5z" />
    <glyph glyph-name="ccircumflex.sc" horiz-adv-x="595" 
d="M193 592l94 147h47l94 -147h-33l-85 116l-84 -116h-33zM309 29q87 0 140 41.5t62 106.5h35q-9 -79 -71 -129.5t-165 -50.5q-111 0 -183.5 71.5t-72.5 185.5q0 116 72.5 188t183.5 72q102 0 164.5 -51t71.5 -131h-35q-9 65 -62 107t-140 42q-94 0 -156 -63t-62 -164
q0 -100 62 -162.5t156 -62.5z" />
    <glyph glyph-name="cdotaccent.sc" horiz-adv-x="595" 
d="M310 705q15 0 25 -9.5t10 -25.5t-10 -25.5t-25 -9.5q-16 0 -26 9.5t-10 25.5t10 25.5t26 9.5zM309 29q87 0 140 41.5t62 106.5h35q-9 -79 -71 -129.5t-165 -50.5q-111 0 -183.5 71.5t-72.5 185.5q0 116 72.5 188t183.5 72q102 0 164.5 -51t71.5 -131h-35q-9 65 -62 107
t-140 42q-94 0 -156 -63t-62 -164q0 -100 62 -162.5t156 -62.5z" />
    <glyph glyph-name="d.sc" horiz-adv-x="612" 
d="M295 509q115 0 188.5 -68.5t73.5 -185.5q0 -118 -73 -186.5t-189 -68.5h-203v509h203zM295 32q99 0 162 60t63 163q0 102 -63.5 162t-161.5 60h-166v-445h166z" />
    <glyph glyph-name="eth.sc" horiz-adv-x="616" 
d="M299 509q115 0 188.5 -68.5t73.5 -185.5q0 -118 -73 -186.5t-189 -68.5h-203v242h-65v28h65v239h203zM299 32q99 0 162 60t63 163q0 102 -63.5 162t-161.5 60h-166v-207h147v-28h-147v-210h166z" />
    <glyph glyph-name="dcaron.sc" horiz-adv-x="612" 
d="M321 592h-47l-95 147h34l84 -116l84 116h34zM295 509q115 0 188.5 -68.5t73.5 -185.5q0 -118 -73 -186.5t-189 -68.5h-203v509h203zM295 32q99 0 162 60t63 163q0 102 -63.5 162t-161.5 60h-166v-445h166z" />
    <glyph glyph-name="dcroat.sc" horiz-adv-x="616" 
d="M299 509q115 0 188.5 -68.5t73.5 -185.5q0 -118 -73 -186.5t-189 -68.5h-203v242h-65v28h65v239h203zM299 32q99 0 162 60t63 163q0 102 -63.5 162t-161.5 60h-166v-207h147v-28h-147v-210h166z" />
    <glyph glyph-name="e.sc" horiz-adv-x="517" 
d="M129 32h337v-32h-374v509h373v-32h-336v-196h309v-32h-309v-217z" />
    <glyph glyph-name="eacute.sc" horiz-adv-x="517" 
d="M362 739l-72 -147h-30l53 147h49zM129 32h337v-32h-374v509h373v-32h-336v-196h309v-32h-309v-217z" />
    <glyph glyph-name="ebreve.sc" horiz-adv-x="517" 
d="M286 590q-55 0 -87 36.5t-32 103.5h32q0 -55 23.5 -82.5t62.5 -26.5q87 2 87 109h32q0 -67 -32 -103.5t-86 -36.5zM129 32h337v-32h-374v509h373v-32h-336v-196h309v-32h-309v-217z" />
    <glyph glyph-name="ecaron.sc" horiz-adv-x="517" 
d="M310 592h-47l-95 147h34l84 -116l84 116h34zM129 32h337v-32h-374v509h373v-32h-336v-196h309v-32h-309v-217z" />
    <glyph glyph-name="ecircumflex.sc" horiz-adv-x="517" 
d="M286 708l-84 -116h-33l94 147h47l94 -147h-33zM129 32h337v-32h-374v509h373v-32h-336v-196h309v-32h-309v-217z" />
    <glyph glyph-name="edieresis.sc" horiz-adv-x="517" 
d="M203 635q-15 0 -24.5 9.5t-9.5 23.5q0 15 9.5 24.5t24.5 9.5t24.5 -9.5t9.5 -24.5q0 -14 -9.5 -23.5t-24.5 -9.5zM372 635q-15 0 -24.5 9.5t-9.5 23.5q0 15 9.5 24.5t24.5 9.5t24.5 -9.5t9.5 -24.5q0 -14 -9.5 -23.5t-24.5 -9.5zM129 32h337v-32h-374v509h373v-32h-336
v-196h309v-32h-309v-217z" />
    <glyph glyph-name="edotaccent.sc" horiz-adv-x="517" 
d="M286 635q-16 0 -26 9.5t-10 25.5t10 25.5t26 9.5q15 0 25 -9.5t10 -25.5t-10 -25.5t-25 -9.5zM129 32h337v-32h-374v509h373v-32h-336v-196h309v-32h-309v-217z" />
    <glyph glyph-name="uni1EB9.sc" horiz-adv-x="517" 
d="M129 32h337v-32h-374v509h373v-32h-336v-196h309v-32h-309v-217zM282 -89q15 0 25 -9.5t10 -25.5t-10 -25.5t-25 -9.5q-16 0 -26 9.5t-10 25.5t10 25.5t26 9.5z" />
    <glyph glyph-name="egrave.sc" horiz-adv-x="517" 
d="M322 592h-30l-72 147h49zM129 32h337v-32h-374v509h373v-32h-336v-196h309v-32h-309v-217z" />
    <glyph glyph-name="emacron.sc" horiz-adv-x="517" 
d="M412 685v-32h-245v32h245zM129 32h337v-32h-374v509h373v-32h-336v-196h309v-32h-309v-217z" />
    <glyph glyph-name="eogonek.sc" horiz-adv-x="517" 
d="M480 -146l13 -22q-22 -22 -63 -22q-34 0 -57 19.5t-23 57.5q0 67 72 113h-330v509h373v-32h-336v-196h309v-32h-309v-217h337v-32q-3 -2 -9 -5t-20.5 -14t-26 -23t-20.5 -30.5t-9 -37.5q0 -26 14.5 -38.5t36.5 -12.5q29 0 48 15z" />
    <glyph glyph-name="uni1EBD.sc" horiz-adv-x="517" 
d="M220 678q-20 0 -33 -14t-13 -41h-30q0 41 19.5 64t56.5 23q35 0 68 -30.5t55 -30.5q21 0 34 15t13 41h30q0 -42 -21 -64.5t-55 -22.5q-33 0 -67.5 30t-56.5 30zM129 32h337v-32h-374v509h373v-32h-336v-196h309v-32h-309v-217z" />
    <glyph glyph-name="uni0259.sc" horiz-adv-x="598" 
d="M293 514q109 0 179 -73t70 -187q0 -115 -70.5 -186t-178.5 -71q-116 0 -179 66t-63 186v9h454q-1 100 -61 162t-149 62q-80 0 -133 -39.5t-63 -96.5h-36q12 72 73.5 120t156.5 48zM294 30q84 0 143 53.5t67 143.5h-417q5 -95 59.5 -146t147.5 -51z" />
    <glyph glyph-name="f.sc" horiz-adv-x="487" 
d="M455 478h-326v-216h291v-32h-291v-230h-37v509h363v-31z" />
    <glyph glyph-name="g.sc" horiz-adv-x="620" 
d="M312 254h243v-254h-29v113q-25 -53 -80 -84.5t-132 -31.5q-114 0 -186.5 71t-72.5 187q0 117 73 188t193 71q103 0 162 -47.5t68 -125.5h-35q-10 63 -59.5 101.5t-136.5 38.5q-103 0 -165.5 -61.5t-62.5 -164.5q0 -102 62 -164t160 -62q92 0 150.5 48.5t57.5 116.5h1v30
h-211v30z" />
    <glyph glyph-name="gbreve.sc" horiz-adv-x="620" 
d="M321 592q-55 0 -87 36.5t-32 103.5h32q0 -55 23.5 -82.5t62.5 -26.5q87 2 87 109h32q0 -67 -32 -103.5t-86 -36.5zM312 254h243v-254h-29v113q-25 -53 -80 -84.5t-132 -31.5q-114 0 -186.5 71t-72.5 187q0 117 73 188t193 71q103 0 162 -47.5t68 -125.5h-35
q-10 63 -59.5 101.5t-136.5 38.5q-103 0 -165.5 -61.5t-62.5 -164.5q0 -102 62 -164t160 -62q92 0 150.5 48.5t57.5 116.5h1v30h-211v30z" />
    <glyph glyph-name="gcaron.sc" horiz-adv-x="620" 
d="M345 594h-47l-95 147h34l84 -116l84 116h34zM312 254h243v-254h-29v113q-25 -53 -80 -84.5t-132 -31.5q-114 0 -186.5 71t-72.5 187q0 117 73 188t193 71q103 0 162 -47.5t68 -125.5h-35q-10 63 -59.5 101.5t-136.5 38.5q-103 0 -165.5 -61.5t-62.5 -164.5
q0 -102 62 -164t160 -62q92 0 150.5 48.5t57.5 116.5h1v30h-211v30z" />
    <glyph glyph-name="gcircumflex.sc" horiz-adv-x="620" 
d="M321 710l-84 -116h-33l94 147h47l94 -147h-33zM312 254h243v-254h-29v113q-25 -53 -80 -84.5t-132 -31.5q-114 0 -186.5 71t-72.5 187q0 117 73 188t193 71q103 0 162 -47.5t68 -125.5h-35q-10 63 -59.5 101.5t-136.5 38.5q-103 0 -165.5 -61.5t-62.5 -164.5
q0 -102 62 -164t160 -62q92 0 150.5 48.5t57.5 116.5h1v30h-211v30z" />
    <glyph glyph-name="gcommaaccent.sc" horiz-adv-x="620" 
d="M312 254h243v-254h-29v113q-25 -53 -80 -84.5t-132 -31.5q-114 0 -186.5 71t-72.5 187q0 117 73 188t193 71q103 0 162 -47.5t68 -125.5h-35q-10 63 -59.5 101.5t-136.5 38.5q-103 0 -165.5 -61.5t-62.5 -164.5q0 -102 62 -164t160 -62q92 0 150.5 48.5t57.5 116.5h1v30
h-211v30zM314 -49q36 0 36 -51q0 -43 -21.5 -69.5t-46.5 -24.5v26q14 0 24.5 13t10.5 34q-18 0 -28.5 10t-10.5 26q0 17 10.5 26.5t25.5 9.5z" />
    <glyph glyph-name="gdotaccent.sc" horiz-adv-x="620" 
d="M321 637q-16 0 -26 9.5t-10 25.5t10 25.5t26 9.5q15 0 25 -9.5t10 -25.5t-10 -25.5t-25 -9.5zM312 254h243v-254h-29v113q-25 -53 -80 -84.5t-132 -31.5q-114 0 -186.5 71t-72.5 187q0 117 73 188t193 71q103 0 162 -47.5t68 -125.5h-35q-10 63 -59.5 101.5t-136.5 38.5
q-103 0 -165.5 -61.5t-62.5 -164.5q0 -102 62 -164t160 -62q92 0 150.5 48.5t57.5 116.5h1v30h-211v30z" />
    <glyph glyph-name="h.sc" horiz-adv-x="618" 
d="M489 509h37v-509h-37v249h-360v-249h-37v509h37v-227h360v227z" />
    <glyph glyph-name="hbar.sc" horiz-adv-x="620" 
d="M582 431v-30h-55v-401h-37v249h-360v-249h-37v401h-54v30h54v78h37v-78h360v78h37v-78h55zM490 282v119h-360v-119h360z" />
    <glyph glyph-name="hcircumflex.sc" horiz-adv-x="618" 
d="M310 708l-84 -116h-33l94 147h47l94 -147h-33zM489 509h37v-509h-37v249h-360v-249h-37v509h37v-227h360v227z" />
    <glyph glyph-name="i.sc" horiz-adv-x="221" 
d="M92 0v509h37v-509h-37z" />
    <glyph glyph-name="iacute.sc" horiz-adv-x="221" 
d="M115 592h-30l53 147h49zM92 0v509h37v-509h-37z" />
    <glyph glyph-name="ibreve.sc" horiz-adv-x="221" 
d="M229 730q0 -67 -32 -103.5t-86 -36.5q-55 0 -87 36.5t-32 103.5h32q0 -55 23.5 -82.5t62.5 -26.5q87 2 87 109h32zM92 0v509h37v-509h-37z" />
    <glyph glyph-name="icircumflex.sc" horiz-adv-x="221" 
d="M-6 592l94 147h47l94 -147h-33l-85 116l-84 -116h-33zM92 0v509h37v-509h-37z" />
    <glyph glyph-name="idieresis.sc" horiz-adv-x="221" 
d="M28 702q15 0 24.5 -9.5t9.5 -24.5q0 -14 -9.5 -23.5t-24.5 -9.5t-24.5 9.5t-9.5 23.5q0 15 9.5 24.5t24.5 9.5zM197 702q15 0 24.5 -9.5t9.5 -24.5q0 -14 -9.5 -23.5t-24.5 -9.5t-24.5 9.5t-9.5 23.5q0 15 9.5 24.5t24.5 9.5zM92 0v509h37v-509h-37z" />
    <glyph glyph-name="i.sc.loclTRK" horiz-adv-x="221" 
d="M111 705q15 0 25 -9.5t10 -25.5t-10 -25.5t-25 -9.5q-16 0 -26 9.5t-10 25.5t10 25.5t26 9.5zM92 0v509h37v-509h-37z" />
    <glyph glyph-name="uni1ECB.sc" horiz-adv-x="221" 
d="M92 0v509h37v-509h-37zM111 -89q15 0 25 -9.5t10 -25.5t-10 -25.5t-25 -9.5q-16 0 -26 9.5t-10 25.5t10 25.5t26 9.5z" />
    <glyph glyph-name="igrave.sc" horiz-adv-x="221" 
d="M117 592l-72 147h49l53 -147h-30zM92 0v509h37v-509h-37z" />
    <glyph glyph-name="ij.sc" horiz-adv-x="665" 
d="M92 0v509h37v-509h-37zM296 146q0 -56 31.5 -86t91.5 -30t90.5 31.5t30.5 86.5v361h37v-361q0 -70 -40.5 -110.5t-117.5 -40.5t-118 40t-41 109h36z" />
    <glyph glyph-name="imacron.sc" horiz-adv-x="221" 
d="M-8 653v32h245v-32h-245zM92 0v509h37v-509h-37z" />
    <glyph glyph-name="iogonek.sc" horiz-adv-x="221" 
d="M143 -146l13 -22q-22 -22 -63 -22q-34 0 -57 19.5t-23 57.5q0 69 79 117v505h37v-509q-3 -2 -9 -5t-20.5 -14t-26 -23t-20.5 -30.5t-9 -37.5q0 -26 14.5 -38.5t36.5 -12.5q29 0 48 15z" />
    <glyph glyph-name="itilde.sc" horiz-adv-x="221" 
d="M45 678q-20 0 -33 -14t-13 -41h-30q0 41 19.5 64t56.5 23q35 0 68 -30.5t55 -30.5q21 0 34 15t13 41h30q0 -42 -21 -64.5t-55 -22.5q-33 0 -67.5 30t-56.5 30zM92 0v509h37v-509h-37z" />
    <glyph glyph-name="j.sc" horiz-adv-x="436" 
d="M67 146q0 -56 31.5 -86t91.5 -30t90.5 31.5t30.5 86.5v361h37v-361q0 -70 -40.5 -110.5t-117.5 -40.5t-118 40t-41 109h36z" />
    <glyph glyph-name="jcircumflex.sc" horiz-adv-x="436" 
d="M212 592l94 147h47l94 -147h-33l-85 116l-84 -116h-33zM67 146q0 -56 31.5 -86t91.5 -30t90.5 31.5t30.5 86.5v361h37v-361q0 -70 -40.5 -110.5t-117.5 -40.5t-118 40t-41 109h36z" />
    <glyph glyph-name="k.sc" horiz-adv-x="542" 
d="M485 0l-227 262l-129 -123v-139h-37v509h37v-325l336 325h48l-228 -222l245 -287h-45z" />
    <glyph glyph-name="kcommaaccent.sc" horiz-adv-x="542" 
d="M285 287l245 -287h-45l-227 262l-129 -123v-139h-37v509h37v-325l336 325h48zM280 -49q36 0 36 -51q0 -43 -21.5 -69.5t-46.5 -24.5v26q14 0 24.5 13t10.5 34q-18 0 -28.5 10t-10.5 26q0 17 10.5 26.5t25.5 9.5z" />
    <glyph glyph-name="l.sc" horiz-adv-x="475" 
d="M129 33h325v-33h-362v509h37v-476z" />
    <glyph glyph-name="lacute.sc" horiz-adv-x="475" 
d="M186 739l-72 -147h-30l53 147h49zM129 33h325v-33h-362v509h37v-476z" />
    <glyph glyph-name="lcaron.sc" horiz-adv-x="476" 
d="M354 452q-19 0 -29.5 10t-10.5 26q0 17 10.5 26.5t25.5 9.5q36 0 36 -51q0 -43 -21 -69.5t-46 -24.5v26q14 0 24.5 13t10.5 34zM129 33h325v-33h-362v509h37v-476z" />
    <glyph glyph-name="lcommaaccent.sc" horiz-adv-x="475" 
d="M129 33h325v-33h-362v509h37v-476zM276 -49q36 0 36 -51q0 -43 -21.5 -69.5t-46.5 -24.5v26q14 0 24.5 13t10.5 34q-18 0 -28.5 10t-10.5 26q0 17 10.5 26.5t25.5 9.5z" />
    <glyph glyph-name="ldot.sc" horiz-adv-x="478" 
d="M129 33h325v-33h-362v509h37v-476zM340 219q-15 0 -25 9.5t-10 25.5t10 25.5t25 9.5q16 0 26 -9.5t10 -25.5t-10 -25.5t-26 -9.5z" />
    <glyph glyph-name="lslash.sc" horiz-adv-x="486" 
d="M140 33h325v-33h-362v216l-63 -39l-14 25l77 48v259h37v-236l67 41l14 -26l-81 -50v-205z" />
    <glyph glyph-name="m.sc" horiz-adv-x="709" 
d="M559 509h57l-1 -509h-36v475l-209 -475h-32l-209 475v-475h-36l-1 509h57l205 -469z" />
    <glyph glyph-name="n.sc" horiz-adv-x="619" 
d="M489 509h36v-509h-36l-360 458v-458h-37v509h37l360 -457v457z" />
    <glyph glyph-name="nacute.sc" horiz-adv-x="619" 
d="M386 739l-72 -147h-30l53 147h49zM489 509h36v-509h-36l-360 458v-458h-37v509h37l360 -457v457z" />
    <glyph glyph-name="ncaron.sc" horiz-adv-x="619" 
d="M333 592h-47l-95 147h34l84 -116l84 116h34zM489 509h36v-509h-36l-360 458v-458h-37v509h37l360 -457v457z" />
    <glyph glyph-name="ncommaaccent.sc" horiz-adv-x="619" 
d="M489 509h36v-509h-36l-360 458v-458h-37v509h37l360 -457v457zM309 -49q36 0 36 -51q0 -43 -21.5 -69.5t-46.5 -24.5v26q14 0 24.5 13t10.5 34q-18 0 -28.5 10t-10.5 26q0 17 10.5 26.5t25.5 9.5z" />
    <glyph glyph-name="eng.sc" horiz-adv-x="617" 
d="M488 509h37v-546q0 -57 -32 -87t-90 -30q-32 0 -53 7l3 32q16 -7 45 -7q90 0 90 84v38l-360 459v-459h-36v509h36l360 -457v457z" />
    <glyph glyph-name="uni0272.sc" horiz-adv-x="618" 
d="M489 509h36v-509h-36l-360 458v-495q0 -57 -32 -87t-89 -30q-31 0 -54 7l3 32q16 -7 46 -7q43 0 66.5 21.5t23.5 62.5v547h36l360 -457v457z" />
    <glyph glyph-name="ntilde.sc" horiz-adv-x="619" 
d="M243 678q-20 0 -33 -14t-13 -41h-30q0 41 19.5 64t56.5 23q35 0 68 -30.5t55 -30.5q21 0 34 15t13 41h30q0 -42 -21 -64.5t-55 -22.5q-33 0 -67.5 30t-56.5 30zM489 509h36v-509h-36l-360 458v-458h-37v509h37l360 -457v457z" />
    <glyph glyph-name="o.sc" horiz-adv-x="642" 
d="M321 -4q-117 0 -191.5 70t-74.5 189q0 120 74 189.5t191 69.5t191.5 -69.5t74.5 -189.5q0 -119 -74 -189t-191 -70zM320 29q100 0 164.5 61t64.5 165t-64.5 165.5t-164.5 61.5t-164 -61.5t-64 -165.5t64 -165t164 -61z" />
    <glyph glyph-name="oacute.sc" horiz-adv-x="642" 
d="M325 594h-30l53 147h49zM321 -4q-117 0 -191.5 70t-74.5 189q0 120 74 189.5t191 69.5t191.5 -69.5t74.5 -189.5q0 -119 -74 -189t-191 -70zM320 29q100 0 164.5 61t64.5 165t-64.5 165.5t-164.5 61.5t-164 -61.5t-64 -165.5t64 -165t164 -61z" />
    <glyph glyph-name="obreve.sc" horiz-adv-x="642" 
d="M439 732q0 -67 -32 -103.5t-86 -36.5q-55 0 -87 36.5t-32 103.5h32q0 -55 23.5 -82.5t62.5 -26.5q87 2 87 109h32zM321 -4q-117 0 -191.5 70t-74.5 189q0 120 74 189.5t191 69.5t191.5 -69.5t74.5 -189.5q0 -119 -74 -189t-191 -70zM320 29q100 0 164.5 61t64.5 165
t-64.5 165.5t-164.5 61.5t-164 -61.5t-64 -165.5t64 -165t164 -61z" />
    <glyph glyph-name="ocircumflex.sc" horiz-adv-x="642" 
d="M203 594l94 147h47l94 -147h-33l-85 116l-84 -116h-33zM321 -4q-117 0 -191.5 70t-74.5 189q0 120 74 189.5t191 69.5t191.5 -69.5t74.5 -189.5q0 -119 -74 -189t-191 -70zM320 29q100 0 164.5 61t64.5 165t-64.5 165.5t-164.5 61.5t-164 -61.5t-64 -165.5t64 -165
t164 -61z" />
    <glyph glyph-name="odieresis.sc" horiz-adv-x="642" 
d="M238 704q15 0 24.5 -9.5t9.5 -24.5q0 -14 -9.5 -23.5t-24.5 -9.5t-24.5 9.5t-9.5 23.5q0 15 9.5 24.5t24.5 9.5zM407 704q15 0 24.5 -9.5t9.5 -24.5q0 -14 -9.5 -23.5t-24.5 -9.5t-24.5 9.5t-9.5 23.5q0 15 9.5 24.5t24.5 9.5zM321 -4q-117 0 -191.5 70t-74.5 189
q0 120 74 189.5t191 69.5t191.5 -69.5t74.5 -189.5q0 -119 -74 -189t-191 -70zM320 29q100 0 164.5 61t64.5 165t-64.5 165.5t-164.5 61.5t-164 -61.5t-64 -165.5t64 -165t164 -61z" />
    <glyph glyph-name="uni1ECD.sc" horiz-adv-x="642" 
d="M321 -4q-117 0 -191.5 70t-74.5 189q0 120 74 189.5t191 69.5t191.5 -69.5t74.5 -189.5q0 -119 -74 -189t-191 -70zM320 29q100 0 164.5 61t64.5 165t-64.5 165.5t-164.5 61.5t-164 -61.5t-64 -165.5t64 -165t164 -61zM321 -89q15 0 25 -9.5t10 -25.5t-10 -25.5t-25 -9.5
q-16 0 -26 9.5t-10 25.5t10 25.5t26 9.5z" />
    <glyph glyph-name="ograve.sc" horiz-adv-x="642" 
d="M327 594l-72 147h49l53 -147h-30zM321 -4q-117 0 -191.5 70t-74.5 189q0 120 74 189.5t191 69.5t191.5 -69.5t74.5 -189.5q0 -119 -74 -189t-191 -70zM320 29q100 0 164.5 61t64.5 165t-64.5 165.5t-164.5 61.5t-164 -61.5t-64 -165.5t64 -165t164 -61z" />
    <glyph glyph-name="ohungarumlaut.sc" horiz-adv-x="642" 
d="M279 594h-29l51 147h51zM398 594h-30l51 147h51zM321 -4q-117 0 -191.5 70t-74.5 189q0 120 74 189.5t191 69.5t191.5 -69.5t74.5 -189.5q0 -119 -74 -189t-191 -70zM320 29q100 0 164.5 61t64.5 165t-64.5 165.5t-164.5 61.5t-164 -61.5t-64 -165.5t64 -165t164 -61z
" />
    <glyph glyph-name="omacron.sc" horiz-adv-x="642" 
d="M202 655v32h245v-32h-245zM321 -4q-117 0 -191.5 70t-74.5 189q0 120 74 189.5t191 69.5t191.5 -69.5t74.5 -189.5q0 -119 -74 -189t-191 -70zM320 29q100 0 164.5 61t64.5 165t-64.5 165.5t-164.5 61.5t-164 -61.5t-64 -165.5t64 -165t164 -61z" />
    <glyph glyph-name="uni01EB.sc" horiz-adv-x="642" 
d="M387 2q-12 -6 -27.5 -16t-36 -37t-20.5 -56q0 -26 14.5 -38.5t36.5 -12.5q29 0 48 15l13 -22q-22 -22 -63 -22q-34 0 -57 19.5t-23 57.5q0 61 62 106h-13q-117 0 -191.5 70t-74.5 189q0 120 74 189.5t191 69.5t191.5 -69.5t74.5 -189.5q0 -101 -54 -167.5t-145 -85.5z
M320 29q100 0 164.5 61t64.5 165t-64.5 165.5t-164.5 61.5t-164 -61.5t-64 -165.5t64 -165t164 -61z" />
    <glyph glyph-name="oslash.sc" horiz-adv-x="642" 
d="M473 474q113 -69 113 -219q0 -119 -74 -189t-191 -70q-66 0 -124 25l-36 -60h-35l45 74q-116 69 -116 220q0 120 74 189.5t191 69.5q68 0 126 -25l38 63h36zM92 255q0 -130 97 -190l239 394q-49 23 -108 23q-100 0 -164 -61.5t-64 -165.5zM320 29q100 0 164.5 61
t64.5 165q0 128 -94 190l-240 -395q47 -21 105 -21z" />
    <glyph glyph-name="oslashacute.sc" horiz-adv-x="642" 
d="M397 741l-72 -147h-30l53 147h49zM473 474q113 -69 113 -219q0 -119 -74 -189t-191 -70q-66 0 -124 25l-36 -60h-35l45 74q-116 69 -116 220q0 120 74 189.5t191 69.5q68 0 126 -25l38 63h36zM92 255q0 -130 97 -190l239 394q-49 23 -108 23q-100 0 -164 -61.5
t-64 -165.5zM320 29q100 0 164.5 61t64.5 165q0 128 -94 190l-240 -395q47 -21 105 -21z" />
    <glyph glyph-name="otilde.sc" horiz-adv-x="642" 
d="M255 680q-20 0 -33 -14t-13 -41h-30q0 41 19.5 64t56.5 23q35 0 68 -30.5t55 -30.5q21 0 34 15t13 41h30q0 -42 -21 -64.5t-55 -22.5q-33 0 -67.5 30t-56.5 30zM321 -4q-117 0 -191.5 70t-74.5 189q0 120 74 189.5t191 69.5t191.5 -69.5t74.5 -189.5q0 -119 -74 -189
t-191 -70zM320 29q100 0 164.5 61t64.5 165t-64.5 165.5t-164.5 61.5t-164 -61.5t-64 -165.5t64 -165t164 -61z" />
    <glyph glyph-name="oe.sc" horiz-adv-x="974" 
d="M586 32h337v-32h-374v112q-34 -55 -93.5 -85.5t-134.5 -30.5q-117 0 -191.5 70t-74.5 189q0 120 74 189.5t191 69.5q76 0 135.5 -30t93.5 -86v111h373v-32h-336v-196h309v-32h-309v-217zM320 29q100 0 164.5 61t64.5 165t-64.5 165.5t-164.5 61.5t-164 -61.5t-64 -165.5
t64 -165t164 -61z" />
    <glyph glyph-name="p.sc" horiz-adv-x="524" 
d="M314 509q75 0 123 -36t48 -107t-48 -107t-123 -36h-185v-223h-37v509h222zM314 255q59 0 96.5 28t37.5 83t-37.5 83.5t-96.5 28.5h-185v-223h185z" />
    <glyph glyph-name="thorn.sc" horiz-adv-x="535" 
d="M314 402q75 0 123 -36t48 -108q0 -71 -48 -107t-123 -36h-185v-115h-37v509h37v-107h185zM314 147q59 0 96.5 28.5t37.5 82.5q0 55 -37.5 83.5t-96.5 28.5h-185v-223h185z" />
    <glyph glyph-name="q.sc" horiz-adv-x="642" 
d="M586 255q0 -112 -66 -181t-173 -77q53 -59 138 -59l3 -35q-117 0 -180 93q-112 5 -182.5 74.5t-70.5 184.5q0 120 74 189.5t191 69.5t191.5 -69.5t74.5 -189.5zM320 29q100 0 164.5 61t64.5 165t-64.5 165.5t-164.5 61.5t-164 -61.5t-64 -165.5t64 -165t164 -61z" />
    <glyph glyph-name="r.sc" horiz-adv-x="554" 
d="M526 32l4 -30q-14 -5 -35 -5q-33 0 -52.5 13.5t-39.5 49.5l-88 158h-13h-173v-218h-37v509h210q76 0 126.5 -36.5t50.5 -109.5q0 -59 -34 -94t-90 -46l88 -156q22 -39 56 -39q16 0 27 4zM129 249h173q60 0 100 28.5t40 85.5t-40 86t-100 29h-173v-229z" />
    <glyph glyph-name="racute.sc" horiz-adv-x="554" 
d="M341 741l-72 -147h-30l53 147h49zM526 32l4 -30q-14 -5 -35 -5q-33 0 -52.5 13.5t-39.5 49.5l-88 158h-13h-173v-218h-37v509h210q76 0 126.5 -36.5t50.5 -109.5q0 -59 -34 -94t-90 -46l88 -156q22 -39 56 -39q16 0 27 4zM129 249h173q60 0 100 28.5t40 85.5t-40 86
t-100 29h-173v-229z" />
    <glyph glyph-name="rcaron.sc" horiz-adv-x="554" 
d="M288 594h-47l-95 147h34l84 -116l84 116h34zM526 32l4 -30q-14 -5 -35 -5q-33 0 -52.5 13.5t-39.5 49.5l-88 158h-13h-173v-218h-37v509h210q76 0 126.5 -36.5t50.5 -109.5q0 -59 -34 -94t-90 -46l88 -156q22 -39 56 -39q16 0 27 4zM129 249h173q60 0 100 28.5t40 85.5
t-40 86t-100 29h-173v-229z" />
    <glyph glyph-name="rcommaaccent.sc" horiz-adv-x="554" 
d="M526 32l4 -30q-14 -5 -35 -5q-33 0 -52.5 13.5t-39.5 49.5l-88 158h-13h-173v-218h-37v509h210q76 0 126.5 -36.5t50.5 -109.5q0 -59 -34 -94t-90 -46l88 -156q22 -39 56 -39q16 0 27 4zM129 249h173q60 0 100 28.5t40 85.5t-40 86t-100 29h-173v-229zM282 -49
q36 0 36 -51q0 -43 -21.5 -69.5t-46.5 -24.5v26q14 0 24.5 13t10.5 34q-18 0 -28.5 10t-10.5 26q0 17 10.5 26.5t25.5 9.5z" />
    <glyph glyph-name="s.sc" horiz-adv-x="512" 
d="M103 382q0 -38 26.5 -60.5t65.5 -29.5t85.5 -16.5t85.5 -21t65.5 -42.5t26.5 -81q0 -65 -53.5 -99.5t-143.5 -35.5q-93 0 -153 39t-60 109h36q0 -52 48 -83.5t128 -32.5q72 0 116.5 25.5t44.5 77.5q0 40 -26.5 64.5t-65.5 33t-85.5 18.5t-85.5 20.5t-65.5 39.5t-26.5 75
q0 63 53.5 97.5t139.5 34.5q84 0 136 -37t52 -104h-36q0 53 -42 81t-109 28q-71 0 -114 -25.5t-43 -74.5z" />
    <glyph glyph-name="sacute.sc" horiz-adv-x="512" 
d="M337 741l-72 -147h-30l53 147h49zM103 382q0 -38 26.5 -60.5t65.5 -29.5t85.5 -16.5t85.5 -21t65.5 -42.5t26.5 -81q0 -65 -53.5 -99.5t-143.5 -35.5q-93 0 -153 39t-60 109h36q0 -52 48 -83.5t128 -32.5q72 0 116.5 25.5t44.5 77.5q0 40 -26.5 64.5t-65.5 33t-85.5 18.5
t-85.5 20.5t-65.5 39.5t-26.5 75q0 63 53.5 97.5t139.5 34.5q84 0 136 -37t52 -104h-36q0 53 -42 81t-109 28q-71 0 -114 -25.5t-43 -74.5z" />
    <glyph glyph-name="scaron.sc" horiz-adv-x="512" 
d="M284 594h-47l-95 147h34l84 -116l84 116h34zM103 382q0 -38 26.5 -60.5t65.5 -29.5t85.5 -16.5t85.5 -21t65.5 -42.5t26.5 -81q0 -65 -53.5 -99.5t-143.5 -35.5q-93 0 -153 39t-60 109h36q0 -52 48 -83.5t128 -32.5q72 0 116.5 25.5t44.5 77.5q0 40 -26.5 64.5t-65.5 33
t-85.5 18.5t-85.5 20.5t-65.5 39.5t-26.5 75q0 63 53.5 97.5t139.5 34.5q84 0 136 -37t52 -104h-36q0 53 -42 81t-109 28q-71 0 -114 -25.5t-43 -74.5z" />
    <glyph glyph-name="scedilla.sc" horiz-adv-x="512" 
d="M261 -4l-9 -42q78 -6 78 -70q0 -34 -24 -54t-67 -20q-31 0 -50 9l6 28q18 -8 45 -8q61 0 61 44q0 49 -80 49l14 65q-83 5 -135 43.5t-52 103.5h36q0 -52 48 -83.5t128 -32.5q72 0 116.5 25.5t44.5 77.5q0 40 -26.5 64.5t-65.5 33t-85.5 18.5t-85.5 20.5t-65.5 39.5
t-26.5 75q0 63 53.5 97.5t139.5 34.5q84 0 136 -37t52 -104h-36q0 53 -42 81t-109 28q-71 0 -114 -25.5t-43 -74.5q0 -38 26.5 -60.5t65.5 -29.5t85.5 -16.5t85.5 -21t65.5 -42.5t26.5 -81q0 -65 -53.5 -99.5t-143.5 -35.5z" />
    <glyph glyph-name="scircumflex.sc" horiz-adv-x="512" 
d="M260 710l-84 -116h-33l94 147h47l94 -147h-33zM103 382q0 -38 26.5 -60.5t65.5 -29.5t85.5 -16.5t85.5 -21t65.5 -42.5t26.5 -81q0 -65 -53.5 -99.5t-143.5 -35.5q-93 0 -153 39t-60 109h36q0 -52 48 -83.5t128 -32.5q72 0 116.5 25.5t44.5 77.5q0 40 -26.5 64.5
t-65.5 33t-85.5 18.5t-85.5 20.5t-65.5 39.5t-26.5 75q0 63 53.5 97.5t139.5 34.5q84 0 136 -37t52 -104h-36q0 53 -42 81t-109 28q-71 0 -114 -25.5t-43 -74.5z" />
    <glyph glyph-name="scommaaccent.sc" horiz-adv-x="512" 
d="M103 382q0 -38 26.5 -60.5t65.5 -29.5t85.5 -16.5t85.5 -21t65.5 -42.5t26.5 -81q0 -65 -53.5 -99.5t-143.5 -35.5q-93 0 -153 39t-60 109h36q0 -52 48 -83.5t128 -32.5q72 0 116.5 25.5t44.5 77.5q0 40 -26.5 64.5t-65.5 33t-85.5 18.5t-85.5 20.5t-65.5 39.5t-26.5 75
q0 63 53.5 97.5t139.5 34.5q84 0 136 -37t52 -104h-36q0 53 -42 81t-109 28q-71 0 -114 -25.5t-43 -74.5zM255 -49q36 0 36 -51q0 -43 -21.5 -69.5t-46.5 -24.5v26q14 0 24.5 13t10.5 34q-18 0 -28.5 10t-10.5 26q0 17 10.5 26.5t25.5 9.5z" />
    <glyph glyph-name="germandbls.sc" horiz-adv-x="565" 
d="M338 285q82 -1 128.5 -39t46.5 -103q0 -67 -49.5 -105t-140.5 -38h-61v31h61q74 0 113.5 29t39.5 83t-38.5 83.5t-108.5 29.5h-32v29l147 193h-223q-46 0 -72 -24t-26 -65v-389h-36v389q0 54 35 87t96 33h276v-22z" />
    <glyph glyph-name="t.sc" horiz-adv-x="474" 
d="M218 0v477h-198v32h433v-32h-199v-477h-36z" />
    <glyph glyph-name="tbar.sc" horiz-adv-x="481" 
d="M457 477h-199v-191h107v-28h-107v-258h-36v258h-110v28h110v191h-198v32h433v-32z" />
    <glyph glyph-name="tcaron.sc" horiz-adv-x="474" 
d="M118 739h34l84 -116l84 116h34l-94 -147h-47zM218 0v477h-198v32h433v-32h-199v-477h-36z" />
    <glyph glyph-name="uni0163.sc" horiz-adv-x="474" 
d="M254 0h-5l-10 -46q78 -6 78 -70q0 -34 -24 -54t-67 -20q-30 0 -50 9l6 28q18 -8 45 -8q61 0 61 44q0 49 -80 49l14 68h-4v477h-198v32h433v-32h-199v-477z" />
    <glyph glyph-name="uni021B.sc" horiz-adv-x="474" 
d="M218 0v477h-198v32h433v-32h-199v-477h-36zM210 -168q14 0 24.5 13t10.5 34q-18 0 -28.5 10t-10.5 26q0 17 10.5 26.5t25.5 9.5q36 0 36 -51q0 -43 -21.5 -69.5t-46.5 -24.5v26z" />
    <glyph glyph-name="u.sc" horiz-adv-x="600" 
d="M478 509h37v-308q0 -99 -55 -152t-160 -53t-160 53t-55 152v308h36v-308q0 -172 179 -172q178 0 178 172v308z" />
    <glyph glyph-name="uacute.sc" horiz-adv-x="600" 
d="M305 592h-30l53 147h49zM478 509h37v-308q0 -99 -55 -152t-160 -53t-160 53t-55 152v308h36v-308q0 -172 179 -172q178 0 178 172v308z" />
    <glyph glyph-name="ubreve.sc" horiz-adv-x="600" 
d="M418 730q0 -67 -32 -103.5t-86 -36.5q-55 0 -87 36.5t-32 103.5h32q0 -55 23.5 -82.5t62.5 -26.5q87 2 87 109h32zM478 509h37v-308q0 -99 -55 -152t-160 -53t-160 53t-55 152v308h36v-308q0 -172 179 -172q178 0 178 172v308z" />
    <glyph glyph-name="ucircumflex.sc" horiz-adv-x="600" 
d="M183 592l94 147h47l94 -147h-33l-85 116l-84 -116h-33zM478 509h37v-308q0 -99 -55 -152t-160 -53t-160 53t-55 152v308h36v-308q0 -172 179 -172q178 0 178 172v308z" />
    <glyph glyph-name="udieresis.sc" horiz-adv-x="600" 
d="M217 702q15 0 24.5 -9.5t9.5 -24.5q0 -14 -9.5 -23.5t-24.5 -9.5t-24.5 9.5t-9.5 23.5q0 15 9.5 24.5t24.5 9.5zM386 702q15 0 24.5 -9.5t9.5 -24.5q0 -14 -9.5 -23.5t-24.5 -9.5t-24.5 9.5t-9.5 23.5q0 15 9.5 24.5t24.5 9.5zM478 509h37v-308q0 -99 -55 -152t-160 -53
t-160 53t-55 152v308h36v-308q0 -172 179 -172q178 0 178 172v308z" />
    <glyph glyph-name="uni1EE5.sc" horiz-adv-x="600" 
d="M478 509h37v-308q0 -99 -55 -152t-160 -53t-160 53t-55 152v308h36v-308q0 -172 179 -172q178 0 178 172v308zM300 -89q15 0 25 -9.5t10 -25.5t-10 -25.5t-25 -9.5q-16 0 -26 9.5t-10 25.5t10 25.5t26 9.5z" />
    <glyph glyph-name="ugrave.sc" horiz-adv-x="600" 
d="M306 592l-72 147h49l53 -147h-30zM478 509h37v-308q0 -99 -55 -152t-160 -53t-160 53t-55 152v308h36v-308q0 -172 179 -172q178 0 178 172v308z" />
    <glyph glyph-name="uhungarumlaut.sc" horiz-adv-x="600" 
d="M258 592h-29l51 147h51zM377 592h-30l51 147h51zM478 509h37v-308q0 -99 -55 -152t-160 -53t-160 53t-55 152v308h36v-308q0 -172 179 -172q178 0 178 172v308z" />
    <glyph glyph-name="umacron.sc" horiz-adv-x="600" 
d="M181 653v32h245v-32h-245zM478 509h37v-308q0 -99 -55 -152t-160 -53t-160 53t-55 152v308h36v-308q0 -172 179 -172q178 0 178 172v308z" />
    <glyph glyph-name="uogonek.sc" horiz-adv-x="600" 
d="M478 509h37v-308q0 -156 -130 -194q-9 -5 -18.5 -11.5t-26.5 -21t-27.5 -34.5t-10.5 -42q0 -26 14.5 -38.5t36.5 -12.5q29 0 48 15l13 -22q-22 -22 -63 -22q-34 0 -57 19.5t-23 57.5q0 57 57 102q-9 -1 -28 -1q-105 0 -160 53t-55 152v308h36v-308q0 -172 179 -172
q178 0 178 172v308z" />
    <glyph glyph-name="uring.sc" horiz-adv-x="600" 
d="M300 589q-33 0 -55 21.5t-22 53.5q0 33 22 55t55 22t54.5 -22t21.5 -55q0 -32 -21.5 -53.5t-54.5 -21.5zM300 617q21 0 33.5 13.5t12.5 33.5q0 21 -12.5 34t-33.5 13q-22 0 -34.5 -13t-12.5 -34q0 -20 12.5 -33.5t34.5 -13.5zM478 509h37v-308q0 -99 -55 -152t-160 -53
t-160 53t-55 152v308h36v-308q0 -172 179 -172q178 0 178 172v308z" />
    <glyph glyph-name="utilde.sc" horiz-adv-x="600" 
d="M234 678q-20 0 -33 -14t-13 -41h-30q0 41 19.5 64t56.5 23q35 0 68 -30.5t55 -30.5q21 0 34 15t13 41h30q0 -42 -21 -64.5t-55 -22.5q-33 0 -67.5 30t-56.5 30zM478 509h37v-308q0 -99 -55 -152t-160 -53t-160 53t-55 152v308h36v-308q0 -172 179 -172q178 0 178 172v308
z" />
    <glyph glyph-name="v.sc" horiz-adv-x="524" 
d="M460 509h37l-215 -509h-42l-214 509h37l199 -470z" />
    <glyph glyph-name="w.sc" horiz-adv-x="793" 
d="M726 509h37l-171 -509h-43l-153 470l-153 -470h-43l-171 509h37l155 -473l154 473h42l154 -473z" />
    <glyph glyph-name="wacute.sc" horiz-adv-x="793" 
d="M473 739l-72 -147h-30l53 147h49zM726 509h37l-171 -509h-43l-153 470l-153 -470h-43l-171 509h37l155 -473l154 473h42l154 -473z" />
    <glyph glyph-name="wcircumflex.sc" horiz-adv-x="793" 
d="M396 708l-84 -116h-33l94 147h47l94 -147h-33zM726 509h37l-171 -509h-43l-153 470l-153 -470h-43l-171 509h37l155 -473l154 473h42l154 -473z" />
    <glyph glyph-name="wdieresis.sc" horiz-adv-x="793" 
d="M313 635q-15 0 -24.5 9.5t-9.5 23.5q0 15 9.5 24.5t24.5 9.5t24.5 -9.5t9.5 -24.5q0 -14 -9.5 -23.5t-24.5 -9.5zM482 635q-15 0 -24.5 9.5t-9.5 23.5q0 15 9.5 24.5t24.5 9.5t24.5 -9.5t9.5 -24.5q0 -14 -9.5 -23.5t-24.5 -9.5zM726 509h37l-171 -509h-43l-153 470
l-153 -470h-43l-171 509h37l155 -473l154 473h42l154 -473z" />
    <glyph glyph-name="wgrave.sc" horiz-adv-x="793" 
d="M432 592h-30l-72 147h49zM726 509h37l-171 -509h-43l-153 470l-153 -470h-43l-171 509h37l155 -473l154 473h42l154 -473z" />
    <glyph glyph-name="x.sc" horiz-adv-x="507" 
d="M486 0h-42l-190 237l-191 -237h-42l205 260l-193 249h42l179 -227l177 227h42l-192 -248z" />
    <glyph glyph-name="y.sc" horiz-adv-x="519" 
d="M489 509l-212 -284v-225h-36v225l-212 284h41l189 -251l189 251h41z" />
    <glyph glyph-name="yacute.sc" horiz-adv-x="519" 
d="M335 739l-72 -147h-30l53 147h49zM489 509l-212 -284v-225h-36v225l-212 284h41l189 -251l189 251h41z" />
    <glyph glyph-name="ycircumflex.sc" horiz-adv-x="519" 
d="M259 708l-84 -116h-33l94 147h47l94 -147h-33zM489 509l-212 -284v-225h-36v225l-212 284h41l189 -251l189 251h41z" />
    <glyph glyph-name="ydieresis.sc" horiz-adv-x="519" 
d="M176 635q-15 0 -24.5 9.5t-9.5 23.5q0 15 9.5 24.5t24.5 9.5t24.5 -9.5t9.5 -24.5q0 -14 -9.5 -23.5t-24.5 -9.5zM345 635q-15 0 -24.5 9.5t-9.5 23.5q0 15 9.5 24.5t24.5 9.5t24.5 -9.5t9.5 -24.5q0 -14 -9.5 -23.5t-24.5 -9.5zM489 509l-212 -284v-225h-36v225
l-212 284h41l189 -251l189 251h41z" />
    <glyph glyph-name="ygrave.sc" horiz-adv-x="519" 
d="M295 592h-30l-72 147h49zM489 509l-212 -284v-225h-36v225l-212 284h41l189 -251l189 251h41z" />
    <glyph glyph-name="uni0233.sc" horiz-adv-x="519" 
d="M385 685v-32h-245v32h245zM489 509l-212 -284v-225h-36v225l-212 284h41l189 -251l189 251h41z" />
    <glyph glyph-name="uni1EF9.sc" horiz-adv-x="519" 
d="M193 678q-20 0 -33 -14t-13 -41h-30q0 41 19.5 64t56.5 23q35 0 68 -30.5t55 -30.5q21 0 34 15t13 41h30q0 -42 -21 -64.5t-55 -22.5q-33 0 -67.5 30t-56.5 30zM489 509l-212 -284v-225h-36v225l-212 284h41l189 -251l189 251h41z" />
    <glyph glyph-name="z.sc" horiz-adv-x="493" 
d="M84 32h368v-32h-415v31l364 446h-356v32h404v-31z" />
    <glyph glyph-name="zacute.sc" horiz-adv-x="493" 
d="M314 741l-72 -147h-30l53 147h49zM84 32h368v-32h-415v31l364 446h-356v32h404v-31z" />
    <glyph glyph-name="zcaron.sc" horiz-adv-x="493" 
d="M262 594h-47l-95 147h34l84 -116l84 116h34zM84 32h368v-32h-415v31l364 446h-356v32h404v-31z" />
    <glyph glyph-name="zdotaccent.sc" horiz-adv-x="493" 
d="M238 637q-16 0 -26 9.5t-10 25.5t10 25.5t26 9.5q15 0 25 -9.5t10 -25.5t-10 -25.5t-25 -9.5zM84 32h368v-32h-415v31l364 446h-356v32h404v-31z" />
    <glyph glyph-name="k.sc.ss01" horiz-adv-x="542" 
d="M533 33l4 -31q-14 -5 -33 -5q-27 0 -47.5 13.5t-47.5 49.5l-152 202l-128 -123v-139h-37v509h37v-325l336 325h48l-229 -222l161 -214q33 -44 62 -45q17 2 26 5z" />
    <glyph glyph-name="kcommaaccent.sc.ss01" horiz-adv-x="542" 
d="M533 33l4 -31q-14 -5 -33 -5q-27 0 -47.5 13.5t-47.5 49.5l-152 202l-128 -123v-139h-37v509h37v-325l336 325h48l-229 -222l161 -214q33 -44 62 -45q17 2 26 5zM280 -49q36 0 36 -51q0 -43 -21.5 -69.5t-46.5 -24.5v26q14 0 24.5 13t10.5 34q-18 0 -28.5 10t-10.5 26
q0 17 10.5 26.5t25.5 9.5z" />
    <glyph glyph-name="r.sc.ss01" horiz-adv-x="540" 
d="M487 0h-42l-120 219q-7 -1 -23 -1h-173v-218h-37v509h210q76 0 126.5 -36.5t50.5 -109.5q0 -108 -113 -138zM129 249h173q60 0 100 28.5t40 85.5t-40 86t-100 29h-173v-229z" />
    <glyph glyph-name="racute.sc.ss01" horiz-adv-x="540" 
d="M341 741l-72 -147h-30l53 147h49zM487 0h-42l-120 219q-7 -1 -23 -1h-173v-218h-37v509h210q76 0 126.5 -36.5t50.5 -109.5q0 -108 -113 -138zM129 249h173q60 0 100 28.5t40 85.5t-40 86t-100 29h-173v-229z" />
    <glyph glyph-name="rcaron.sc.ss01" horiz-adv-x="540" 
d="M288 594h-47l-95 147h34l84 -116l84 116h34zM487 0h-42l-120 219q-7 -1 -23 -1h-173v-218h-37v509h210q76 0 126.5 -36.5t50.5 -109.5q0 -108 -113 -138zM129 249h173q60 0 100 28.5t40 85.5t-40 86t-100 29h-173v-229z" />
    <glyph glyph-name="rcommaaccent.sc.ss01" horiz-adv-x="540" 
d="M487 0h-42l-120 219q-7 -1 -23 -1h-173v-218h-37v509h210q76 0 126.5 -36.5t50.5 -109.5q0 -108 -113 -138zM129 249h173q60 0 100 28.5t40 85.5t-40 86t-100 29h-173v-229zM282 -49q36 0 36 -51q0 -43 -21.5 -69.5t-46.5 -24.5v26q14 0 24.5 13t10.5 34q-18 0 -28.5 10
t-10.5 26q0 17 10.5 26.5t25.5 9.5z" />
    <glyph glyph-name="zero.sinf" horiz-adv-x="383" 
d="M192 -84q-71 0 -111 53t-40 154t40 154.5t111 53.5t110.5 -53.5t39.5 -154.5t-39.5 -154t-110.5 -53zM192 -54q55 0 85.5 45.5t30.5 131.5t-30.5 131.5t-85.5 45.5t-85.5 -45t-30.5 -132q0 -86 30.5 -131.5t85.5 -45.5z" />
    <glyph glyph-name="one.sinf" horiz-adv-x="233" 
d="M146 -50h67v-30h-178v30h77v331q-26 -25 -76 -25v28q54 0 85 44h25v-378z" />
    <glyph glyph-name="two.sinf" horiz-adv-x="340" 
d="M87 -50h214v-30h-266v24l162 153q34 32 50 59t16 61q0 42 -26.5 63t-66.5 21q-43 0 -70 -24.5t-27 -71.5l-34 -1q-1 62 36 95t95 33q56 0 92 -30t36 -85q0 -70 -76 -141z" />
    <glyph glyph-name="three.sinf" horiz-adv-x="347" 
d="M234 131q71 -27 72 -103q0 -54 -38 -83t-96 -29q-60 0 -98 32t-38 92h35q-1 -46 27.5 -69.5t73.5 -23.5q44 0 71.5 20.5t27.5 61.5q0 43 -28 65t-72 22h-37v27h32q40 0 68.5 20t29.5 59q-1 40 -27 59t-65 19q-42 0 -67.5 -22.5t-24.5 -64.5h-35q0 56 35 87t92 31
q54 0 90 -28t36 -80q0 -66 -64 -92z" />
    <glyph glyph-name="four.sinf" horiz-adv-x="346" 
d="M320 58v-30h-58v-108h-34v108h-206v27l197 273h43v-270h58zM60 59v-1h169v233h-1z" />
    <glyph glyph-name="five.sinf" horiz-adv-x="338" 
d="M172 177q58 0 94 -35.5t37 -95.5q0 -60 -36.5 -95t-98.5 -35q-60 0 -97 34t-37 89h34q0 -42 27 -67t73 -25t73 26.5t27 72.5t-27 73t-72 27q-49 0 -91 -32l-30 13l18 200h218v-30h-190l-13 -146q41 26 91 26z" />
    <glyph glyph-name="six.sinf" horiz-adv-x="359" 
d="M193 174q58 0 93.5 -36t35.5 -92q0 -57 -36.5 -93.5t-98.5 -36.5q-68 0 -107 51.5t-39 152.5q0 103 39.5 156.5t109.5 53.5q53 0 87.5 -27.5t34.5 -73.5h-34q-1 33 -25.5 52t-62.5 19q-54 0 -84.5 -45.5t-30.5 -133.5v-18q15 32 47 51.5t71 19.5zM187 -54q46 0 73.5 28
t27.5 72t-26.5 72t-71.5 28q-51 0 -84 -36.5t-17 -86.5h-1q26 -77 99 -77z" />
    <glyph glyph-name="seven.sinf" horiz-adv-x="297" 
d="M82 -80l160 377v1h-224v30h260v-29l-159 -379h-37z" />
    <glyph glyph-name="eight.sinf" horiz-adv-x="360" 
d="M244 133q77 -27 77 -103q0 -53 -39 -83.5t-102 -30.5t-102.5 30.5t-39.5 83.5q0 76 78 103q-63 27 -63 91q0 48 34.5 77.5t92.5 29.5t92.5 -29.5t34.5 -77.5q0 -64 -63 -91zM86 223q0 -33 24.5 -55.5t69.5 -22.5t69.5 22.5t24.5 55.5t-25 56t-69 23q-45 0 -69.5 -22.5
t-24.5 -56.5zM180 -55q49 0 78.5 23.5t28.5 62.5q1 40 -28 63t-79 23t-79 -23t-29 -63q0 -39 29.5 -62.5t78.5 -23.5z" />
    <glyph glyph-name="nine.sinf" horiz-adv-x="359" 
d="M172 330q68 0 107 -51.5t39 -152.5q0 -103 -39.5 -156.5t-109.5 -53.5q-53 0 -87.5 28t-34.5 73h34q1 -33 25.5 -52t62.5 -19q54 0 84.5 45.5t30.5 133.5v17q-15 -31 -47 -50.5t-71 -19.5q-57 0 -93 36t-36 92q0 57 36.5 93.5t98.5 36.5zM170 101q50 0 83 35t19 83
q-25 81 -100 81q-46 0 -73.5 -28t-27.5 -72q0 -43 27 -71t72 -28z" />
    <glyph glyph-name="zero.tf" horiz-adv-x="638" 
d="M319 -4q-116 0 -180.5 88t-64.5 256q0 169 64.5 257.5t180.5 88.5t180.5 -88.5t64.5 -257.5q0 -168 -64.5 -256t-180.5 -88zM319 29q99 0 153.5 80t54.5 231q0 152 -55 232.5t-153 80.5t-153 -80.5t-55 -232.5q0 -151 55 -231t153 -80z" />
    <glyph glyph-name="one.tf" horiz-adv-x="638" 
d="M367 33h172v-33h-404v33h195v591q-62 -45 -195 -45v30q130 0 208 71h24v-647z" />
    <glyph glyph-name="two.tf" horiz-adv-x="638" 
d="M138 33h417v-33h-476v27l299 257q68 59 100.5 107.5t32.5 108.5q-1 77 -55.5 115t-135.5 38q-87 0 -142.5 -44.5t-54.5 -128.5h-36q-1 98 66.5 152t168.5 54q97 0 161 -47.5t65 -138.5q0 -64 -35.5 -119.5t-104.5 -115.5z" />
    <glyph glyph-name="three.tf" horiz-adv-x="638" 
d="M411 355q64 -19 100.5 -63t37.5 -112q0 -90 -65 -137t-166 -47q-105 0 -171.5 51.5t-66.5 148.5h36q-1 -83 55.5 -125t145.5 -42q85 0 140 38t56 113q-1 78 -56.5 117t-142.5 39h-65v33h54q79 0 137 35.5t59 106.5q0 72 -52 107t-130 35q-83 0 -133.5 -40t-50.5 -115h-36
q0 89 61 138.5t159 49.5q94 0 156 -44.5t63 -130.5q-1 -114 -125 -156z" />
    <glyph glyph-name="four.tf" horiz-adv-x="638" 
d="M574 222v-33h-105v-189h-36v189h-376v30l364 461h48v-458h105zM101 223v-1h332v414h-2z" />
    <glyph glyph-name="five.tf" horiz-adv-x="638" 
d="M323 427q103 0 167 -59t65 -158q-1 -98 -64.5 -156t-171.5 -58q-106 0 -170.5 56t-64.5 147h37q-1 -77 53.5 -123.5t144.5 -46.5q91 0 144.5 49t54.5 132q-1 85 -55 134.5t-142 49.5q-94 0 -177 -57l-33 16l28 327h383v-34h-351l-24 -269q83 50 176 50z" />
    <glyph glyph-name="six.tf" horiz-adv-x="638" 
d="M336 424q99 0 160 -60.5t61 -153.5t-62.5 -153.5t-164.5 -60.5q-114 0 -178.5 85t-64.5 255q0 172 66.5 261t182.5 89q88 0 145.5 -45t58.5 -119h-36q-1 60 -48.5 95t-119.5 35q-99 0 -156 -80.5t-57 -235.5q0 -32 1 -48q22 61 81.5 98.5t130.5 37.5zM331 29q85 0 137 51
t52 130t-50 130t-134 51q-93 0 -155.5 -63.5t-35.5 -154.5q47 -144 186 -144z" />
    <glyph glyph-name="seven.tf" horiz-adv-x="638" 
d="M211 0l308 645v1h-439v34h477v-31l-307 -649h-39z" />
    <glyph glyph-name="eight.tf" horiz-adv-x="638" 
d="M411 356q68 -17 107.5 -61t39.5 -111q0 -88 -66.5 -138t-172.5 -50t-172.5 50t-66.5 138q0 67 39.5 111t107.5 61q-57 20 -89 61t-32 95q0 77 59 125.5t154 48.5t154 -48.5t59 -125.5q0 -54 -32 -95t-89 -61zM143 512q-1 -60 45.5 -100.5t130.5 -40.5t130.5 40.5
t45.5 100.5q1 59 -46 100t-130 41t-130 -41t-46 -100zM319 29q93 0 148.5 42.5t54.5 112.5q1 72 -54 113.5t-149 41.5q-93 0 -148.5 -41.5t-54.5 -113.5q-1 -70 55 -112.5t148 -42.5z" />
    <glyph glyph-name="nine.tf" horiz-adv-x="638" 
d="M307 686q115 0 180 -84.5t65 -255.5q0 -172 -67 -261t-184 -89q-89 0 -147 45t-59 119h36q1 -61 49 -96t121 -35q100 0 157.5 80.5t57.5 235.5q0 33 -1 48q-22 -61 -81.5 -98.5t-132.5 -37.5q-100 0 -161.5 60.5t-61.5 153.5t63 154t166 61zM301 290q94 0 157 63.5
t36 154.5q-47 144 -188 144q-86 0 -138.5 -51t-52.5 -130t50.5 -130t135.5 -51z" />
    <glyph glyph-name="zero.dnom" horiz-adv-x="383" 
d="M192 -4q-71 0 -111 53t-40 154t40 154.5t111 53.5t110.5 -53.5t39.5 -154.5t-39.5 -154t-110.5 -53zM192 26q55 0 85.5 45.5t30.5 131.5t-30.5 131.5t-85.5 45.5t-85.5 -45t-30.5 -132q0 -86 30.5 -131.5t85.5 -45.5z" />
    <glyph glyph-name="one.dnom" horiz-adv-x="233" 
d="M146 30h67v-30h-178v30h77v331q-26 -25 -76 -25v28q54 0 85 44h25v-378z" />
    <glyph glyph-name="two.dnom" horiz-adv-x="340" 
d="M88 30h214v-30h-266l-1 24l162 153q34 32 50.5 59.5t16.5 60.5q-1 42 -27.5 63t-66.5 21q-43 0 -70 -24.5t-27 -71.5l-34 -1q-1 62 36 95t95 33q56 0 92 -30t36 -85q0 -70 -76 -141z" />
    <glyph glyph-name="three.dnom" horiz-adv-x="347" 
d="M234 211q71 -27 72 -103q0 -54 -38 -83t-96 -29q-60 0 -98 32t-38 92h35q-1 -46 27.5 -69.5t73.5 -23.5q44 0 71.5 20.5t27.5 61.5q0 43 -28 65t-72 22h-37v27h32q40 0 68.5 20t29.5 59q-1 40 -27 59t-65 19q-42 0 -67.5 -22.5t-24.5 -64.5h-35q0 56 35 87t92 31
q54 0 90 -28t36 -80q0 -66 -64 -92z" />
    <glyph glyph-name="four.dnom" horiz-adv-x="346" 
d="M319 138v-30h-57v-108h-34v108h-206v27l196 273h44v-270h57zM59 139v-1h170v233h-2z" />
    <glyph glyph-name="five.dnom" horiz-adv-x="338" 
d="M172 257q58 0 94.5 -35.5t36.5 -95.5t-36.5 -95t-97.5 -35t-98 34t-37 89h34q0 -42 27.5 -67t72.5 -25q46 0 73 26.5t28 72.5q-1 46 -28 73t-72 27q-49 0 -91 -32l-29 13l18 200h217v-30h-190l-13 -146q43 26 91 26z" />
    <glyph glyph-name="six.dnom" horiz-adv-x="359" 
d="M193 254q58 0 93.5 -36t35.5 -92q0 -57 -36.5 -93.5t-98.5 -36.5q-68 0 -107 51.5t-39 152.5q0 103 39.5 156.5t109.5 53.5q53 0 87.5 -27.5t34.5 -73.5h-34q-1 33 -25.5 52t-62.5 19q-54 0 -84.5 -45.5t-30.5 -133.5v-17q15 31 47 50.5t71 19.5zM187 26q46 0 73.5 28
t27.5 72t-26.5 72t-72.5 28q-51 0 -84 -36.5t-16 -86.5h-1q26 -77 99 -77z" />
    <glyph glyph-name="seven.dnom" horiz-adv-x="297" 
d="M82 0l160 377v1h-224v30h260v-29l-159 -379h-37z" />
    <glyph glyph-name="eight.dnom" horiz-adv-x="360" 
d="M244 213q77 -27 77 -103q0 -53 -39 -83.5t-102 -30.5t-102.5 30.5t-39.5 83.5q0 76 78 103q-63 27 -63 91q0 48 34.5 77.5t92.5 29.5t92.5 -29.5t34.5 -77.5q0 -64 -63 -91zM86 303q0 -33 24.5 -55.5t69.5 -22.5t69.5 22.5t24.5 55.5t-25 56t-69 23q-45 0 -69.5 -22.5
t-24.5 -56.5zM180 25q49 0 78.5 23.5t28.5 62.5q1 40 -28 63t-79 23t-79 -23t-29 -63q0 -39 29.5 -62.5t78.5 -23.5z" />
    <glyph glyph-name="nine.dnom" horiz-adv-x="359" 
d="M172 410q68 0 107 -51.5t39 -152.5q0 -103 -39.5 -156.5t-109.5 -53.5q-53 0 -87.5 28t-34.5 73h34q1 -33 25.5 -52t62.5 -19q54 0 84.5 45.5t30.5 133.5v16q-16 -31 -48 -50t-70 -19q-57 0 -93 36t-36 92q0 57 36.5 93.5t98.5 36.5zM170 181q51 0 84.5 36t16.5 86
q-25 77 -99 77q-46 0 -73.5 -28t-27.5 -72q0 -43 27 -71t72 -28z" />
    <glyph glyph-name="zero.numr" horiz-adv-x="383" 
d="M192 268q-71 0 -111 53t-40 154t40 154.5t111 53.5t110.5 -53.5t39.5 -154.5t-39.5 -154t-110.5 -53zM192 298q55 0 85.5 45.5t30.5 131.5t-30.5 131.5t-85.5 45.5t-85.5 -45t-30.5 -132q0 -86 30.5 -131.5t85.5 -45.5z" />
    <glyph glyph-name="one.numr" horiz-adv-x="233" 
d="M147 301h66v-30h-177v30h77v331q-26 -25 -76 -25v28q56 0 84 44h26v-378z" />
    <glyph glyph-name="two.numr" horiz-adv-x="340" 
d="M88 301h213v-30h-266v24l162 153q34 32 50.5 59t16.5 61q-1 42 -27.5 63t-66.5 21q-43 0 -70 -25t-27 -72h-34q-1 61 36 94.5t95 33.5q56 0 92 -30t36 -85q0 -70 -76 -141z" />
    <glyph glyph-name="three.numr" horiz-adv-x="347" 
d="M234 483q71 -27 72 -103q0 -54 -38 -83t-96 -29q-60 0 -98 32t-38 92h35q-1 -46 27.5 -69.5t73.5 -23.5q44 0 71.5 20.5t27.5 61.5q0 43 -28 65t-72 22h-37v27h32q40 0 68.5 20t29.5 59q-1 40 -27 59t-65 19q-42 0 -67.5 -22.5t-24.5 -64.5h-35q0 56 35 87t92 31
q54 0 90 -28t36 -80q0 -66 -64 -92z" />
    <glyph glyph-name="four.numr" horiz-adv-x="346" 
d="M319 409v-30h-57v-108h-34v108h-207v27l197 273h44v-270h57zM59 410v-1h170v233h-2z" />
    <glyph glyph-name="five.numr" horiz-adv-x="338" 
d="M172 529q58 0 94.5 -35.5t36.5 -95.5t-36.5 -95t-97.5 -35t-98 34t-37 89h34q0 -42 27.5 -67t72.5 -25q46 0 73 26.5t28 72.5q-1 46 -28 73t-72 27q-49 0 -91 -32l-29 12l18 201h217v-30h-190l-13 -146q43 26 91 26z" />
    <glyph glyph-name="six.numr" horiz-adv-x="359" 
d="M193 526q58 0 93.5 -36t35.5 -92t-36.5 -93t-98.5 -37q-68 0 -107 51.5t-39 152.5q0 103 39.5 157t109.5 54q53 0 87.5 -28t34.5 -74l-34 1q-1 32 -25.5 51t-62.5 19q-54 0 -84.5 -45t-30.5 -134v-17q15 31 47 50.5t71 19.5zM187 299q46 0 73.5 28t27.5 71q0 44 -26.5 72
t-72.5 28q-51 0 -84 -36.5t-16 -85.5h-1q26 -77 99 -77z" />
    <glyph glyph-name="seven.numr" horiz-adv-x="297" 
d="M82 271l160 376v2h-224v30h260v-29l-159 -379h-37z" />
    <glyph glyph-name="eight.numr" horiz-adv-x="360" 
d="M244 485q77 -27 77 -103q0 -53 -39 -83.5t-102 -30.5t-102.5 30.5t-39.5 83.5q0 76 78 103q-63 27 -63 91q0 48 34.5 77.5t92.5 29.5t92.5 -29.5t34.5 -77.5q0 -64 -63 -91zM86 575q0 -33 24.5 -55.5t69.5 -22.5t69.5 22.5t24.5 55.5t-25 56t-69 23q-45 0 -69.5 -22.5
t-24.5 -56.5zM180 297q49 0 78.5 23.5t28.5 62.5q1 40 -28 63t-79 23t-79 -23t-29 -63q0 -39 29.5 -62.5t78.5 -23.5z" />
    <glyph glyph-name="nine.numr" horiz-adv-x="359" 
d="M172 683q68 0 107 -51.5t39 -152.5q0 -104 -39.5 -157.5t-109.5 -53.5q-53 0 -87.5 28t-34.5 73h34q1 -33 25.5 -51.5t62.5 -18.5q54 0 84.5 45t30.5 134v15q-16 -31 -48 -49.5t-70 -18.5q-57 0 -93 36t-36 92t36.5 93t98.5 37zM170 453q51 0 84 36t17 86q-25 77 -99 77
q-46 0 -73.5 -28t-27.5 -71q0 -44 26.5 -72t72.5 -28z" />
    <glyph glyph-name="zero.sups" horiz-adv-x="383" 
d="M192 357q-71 0 -111 53t-40 154t40 154.5t111 53.5t110.5 -53.5t39.5 -154.5t-39.5 -154t-110.5 -53zM192 388q55 0 85.5 45t30.5 131t-30.5 131.5t-85.5 45.5t-85.5 -45t-30.5 -132q0 -86 30.5 -131t85.5 -45z" />
    <glyph glyph-name="one.sups" horiz-adv-x="233" 
d="M146 390h66v-30h-177v30h77v331q-26 -25 -76 -25v28q55 0 84 44h26v-378z" />
    <glyph glyph-name="two.sups" horiz-adv-x="340" 
d="M87 390h214v-30h-266v24l162 153q34 32 50.5 59.5t16.5 60.5q-1 42 -27.5 63t-66.5 21q-43 0 -70 -25t-27 -72h-34q-1 61 36 94.5t95 33.5q56 0 92 -30t36 -85q0 -70 -76 -141z" />
    <glyph glyph-name="three.sups" horiz-adv-x="347" 
d="M235 572q70 -26 71 -103q0 -53 -38 -82.5t-96 -29.5q-60 0 -98 32t-38 92h35q-1 -46 27.5 -69.5t73.5 -23.5q44 0 71.5 20.5t27.5 61.5q0 43 -28 65t-72 22h-37v27h32q40 0 68.5 20t29.5 59q-1 40 -27 59t-65 19q-41 0 -67 -22.5t-25 -63.5l-35 -1q0 56 35 87t92 31
q54 0 90 -28t36 -80q0 -66 -63 -92z" />
    <glyph glyph-name="four.sups" horiz-adv-x="346" 
d="M319 498v-30h-57v-108h-34v108h-207v27l197 273h44v-270h57zM59 499v-1h170v233h-1z" />
    <glyph glyph-name="five.sups" horiz-adv-x="338" 
d="M172 618q58 0 94.5 -35.5t36.5 -95.5t-36.5 -95t-97.5 -35t-98 34t-37 89h34q0 -41 27.5 -66.5t72.5 -25.5q46 0 73 26.5t28 72.5q-1 46 -28 73.5t-72 27.5q-48 0 -91 -33l-29 13l18 200h217v-30h-190l-13 -146q43 26 91 26z" />
    <glyph glyph-name="six.sups" horiz-adv-x="359" 
d="M193 615q58 0 93.5 -36t35.5 -92t-36.5 -93t-98.5 -37q-68 0 -107 51.5t-39 152.5q0 103 39.5 156.5t109.5 53.5q53 0 87.5 -27.5t34.5 -73.5h-34q-1 33 -25.5 52t-62.5 19q-54 0 -84.5 -45t-30.5 -134v-17q15 31 47 50.5t71 19.5zM187 388q46 0 73.5 28t27.5 71
q0 44 -26.5 72t-72.5 28q-51 0 -84 -36.5t-16 -86.5h-1q26 -76 99 -76z" />
    <glyph glyph-name="seven.sups" horiz-adv-x="297" 
d="M82 360l160 377v1h-224v30h260v-29l-159 -379h-37z" />
    <glyph glyph-name="eight.sups" horiz-adv-x="360" 
d="M244 574q77 -27 77 -102q0 -54 -39 -84.5t-102 -30.5q-64 0 -103 30.5t-39 84.5q0 75 78 102q-63 27 -63 91q0 48 34.5 77.5t92.5 29.5t92.5 -29.5t34.5 -77.5q0 -64 -63 -91zM86 664q0 -33 24.5 -55.5t69.5 -22.5t69.5 22.5t24.5 55.5t-25 56t-69 23q-45 0 -69.5 -22.5
t-24.5 -56.5zM180 386q49 0 78.5 23.5t28.5 62.5q1 40 -28 63t-79 23t-79 -23t-29 -63q0 -39 29.5 -62.5t78.5 -23.5z" />
    <glyph glyph-name="nine.sups" horiz-adv-x="359" 
d="M172 771q68 0 107 -51t39 -153q0 -103 -39.5 -156.5t-109.5 -53.5q-53 0 -87.5 28t-34.5 73h34q1 -33 25.5 -51.5t62.5 -18.5q54 0 84.5 45t30.5 133v16q-16 -31 -48 -49.5t-70 -18.5q-57 0 -93 35.5t-36 91.5q0 57 36.5 93.5t98.5 36.5zM170 542q50 0 83 35t19 83
q-25 81 -100 81q-46 0 -73.5 -28t-27.5 -72q0 -43 27 -71t72 -28z" />
    <glyph glyph-name="zero.sc" horiz-adv-x="534" 
d="M267 -3q-98 0 -153.5 66t-55.5 192t55.5 192.5t153.5 66.5t153 -66.5t55 -192.5t-54.5 -192t-153.5 -66zM267 30q81 0 126.5 57.5t45.5 167.5t-45.5 168.5t-126.5 58.5t-126.5 -58.5t-45.5 -168.5t45.5 -167.5t126.5 -57.5z" />
    <glyph glyph-name="one.sc" horiz-adv-x="317" 
d="M195 32h95v-32h-241v32h110v425q-38 -31 -110 -31v30q78 0 120 53h26v-477z" />
    <glyph glyph-name="two.sc" horiz-adv-x="475" 
d="M108 32h312v-32h-372v27l231 191q51 42 75.5 76.5t24.5 78.5q0 54 -40.5 81.5t-100.5 27.5q-65 0 -106.5 -32t-40.5 -93h-37q0 76 52 117t132 41q76 0 126.5 -36.5t51.5 -105.5q0 -49 -27 -90.5t-81 -85.5z" />
    <glyph glyph-name="three.sc" horiz-adv-x="487" 
d="M324 266q102 -32 103 -130q-1 -68 -53 -103.5t-133 -35.5q-84 0 -137 39t-53 113h37q-1 -60 42 -89.5t111 -29.5q66 0 107.5 27t41.5 80q-1 56 -43 83.5t-109 27.5h-51v31h43q61 0 105 25.5t44 75.5q0 51 -39.5 76.5t-98.5 25.5q-63 0 -101.5 -29t-38.5 -83h-37
q0 68 49 106t128 39q75 0 125 -34.5t50 -99.5q-1 -83 -92 -115z" />
    <glyph glyph-name="four.sc" horiz-adv-x="483" 
d="M445 170v-32h-83v-138h-36v138h-297v29l285 342h48v-339h83zM72 171v-1h254v299h-1z" />
    <glyph glyph-name="five.sc" horiz-adv-x="476" 
d="M241 322q82 0 133 -44.5t52 -119.5q-1 -74 -51.5 -117.5t-136.5 -43.5q-84 0 -135.5 42t-51.5 111h36q0 -55 41.5 -88t109.5 -33q69 0 109.5 35t41.5 94q-1 61 -42 96t-107 35q-73 0 -135 -41l-33 14l23 247h305v-32h-274l-17 -190q62 35 132 35z" />
    <glyph glyph-name="six.sc" horiz-adv-x="502" 
d="M266 319q82 0 132 -45t50 -116q0 -70 -51.5 -115.5t-136.5 -45.5q-94 0 -148 64t-54 191q0 128 55 195t151 67q74 0 122 -34.5t48 -90.5h-36q-1 43 -38.5 67.5t-94.5 24.5q-80 0 -125.5 -58t-45.5 -171q0 -20 1 -30q20 43 67 70t104 27zM261 29q67 0 108.5 36.5
t41.5 92.5q0 57 -39.5 93t-107.5 36q-74 0 -124 -46.5t-27 -110.5q37 -101 148 -101z" />
    <glyph glyph-name="seven.sc" horiz-adv-x="413" 
d="M118 0l229 476v1h-323v32h362v-30l-228 -479h-40z" />
    <glyph glyph-name="eight.sc" horiz-adv-x="507" 
d="M339 267q112 -32 112 -128q0 -67 -55 -104.5t-143 -37.5t-143 37.5t-55 104.5q0 96 112 128q-42 15 -66 45t-24 70q0 59 48.5 95.5t127.5 36.5t127.5 -36.5t48.5 -95.5q0 -40 -24 -70t-66 -45zM113 382q-1 -43 36.5 -72t103.5 -29t103.5 29t36.5 72q1 43 -36.5 72
t-103.5 29t-103.5 -29t-36.5 -72zM253 28q74 0 118 30.5t43 80.5q1 52 -43 81.5t-118 29.5t-118 -29.5t-43 -81.5q-1 -50 43 -80.5t118 -30.5z" />
    <glyph glyph-name="nine.sc" horiz-adv-x="501" 
d="M241 514q95 0 148.5 -63.5t53.5 -191.5t-55 -195t-151 -67q-74 0 -122 34.5t-48 90.5h36q1 -43 38.5 -68t94.5 -25q80 0 125.5 58.5t45.5 170.5q0 21 -1 30q-20 -43 -67 -69.5t-104 -26.5q-82 0 -132 45t-50 115t51.5 116t136.5 46zM237 224q74 0 124 46t27 111
q-38 100 -148 100q-67 0 -108.5 -36.5t-41.5 -92.5t40 -92t107 -36z" />
    </font>
</defs>
</svg>
