<?xml version="1.0" standalone="no"?>
<!DOCTYPE svg PUBLIC "-//W3C//DTD SVG 1.1//EN" "http://www.w3.org/Graphics/SVG/1.1/DTD/svg11.dtd" >
<svg xmlns="http://www.w3.org/2000/svg" xmlns:xlink="http://www.w3.org/1999/xlink" version="1.1">
<metadata>
Created by FontForge 20190801 at Tue May 30 11:28:46 2017
 By www-data
Copyright (c) 2017 by Daniel Hernandez. All rights reserved.
</metadata>
<defs>
<font id="LotaGrotesqueBlack" horiz-adv-x="0" >
  <font-face 
    font-family="LotaGrotesqueBlack"
    font-weight="900"
    font-stretch="normal"
    units-per-em="1000"
    panose-1="0 0 10 0 0 0 0 0 0 0"
    ascent="800"
    descent="-200"
    x-height="490"
    cap-height="686"
    bbox="-551 -329 1363 933"
    underline-thickness="50"
    underline-position="-100"
    unicode-range="U+0020-FB02"
  />
<missing-glyph horiz-adv-x="418" 
 />
    <glyph glyph-name="fi" unicode="fi" horiz-adv-x="663" 
d="M520 531q-46 0 -76.5 28.5t-30.5 73.5t31 74.5t76 29.5t76.5 -29.5t31.5 -74.5q0 -44 -31 -73t-77 -29zM612 490v-490h-180v350h-160v-350h-180v350h-70v140h70v19q0 96 57 156t155 60q49 0 87 -9l-5 -147q-22 9 -48 9q-31 0 -48.5 -21t-17.5 -58v-9h340z" />
    <glyph glyph-name="fl" unicode="fl" horiz-adv-x="697" 
d="M92 509q0 96 61.5 156t170.5 60q49 0 87 -9l-5 -147q-22 9 -48 9q-86 0 -86 -79v-9h130v-140h-130v-350h-180v350h-70v140h70v19zM466 710h180v-710h-180v710z" />
    <glyph glyph-name=".notdef" horiz-adv-x="418" 
 />
    <glyph glyph-name=".null" 
 />
    <glyph glyph-name="nonmarkingreturn" horiz-adv-x="333" 
 />
    <glyph glyph-name="space" unicode=" " horiz-adv-x="192" 
 />
    <glyph glyph-name="exclam" unicode="!" horiz-adv-x="297" 
d="M244 710l-15 -442h-160l-15 442h190zM146 199q48 0 77.5 -28.5t30.5 -74.5q0 -45 -30 -74.5t-78 -29.5t-77.5 29.5t-29.5 74.5q0 46 29.5 74.5t77.5 28.5z" />
    <glyph glyph-name="quotedbl" unicode="&#x22;" horiz-adv-x="412" 
d="M46 480l-5 267h133l-6 -267h-122zM244 480l-6 267h134l-6 -267h-122z" />
    <glyph glyph-name="numbersign" unicode="#" horiz-adv-x="668" 
d="M640 390h-104l-14 -92h80v-131h-100l-25 -167h-141l26 167h-97l-25 -167h-140l26 167h-98v131h118l14 92h-94v131h114l25 165h139l-25 -165h97l25 165h140l-25 -165h84v-131zM382 298l14 92h-97l-14 -92h97z" />
    <glyph glyph-name="dollar" unicode="$" horiz-adv-x="624" 
d="M596 197q0 -80 -58.5 -132.5t-158.5 -66.5v-113h-140v112q-103 14 -158 68.5t-55 146.5h182q2 -71 104 -71q104 0 104 56q0 25 -21 40.5t-54.5 24t-73.5 16t-80.5 20.5t-74 33t-54.5 59.5t-21 94.5q-1 78 54 132.5t148 71.5v114h140v-113q98 -14 152 -70.5t54 -144.5
h-183q0 72 -92 72q-93 0 -93 -58q0 -24 21 -38.5t54.5 -22t73.5 -14.5t80.5 -20.5t74 -35t54.5 -62.5t21 -99z" />
    <glyph glyph-name="percent" unicode="%" horiz-adv-x="962" 
d="M267 0l309 695h122l-307 -695h-124zM217 298q-90 0 -141 52t-51 144t51 144.5t141 52.5t141 -52.5t51 -144.5t-51 -144t-141 -52zM217 414q61 0 61 80q0 81 -61 81t-61 -81q0 -80 61 -80zM746 -5q-90 0 -141 51.5t-51 144.5q0 92 51 144.5t141 52.5t141 -52.5t51 -144.5
q0 -93 -51 -144.5t-141 -51.5zM746 111q61 0 61 80q0 38 -16 59.5t-45 21.5t-45 -21.5t-16 -59.5q0 -80 61 -80z" />
    <glyph glyph-name="ampersand" unicode="&#x26;" horiz-adv-x="658" 
d="M669 0h-176l-28 28q-72 -36 -165 -36q-122 0 -197.5 58t-75.5 152q1 61 26 103.5t82 75.5q-44 65 -44 130q0 83 57.5 133.5t151.5 50.5q91 0 145 -47t54 -125q0 -55 -35 -98.5t-116 -85.5l112 -118q16 44 15 96h147q0 -121 -59 -205zM299 561q-53 0 -55 -50q0 -37 20 -70
l7 3q78 33 78 79q0 17 -13.5 27.5t-36.5 10.5zM317 132q26 0 43 4l-130 133l-2 2q-22 -21 -23 -59q1 -38 31 -59t81 -21z" />
    <glyph glyph-name="quotesingle" unicode="'" horiz-adv-x="214" 
d="M46 480l-6 267h134l-6 -267h-122z" />
    <glyph glyph-name="parenleft" unicode="(" horiz-adv-x="324" 
d="M32 302q0 143 36.5 255t88.5 185h167q-52 -78 -83 -178t-31 -267q0 -163 30.5 -260.5t84.5 -176.5h-168q-53 75 -89 188.5t-36 253.5z" />
    <glyph glyph-name="parenright" unicode=")" horiz-adv-x="324" 
d="M291 302q0 -140 -36 -253.5t-89 -188.5h-168q54 79 84.5 176.5t30.5 260.5q0 167 -31 267t-83 178h167q52 -73 88.5 -185t36.5 -255z" />
    <glyph glyph-name="asterisk" unicode="*" horiz-adv-x="400" 
d="M374 595l-92 -20l65 -73l-93 -68l-54 91l-53 -91l-93 68l64 73l-92 20l35 109l90 -39l-9 91h115l-9 -91l90 39z" />
    <glyph glyph-name="plus" unicode="+" horiz-adv-x="494" 
d="M465 421v-149h-136v-144h-164v144h-136v149h136v144h164v-144h136z" />
    <glyph glyph-name="comma" unicode="," horiz-adv-x="279" 
d="M56 -86q28 0 55.5 25.5t27.5 56.5q-1 0 -5 -0.5t-9 -0.5q-43 0 -69 29t-26 73q0 48 29.5 74.5t76.5 26.5q49 0 79.5 -31t30.5 -99q0 -58 -22 -111.5t-66.5 -89t-101.5 -35.5v82z" />
    <glyph glyph-name="hyphen" unicode="-" horiz-adv-x="471" 
d="M48 222v140h375v-140h-375z" />
    <glyph glyph-name="period" unicode="." horiz-adv-x="274" 
d="M136 199q48 0 77.5 -28.5t30.5 -74.5q0 -45 -30 -74.5t-78 -29.5t-77.5 29.5t-29.5 74.5q0 46 29.5 74.5t77.5 28.5z" />
    <glyph glyph-name="slash" unicode="/" horiz-adv-x="497" 
d="M17 -20l290 726h175l-288 -726h-177z" />
    <glyph glyph-name="zero" unicode="0" horiz-adv-x="665" 
d="M333 -8q-140 0 -219 92.5t-79 259.5t79 259t219 92t218.5 -92t78.5 -259t-79 -259.5t-218 -92.5zM333 150q113 0 113 194q0 193 -113 193q-114 0 -114 -193q0 -194 114 -194z" />
    <glyph glyph-name="one" unicode="1" horiz-adv-x="462" 
d="M341 150h105v-150h-406v150h119v322q-47 -20 -115 -20v149q59 0 94 18.5t59 66.5h144v-536z" />
    <glyph glyph-name="two" unicode="2" horiz-adv-x="570" 
d="M315 150h214v-150h-484v116l240 237q53 51 53 117q0 67 -56 67q-68 0 -68 -92h-183q0 121 67.5 185.5t183.5 64.5q115 0 178 -60.5t63 -164.5q0 -73 -28.5 -124t-102.5 -122z" />
    <glyph glyph-name="three" unicode="3" horiz-adv-x="583" 
d="M547 201q1 -92 -76 -150.5t-189 -58.5q-115 0 -184.5 64t-69.5 177l183 -1q0 -81 78 -81q35 0 54.5 16t19.5 44q-2 68 -74 68h-72v130h72q59 0 61 66q-1 31 -18.5 46.5t-43.5 15.5q-30 0 -48 -21t-18 -61h-183q0 109 68 174t182 66q106 1 175 -58t70 -157q0 -81 -64 -132
q77 -50 77 -147z" />
    <glyph glyph-name="four" unicode="4" horiz-adv-x="607" 
d="M577 279v-150h-82v-129h-181v129h-298v140l259 417h220v-407h82zM193 280v-1h135v236h-1z" />
    <glyph glyph-name="five" unicode="5" horiz-adv-x="567" 
d="M301 450q105 0 172 -59.5t68 -169.5q-1 -107 -73 -168t-187 -61t-187 59t-72 157l183 -1q0 -26 20 -41t53 -15q36 0 57 18.5t21 51.5q0 34 -20.5 54t-60.5 20q-43 0 -78 -30l-149 47l46 374h404v-150h-268l-12 -96q42 10 83 10z" />
    <glyph glyph-name="six" unicode="6" horiz-adv-x="617" 
d="M360 435q100 0 164 -57.5t64 -152.5q0 -101 -67 -167t-189 -66q-138 0 -217.5 93t-79.5 252q0 170 78.5 264t215.5 94q108 0 174 -56t66 -147l-183 1q0 44 -58 44q-49 0 -76 -35.5t-32 -115.5q56 49 140 49zM324 150q42 0 62 20.5t20 53.5t-20.5 54.5t-64.5 21.5
q-55 0 -76 -43t12 -80q24 -27 67 -27z" />
    <glyph glyph-name="seven" unicode="7" horiz-adv-x="535" 
d="M80 0l242 535v1h-308v150h504v-150l-237 -536h-201z" />
    <glyph glyph-name="eight" unicode="8" horiz-adv-x="600" 
d="M480 357q84 -55 84 -155t-68 -155t-197 -55t-196.5 55t-67.5 155q0 102 84 155q-66 54 -66 139q0 97 66 148t180 51q115 0 181 -51t66 -148q0 -85 -66 -139zM299 556q-76 0 -78 -70q2 -70 80 -70q77 0 77 70q0 32 -19 51t-60 19zM299 132q87 0 87 75q0 35 -21.5 55
t-63.5 20q-86 0 -88 -75q3 -75 86 -75z" />
    <glyph glyph-name="nine" unicode="9" horiz-adv-x="617" 
d="M284 695q138 0 217.5 -93t79.5 -252q0 -170 -78.5 -264t-215.5 -94q-108 0 -174 56t-66 147l183 -1q0 -44 58 -44q49 0 76 36t32 116q-56 -49 -141 -49q-99 -1 -163 56.5t-64 152.5q0 101 67 167t189 66zM294 388q52 0 75 38t-2 74q-24 37 -75 37q-42 0 -62 -20.5
t-20 -53.5t20.5 -54.5t63.5 -20.5z" />
    <glyph glyph-name="colon" unicode=":" horiz-adv-x="296" 
d="M147 499q48 0 77.5 -28.5t30.5 -74.5q0 -45 -30 -74.5t-78 -29.5t-77.5 29.5t-29.5 74.5q0 46 29.5 74.5t77.5 28.5zM147 197q48 0 77.5 -28.5t30.5 -74.5q0 -45 -30 -74.5t-78 -29.5t-77.5 29.5t-29.5 74.5q0 46 29.5 74.5t77.5 28.5z" />
    <glyph glyph-name="semicolon" unicode=";" horiz-adv-x="300" 
d="M153 499q48 0 77.5 -28.5t30.5 -74.5q0 -45 -30 -74.5t-78 -29.5t-77.5 29.5t-29.5 74.5q0 46 29.5 74.5t77.5 28.5zM63 -88q28 0 55.5 25.5t27.5 56.5q-1 0 -5 -0.5t-9 -0.5q-43 0 -69 29t-26 73q0 48 29.5 74.5t76.5 26.5q49 0 79.5 -31t30.5 -99q0 -58 -22 -111.5
t-66.5 -89t-101.5 -35.5v82z" />
    <glyph glyph-name="less" unicode="&#x3c;" horiz-adv-x="509" 
d="M453 601v-151l-260 -104l260 -103v-151l-426 180v148z" />
    <glyph glyph-name="equal" unicode="=" horiz-adv-x="538" 
d="M51 382v149h436v-149h-436zM51 162v149h436v-149h-436z" />
    <glyph glyph-name="greater" unicode="&#x3e;" horiz-adv-x="509" 
d="M56 601l426 -181v-148l-426 -180v151l260 103l-260 104v151z" />
    <glyph glyph-name="question" unicode="?" horiz-adv-x="505" 
d="M247 720q103 2 166.5 -52.5t64.5 -147.5q0 -36 -15.5 -67.5t-37.5 -53t-44.5 -40.5t-38 -38.5t-15.5 -37.5v-15h-171v29q0 30 15 59t37 51t44 42t37 39t15 34q-2 40 -48 40q-60 0 -60 -62h-173q0 99 59.5 159t164.5 61zM238 199q48 0 78 -29t30 -74t-30 -74.5t-78 -29.5
t-77.5 30t-29.5 75t29.5 73.5t77.5 28.5z" />
    <glyph glyph-name="at" unicode="@" horiz-adv-x="950" 
d="M520 453h163v-253q0 -55 37 -55q31 0 48 35t17 99q0 134 -77 210t-221 76q-153 0 -239 -85t-86 -235q0 -149 85.5 -234t232.5 -85q73 0 140 20.5t104 50.5l68 -102q-119 -96 -305 -96q-205 0 -330 118.5t-128 317.5q-3 200 122 327t328 130q196 2 317.5 -112.5
t121.5 -294.5q0 -123 -58 -193.5t-158 -70.5q-62 0 -106 26.5t-63 73.5q-31 -88 -125 -88q-78 0 -126.5 57t-47.5 154t53 155.5t131 58.5q69 0 102 -46v41zM459 170q26 0 43.5 17t17.5 40v35q0 23 -19 41t-42 18q-25 0 -42.5 -20.5t-17.5 -55.5q0 -33 16 -54t44 -21z" />
    <glyph glyph-name="A" unicode="A" horiz-adv-x="687" 
d="M506 0l-38 127h-251l-38 -127h-182l238 686h216l238 -686h-183zM258 263h169l-84 280z" />
    <glyph glyph-name="B" unicode="B" horiz-adv-x="654" 
d="M493 353q50 -12 89 -56.5t39 -111.5q0 -80 -58.5 -132.5t-140.5 -52.5h-356v686h337q91 0 145.5 -48.5t54.5 -124.5q0 -66 -34.5 -104.5t-75.5 -51.5v-4zM423 479q0 72 -82 72h-100v-144h104q78 0 78 72zM360 135q37 0 59 19t22 55t-23.5 56t-61.5 20h-115v-150h119z" />
    <glyph glyph-name="C" unicode="C" horiz-adv-x="718" 
d="M372 151q67 0 101 32t42 82h178q-13 -120 -93.5 -196t-233.5 -76q-146 0 -240 98.5t-94 252.5q0 156 93.5 253.5t240.5 97.5q153 0 234 -75.5t93 -196.5h-178q-9 48 -44.5 81t-99.5 33q-68 0 -112 -52.5t-43 -140.5t44.5 -140.5t111.5 -52.5z" />
    <glyph glyph-name="D" unicode="D" horiz-adv-x="725" 
d="M347 686q156 0 251 -91.5t95 -250.5q0 -161 -94.5 -252.5t-251.5 -91.5h-281v686h281zM347 146q74 0 118 49.5t44 148.5q0 98 -44.5 147t-117.5 49h-99v-394h99z" />
    <glyph glyph-name="E" unicode="E" horiz-adv-x="609" 
d="M248 148h322v-148h-504v686h499v-148h-317v-122h273v-143h-273v-125z" />
    <glyph glyph-name="F" unicode="F" horiz-adv-x="581" 
d="M555 538h-307v-156h270v-143h-270v-239h-182v686h489v-148z" />
    <glyph glyph-name="G" unicode="G" horiz-adv-x="748" 
d="M391 363h311v-363h-127v88q-69 -95 -213 -95q-150 0 -240 96.5t-90 253.5q0 159 94 255.5t255 96.5q139 0 220 -72t92 -189h-177q-10 44 -43.5 73.5t-92.5 29.5q-76 0 -120 -51t-44 -145q0 -89 42 -139.5t120 -50.5q50 0 86 21.5t52 57.5h-125v133z" />
    <glyph glyph-name="H" unicode="H" horiz-adv-x="747" 
d="M498 686h182v-686h-182v265h-250v-265h-182v686h182v-262h250v262z" />
    <glyph glyph-name="I" unicode="I" horiz-adv-x="314" 
d="M66 0v686h182v-686h-182z" />
    <glyph glyph-name="J" unicode="J" horiz-adv-x="559" 
d="M182 238q1 -86 68 -86t67 87v447h182v-437q0 -118 -64 -185.5t-188 -67.5q-117 0 -179.5 62.5t-62.5 179.5h177z" />
    <glyph glyph-name="K" unicode="K" horiz-adv-x="691" 
d="M500 0l-171 273l-81 -98v-175h-182v686h182v-302l233 302h210l-240 -287l256 -399h-207z" />
    <glyph glyph-name="L" unicode="L" horiz-adv-x="570" 
d="M248 158h313v-158h-495v686h182v-528z" />
    <glyph glyph-name="M" unicode="M" horiz-adv-x="903" 
d="M608 686h229l-1 -686h-175v462l-155 -462h-110l-155 462v-462h-175l-1 686h229l157 -479z" />
    <glyph glyph-name="N" unicode="N" horiz-adv-x="747" 
d="M504 686h176v-686h-165l-273 418v-418h-176v686h165l273 -418v418z" />
    <glyph glyph-name="O" unicode="O" horiz-adv-x="766" 
d="M383 -7q-155 0 -253 96t-98 255t98 255t253 96t253 -96t98 -255t-98 -255t-253 -96zM383 150q73 0 120 52t47 142t-47.5 141.5t-119.5 51.5t-119.5 -51.5t-47.5 -141.5t47.5 -142t119.5 -52z" />
    <glyph glyph-name="P" unicode="P" horiz-adv-x="655" 
d="M366 686q130 0 199.5 -59t69.5 -172t-69.5 -173.5t-199.5 -60.5h-118v-221h-182v686h300zM366 368q41 0 63 22.5t22 63.5q0 40 -22 63t-63 23h-118v-172h118z" />
    <glyph glyph-name="Q" unicode="Q" horiz-adv-x="766" 
d="M734 344q0 -132 -69 -222t-185 -118q49 -29 121 -29l6 -161q-109 0 -188 52.5t-106 132.5q-127 21 -204 113t-77 232q0 159 98 255t253 96t253 -96t98 -255zM383 150q73 0 120 52t47 142t-47.5 141.5t-119.5 51.5t-119.5 -51.5t-47.5 -141.5t47.5 -142t119.5 -52z" />
    <glyph glyph-name="R" unicode="R" horiz-adv-x="690" 
d="M660 141l9 -134q-36 -12 -85 -12q-76 0 -115.5 27.5t-68.5 83.5l-63 124h-89v-230h-182v686h292q131 0 201.5 -59.5t70.5 -168.5q0 -130 -112 -192l46 -92q20 -38 57 -38q22 0 39 5zM248 540v-171h110q43 0 65.5 22.5t22.5 62.5t-22.5 63t-65.5 23h-110z" />
    <glyph glyph-name="S" unicode="S" horiz-adv-x="630" 
d="M220 489q0 -24 21 -38.5t54.5 -22t73.5 -14.5t80.5 -20.5t74 -35t54.5 -62.5t21 -99q0 -94 -80 -149t-211 -55q-134 0 -206.5 56.5t-72.5 162.5h182q2 -71 104 -71q104 0 104 56q0 25 -21 40.5t-54.5 24t-73.5 16t-80.5 20.5t-74 33t-54.5 59.5t-21 94.5
q-1 93 75.5 151.5t199.5 58.5q128 0 200.5 -58.5t72.5 -161.5h-183q0 72 -92 72q-93 0 -93 -58z" />
    <glyph glyph-name="T" unicode="T" horiz-adv-x="620" 
d="M218 0v536h-210v150h603v-150h-211v-536h-182z" />
    <glyph glyph-name="U" unicode="U" horiz-adv-x="722" 
d="M482 686h182v-407q0 -133 -81 -209.5t-221 -76.5q-142 0 -223 76t-81 210l1 407h182v-407q0 -63 31 -96t90 -33t89.5 33t30.5 96v407z" />
    <glyph glyph-name="V" unicode="V" horiz-adv-x="671" 
d="M492 686h182l-238 -686h-202l-238 686h182l157 -513z" />
    <glyph glyph-name="W" unicode="W" horiz-adv-x="981" 
d="M798 686h179l-178 -686h-212l-96 471l-97 -471h-212l-178 686h179l112 -523l98 523h195l99 -523z" />
    <glyph glyph-name="X" unicode="X" horiz-adv-x="660" 
d="M665 0h-202l-132 238l-132 -238h-202l207 350l-203 336h203l126 -222l123 222h203l-199 -331z" />
    <glyph glyph-name="Y" unicode="Y" horiz-adv-x="637" 
d="M643 686l-233 -437v-249h-182v247l-234 439h191l134 -272l133 272h191z" />
    <glyph glyph-name="Z" unicode="Z" horiz-adv-x="641" 
d="M260 150h343v-150h-569v150l341 386h-331v150h558l-1 -150z" />
    <glyph glyph-name="bracketleft" unicode="[" horiz-adv-x="405" 
d="M61 -141v883h321v-144h-155v-595h155v-144h-321z" />
    <glyph glyph-name="backslash" unicode="\" horiz-adv-x="497" 
d="M480 -20h-177l-288 726h175z" />
    <glyph glyph-name="bracketright" unicode="]" horiz-adv-x="405" 
d="M344 -141h-321v144h155v595h-155v144h321v-883z" />
    <glyph glyph-name="asciicircum" unicode="^" horiz-adv-x="420" 
d="M27 500l99 237h168l99 -237h-111l-72 137l-71 -137h-112z" />
    <glyph glyph-name="underscore" unicode="_" horiz-adv-x="475" 
d="M0 -173v140h475v-140h-475z" />
    <glyph glyph-name="grave" unicode="`" horiz-adv-x="324" 
d="M140 550l-100 187h203l39 -187h-142z" />
    <glyph glyph-name="a" unicode="a" horiz-adv-x="561" 
d="M545 143l9 -136q-36 -12 -83 -12q-90 0 -124 73h-10q-39 -73 -148 -73q-78 0 -122 35.5t-44 98.5q0 161 277 161h28v12q0 63 -69 63q-26 0 -43.5 -13t-20.5 -34h-158q7 86 68 131.5t162 45.5q115 0 174.5 -55.5t59.5 -154.5v-121q0 -26 19 -26q10 0 25 5zM245 121
q37 0 60 15t23 41v28h-38q-96 0 -96 -48q0 -36 51 -36z" />
    <glyph glyph-name="b" unicode="b" horiz-adv-x="602" 
d="M370 495q90 0 147 -62.5t57 -178.5t-56.5 -187.5t-152.5 -71.5t-137 76l-4 -71h-173v710h180v-278q46 63 139 63zM312 146q35 0 57.5 27t22.5 73q0 45 -22 71.5t-58 26.5q-35 0 -58 -24t-23 -56v-39q0 -34 24 -56.5t57 -22.5z" />
    <glyph glyph-name="c" unicode="c" horiz-adv-x="540" 
d="M279 -5q-109 0 -180.5 70t-71.5 179q0 111 71.5 181t180.5 70q112 0 171 -59.5t67 -148.5h-165q-11 62 -66 62q-35 0 -56 -26t-21 -79q0 -52 21.5 -77.5t55.5 -25.5q56 0 66 61h165q-8 -88 -67 -147.5t-171 -59.5z" />
    <glyph glyph-name="d" unicode="d" horiz-adv-x="602" 
d="M371 710h180v-710h-174l-3 63q-44 -68 -140 -68q-91 0 -148.5 64.5t-57.5 179.5q0 114 57 185t156 71q91 0 130 -65v280zM290 146q35 0 58 24t23 56v39q0 34 -24 56.5t-57 22.5q-35 0 -57.5 -27t-22.5 -73q0 -45 22 -71.5t58 -26.5z" />
    <glyph glyph-name="e" unicode="e" horiz-adv-x="550" 
d="M522 239v-30h-324q15 -78 91 -78q55 0 71 38h162q-12 -72 -72.5 -123t-172.5 -51q-110 0 -180 69.5t-70 179.5q0 111 72.5 181t182.5 70q116 0 178 -72t62 -184zM284 369q-69 0 -85 -69h161q-11 69 -76 69z" />
    <glyph glyph-name="f" unicode="f" horiz-adv-x="414" 
d="M358 578q-86 0 -86 -79v-9h130v-140h-130v-350h-180v350h-70v140h70v19q0 96 61.5 156t170.5 60q49 0 87 -9l-5 -147q-22 9 -48 9z" />
    <glyph glyph-name="g" unicode="g" horiz-adv-x="602" 
d="M376 490h175v-481q0 -95 -71.5 -159t-193.5 -64q-104 0 -169 41.5t-72 125.5h165q9 -37 78 -37q38 0 60.5 23.5t22.5 59.5v69q-43 -71 -137 -71q-93 0 -149.5 69.5t-56.5 176.5q0 119 64 185.5t151 66.5q89 0 130 -57zM290 148q32 0 56.5 22.5t24.5 56.5v37
q0 32 -23.5 56t-57.5 24t-57 -27.5t-23 -73.5q0 -42 23 -68.5t57 -26.5z" />
    <glyph glyph-name="h" unicode="h" horiz-adv-x="591" 
d="M377 495q82 0 125 -53t43 -131v-311h-180v262q0 35 -16.5 55.5t-48.5 20.5q-31 0 -50 -21t-19 -52v-265h-180v710h178v-294q44 79 148 79z" />
    <glyph glyph-name="i" unicode="i" horiz-adv-x="282" 
d="M252 646q0 -47 -32.5 -77t-80.5 -30t-80 30t-32 77t32 78t80 31t80.5 -31t32.5 -78zM51 0v490h180v-490h-180z" />
    <glyph glyph-name="j" unicode="j" horiz-adv-x="290" 
d="M267 646q0 -47 -32.5 -77t-80.5 -30t-80 30t-32 77t32 78t80 31t80.5 -31t32.5 -78zM19 -209q-49 0 -87 9l9 145q22 -9 47 -9q71 0 71 69v485h180v-493q0 -91 -59.5 -148.5t-160.5 -57.5z" />
    <glyph glyph-name="k" unicode="k" horiz-adv-x="584" 
d="M397 0l-103 170l-63 -71v-99h-180v710h180v-392l140 173h208l-168 -189l186 -302h-200z" />
    <glyph glyph-name="l" unicode="l" horiz-adv-x="304" 
d="M271 143l9 -136q-36 -12 -86 -12q-147 0 -147 169v546h180v-546q0 -26 19 -26q10 0 25 5z" />
    <glyph glyph-name="m" unicode="m" horiz-adv-x="875" 
d="M670 495q78 0 118.5 -52.5t40.5 -136.5v-306h-180v265q0 34 -14.5 53.5t-40.5 19.5q-28 0 -46 -21.5t-18 -51.5v-265h-180v265q0 33 -14.5 53t-40.5 20q-27 0 -45.5 -21.5t-18.5 -51.5v-265h-180v490h175l5 -71q43 76 137 76q111 0 149 -104q39 104 153 104z" />
    <glyph glyph-name="n" unicode="n" horiz-adv-x="591" 
d="M379 495q81 0 123.5 -54t42.5 -135v-306h-180v262q0 35 -16.5 55.5t-48.5 20.5q-31 0 -50 -21t-19 -52v-265h-180v490h175l5 -71q43 76 148 76z" />
    <glyph glyph-name="o" unicode="o" horiz-adv-x="574" 
d="M287 495q117 0 188.5 -68.5t71.5 -179.5q0 -110 -72 -181t-188 -71t-188 69.5t-72 178.5q0 111 72 181.5t188 70.5zM287 349q-36 0 -57 -28t-21 -76q0 -46 21 -75t57 -29t57 28.5t21 75.5q0 48 -20.5 76t-57.5 28z" />
    <glyph glyph-name="p" unicode="p" horiz-adv-x="602" 
d="M370 495q90 0 147 -62.5t57 -178.5t-56.5 -187.5t-152.5 -71.5q-92 0 -135 72v-271h-180l1 695h173l3 -65q45 69 143 69zM312 146q35 0 57.5 27t22.5 73q0 45 -22 71.5t-58 26.5q-35 0 -58.5 -24t-23.5 -56v-39q0 -34 24.5 -56.5t57.5 -22.5z" />
    <glyph glyph-name="q" unicode="q" horiz-adv-x="602" 
d="M377 491h174v-695h-180v262q-46 -63 -137 -63t-148.5 64.5t-57.5 179.5q0 114 57 185t156 71q94 0 133 -70zM290 146q35 0 58 24t23 56v39q0 34 -24 56.5t-57 22.5q-35 0 -57.5 -27t-22.5 -73q0 -45 22 -71.5t58 -26.5z" />
    <glyph glyph-name="r" unicode="r" horiz-adv-x="402" 
d="M353 495q25 0 33 -4v-177q-14 6 -36 6q-47 0 -79.5 -22.5t-39.5 -62.5v-235h-180v490h175l3 -80q37 85 124 85z" />
    <glyph glyph-name="s" unicode="s" horiz-adv-x="508" 
d="M208 351q0 -19 28 -28t67.5 -15.5t79 -19.5t67.5 -49t28 -94q0 -73 -62 -111.5t-167 -38.5t-163 43t-58 123l149 -1q0 -52 68 -52q60 0 60 28q0 20 -28 30t-67.5 17t-79 20t-67.5 48.5t-28 92.5q0 72 61 111t166 40q99 0 154.5 -43t54.5 -118h-153q-1 48 -55 48
q-55 0 -55 -31z" />
    <glyph glyph-name="t" unicode="t" horiz-adv-x="420" 
d="M399 350h-134v-139q0 -69 72 -69q28 0 55 10l5 -143q-40 -14 -93 -14q-105 0 -162 56.5t-57 149.5v150h-70v139h80v133h170v-133h134v-140z" />
    <glyph glyph-name="u" unicode="u" horiz-adv-x="579" 
d="M348 490h180v-490h-175l-5 72q-43 -77 -137 -77q-83 0 -124 52.5t-41 131.5v311h180v-262q0 -34 16 -55t46 -21q25 0 42.5 21.5t17.5 51.5v265z" />
    <glyph glyph-name="v" unicode="v" horiz-adv-x="545" 
d="M363 490h181l-170 -490h-203l-170 490h190l74 -264q2 -8 11 -60h4q6 45 10 60z" />
    <glyph glyph-name="w" unicode="w" horiz-adv-x="786" 
d="M599 490h181l-129 -490h-203l-41 182q-10 46 -12 70h-4q-3 -37 -12 -70l-41 -182h-203l-129 490h181l46 -251q5 -30 10 -73h4q7 51 12 73l58 251h152l58 -251q5 -22 12 -73h4q5 42 10 73z" />
    <glyph glyph-name="x" unicode="x" horiz-adv-x="536" 
d="M541 0h-190l-83 145l-83 -145h-190l169 251l-159 239h190l76 -133l70 133h190l-158 -236z" />
    <glyph glyph-name="y" unicode="y" horiz-adv-x="537" 
d="M356 490h181l-172 -490l-2 -6q-39 -109 -90.5 -156t-147.5 -47q-49 0 -87 9l9 145q22 -9 47 -9q34 0 58 14t28 42v7l-180 491h190l71 -269q2 -8 11 -60h4q6 45 10 60z" />
    <glyph glyph-name="z" unicode="z" horiz-adv-x="501" 
d="M257 140h212v-140h-438v124l215 226h-207v140h424v-124z" />
    <glyph glyph-name="braceleft" unicode="{" horiz-adv-x="382" 
d="M10 373h10q26 0 45 17.5t19 52.5v98q0 93 61 147t176 54h35v-148h-25q-36 0 -57 -21t-21 -56v-118q0 -80 -47 -97q13 -5 30 -32t17 -67v-118q0 -35 21 -56t57 -21h25v-148h-35q-115 0 -176 54t-61 147v98q0 35 -19 52t-45 17h-10v145z" />
    <glyph glyph-name="bar" unicode="|" horiz-adv-x="282" 
d="M61 -184v894h160v-894h-160z" />
    <glyph glyph-name="braceright" unicode="}" horiz-adv-x="382" 
d="M372 373v-145h-10q-26 0 -45 -17t-19 -52v-98q0 -93 -61 -147t-176 -54h-35v148h25q36 0 57 21t21 56v118q0 40 17 67t30 32q-47 17 -47 97v118q0 35 -21 56t-57 21h-25v148h35q115 0 176 -54t61 -147v-98q0 -35 19 -52.5t45 -17.5h10z" />
    <glyph glyph-name="asciitilde" unicode="~" horiz-adv-x="533" 
d="M206 303q-20 0 -34.5 -12t-14.5 -35h-112q0 81 36 122t95 41q39 0 90 -22.5t69 -22.5q20 0 34.5 12t14.5 35h112q0 -81 -36.5 -122t-93.5 -41q-37 0 -89.5 22.5t-70.5 22.5z" />
    <glyph glyph-name="exclamdown" unicode="&#xa1;" horiz-adv-x="284" 
d="M140 298q-48 0 -77.5 29t-29.5 75q0 45 29.5 74t77.5 29t78 -29t30 -74q-1 -46 -30.5 -75t-77.5 -29zM238 -204h-190l15 434h160z" />
    <glyph glyph-name="cent" unicode="&#xa2;" horiz-adv-x="544" 
d="M287 236q56 0 66 61h165q-7 -72 -48.5 -127t-119.5 -73v-107h-140v109q-82 21 -132 85.5t-50 154.5q0 92 50 156.5t132 85.5v109h140v-107q78 -18 119.5 -73t48.5 -128h-165q-11 62 -66 62q-35 0 -56 -26t-21 -79q0 -52 21.5 -77.5t55.5 -25.5z" />
    <glyph glyph-name="sterling" unicode="&#xa3;" horiz-adv-x="616" 
d="M339 537q-62 0 -63 -74q0 -41 7 -94h205v-101h-193q1 -6 1 -19q0 -47 -23 -91h301v-158h-535v154q40 0 57.5 21t17.5 71q0 15 -1 22h-72v101h60q-7 51 -7 94q2 105 69.5 168.5t178.5 63.5q112 0 177.5 -63t64.5 -169h-177q0 74 -68 74z" />
    <glyph glyph-name="currency" unicode="&#xa4;" horiz-adv-x="599" 
d="M525 320q0 -58 -24 -106l63 -62l-103 -103l-62 62q-47 -22 -100 -22q-54 0 -100 22l-62 -62l-103 103l63 62q-24 48 -24 106q0 55 23 104l-62 62l103 103l61 -62q47 22 101 22t100 -22l62 62l103 -103l-62 -62q23 -49 23 -104zM299 237q38 0 59.5 24t21.5 58t-21.5 58
t-59.5 24t-59.5 -24t-21.5 -58t21.5 -58t59.5 -24z" />
    <glyph glyph-name="yen" unicode="&#xa5;" horiz-adv-x="687" 
d="M668 686l-181 -339h93v-96h-144l-1 -2v-27h145v-95h-145v-127h-182v127h-148v95h148v25l-2 4h-146v96h95l-181 339h191l134 -272l133 272h191z" />
    <glyph glyph-name="brokenbar" unicode="&#xa6;" horiz-adv-x="286" 
d="M63 337v373h160v-373h-160zM63 -184v373h160v-373h-160z" />
    <glyph glyph-name="section" unicode="&#xa7;" horiz-adv-x="566" 
d="M461 134q45 -43 45 -124q0 -83 -65 -131t-173 -48q-110 0 -174 50.5t-64 141.5h151q0 -33 22 -52t58 -19q71 0 71 47q0 24 -21.5 38.5t-54 20t-70.5 17t-70.5 27.5t-54 54t-21.5 95q0 87 70 140q-44 42 -44 124q0 83 64 131.5t169 48.5q102 0 164 -50.5t61 -138.5l-155 1
q-1 33 -18.5 50t-46.5 17q-30 0 -47 -13.5t-17 -36.5q0 -20 16 -32t42 -18t57 -12t62 -17.5t57 -30t42 -54.5t16 -86q0 -88 -71 -140zM214 260q0 -37 66 -54q39 1 58.5 17t19.5 40q0 23 -18 36t-52 21q-36 -1 -55 -18.5t-19 -41.5z" />
    <glyph glyph-name="dieresis" unicode="&#xa8;" horiz-adv-x="419" 
d="M120 726q40 0 64.5 -24t24.5 -63q0 -38 -24.5 -62t-64.5 -24t-65 24t-25 62t25 62.5t65 24.5zM338 726q40 0 64.5 -24t24.5 -63q0 -38 -24.5 -62t-64.5 -24t-65 24t-25 62t25 62.5t65 24.5z" />
    <glyph glyph-name="copyright" unicode="&#xa9;" horiz-adv-x="755" 
d="M378 -6q-154 0 -250.5 98.5t-96.5 250.5q1 151 97.5 249.5t249.5 99.5q153 0 249.5 -99t96.5 -250q1 -152 -96 -250.5t-250 -98.5zM378 65q118 0 194.5 79t76.5 199q1 119 -75.5 198.5t-195.5 79.5t-195.5 -79.5t-76.5 -198.5q1 -120 77.5 -199.5t194.5 -78.5zM390 261
q26 0 37 12t15 36h146q-7 -75 -57 -126.5t-147 -51.5q-93 0 -154.5 59t-61.5 152q0 94 61.5 154t154.5 60q97 0 147 -51.5t57 -127.5h-146q-9 49 -52 49q-60 0 -60 -84q0 -81 60 -81z" />
    <glyph glyph-name="ordfeminine" unicode="&#xaa;" horiz-adv-x="460" 
d="M225 695q93 0 141 -45t48 -125v-226h-136l-3 50q-31 -54 -114 -54q-63 0 -98 28.5t-35 78.5q0 130 221 130h20v8q0 47 -51 47q-18 0 -30.5 -9.5t-14.5 -24.5h-132q5 69 54.5 105.5t129.5 36.5zM208 400q61 0 61 40v22h-28q-70 0 -70 -35q0 -27 37 -27z" />
    <glyph glyph-name="guillemotleft" unicode="&#xab;" horiz-adv-x="555" 
d="M22 237v10l114 169h161l-121 -174l122 -175h-162zM246 237v10l114 169h161l-121 -174l122 -175h-162z" />
    <glyph glyph-name="registered" unicode="&#xae;" horiz-adv-x="581" 
d="M290 694q112 1 183.5 -72t71.5 -184t-71.5 -183.5t-183.5 -72.5q-113 0 -184 72.5t-71 183.5q0 110 71.5 182.5t183.5 73.5zM290 247q81 1 133.5 55t52.5 136t-52.5 136.5t-133.5 54.5q-82 0 -134.5 -54.5t-51.5 -136.5q1 -83 53 -137.5t133 -53.5zM380 394
q4 -8 12.5 -30.5t15.5 -36t16 -22.5h-93q-5 4 -32 68h-33v-68h-92v270h131q46 0 80 -23t34 -78t-39 -80zM305 499h-39v-54h39q22 0 22 26q0 28 -22 28z" />
    <glyph glyph-name="macron" unicode="&#xaf;" horiz-adv-x="442" 
d="M50 580v120h340v-120h-340z" />
    <glyph glyph-name="degree" unicode="&#xb0;" horiz-adv-x="335" 
d="M311 573q0 -63 -40.5 -102.5t-103.5 -39.5q-62 0 -103 39.5t-41 102.5q0 64 41 103t103 39q64 0 104 -39t40 -103zM221 573q0 24 -15.5 39t-38.5 15t-38.5 -15t-15.5 -39t15.5 -38.5t38.5 -14.5t38.5 14.5t15.5 38.5z" />
    <glyph glyph-name="plusminus" unicode="&#xb1;" horiz-adv-x="528" 
d="M346 509h136v-149h-136v-144h-164v144h-136v149h136v144h164v-144zM46 25v149h436v-149h-436z" />
    <glyph glyph-name="acute" unicode="&#xb4;" horiz-adv-x="324" 
d="M195 550h-142l39 187h203z" />
    <glyph glyph-name="paragraph" unicode="&#xb6;" horiz-adv-x="689" 
d="M463 -154v700h-49v-700h-150v398h-11q-104 0 -167 58.5t-63 156.5q0 105 63 166t167 61h360v-840h-150z" />
    <glyph glyph-name="periodcentered" unicode="&#xb7;" horiz-adv-x="277" 
d="M138 476q48 0 77.5 -28.5t30.5 -74.5q0 -45 -30 -74.5t-78 -29.5t-77.5 29.5t-29.5 74.5q0 46 29.5 74.5t77.5 28.5z" />
    <glyph glyph-name="cedilla" unicode="&#xb8;" horiz-adv-x="299" 
d="M84 -121q20 -13 53 -13q44 0 44 24q0 28 -82 28l25 104h77l-10 -48q39 -9 59 -32.5t20 -56.5q0 -48 -38.5 -76t-93.5 -28q-42 0 -74 15z" />
    <glyph glyph-name="ordmasculine" unicode="&#xba;" horiz-adv-x="464" 
d="M232 695q94 0 151.5 -55.5t57.5 -144.5q0 -88 -57.5 -144t-151.5 -56q-93 0 -151 56t-58 144q0 89 58 144.5t151 55.5zM232 573q-26 0 -41.5 -21t-15.5 -57q0 -34 15.5 -56t41.5 -22t41.5 21.5t15.5 56.5q0 36 -15 57t-42 21z" />
    <glyph glyph-name="guillemotright" unicode="&#xbb;" horiz-adv-x="555" 
d="M309 237l-114 -170h-162l122 175l-121 174h161l114 -169v-10zM533 237l-114 -170h-162l122 175l-121 174h161l114 -169v-10z" />
    <glyph glyph-name="onequarter" unicode="&#xbc;" horiz-adv-x="912" 
d="M37 401h77v142h-80v95q51 0 79 14t47 48h86v-299h59v-112h-268v112zM527 696h135l-311 -696h-137zM885 185v-113h-47v-72h-131v72h-188v109l147 230h172v-226h47zM652 186v-1h62v105h-2z" />
    <glyph glyph-name="onehalf" unicode="&#xbd;" horiz-adv-x="885" 
d="M34 401h77v142h-80v95q51 0 79 14t47 48h86v-299h59v-112h-268v112zM526 696h135l-311 -696h-137zM786 146l-37 -33h107v-113h-313v91l138 122q42 37 41 65q0 24 -23 24q-27 0 -27 -37h-132q-1 67 42.5 110t115.5 43t115 -40t43 -100q0 -69 -70 -132z" />
    <glyph glyph-name="threequarters" unicode="&#xbe;" horiz-adv-x="963" 
d="M594 696h135l-311 -696h-137zM366 392q2 -54 -43.5 -90t-127.5 -36q-74 0 -122 40t-48 99l131 -1q2 -23 40 -23q37 0 37 25q1 13 -8 18.5t-27 5.5h-37v91h22q39 0 39 28q0 25 -28 25q-29 0 -32 -37l-131 -1q0 70 44.5 111.5t116.5 41.5q70 0 116.5 -39.5t46.5 -96.5
q0 -46 -33 -76q44 -31 44 -85zM936 185v-113h-47v-72h-131v72h-188v109l147 230h172v-226h47zM703 186v-1h62l-1 105h-1z" />
    <glyph glyph-name="questiondown" unicode="&#xbf;" horiz-adv-x="499" 
d="M282 293q-48 1 -78 30t-30 74t30 74t78 29q47 1 77 -28.5t30 -75.5q0 -45 -29.5 -74t-77.5 -29zM304 2l173 1q0 -100 -59.5 -159.5t-164.5 -61.5q-103 -2 -166.5 52.5t-64.5 147.5q0 39 17.5 70.5t43 51.5t50.5 36.5t42.5 34t17.5 35.5v15h171v-30q0 -32 -17.5 -60
t-42 -47.5t-49 -36t-42 -35t-17.5 -36.5q2 -40 48 -40q60 0 60 62z" />
    <glyph glyph-name="Agrave" unicode="&#xc0;" horiz-adv-x="687" 
d="M423 733h-165l-110 145h224zM506 0l-38 127h-251l-38 -127h-182l238 686h216l238 -686h-183zM258 263h169l-84 280z" />
    <glyph glyph-name="Aacute" unicode="&#xc1;" horiz-adv-x="687" 
d="M525 878l-108 -145h-165l49 145h224zM506 0l-38 127h-251l-38 -127h-182l238 686h216l238 -686h-183zM258 263h169l-84 280z" />
    <glyph glyph-name="Acircumflex" unicode="&#xc2;" horiz-adv-x="687" 
d="M344 793l-61 -60h-122l99 145h168l99 -145h-121zM506 0l-38 127h-251l-38 -127h-182l238 686h216l238 -686h-183zM258 263h169l-84 280z" />
    <glyph glyph-name="Atilde" unicode="&#xc3;" horiz-adv-x="687" 
d="M289 776q-18 0 -28.5 -10t-10.5 -27h-112q0 158 131 158q37 0 79 -17.5t54 -17.5q15 0 24.5 10.5t9.5 26.5h112q0 -79 -32 -118.5t-88 -39.5q-42 0 -86 17.5t-53 17.5zM506 0l-38 127h-251l-38 -127h-182l238 686h216l238 -686h-183zM258 263h169l-84 280z" />
    <glyph glyph-name="Adieresis" unicode="&#xc4;" horiz-adv-x="687" 
d="M237 734q-40 0 -65 24t-25 62t25 62.5t65 24.5t64.5 -24t24.5 -63q0 -38 -24.5 -62t-64.5 -24zM455 734q-40 0 -65 24t-25 62t25 62.5t65 24.5t64.5 -24t24.5 -63q0 -38 -24.5 -62t-64.5 -24zM506 0l-38 127h-251l-38 -127h-182l238 686h216l238 -686h-183zM258 263h169
l-84 280z" />
    <glyph glyph-name="Aring" unicode="&#xc5;" horiz-adv-x="687" 
d="M344 718q-46 0 -78.5 29t-32.5 76t32.5 76t78.5 29t78 -29t32 -76t-32 -76t-78 -29zM344 854q-15 0 -23.5 -8.5t-8.5 -22.5t8.5 -23t23.5 -9q14 0 23 9t9 23t-9 22.5t-23 8.5zM506 0l-38 127h-251l-38 -127h-182l238 686h216l238 -686h-183zM258 263h169l-84 280z" />
    <glyph glyph-name="AE" unicode="&#xc6;" horiz-adv-x="1016" 
d="M654 158h322v-158h-504v127h-224l-69 -127h-196l382 686h606v-158h-317v-108h273v-150h-273v-112zM323 263h149v272h-1z" />
    <glyph glyph-name="Ccedilla" unicode="&#xc7;" horiz-adv-x="718" 
d="M372 151q67 0 101 32t42 82h178q-6 -55 -26 -101t-55.5 -83.5t-92 -60.5t-128.5 -26l-4 -18q39 -9 59 -32.5t20 -56.5q0 -48 -38.5 -76t-93.5 -28q-42 0 -74 15l20 83q20 -13 53 -13q44 0 44 24q0 28 -82 28l18 77q-125 17 -203 112.5t-78 234.5q0 156 93.5 253.5
t240.5 97.5q153 0 234 -75.5t93 -196.5h-178q-9 48 -44.5 81t-99.5 33q-68 0 -112 -52.5t-43 -140.5t44.5 -140.5t111.5 -52.5z" />
    <glyph glyph-name="Egrave" unicode="&#xc8;" horiz-adv-x="609" 
d="M393 733h-165l-110 145h224zM248 148h322v-148h-504v686h499v-148h-317v-122h273v-143h-273v-125z" />
    <glyph glyph-name="Eacute" unicode="&#xc9;" horiz-adv-x="609" 
d="M495 878l-108 -145h-165l49 145h224zM248 148h322v-148h-504v686h499v-148h-317v-122h273v-143h-273v-125z" />
    <glyph glyph-name="Ecircumflex" unicode="&#xca;" horiz-adv-x="609" 
d="M314 793l-61 -60h-122l99 145h168l99 -145h-121zM248 148h322v-148h-504v686h499v-148h-317v-122h273v-143h-273v-125z" />
    <glyph glyph-name="Edieresis" unicode="&#xcb;" horiz-adv-x="609" 
d="M207 734q-40 0 -65 24t-25 62t25 62.5t65 24.5t64.5 -24t24.5 -63q0 -38 -24.5 -62t-64.5 -24zM425 734q-40 0 -65 24t-25 62t25 62.5t65 24.5t64.5 -24t24.5 -63q0 -38 -24.5 -62t-64.5 -24zM248 148h322v-148h-504v686h499v-148h-317v-122h273v-143h-273v-125z" />
    <glyph glyph-name="Igrave" unicode="&#xcc;" horiz-adv-x="314" 
d="M72 733l-110 145h224l51 -145h-165zM66 0v686h182v-686h-182z" />
    <glyph glyph-name="Iacute" unicode="&#xcd;" horiz-adv-x="314" 
d="M231 733h-165l49 145h224zM66 0v686h182v-686h-182z" />
    <glyph glyph-name="Icircumflex" unicode="&#xce;" horiz-adv-x="314" 
d="M242 878l99 -145h-121l-62 60l-61 -60h-122l99 145h168zM66 0v686h182v-686h-182z" />
    <glyph glyph-name="Idieresis" unicode="&#xcf;" horiz-adv-x="314" 
d="M51 907q40 0 64.5 -24t24.5 -63q0 -38 -24.5 -62t-64.5 -24t-65 24t-25 62t25 62.5t65 24.5zM269 907q40 0 64.5 -24t24.5 -63q0 -38 -24.5 -62t-64.5 -24t-65 24t-25 62t25 62.5t65 24.5zM66 0v686h182v-686h-182z" />
    <glyph glyph-name="Eth" unicode="&#xd0;" horiz-adv-x="737" 
d="M359 686q156 0 251 -91.5t95 -250.5q0 -161 -94.5 -252.5t-251.5 -91.5h-281v294h-70v102h70v290h281zM359 146q74 0 118 49.5t44 148.5q0 98 -44.5 147t-117.5 49h-99v-144h122v-102h-122v-148h99z" />
    <glyph glyph-name="Ntilde" unicode="&#xd1;" horiz-adv-x="747" 
d="M319 776q-18 0 -28.5 -10t-10.5 -27h-112q0 158 131 158q37 0 79 -17.5t54 -17.5q15 0 24.5 10.5t9.5 26.5h112q0 -79 -32 -118.5t-88 -39.5q-42 0 -86 17.5t-53 17.5zM504 686h176v-686h-165l-273 418v-418h-176v686h165l273 -418v418z" />
    <glyph glyph-name="Ograve" unicode="&#xd2;" horiz-adv-x="766" 
d="M298 733l-110 145h224l51 -145h-165zM383 -7q-155 0 -253 96t-98 255t98 255t253 96t253 -96t98 -255t-98 -255t-253 -96zM383 150q73 0 120 52t47 142t-47.5 141.5t-119.5 51.5t-119.5 -51.5t-47.5 -141.5t47.5 -142t119.5 -52z" />
    <glyph glyph-name="Oacute" unicode="&#xd3;" horiz-adv-x="766" 
d="M457 733h-165l49 145h224zM383 -7q-155 0 -253 96t-98 255t98 255t253 96t253 -96t98 -255t-98 -255t-253 -96zM383 150q73 0 120 52t47 142t-47.5 141.5t-119.5 51.5t-119.5 -51.5t-47.5 -141.5t47.5 -142t119.5 -52z" />
    <glyph glyph-name="Ocircumflex" unicode="&#xd4;" horiz-adv-x="766" 
d="M468 878l99 -145h-121l-62 60l-61 -60h-122l99 145h168zM383 -7q-155 0 -253 96t-98 255t98 255t253 96t253 -96t98 -255t-98 -255t-253 -96zM383 150q73 0 120 52t47 142t-47.5 141.5t-119.5 51.5t-119.5 -51.5t-47.5 -141.5t47.5 -142t119.5 -52z" />
    <glyph glyph-name="Otilde" unicode="&#xd5;" horiz-adv-x="766" 
d="M329 776q-18 0 -28.5 -10t-10.5 -27h-112q0 158 131 158q37 0 79 -17.5t54 -17.5q15 0 24.5 10.5t9.5 26.5h112q0 -79 -32 -118.5t-88 -39.5q-42 0 -86 17.5t-53 17.5zM383 -7q-155 0 -253 96t-98 255t98 255t253 96t253 -96t98 -255t-98 -255t-253 -96zM383 150
q73 0 120 52t47 142t-47.5 141.5t-119.5 51.5t-119.5 -51.5t-47.5 -141.5t47.5 -142t119.5 -52z" />
    <glyph glyph-name="Odieresis" unicode="&#xd6;" horiz-adv-x="766" 
d="M277 907q40 0 64.5 -24t24.5 -63q0 -38 -24.5 -62t-64.5 -24t-65 24t-25 62t25 62.5t65 24.5zM495 907q40 0 64.5 -24t24.5 -63q0 -38 -24.5 -62t-64.5 -24t-65 24t-25 62t25 62.5t65 24.5zM383 -7q-155 0 -253 96t-98 255t98 255t253 96t253 -96t98 -255t-98 -255
t-253 -96zM383 150q73 0 120 52t47 142t-47.5 141.5t-119.5 51.5t-119.5 -51.5t-47.5 -141.5t47.5 -142t119.5 -52z" />
    <glyph glyph-name="multiply" unicode="&#xd7;" horiz-adv-x="510" 
d="M476 462l-116 -115l116 -116l-105 -105l-116 116l-116 -116l-105 105l116 116l-116 115l105 106l116 -116l116 116z" />
    <glyph glyph-name="Oslash" unicode="&#xd8;" horiz-adv-x="766" 
d="M627 608q107 -99 107 -264q0 -159 -98 -255t-253 -96q-69 0 -129 20l-37 -59h-136l72 114q-121 99 -121 276q0 159 98 255t253 96q80 0 146 -27l30 48h136zM216 344q0 -73 33 -123l192 306q-26 10 -58 10q-72 0 -119.5 -51.5t-47.5 -141.5zM383 150q73 0 120 52t47 142
q0 61 -23 105l-184 -294q22 -5 40 -5z" />
    <glyph glyph-name="Ugrave" unicode="&#xd9;" horiz-adv-x="722" 
d="M277 733l-110 145h224l51 -145h-165zM482 686h182v-407q0 -133 -81 -209.5t-221 -76.5q-142 0 -223 76t-81 210l1 407h182v-407q0 -63 31 -96t90 -33t89.5 33t30.5 96v407z" />
    <glyph glyph-name="Uacute" unicode="&#xda;" horiz-adv-x="722" 
d="M436 733h-165l49 145h224zM482 686h182v-407q0 -133 -81 -209.5t-221 -76.5q-142 0 -223 76t-81 210l1 407h182v-407q0 -63 31 -96t90 -33t89.5 33t30.5 96v407z" />
    <glyph glyph-name="Ucircumflex" unicode="&#xdb;" horiz-adv-x="722" 
d="M447 878l99 -145h-121l-62 60l-61 -60h-122l99 145h168zM482 686h182v-407q0 -133 -81 -209.5t-221 -76.5q-142 0 -223 76t-81 210l1 407h182v-407q0 -63 31 -96t90 -33t89.5 33t30.5 96v407z" />
    <glyph glyph-name="Udieresis" unicode="&#xdc;" horiz-adv-x="722" 
d="M256 907q40 0 64.5 -24t24.5 -63q0 -38 -24.5 -62t-64.5 -24t-65 24t-25 62t25 62.5t65 24.5zM474 907q40 0 64.5 -24t24.5 -63q0 -38 -24.5 -62t-64.5 -24t-65 24t-25 62t25 62.5t65 24.5zM482 686h182v-407q0 -133 -81 -209.5t-221 -76.5q-142 0 -223 76t-81 210l1 407
h182v-407q0 -63 31 -96t90 -33t89.5 33t30.5 96v407z" />
    <glyph glyph-name="Yacute" unicode="&#xdd;" horiz-adv-x="637" 
d="M501 878l-108 -145h-165l49 145h224zM643 686l-233 -437v-249h-182v247l-234 439h191l134 -272l133 272h191z" />
    <glyph glyph-name="Thorn" unicode="&#xde;" horiz-adv-x="664" 
d="M366 581q130 0 199.5 -60t69.5 -172q0 -113 -69.5 -172.5t-199.5 -59.5h-118v-117h-182v686h182v-105h118zM366 263q41 0 63 22.5t22 63.5q0 40 -22 63t-63 23h-118v-172h118z" />
    <glyph glyph-name="germandbls" unicode="&#xdf;" horiz-adv-x="598" 
d="M475 380q97 -53 97 -163q0 -99 -71 -158t-190 -59h-30v137h30q80 0 80 80q0 41 -21.5 62t-58.5 21h-20v136h3q57 0 57 70q0 72 -60 72t-60 -79v-499h-180v509q0 97 63.5 156.5t178.5 59.5t177 -59t62 -150q0 -81 -57 -136z" />
    <glyph glyph-name="agrave" unicode="&#xe0;" horiz-adv-x="561" 
d="M350 550h-142l-100 187h203zM545 143l9 -136q-36 -12 -83 -12q-90 0 -124 73h-10q-39 -73 -148 -73q-78 0 -122 35.5t-44 98.5q0 161 277 161h28v12q0 63 -69 63q-26 0 -43.5 -13t-20.5 -34h-158q7 86 68 131.5t162 45.5q115 0 174.5 -55.5t59.5 -154.5v-121
q0 -26 19 -26q10 0 25 5zM245 121q37 0 60 15t23 41v28h-38q-96 0 -96 -48q0 -36 51 -36z" />
    <glyph glyph-name="aacute" unicode="&#xe1;" horiz-adv-x="561" 
d="M442 737l-100 -187h-142l39 187h203zM545 143l9 -136q-36 -12 -83 -12q-90 0 -124 73h-10q-39 -73 -148 -73q-78 0 -122 35.5t-44 98.5q0 161 277 161h28v12q0 63 -69 63q-26 0 -43.5 -13t-20.5 -34h-158q7 86 68 131.5t162 45.5q115 0 174.5 -55.5t59.5 -154.5v-121
q0 -26 19 -26q10 0 25 5zM245 121q37 0 60 15t23 41v28h-38q-96 0 -96 -48q0 -36 51 -36z" />
    <glyph glyph-name="acircumflex" unicode="&#xe2;" horiz-adv-x="561" 
d="M277 638l-71 -87h-112l99 187h168l99 -187h-111zM545 143l9 -136q-36 -12 -83 -12q-90 0 -124 73h-10q-39 -73 -148 -73q-78 0 -122 35.5t-44 98.5q0 161 277 161h28v12q0 63 -69 63q-26 0 -43.5 -13t-20.5 -34h-158q7 86 68 131.5t162 45.5q115 0 174.5 -55.5
t59.5 -154.5v-121q0 -26 19 -26q10 0 25 5zM245 121q37 0 60 15t23 41v28h-38q-96 0 -96 -48q0 -36 51 -36z" />
    <glyph glyph-name="atilde" unicode="&#xe3;" horiz-adv-x="561" 
d="M210 605q-39 0 -39 -42h-112q0 163 126 163q42 0 84.5 -20t59.5 -20q39 0 39 42h112q0 -163 -125 -163q-40 0 -83.5 20t-61.5 20zM545 143l9 -136q-36 -12 -83 -12q-90 0 -124 73h-10q-39 -73 -148 -73q-78 0 -122 35.5t-44 98.5q0 161 277 161h28v12q0 63 -69 63
q-26 0 -43.5 -13t-20.5 -34h-158q7 86 68 131.5t162 45.5q115 0 174.5 -55.5t59.5 -154.5v-121q0 -26 19 -26q10 0 25 5zM245 121q37 0 60 15t23 41v28h-38q-96 0 -96 -48q0 -36 51 -36z" />
    <glyph glyph-name="adieresis" unicode="&#xe4;" horiz-adv-x="561" 
d="M171 553q-40 0 -65 24t-25 62t25 62.5t65 24.5t64.5 -24t24.5 -63q0 -38 -24.5 -62t-64.5 -24zM389 553q-40 0 -65 24t-25 62t25 62.5t65 24.5t64.5 -24t24.5 -63q0 -38 -24.5 -62t-64.5 -24zM545 143l9 -136q-36 -12 -83 -12q-90 0 -124 73h-10q-39 -73 -148 -73
q-78 0 -122 35.5t-44 98.5q0 161 277 161h28v12q0 63 -69 63q-26 0 -43.5 -13t-20.5 -34h-158q7 86 68 131.5t162 45.5q115 0 174.5 -55.5t59.5 -154.5v-121q0 -26 19 -26q10 0 25 5zM245 121q37 0 60 15t23 41v28h-38q-96 0 -96 -48q0 -36 51 -36z" />
    <glyph glyph-name="aring" unicode="&#xe5;" horiz-adv-x="561" 
d="M277 537q-46 0 -78.5 29t-32.5 76t32.5 76t78.5 29t78 -29t32 -76t-32 -76t-78 -29zM277 673q-15 0 -23.5 -8.5t-8.5 -22.5t8.5 -23t23.5 -9q14 0 23 9t9 23t-9 22.5t-23 8.5zM545 143l9 -136q-36 -12 -83 -12q-90 0 -124 73h-10q-39 -73 -148 -73q-78 0 -122 35.5
t-44 98.5q0 161 277 161h28v12q0 63 -69 63q-26 0 -43.5 -13t-20.5 -34h-158q7 86 68 131.5t162 45.5q115 0 174.5 -55.5t59.5 -154.5v-121q0 -26 19 -26q10 0 25 5zM245 121q37 0 60 15t23 41v28h-38q-96 0 -96 -48q0 -36 51 -36z" />
    <glyph glyph-name="ae" unicode="&#xe6;" horiz-adv-x="851" 
d="M823 239v-30h-328q16 -78 93 -78q57 0 73 38h162q-12 -72 -69.5 -123t-169.5 -51q-119 0 -192 79q-74 -79 -203 -79q-78 0 -122 35.5t-44 98.5q0 161 277 161h28v12q0 63 -69 63q-25 0 -42 -13t-20 -34h-158q7 85 68 131t160 46q102 0 162 -47q66 47 154 47
q116 0 178 -72t62 -184zM583 369q-71 0 -87 -69h165q-11 69 -78 69zM245 121q37 0 64 14.5t28 38.5q-5 15 -6 31h-41q-96 0 -96 -48q0 -36 51 -36z" />
    <glyph glyph-name="ccedilla" unicode="&#xe7;" horiz-adv-x="540" 
d="M286 141q56 0 66 61h165q-7 -83 -60 -141.5t-154 -64.5l-5 -22q39 -9 59 -32.5t20 -56.5q0 -48 -38.5 -76t-93.5 -28q-42 0 -74 15l20 83q19 -13 53 -13q44 0 44 24q0 28 -82 28l20 82q-89 17 -144 83t-55 161q0 111 71.5 181t180.5 70q112 0 171 -59.5t67 -148.5h-165
q-11 62 -66 62q-35 0 -56 -26t-21 -79q0 -52 21.5 -77.5t55.5 -25.5z" />
    <glyph glyph-name="egrave" unicode="&#xe8;" horiz-adv-x="550" 
d="M352 550h-142l-100 187h203zM522 239v-30h-324q15 -78 91 -78q55 0 71 38h162q-12 -72 -72.5 -123t-172.5 -51q-110 0 -180 69.5t-70 179.5q0 111 72.5 181t182.5 70q116 0 178 -72t62 -184zM284 369q-69 0 -85 -69h161q-11 69 -76 69z" />
    <glyph glyph-name="eacute" unicode="&#xe9;" horiz-adv-x="550" 
d="M444 737l-100 -187h-142l39 187h203zM522 239v-30h-324q15 -78 91 -78q55 0 71 38h162q-12 -72 -72.5 -123t-172.5 -51q-110 0 -180 69.5t-70 179.5q0 111 72.5 181t182.5 70q116 0 178 -72t62 -184zM284 369q-69 0 -85 -69h161q-11 69 -76 69z" />
    <glyph glyph-name="ecircumflex" unicode="&#xea;" horiz-adv-x="550" 
d="M279 638l-71 -87h-112l99 187h168l99 -187h-111zM522 239v-30h-324q15 -78 91 -78q55 0 71 38h162q-12 -72 -72.5 -123t-172.5 -51q-110 0 -180 69.5t-70 179.5q0 111 72.5 181t182.5 70q116 0 178 -72t62 -184zM284 369q-69 0 -85 -69h161q-11 69 -76 69z" />
    <glyph glyph-name="edieresis" unicode="&#xeb;" horiz-adv-x="550" 
d="M173 553q-40 0 -65 24t-25 62t25 62.5t65 24.5t64.5 -24t24.5 -63q0 -38 -24.5 -62t-64.5 -24zM391 553q-40 0 -65 24t-25 62t25 62.5t65 24.5t64.5 -24t24.5 -63q0 -38 -24.5 -62t-64.5 -24zM522 239v-30h-324q15 -78 91 -78q55 0 71 38h162q-12 -72 -72.5 -123
t-172.5 -51q-110 0 -180 69.5t-70 179.5q0 111 72.5 181t182.5 70q116 0 178 -72t62 -184zM284 369q-69 0 -85 -69h161q-11 69 -76 69z" />
    <glyph glyph-name="igrave" unicode="&#xec;" horiz-adv-x="282" 
d="M62 549l-100 187h203l39 -187h-142zM51 0v490h180v-490h-180z" />
    <glyph glyph-name="iacute" unicode="&#xed;" horiz-adv-x="282" 
d="M195 549h-142l39 187h203zM51 0v490h180v-490h-180z" />
    <glyph glyph-name="icircumflex" unicode="&#xee;" horiz-adv-x="282" 
d="M-42 550l99 187h168l99 -187h-111l-72 87l-71 -87h-112zM51 0v490h180v-490h-180z" />
    <glyph glyph-name="idieresis" unicode="&#xef;" horiz-adv-x="282" 
d="M35 725q40 0 64.5 -24t24.5 -63q0 -38 -24.5 -62t-64.5 -24t-65 24t-25 62t25 62.5t65 24.5zM253 725q40 0 64.5 -24t24.5 -63q0 -38 -24.5 -62t-64.5 -24t-65 24t-25 62t25 62.5t65 24.5zM51 0v490h180v-490h-180z" />
    <glyph glyph-name="eth" unicode="&#xf0;" horiz-adv-x="576" 
d="M383 635q76 -56 119 -145.5t43 -201.5q0 -132 -66.5 -212.5t-197.5 -80.5q-114 0 -184.5 69.5t-70.5 164.5q0 107 70.5 174t167.5 67q73 0 108 -32q-24 68 -92 109l-82 -70l-60 73l40 34q-35 6 -73 6l50 121q77 -3 140 -28l59 51l60 -72zM285 141q34 0 56 25.5t23 67.5
q0 43 -22 68t-54 25q-37 0 -58.5 -26t-21.5 -68q0 -40 22 -66t55 -26z" />
    <glyph glyph-name="ntilde" unicode="&#xf1;" horiz-adv-x="591" 
d="M230 605q-39 0 -39 -42h-112q0 163 126 163q42 0 84.5 -20t59.5 -20q39 0 39 42h112q0 -163 -125 -163q-40 0 -83.5 20t-61.5 20zM379 495q81 0 123.5 -54t42.5 -135v-306h-180v262q0 35 -16.5 55.5t-48.5 20.5q-31 0 -50 -21t-19 -52v-265h-180v490h175l5 -71
q43 76 148 76z" />
    <glyph glyph-name="ograve" unicode="&#xf2;" horiz-adv-x="574" 
d="M218 549l-100 187h203l39 -187h-142zM287 495q117 0 188.5 -68.5t71.5 -179.5q0 -110 -72 -181t-188 -71t-188 69.5t-72 178.5q0 111 72 181.5t188 70.5zM287 349q-36 0 -57 -28t-21 -76q0 -46 21 -75t57 -29t57 28.5t21 75.5q0 48 -20.5 76t-57.5 28z" />
    <glyph glyph-name="oacute" unicode="&#xf3;" horiz-adv-x="574" 
d="M352 549h-142l39 187h203zM287 495q117 0 188.5 -68.5t71.5 -179.5q0 -110 -72 -181t-188 -71t-188 69.5t-72 178.5q0 111 72 181.5t188 70.5zM287 349q-36 0 -57 -28t-21 -76q0 -46 21 -75t57 -29t57 28.5t21 75.5q0 48 -20.5 76t-57.5 28z" />
    <glyph glyph-name="ocircumflex" unicode="&#xf4;" horiz-adv-x="574" 
d="M104 550l99 187h168l99 -187h-111l-72 87l-71 -87h-112zM287 495q117 0 188.5 -68.5t71.5 -179.5q0 -110 -72 -181t-188 -71t-188 69.5t-72 178.5q0 111 72 181.5t188 70.5zM287 349q-36 0 -57 -28t-21 -76q0 -46 21 -75t57 -29t57 28.5t21 75.5q0 48 -20.5 76t-57.5 28z
" />
    <glyph glyph-name="otilde" unicode="&#xf5;" horiz-adv-x="574" 
d="M220 604q-39 0 -39 -42h-112q0 163 126 163q42 0 84.5 -20t59.5 -20q39 0 39 42h112q0 -163 -125 -163q-40 0 -83.5 20t-61.5 20zM287 495q117 0 188.5 -68.5t71.5 -179.5q0 -110 -72 -181t-188 -71t-188 69.5t-72 178.5q0 111 72 181.5t188 70.5zM287 349q-36 0 -57 -28
t-21 -76q0 -46 21 -75t57 -29t57 28.5t21 75.5q0 48 -20.5 76t-57.5 28z" />
    <glyph glyph-name="odieresis" unicode="&#xf6;" horiz-adv-x="574" 
d="M181 725q40 0 64.5 -24t24.5 -63q0 -38 -24.5 -62t-64.5 -24t-65 24t-25 62t25 62.5t65 24.5zM399 725q40 0 64.5 -24t24.5 -63q0 -38 -24.5 -62t-64.5 -24t-65 24t-25 62t25 62.5t65 24.5zM287 495q117 0 188.5 -68.5t71.5 -179.5q0 -110 -72 -181t-188 -71t-188 69.5
t-72 178.5q0 111 72 181.5t188 70.5zM287 349q-36 0 -57 -28t-21 -76q0 -46 21 -75t57 -29t57 28.5t21 75.5q0 48 -20.5 76t-57.5 28z" />
    <glyph glyph-name="divide" unicode="&#xf7;" horiz-adv-x="492" 
d="M245 616q39 0 62 -22.5t24 -59.5q0 -36 -23.5 -59.5t-62.5 -23.5q-38 0 -62 23.5t-24 59.5q0 37 24 59.5t62 22.5zM28 272v149h436v-149h-436zM248 242q39 0 62 -22.5t24 -59.5q0 -36 -23.5 -59.5t-62.5 -23.5q-38 0 -62 23.5t-24 59.5q0 37 24 59.5t62 22.5z" />
    <glyph glyph-name="oslash" unicode="&#xf8;" horiz-adv-x="574" 
d="M456 443q91 -69 91 -196q0 -110 -72 -181t-188 -71q-57 0 -104 18l-28 -45h-90l52 81q-90 69 -90 194q0 111 72 181.5t188 70.5q56 0 104 -17l22 35h88zM209 245q0 -23 6 -43l92 145q-12 2 -20 2q-36 0 -57 -28t-21 -76zM287 141q36 0 57 28.5t21 75.5q0 25 -6 45
l-92 -146q9 -3 20 -3z" />
    <glyph glyph-name="ugrave" unicode="&#xf9;" horiz-adv-x="579" 
d="M360 550h-142l-100 187h203zM348 490h180v-490h-175l-5 72q-43 -77 -137 -77q-83 0 -124 52.5t-41 131.5v311h180v-262q0 -34 16 -55t46 -21q25 0 42.5 21.5t17.5 51.5v265z" />
    <glyph glyph-name="uacute" unicode="&#xfa;" horiz-adv-x="579" 
d="M452 737l-100 -187h-142l39 187h203zM348 490h180v-490h-175l-5 72q-43 -77 -137 -77q-83 0 -124 52.5t-41 131.5v311h180v-262q0 -34 16 -55t46 -21q25 0 42.5 21.5t17.5 51.5v265z" />
    <glyph glyph-name="ucircumflex" unicode="&#xfb;" horiz-adv-x="579" 
d="M287 638l-71 -87h-112l99 187h168l99 -187h-111zM348 490h180v-490h-175l-5 72q-43 -77 -137 -77q-83 0 -124 52.5t-41 131.5v311h180v-262q0 -34 16 -55t46 -21q25 0 42.5 21.5t17.5 51.5v265z" />
    <glyph glyph-name="udieresis" unicode="&#xfc;" horiz-adv-x="579" 
d="M181 553q-40 0 -65 24t-25 62t25 62.5t65 24.5t64.5 -24t24.5 -63q0 -38 -24.5 -62t-64.5 -24zM399 553q-40 0 -65 24t-25 62t25 62.5t65 24.5t64.5 -24t24.5 -63q0 -38 -24.5 -62t-64.5 -24zM348 490h180v-490h-175l-5 72q-43 -77 -137 -77q-83 0 -124 52.5t-41 131.5
v311h180v-262q0 -34 16 -55t46 -21q25 0 42.5 21.5t17.5 51.5v265z" />
    <glyph glyph-name="yacute" unicode="&#xfd;" horiz-adv-x="537" 
d="M432 737l-100 -187h-142l39 187h203zM356 490h181l-172 -490l-2 -6q-39 -109 -90.5 -156t-147.5 -47q-49 0 -87 9l9 145q22 -9 47 -9q34 0 58 14t28 42v7l-180 491h190l71 -269q2 -8 11 -60h4q6 45 10 60z" />
    <glyph glyph-name="thorn" unicode="&#xfe;" horiz-adv-x="602" 
d="M370 495q90 0 147 -62.5t57 -178.5t-56.5 -187.5t-152.5 -71.5q-92 0 -135 72v-271h-180l1 695v219h177v-282q46 67 142 67zM312 146q35 0 57.5 27t22.5 73q0 45 -22 71.5t-58 26.5q-35 0 -58.5 -24t-23.5 -56v-39q0 -34 24.5 -56.5t57.5 -22.5z" />
    <glyph glyph-name="ydieresis" unicode="&#xff;" horiz-adv-x="537" 
d="M161 553q-40 0 -65 24t-25 62t25 62.5t65 24.5t64.5 -24t24.5 -63q0 -38 -24.5 -62t-64.5 -24zM379 553q-40 0 -65 24t-25 62t25 62.5t65 24.5t64.5 -24t24.5 -63q0 -38 -24.5 -62t-64.5 -24zM356 490h181l-172 -490l-2 -6q-39 -109 -90.5 -156t-147.5 -47q-49 0 -87 9
l9 145q22 -9 47 -9q34 0 58 14t28 42v7l-180 491h190l71 -269q2 -8 11 -60h4q6 45 10 60z" />
    <glyph glyph-name="Amacron" unicode="&#x100;" horiz-adv-x="687" 
d="M516 868v-120h-340v120h340zM506 0l-38 127h-251l-38 -127h-182l238 686h216l238 -686h-183zM258 263h169l-84 280z" />
    <glyph glyph-name="amacron" unicode="&#x101;" horiz-adv-x="561" 
d="M450 700v-120h-340v120h340zM545 143l9 -136q-36 -12 -83 -12q-90 0 -124 73h-10q-39 -73 -148 -73q-78 0 -122 35.5t-44 98.5q0 161 277 161h28v12q0 63 -69 63q-26 0 -43.5 -13t-20.5 -34h-158q7 86 68 131.5t162 45.5q115 0 174.5 -55.5t59.5 -154.5v-121
q0 -26 19 -26q10 0 25 5zM245 121q37 0 60 15t23 41v28h-38q-96 0 -96 -48q0 -36 51 -36z" />
    <glyph glyph-name="Abreve" unicode="&#x102;" horiz-adv-x="687" 
d="M344 730q-75 0 -124 43.5t-49 104.5h123q0 -19 13 -32.5t36 -13.5t35 13t12 33h125q0 -61 -48.5 -104.5t-122.5 -43.5zM506 0l-38 127h-251l-38 -127h-182l238 686h216l238 -686h-183zM258 263h169l-84 280z" />
    <glyph glyph-name="abreve" unicode="&#x103;" horiz-adv-x="561" 
d="M277 547q-78 0 -125.5 50t-47.5 138h125q0 -39 11 -55t36 -16t35 16t10 55h127q0 -88 -47 -138t-124 -50zM545 143l9 -136q-36 -12 -83 -12q-90 0 -124 73h-10q-39 -73 -148 -73q-78 0 -122 35.5t-44 98.5q0 161 277 161h28v12q0 63 -69 63q-26 0 -43.5 -13t-20.5 -34
h-158q7 86 68 131.5t162 45.5q115 0 174.5 -55.5t59.5 -154.5v-121q0 -26 19 -26q10 0 25 5zM245 121q37 0 60 15t23 41v28h-38q-96 0 -96 -48q0 -36 51 -36z" />
    <glyph glyph-name="Aogonek" unicode="&#x104;" horiz-adv-x="687" 
d="M712 -110l41 -68q-38 -45 -112 -45q-55 0 -87 29.5t-32 80.5q0 66 53 113h-69l-38 127h-251l-38 -127h-182l238 686h216l238 -686q-8 -4 -19.5 -10.5t-31 -30t-19.5 -49.5q0 -41 40 -41q32 0 53 21zM258 263h169l-84 280z" />
    <glyph glyph-name="aogonek" unicode="&#x105;" horiz-adv-x="561" 
d="M577 -103l41 -68q-38 -45 -112 -45q-55 0 -87 29.5t-32 80.5q0 60 45 105q-60 15 -85 69h-10q-39 -73 -148 -73q-78 0 -122 35.5t-44 98.5q0 161 277 161h28v12q0 63 -69 63q-26 0 -43.5 -13t-20.5 -34h-158q7 86 68 131.5t162 45.5q115 0 174.5 -55.5t59.5 -154.5v-121
q0 -26 19 -26q10 0 25 5l9 -136q-8 -4 -19.5 -10.5t-31 -30t-19.5 -49.5q0 -41 40 -41q32 0 53 21zM245 121q37 0 60 15t23 41v28h-38q-96 0 -96 -48q0 -36 51 -36z" />
    <glyph glyph-name="Cacute" unicode="&#x106;" horiz-adv-x="718" 
d="M440 732h-165l49 145h224zM372 151q67 0 101 32t42 82h178q-13 -120 -93.5 -196t-233.5 -76q-146 0 -240 98.5t-94 252.5q0 156 93.5 253.5t240.5 97.5q153 0 234 -75.5t93 -196.5h-178q-9 48 -44.5 81t-99.5 33q-68 0 -112 -52.5t-43 -140.5t44.5 -140.5t111.5 -52.5z
" />
    <glyph glyph-name="cacute" unicode="&#x107;" horiz-adv-x="540" 
d="M346 550h-142l39 187h203zM279 -5q-109 0 -180.5 70t-71.5 179q0 111 71.5 181t180.5 70q112 0 171 -59.5t67 -148.5h-165q-11 62 -66 62q-35 0 -56 -26t-21 -79q0 -52 21.5 -77.5t55.5 -25.5q56 0 66 61h165q-8 -88 -67 -147.5t-171 -59.5z" />
    <glyph glyph-name="Ccircumflex" unicode="&#x108;" horiz-adv-x="718" 
d="M451 877l99 -145h-121l-62 60l-61 -60h-122l99 145h168zM372 151q67 0 101 32t42 82h178q-13 -120 -93.5 -196t-233.5 -76q-146 0 -240 98.5t-94 252.5q0 156 93.5 253.5t240.5 97.5q153 0 234 -75.5t93 -196.5h-178q-9 48 -44.5 81t-99.5 33q-68 0 -112 -52.5
t-43 -140.5t44.5 -140.5t111.5 -52.5z" />
    <glyph glyph-name="ccircumflex" unicode="&#x109;" horiz-adv-x="540" 
d="M98 551l99 187h168l99 -187h-111l-72 87l-71 -87h-112zM279 -5q-109 0 -180.5 70t-71.5 179q0 111 71.5 181t180.5 70q112 0 171 -59.5t67 -148.5h-165q-11 62 -66 62q-35 0 -56 -26t-21 -79q0 -52 21.5 -77.5t55.5 -25.5q56 0 66 61h165q-8 -88 -67 -147.5t-171 -59.5z
" />
    <glyph glyph-name="Cdotaccent" unicode="&#x10a;" horiz-adv-x="718" 
d="M366 932q48 0 77.5 -29t29.5 -75q0 -45 -29.5 -74t-77.5 -29t-78 29t-30 74q0 46 30 75t78 29zM372 151q67 0 101 32t42 82h178q-13 -120 -93.5 -196t-233.5 -76q-146 0 -240 98.5t-94 252.5q0 156 93.5 253.5t240.5 97.5q153 0 234 -75.5t93 -196.5h-178q-9 48 -44.5 81
t-99.5 33q-68 0 -112 -52.5t-43 -140.5t44.5 -140.5t111.5 -52.5z" />
    <glyph glyph-name="cdotaccent" unicode="&#x10b;" horiz-adv-x="540" 
d="M283 751q48 0 77.5 -29t29.5 -75q0 -45 -29.5 -74t-77.5 -29t-78 29t-30 74q0 46 30 75t78 29zM279 -5q-109 0 -180.5 70t-71.5 179q0 111 71.5 181t180.5 70q112 0 171 -59.5t67 -148.5h-165q-11 62 -66 62q-35 0 -56 -26t-21 -79q0 -52 21.5 -77.5t55.5 -25.5
q56 0 66 61h165q-8 -88 -67 -147.5t-171 -59.5z" />
    <glyph glyph-name="Ccaron" unicode="&#x10c;" horiz-adv-x="718" 
d="M451 732h-168l-99 145h122l61 -60l62 60h121zM372 151q67 0 101 32t42 82h178q-13 -120 -93.5 -196t-233.5 -76q-146 0 -240 98.5t-94 252.5q0 156 93.5 253.5t240.5 97.5q153 0 234 -75.5t93 -196.5h-178q-9 48 -44.5 81t-99.5 33q-68 0 -112 -52.5t-43 -140.5
t44.5 -140.5t111.5 -52.5z" />
    <glyph glyph-name="ccaron" unicode="&#x10d;" horiz-adv-x="540" 
d="M98 738h112l71 -87l72 87h111l-99 -187h-168zM279 -5q-109 0 -180.5 70t-71.5 179q0 111 71.5 181t180.5 70q112 0 171 -59.5t67 -148.5h-165q-11 62 -66 62q-35 0 -56 -26t-21 -79q0 -52 21.5 -77.5t55.5 -25.5q56 0 66 61h165q-8 -88 -67 -147.5t-171 -59.5z" />
    <glyph glyph-name="Dcaron" unicode="&#x10e;" horiz-adv-x="725" 
d="M424 733h-168l-99 145h122l61 -60l62 60h121zM347 686q156 0 251 -91.5t95 -250.5q0 -161 -94.5 -252.5t-251.5 -91.5h-281v686h281zM347 146q74 0 118 49.5t44 148.5q0 98 -44.5 147t-117.5 49h-99v-394h99z" />
    <glyph glyph-name="dcaron" unicode="&#x10f;" horiz-adv-x="669" 
d="M666 738q79 0 79 -105q0 -81 -44 -131t-100 -50v65q23 0 43 19t20 48q-36 0 -57 21t-21 55q0 35 22.5 56.5t57.5 21.5zM371 440v270h180v-710h-174l-3 71q-41 -76 -140 -76q-93 0 -149.5 70t-56.5 177q0 119 63.5 186t151.5 67q90 0 128 -55zM290 146q32 0 56.5 22.5
t24.5 56.5v39q0 32 -23.5 56t-57.5 24q-35 0 -57.5 -28t-22.5 -74q0 -43 23 -69.5t57 -26.5z" />
    <glyph glyph-name="Dcroat" unicode="&#x110;" horiz-adv-x="745" 
d="M367 686q156 0 251 -91.5t95 -250.5q0 -161 -94.5 -252.5t-251.5 -91.5h-281v294h-79v102h79v290h281zM367 146q74 0 118 49.5t44 148.5q0 98 -44.5 147t-117.5 49h-99v-144h136v-102h-136v-148h99z" />
    <glyph glyph-name="dcroat" unicode="&#x111;" horiz-adv-x="602" 
d="M615 640v-92h-64v-548h-174l-3 63q-44 -68 -140 -68q-91 0 -148.5 64.5t-57.5 179.5q0 114 57 185t156 71q91 0 130 -65v118h-120v92h120v70h180v-70h64zM290 146q35 0 58 24t23 56v39q0 34 -24 56.5t-57 22.5q-35 0 -57.5 -27t-22.5 -73q0 -45 22 -71.5t58 -26.5z" />
    <glyph glyph-name="Emacron" unicode="&#x112;" horiz-adv-x="609" 
d="M486 868v-120h-340v120h340zM248 148h322v-148h-504v686h499v-148h-317v-122h273v-143h-273v-125z" />
    <glyph glyph-name="emacron" unicode="&#x113;" horiz-adv-x="550" 
d="M452 700v-120h-340v120h340zM522 239v-30h-324q15 -78 91 -78q55 0 71 38h162q-12 -72 -72.5 -123t-172.5 -51q-110 0 -180 69.5t-70 179.5q0 111 72.5 181t182.5 70q116 0 178 -72t62 -184zM284 369q-69 0 -85 -69h161q-11 69 -76 69z" />
    <glyph glyph-name="Ebreve" unicode="&#x114;" horiz-adv-x="609" 
d="M314 730q-75 0 -124 43.5t-49 104.5h123q0 -19 13 -32.5t36 -13.5t35 13t12 33h125q0 -61 -48.5 -104.5t-122.5 -43.5zM248 148h322v-148h-504v686h499v-148h-317v-122h273v-143h-273v-125z" />
    <glyph glyph-name="ebreve" unicode="&#x115;" horiz-adv-x="550" 
d="M279 547q-78 0 -125.5 50t-47.5 138h125q0 -39 11 -55t36 -16t35 16t10 55h127q0 -88 -47 -138t-124 -50zM522 239v-30h-324q15 -78 91 -78q55 0 71 38h162q-12 -72 -72.5 -123t-172.5 -51q-110 0 -180 69.5t-70 179.5q0 111 72.5 181t182.5 70q116 0 178 -72t62 -184z
M284 369q-69 0 -85 -69h161q-11 69 -76 69z" />
    <glyph glyph-name="Edotaccent" unicode="&#x116;" horiz-adv-x="609" 
d="M313 726q-48 0 -78 29t-30 74q0 46 30 75t78 29t77.5 -29t29.5 -75q0 -45 -29.5 -74t-77.5 -29zM248 148h322v-148h-504v686h499v-148h-317v-122h273v-143h-273v-125z" />
    <glyph glyph-name="edotaccent" unicode="&#x117;" horiz-adv-x="550" 
d="M281 544q-48 0 -78 29t-30 74q0 46 30 75t78 29t77.5 -29t29.5 -75q0 -45 -29.5 -74t-77.5 -29zM522 239v-30h-324q15 -78 91 -78q55 0 71 38h162q-12 -72 -72.5 -123t-172.5 -51q-110 0 -180 69.5t-70 179.5q0 111 72.5 181t182.5 70q116 0 178 -72t62 -184zM284 369
q-69 0 -85 -69h161q-11 69 -76 69z" />
    <glyph glyph-name="Eogonek" unicode="&#x118;" horiz-adv-x="609" 
d="M593 -110l41 -68q-38 -45 -112 -45q-55 0 -87 29.5t-32 80.5q0 66 53 113h-390v686h499v-148h-317v-122h273v-143h-273v-125h322v-148q-8 -4 -19.5 -10.5t-31 -30t-19.5 -49.5q0 -41 40 -41q32 0 53 21z" />
    <glyph glyph-name="eogonek" unicode="&#x119;" horiz-adv-x="550" 
d="M522 239v-30h-324q15 -78 91 -78q55 0 71 38h162q-14 -87 -90 -135l2 -1q-8 -4 -19.5 -10.5t-31 -30t-19.5 -49.5q0 -41 40 -41q32 0 53 21l41 -68q-38 -45 -112 -45q-55 0 -87 29.5t-32 80.5q0 40 21 75h-11q-110 0 -180 69.5t-70 179.5q0 111 72.5 181t182.5 70
q116 0 178 -72t62 -184zM284 369q-69 0 -85 -69h161q-11 69 -76 69z" />
    <glyph glyph-name="Ecaron" unicode="&#x11a;" horiz-adv-x="609" 
d="M398 733h-168l-99 145h122l61 -60l62 60h121zM248 148h322v-148h-504v686h499v-148h-317v-122h273v-143h-273v-125z" />
    <glyph glyph-name="ecaron" unicode="&#x11b;" horiz-adv-x="550" 
d="M363 551h-168l-99 187h112l71 -87l72 87h111zM522 239v-30h-324q15 -78 91 -78q55 0 71 38h162q-12 -72 -72.5 -123t-172.5 -51q-110 0 -180 69.5t-70 179.5q0 111 72.5 181t182.5 70q116 0 178 -72t62 -184zM284 369q-69 0 -85 -69h161q-11 69 -76 69z" />
    <glyph glyph-name="Gcircumflex" unicode="&#x11c;" horiz-adv-x="748" 
d="M372 793l-61 -60h-122l99 145h168l99 -145h-121zM391 363h311v-363h-127v88q-69 -95 -213 -95q-150 0 -240 96.5t-90 253.5q0 159 94 255.5t255 96.5q139 0 220 -72t92 -189h-177q-10 44 -43.5 73.5t-92.5 29.5q-76 0 -120 -51t-44 -145q0 -89 42 -139.5t120 -50.5
q50 0 86 21.5t52 57.5h-125v133z" />
    <glyph glyph-name="gcircumflex" unicode="&#x11d;" horiz-adv-x="602" 
d="M320 637l-71 -87h-112l99 187h168l99 -187h-111zM376 490h175v-481q0 -95 -71.5 -159t-193.5 -64q-104 0 -169 41.5t-72 125.5h165q9 -37 78 -37q38 0 60.5 23.5t22.5 59.5v69q-43 -71 -137 -71q-93 0 -149.5 69.5t-56.5 176.5q0 119 64 185.5t151 66.5q89 0 130 -57z
M290 148q32 0 56.5 22.5t24.5 56.5v37q0 32 -23.5 56t-57.5 24t-57 -27.5t-23 -73.5q0 -42 23 -68.5t57 -26.5z" />
    <glyph glyph-name="Gbreve" unicode="&#x11e;" horiz-adv-x="748" 
d="M372 730q-75 0 -124 43.5t-49 104.5h123q0 -19 13 -32.5t36 -13.5t35 13t12 33h125q0 -61 -48.5 -104.5t-122.5 -43.5zM391 363h311v-363h-127v88q-69 -95 -213 -95q-150 0 -240 96.5t-90 253.5q0 159 94 255.5t255 96.5q139 0 220 -72t92 -189h-177q-10 44 -43.5 73.5
t-92.5 29.5q-76 0 -120 -51t-44 -145q0 -89 42 -139.5t120 -50.5q50 0 86 21.5t52 57.5h-125v133z" />
    <glyph glyph-name="gbreve" unicode="&#x11f;" horiz-adv-x="602" 
d="M320 546q-78 0 -125.5 50t-47.5 138h125q0 -39 11 -55t36 -16t35 16t10 55h127q0 -88 -47 -138t-124 -50zM376 490h175v-481q0 -95 -71.5 -159t-193.5 -64q-104 0 -169 41.5t-72 125.5h165q9 -37 78 -37q38 0 60.5 23.5t22.5 59.5v69q-43 -71 -137 -71q-93 0 -149.5 69.5
t-56.5 176.5q0 119 64 185.5t151 66.5q89 0 130 -57zM290 148q32 0 56.5 22.5t24.5 56.5v37q0 32 -23.5 56t-57.5 24t-57 -27.5t-23 -73.5q0 -42 23 -68.5t57 -26.5z" />
    <glyph glyph-name="Gdotaccent" unicode="&#x120;" horiz-adv-x="748" 
d="M371 726q-48 0 -78 29t-30 74q0 46 30 75t78 29t77.5 -29t29.5 -75q0 -45 -29.5 -74t-77.5 -29zM391 363h311v-363h-127v88q-69 -95 -213 -95q-150 0 -240 96.5t-90 253.5q0 159 94 255.5t255 96.5q139 0 220 -72t92 -189h-177q-10 44 -43.5 73.5t-92.5 29.5
q-76 0 -120 -51t-44 -145q0 -89 42 -139.5t120 -50.5q50 0 86 21.5t52 57.5h-125v133z" />
    <glyph glyph-name="gdotaccent" unicode="&#x121;" horiz-adv-x="602" 
d="M322 543q-48 0 -78 29t-30 74q0 46 30 75t78 29t77.5 -29t29.5 -75q0 -45 -29.5 -74t-77.5 -29zM376 490h175v-481q0 -95 -71.5 -159t-193.5 -64q-104 0 -169 41.5t-72 125.5h165q9 -37 78 -37q38 0 60.5 23.5t22.5 59.5v69q-43 -71 -137 -71q-93 0 -149.5 69.5
t-56.5 176.5q0 119 64 185.5t151 66.5q89 0 130 -57zM290 148q32 0 56.5 22.5t24.5 56.5v37q0 32 -23.5 56t-57.5 24t-57 -27.5t-23 -73.5q0 -42 23 -68.5t57 -26.5z" />
    <glyph glyph-name="Gcommaaccent" unicode="&#x122;" horiz-adv-x="748" 
d="M391 363h311v-363h-127v88q-69 -95 -213 -95q-150 0 -240 96.5t-90 253.5q0 159 94 255.5t255 96.5q139 0 220 -72t92 -189h-177q-10 44 -43.5 73.5t-92.5 29.5q-76 0 -120 -51t-44 -145q0 -89 42 -139.5t120 -50.5q50 0 86 21.5t52 57.5h-125v133zM360 -43q80 0 79 -105
q0 -81 -43.5 -131t-99.5 -50v66q23 0 43 18.5t20 47.5q-36 0 -57 21t-22 55q0 35 22.5 57t57.5 21z" />
    <glyph glyph-name="gcommaaccent" unicode="&#x123;" horiz-adv-x="602" 
d="M322 533q-80 0 -79 105q0 81 43.5 131t99.5 50v-66q-23 0 -43 -18.5t-20 -47.5q36 0 57 -21t22 -55q0 -35 -22.5 -57t-57.5 -21zM376 490h175v-481q0 -95 -71.5 -159t-193.5 -64q-104 0 -169 41.5t-72 125.5h165q9 -37 78 -37q38 0 60.5 23.5t22.5 59.5v69
q-43 -71 -137 -71q-93 0 -149.5 69.5t-56.5 176.5q0 119 64 185.5t151 66.5q89 0 130 -57zM290 148q32 0 56.5 22.5t24.5 56.5v37q0 32 -23.5 56t-57.5 24t-57 -27.5t-23 -73.5q0 -42 23 -68.5t57 -26.5z" />
    <glyph glyph-name="Hcircumflex" unicode="&#x124;" horiz-adv-x="747" 
d="M377 793l-61 -60h-122l99 145h168l99 -145h-121zM498 686h182v-686h-182v265h-250v-265h-182v686h182v-262h250v262z" />
    <glyph glyph-name="hcircumflex" unicode="&#x125;" horiz-adv-x="591" 
d="M140 807l-61 -60h-122l99 145h168l99 -145h-121zM377 495q82 0 125 -53t43 -131v-311h-180v262q0 35 -16.5 55.5t-48.5 20.5q-31 0 -50 -21t-19 -52v-265h-180v710h178v-294q44 79 148 79z" />
    <glyph glyph-name="Hbar" unicode="&#x126;" horiz-adv-x="749" 
d="M721 618v-102h-40v-516h-182v265h-250v-265h-182v516h-40v102h40v68h182v-68h250v68h182v-68h40zM499 424v92h-250v-92h250z" />
    <glyph glyph-name="hbar" unicode="&#x127;" horiz-adv-x="591" 
d="M377 495q82 0 125 -53t43 -131v-311h-180v262q0 35 -16.5 55.5t-48.5 20.5q-31 0 -50 -21t-19 -52v-265h-180v548h-90v92h90v70h178v-70h96v-92h-96v-132q44 79 148 79z" />
    <glyph glyph-name="Itilde" unicode="&#x128;" horiz-adv-x="314" 
d="M103 776q-18 0 -28.5 -10t-10.5 -27h-112q0 158 131 158q37 0 79 -17.5t54 -17.5q15 0 24.5 10.5t9.5 26.5h112q0 -79 -32 -118.5t-88 -39.5q-42 0 -86 17.5t-53 17.5zM66 0v686h182v-686h-182z" />
    <glyph glyph-name="itilde" unicode="&#x129;" horiz-adv-x="282" 
d="M74 604q-39 0 -39 -42h-112q0 163 126 163q42 0 84.5 -20t59.5 -20q39 0 39 42h112q0 -163 -125 -163q-40 0 -83.5 20t-61.5 20zM51 0v490h180v-490h-180z" />
    <glyph glyph-name="Imacron" unicode="&#x12a;" horiz-adv-x="314" 
d="M-10 748v120h340v-120h-340zM66 0v686h182v-686h-182z" />
    <glyph glyph-name="imacron" unicode="&#x12b;" horiz-adv-x="282" 
d="M-26 579v120h340v-120h-340zM51 0v490h180v-490h-180z" />
    <glyph glyph-name="Ibreve" unicode="&#x12c;" horiz-adv-x="314" 
d="M329 878q0 -61 -48.5 -104.5t-122.5 -43.5q-75 0 -124 43.5t-49 104.5h123q0 -19 13 -32.5t36 -13.5t35 13t12 33h125zM66 0v686h182v-686h-182z" />
    <glyph glyph-name="ibreve" unicode="&#x12d;" horiz-adv-x="282" 
d="M312 734q0 -88 -47 -138t-124 -50q-78 0 -125.5 50t-47.5 138h125q0 -39 11 -55t36 -16t35 16t10 55h127zM51 0v490h180v-490h-180z" />
    <glyph glyph-name="Iogonek" unicode="&#x12e;" horiz-adv-x="314" 
d="M271 -110l41 -68q-38 -45 -112 -45q-55 0 -87 29.5t-32 80.5q0 66 53 113h-68v686h182v-686q-8 -4 -19.5 -10.5t-31 -30t-19.5 -49.5q0 -41 40 -41q32 0 53 21z" />
    <glyph glyph-name="iogonek" unicode="&#x12f;" horiz-adv-x="282" 
d="M139 539q-48 0 -80 30t-32 77t32 78t80 31t80.5 -31t32.5 -78t-32.5 -77t-80.5 -30zM254 -110l41 -68q-38 -45 -112 -45q-55 0 -87 29.5t-32 80.5q0 66 53 113h-66v490h180v-490q-8 -4 -19.5 -10.5t-31 -30t-19.5 -49.5q0 -41 40 -41q32 0 53 21z" />
    <glyph glyph-name="Idotaccent" unicode="&#x130;" horiz-adv-x="314" 
d="M157 933q48 0 77.5 -29t29.5 -75q0 -45 -29.5 -74t-77.5 -29t-78 29t-30 74q0 46 30 75t78 29zM66 0v686h182v-686h-182z" />
    <glyph glyph-name="dotlessi" unicode="&#x131;" horiz-adv-x="282" 
d="M51 0v490h180v-490h-180z" />
    <glyph glyph-name="IJ" unicode="&#x132;" horiz-adv-x="874" 
d="M66 0v686h182v-686h-182zM497 238q1 -86 68 -86t67 87v447h182v-437q0 -118 -64 -185.5t-188 -67.5q-117 0 -179.5 62.5t-62.5 179.5h177z" />
    <glyph glyph-name="ij" unicode="&#x133;" horiz-adv-x="581" 
d="M252 646q0 -47 -32.5 -77t-80.5 -30t-80 30t-32 77t32 78t80 31t80.5 -31t32.5 -78zM558 646q0 -47 -32.5 -77t-80.5 -30t-80 30t-32 77t32 78t80 31t80.5 -31t32.5 -78zM51 0v490h180v-490h-180zM310 -209q-49 0 -87 9l9 145q22 -9 47 -9q71 0 71 69v485h180v-493
q0 -91 -59.5 -148.5t-160.5 -57.5z" />
    <glyph glyph-name="Jcircumflex" unicode="&#x134;" horiz-adv-x="559" 
d="M491 878l99 -145h-121l-62 60l-61 -60h-122l99 145h168zM182 238q1 -86 68 -86t67 87v447h182v-437q0 -118 -64 -185.5t-188 -67.5q-117 0 -179.5 62.5t-62.5 179.5h177z" />
    <glyph glyph-name="jcircumflex" unicode="&#x135;" horiz-adv-x="290" 
d="M-38 551l99 187h168l99 -187h-111l-72 87l-71 -87h-112zM19 -209q-49 0 -87 9l9 145q22 -9 47 -9q71 0 71 69v485h180v-493q0 -91 -59.5 -148.5t-160.5 -57.5z" />
    <glyph glyph-name="Kcommaaccent" unicode="&#x136;" horiz-adv-x="691" 
d="M451 399l256 -399h-207l-171 273l-81 -98v-175h-182v686h182v-302l233 302h210zM367 -43q80 0 79 -105q0 -81 -43.5 -131t-99.5 -50v66q23 0 43 18.5t20 47.5q-36 0 -57 21t-22 55q0 35 22.5 57t57.5 21z" />
    <glyph glyph-name="kcommaaccent" unicode="&#x137;" horiz-adv-x="584" 
d="M411 302l186 -302h-200l-103 170l-63 -71v-99h-180v710h180v-392l140 173h208zM297 -43q80 0 79 -105q0 -81 -43.5 -131t-99.5 -50v66q23 0 43 18.5t20 47.5q-36 0 -57 21t-22 55q0 35 22.5 57t57.5 21z" />
    <glyph glyph-name="kgreenlandic" unicode="&#x138;" horiz-adv-x="584" 
d="M397 0l-103 170l-63 -71v-99h-180v490h180v-172l140 173h208l-168 -189l186 -302h-200z" />
    <glyph glyph-name="Lacute" unicode="&#x139;" horiz-adv-x="570" 
d="M340 878l-108 -145h-165l49 145h224zM248 158h313v-158h-495v686h182v-528z" />
    <glyph glyph-name="lacute" unicode="&#x13a;" horiz-adv-x="304" 
d="M320 892l-108 -145h-165l49 145h224zM246 138q10 0 25 5l9 -136q-36 -12 -86 -12q-147 0 -147 169v546h180v-546q0 -26 19 -26z" />
    <glyph glyph-name="Lcommaaccent" unicode="&#x13b;" horiz-adv-x="570" 
d="M248 158h313v-158h-495v686h182v-528zM319 -43q80 0 79 -105q0 -81 -43.5 -131t-99.5 -50v66q23 0 43 18.5t20 47.5q-36 0 -57 21t-22 55q0 35 22.5 57t57.5 21z" />
    <glyph glyph-name="lcommaaccent" unicode="&#x13c;" horiz-adv-x="304" 
d="M194 -5q-147 0 -147 169v546h180v-546q0 -26 19 -26q10 0 25 5l9 -136q-36 -12 -86 -12zM165 -43q80 0 79 -105q0 -81 -43.5 -131t-99.5 -50v66q23 0 43 18.5t20 47.5q-36 0 -57 21t-22 55q0 35 22.5 57t57.5 21z" />
    <glyph glyph-name="Lcaron" unicode="&#x13d;" horiz-adv-x="574" 
d="M441 553q-36 0 -57.5 21t-21.5 55q0 35 22.5 56.5t57.5 21.5q79 0 79 -105q0 -81 -43.5 -131t-99.5 -50v66q23 0 43 19t20 47zM248 158h313v-158h-495v686h182v-528z" />
    <glyph glyph-name="lcaron" unicode="&#x13e;" horiz-adv-x="336" 
d="M339 748q79 0 79 -105q0 -81 -43.5 -131t-99.5 -50v66q23 0 43 19t20 47q-36 0 -57.5 21t-21.5 55q0 35 22.5 56.5t57.5 21.5zM246 138q10 0 25 5l9 -136q-36 -12 -86 -12q-147 0 -147 169v546h180v-546q0 -26 19 -26z" />
    <glyph glyph-name="Ldot" unicode="&#x13f;" horiz-adv-x="576" 
d="M248 158h313v-158h-495v686h182v-528zM438 282q-48 0 -77.5 29.5t-29.5 74.5q0 46 29.5 74.5t77.5 28.5t77.5 -28.5t30.5 -74.5q0 -45 -30 -74.5t-78 -29.5z" />
    <glyph glyph-name="ldot" unicode="&#x140;" horiz-adv-x="468" 
d="M246 138q10 0 25 5l9 -136q-36 -12 -86 -12q-147 0 -147 169v546h180v-546q0 -26 19 -26zM379 453q48 0 77.5 -28.5t30.5 -74.5q0 -45 -30 -74.5t-78 -29.5t-77.5 29.5t-29.5 74.5q0 46 29.5 74.5t77.5 28.5z" />
    <glyph glyph-name="Lslash" unicode="&#x141;" horiz-adv-x="621" 
d="M299 158h313v-158h-495v201l-45 -26l-60 104l105 60v347h182v-244l99 56l60 -103l-159 -91v-146z" />
    <glyph glyph-name="lslash" unicode="&#x142;" horiz-adv-x="376" 
d="M296 138q10 0 25 5l9 -136q-36 -12 -86 -12q-147 0 -147 169v96l-55 -31l-44 80l99 56v345h180v-242l60 34l44 -79l-104 -60v-199q0 -26 19 -26z" />
    <glyph glyph-name="Nacute" unicode="&#x143;" horiz-adv-x="747" 
d="M555 878l-108 -145h-165l49 145h224zM504 686h176v-686h-165l-273 418v-418h-176v686h165l273 -418v418z" />
    <glyph glyph-name="nacute" unicode="&#x144;" horiz-adv-x="591" 
d="M462 737l-100 -187h-142l39 187h203zM379 495q81 0 123.5 -54t42.5 -135v-306h-180v262q0 35 -16.5 55.5t-48.5 20.5q-31 0 -50 -21t-19 -52v-265h-180v490h175l5 -71q43 76 148 76z" />
    <glyph glyph-name="Ncommaaccent" unicode="&#x145;" horiz-adv-x="747" 
d="M504 686h176v-686h-165l-273 418v-418h-176v686h165l273 -418v418zM371 -43q80 0 79 -105q0 -81 -43.5 -131t-99.5 -50v66q23 0 43 18.5t20 47.5q-36 0 -57 21t-22 55q0 35 22.5 57t57.5 21z" />
    <glyph glyph-name="ncommaaccent" unicode="&#x146;" horiz-adv-x="591" 
d="M379 495q81 0 123.5 -54t42.5 -135v-306h-180v262q0 35 -16.5 55.5t-48.5 20.5q-31 0 -50 -21t-19 -52v-265h-180v490h175l5 -71q43 76 148 76zM296 -43q80 0 79 -105q0 -81 -43.5 -131t-99.5 -50v66q23 0 43 18.5t20 47.5q-36 0 -57 21t-22 55q0 35 22.5 57t57.5 21z
" />
    <glyph glyph-name="Ncaron" unicode="&#x147;" horiz-adv-x="747" 
d="M458 733h-168l-99 145h122l61 -60l62 60h121zM504 686h176v-686h-165l-273 418v-418h-176v686h165l273 -418v418z" />
    <glyph glyph-name="ncaron" unicode="&#x148;" horiz-adv-x="591" 
d="M381 551h-168l-99 187h112l71 -87l72 87h111zM379 495q81 0 123.5 -54t42.5 -135v-306h-180v262q0 35 -16.5 55.5t-48.5 20.5q-31 0 -50 -21t-19 -52v-265h-180v490h175l5 -71q43 76 148 76z" />
    <glyph glyph-name="napostrophe" unicode="&#x149;" horiz-adv-x="696" 
d="M89 749q79 0 79 -105q0 -81 -43.5 -131t-99.5 -50v66q23 0 43 19t20 47q-36 0 -57.5 21t-21.5 55q0 35 22.5 56.5t57.5 21.5zM484 495q81 0 123.5 -54t42.5 -135v-306h-180v262q0 35 -16.5 55.5t-48.5 20.5q-31 0 -50 -21t-19 -52v-265h-180v490h175l5 -71q43 76 148 76z
" />
    <glyph glyph-name="Eng" unicode="&#x14a;" horiz-adv-x="747" 
d="M504 686h176v-689q0 -91 -59.5 -148.5t-160.5 -57.5q-49 0 -87 9l9 145q22 -9 47 -9q71 0 71 69v18l-258 395v-418h-176v686h165l273 -418v418z" />
    <glyph glyph-name="eng" unicode="&#x14b;" horiz-adv-x="591" 
d="M379 495q81 0 123.5 -54t42.5 -135v-309q0 -91 -59.5 -148.5t-160.5 -57.5q-49 0 -87 9l9 145q22 -9 47 -9q71 0 71 69v257q0 35 -16.5 55.5t-48.5 20.5q-31 0 -50 -21t-19 -52v-265h-180v490h175l5 -71q43 76 148 76z" />
    <glyph glyph-name="Omacron" unicode="&#x14c;" horiz-adv-x="766" 
d="M216 748v120h340v-120h-340zM383 -7q-155 0 -253 96t-98 255t98 255t253 96t253 -96t98 -255t-98 -255t-253 -96zM383 150q73 0 120 52t47 142t-47.5 141.5t-119.5 51.5t-119.5 -51.5t-47.5 -141.5t47.5 -142t119.5 -52z" />
    <glyph glyph-name="omacron" unicode="&#x14d;" horiz-adv-x="574" 
d="M120 579v120h340v-120h-340zM287 495q117 0 188.5 -68.5t71.5 -179.5q0 -110 -72 -181t-188 -71t-188 69.5t-72 178.5q0 111 72 181.5t188 70.5zM287 349q-36 0 -57 -28t-21 -76q0 -46 21 -75t57 -29t57 28.5t21 75.5q0 48 -20.5 76t-57.5 28z" />
    <glyph glyph-name="Obreve" unicode="&#x14e;" horiz-adv-x="766" 
d="M555 878q0 -61 -48.5 -104.5t-122.5 -43.5q-75 0 -124 43.5t-49 104.5h123q0 -19 13 -32.5t36 -13.5t35 13t12 33h125zM383 -7q-155 0 -253 96t-98 255t98 255t253 96t253 -96t98 -255t-98 -255t-253 -96zM383 150q73 0 120 52t47 142t-47.5 141.5t-119.5 51.5
t-119.5 -51.5t-47.5 -141.5t47.5 -142t119.5 -52z" />
    <glyph glyph-name="obreve" unicode="&#x14f;" horiz-adv-x="574" 
d="M458 734q0 -88 -47 -138t-124 -50q-78 0 -125.5 50t-47.5 138h125q0 -39 11 -55t36 -16t35 16t10 55h127zM287 495q117 0 188.5 -68.5t71.5 -179.5q0 -110 -72 -181t-188 -71t-188 69.5t-72 178.5q0 111 72 181.5t188 70.5zM287 349q-36 0 -57 -28t-21 -76q0 -46 21 -75
t57 -29t57 28.5t21 75.5q0 48 -20.5 76t-57.5 28z" />
    <glyph glyph-name="Ohungarumlaut" unicode="&#x150;" horiz-adv-x="766" 
d="M312 733h-131l59 145h190zM532 733h-131l59 145h190zM383 -7q-155 0 -253 96t-98 255t98 255t253 96t253 -96t98 -255t-98 -255t-253 -96zM383 150q73 0 120 52t47 142t-47.5 141.5t-119.5 51.5t-119.5 -51.5t-47.5 -141.5t47.5 -142t119.5 -52z" />
    <glyph glyph-name="ohungarumlaut" unicode="&#x151;" horiz-adv-x="574" 
d="M207 549h-151l49 187h210zM455 549h-151l49 187h210zM287 495q117 0 188.5 -68.5t71.5 -179.5q0 -110 -72 -181t-188 -71t-188 69.5t-72 178.5q0 111 72 181.5t188 70.5zM287 349q-36 0 -57 -28t-21 -76q0 -46 21 -75t57 -29t57 28.5t21 75.5q0 48 -20.5 76t-57.5 28z
" />
    <glyph glyph-name="OE" unicode="&#x152;" horiz-adv-x="1092" 
d="M732 148h322v-148h-504v29q-74 -36 -167 -36q-155 0 -253 96t-98 255t98 255t253 96q93 0 167 -36v27h499v-148h-317v-122h273v-143h-273v-125zM383 150q73 0 120 52t47 142t-47.5 141.5t-119.5 51.5t-119.5 -51.5t-47.5 -141.5t47.5 -142t119.5 -52z" />
    <glyph glyph-name="oe" unicode="&#x153;" horiz-adv-x="897" 
d="M869 239v-30h-324q15 -78 91 -78q55 0 71 38h162q-12 -72 -72.5 -123t-172.5 -51q-97 0 -166 56q-70 -56 -171 -56q-116 0 -188 69.5t-72 178.5q0 111 72 181.5t188 70.5q104 0 175 -57q70 57 167 57q116 0 178 -72t62 -184zM631 369q-69 0 -85 -69h161q-11 69 -76 69z
M287 141q36 0 57 28.5t21 75.5q0 48 -20.5 76t-57.5 28q-36 0 -57 -28t-21 -76q0 -46 21 -75t57 -29z" />
    <glyph glyph-name="Racute" unicode="&#x154;" horiz-adv-x="690" 
d="M504 878l-108 -145h-165l49 145h224zM660 141l9 -134q-36 -12 -85 -12q-76 0 -115.5 27.5t-68.5 83.5l-63 124h-89v-230h-182v686h292q131 0 201.5 -59.5t70.5 -168.5q0 -130 -112 -192l46 -92q20 -38 57 -38q22 0 39 5zM248 540v-171h110q43 0 65.5 22.5t22.5 62.5
t-22.5 63t-65.5 23h-110z" />
    <glyph glyph-name="racute" unicode="&#x155;" horiz-adv-x="402" 
d="M393 737l-100 -187h-142l39 187h203zM229 410q37 85 124 85q25 0 33 -4v-177q-14 6 -36 6q-47 0 -79.5 -22.5t-39.5 -62.5v-235h-180v490h175z" />
    <glyph glyph-name="Rcommaaccent" unicode="&#x156;" horiz-adv-x="690" 
d="M660 141l9 -134q-36 -12 -85 -12q-76 0 -115.5 27.5t-68.5 83.5l-63 124h-89v-230h-182v686h292q131 0 201.5 -59.5t70.5 -168.5q0 -130 -112 -192l46 -92q20 -38 57 -38q22 0 39 5zM248 540v-171h110q43 0 65.5 22.5t22.5 62.5t-22.5 63t-65.5 23h-110zM364 -43
q80 0 79 -105q0 -81 -43.5 -131t-99.5 -50v66q23 0 43 18.5t20 47.5q-36 0 -57 21t-22 55q0 35 22.5 57t57.5 21z" />
    <glyph glyph-name="rcommaaccent" unicode="&#x157;" horiz-adv-x="402" 
d="M353 495q25 0 33 -4v-177q-14 6 -36 6q-47 0 -79.5 -22.5t-39.5 -62.5v-235h-180v490h175l3 -80q37 85 124 85zM140 -43q80 0 79 -105q0 -81 -43.5 -131t-99.5 -50v66q23 0 43 18.5t20 47.5q-36 0 -57 21t-22 55q0 35 22.5 57t57.5 21z" />
    <glyph glyph-name="Rcaron" unicode="&#x158;" horiz-adv-x="690" 
d="M407 733h-168l-99 145h122l61 -60l62 60h121zM660 141l9 -134q-36 -12 -85 -12q-76 0 -115.5 27.5t-68.5 83.5l-63 124h-89v-230h-182v686h292q131 0 201.5 -59.5t70.5 -168.5q0 -130 -112 -192l46 -92q20 -38 57 -38q22 0 39 5zM248 540v-171h110q43 0 65.5 22.5
t22.5 62.5t-22.5 63t-65.5 23h-110z" />
    <glyph glyph-name="rcaron" unicode="&#x159;" horiz-adv-x="402" 
d="M312 551h-168l-99 187h112l71 -87l72 87h111zM229 410q37 85 124 85q25 0 33 -4v-177q-14 6 -36 6q-47 0 -79.5 -22.5t-39.5 -62.5v-235h-180v490h175z" />
    <glyph glyph-name="Sacute" unicode="&#x15a;" horiz-adv-x="630" 
d="M496 878l-108 -145h-165l49 145h224zM220 489q0 -24 21 -38.5t54.5 -22t73.5 -14.5t80.5 -20.5t74 -35t54.5 -62.5t21 -99q0 -94 -80 -149t-211 -55q-134 0 -206.5 56.5t-72.5 162.5h182q2 -71 104 -71q104 0 104 56q0 25 -21 40.5t-54.5 24t-73.5 16t-80.5 20.5t-74 33
t-54.5 59.5t-21 94.5q-1 93 75.5 151.5t199.5 58.5q128 0 200.5 -58.5t72.5 -161.5h-183q0 72 -92 72q-93 0 -93 -58z" />
    <glyph glyph-name="sacute" unicode="&#x15b;" horiz-adv-x="508" 
d="M424 736l-100 -187h-142l39 187h203zM208 351q0 -19 28 -28t67.5 -15.5t79 -19.5t67.5 -49t28 -94q0 -73 -62 -111.5t-167 -38.5t-163 43t-58 123l149 -1q0 -52 68 -52q60 0 60 28q0 20 -28 30t-67.5 17t-79 20t-67.5 48.5t-28 92.5q0 72 61 111t166 40q99 0 154.5 -43
t54.5 -118h-153q-1 48 -55 48q-55 0 -55 -31z" />
    <glyph glyph-name="Scircumflex" unicode="&#x15c;" horiz-adv-x="630" 
d="M315 793l-61 -60h-122l99 145h168l99 -145h-121zM220 489q0 -24 21 -38.5t54.5 -22t73.5 -14.5t80.5 -20.5t74 -35t54.5 -62.5t21 -99q0 -94 -80 -149t-211 -55q-134 0 -206.5 56.5t-72.5 162.5h182q2 -71 104 -71q104 0 104 56q0 25 -21 40.5t-54.5 24t-73.5 16
t-80.5 20.5t-74 33t-54.5 59.5t-21 94.5q-1 93 75.5 151.5t199.5 58.5q128 0 200.5 -58.5t72.5 -161.5h-183q0 72 -92 72q-93 0 -93 -58z" />
    <glyph glyph-name="scircumflex" unicode="&#x15d;" horiz-adv-x="508" 
d="M259 637l-71 -87h-112l99 187h168l99 -187h-111zM208 351q0 -19 28 -28t67.5 -15.5t79 -19.5t67.5 -49t28 -94q0 -73 -62 -111.5t-167 -38.5t-163 43t-58 123l149 -1q0 -52 68 -52q60 0 60 28q0 20 -28 30t-67.5 17t-79 20t-67.5 48.5t-28 92.5q0 72 61 111t166 40
q99 0 154.5 -43t54.5 -118h-153q-1 48 -55 48q-55 0 -55 -31z" />
    <glyph glyph-name="Scedilla" unicode="&#x15e;" horiz-adv-x="630" 
d="M599 197q0 -89 -71.5 -143t-191.5 -60l-4 -20q39 -9 59 -32.5t20 -56.5q0 -48 -38.5 -76t-93.5 -28q-42 0 -74 15l20 83q19 -13 53 -13q44 0 44 24q0 28 -82 28l19 77q-111 11 -170.5 66.5t-59.5 150.5h182q2 -71 104 -71q104 0 104 56q0 25 -21 40.5t-54.5 24t-73.5 16
t-80.5 20.5t-74 33t-54.5 59.5t-21 94.5q-1 93 75.5 151.5t199.5 58.5q128 0 200.5 -58.5t72.5 -161.5h-183q0 72 -92 72q-93 0 -93 -58q0 -24 21 -38.5t54.5 -22t73.5 -14.5t80.5 -20.5t74 -35t54.5 -62.5t21 -99z" />
    <glyph glyph-name="scedilla" unicode="&#x15f;" horiz-adv-x="508" 
d="M478 145q0 -64 -47.5 -101.5t-130.5 -45.5l-5 -24q39 -9 59 -32.5t20 -56.5q0 -48 -38.5 -76t-93.5 -28q-42 0 -74 15l20 83q19 -13 53 -13q44 0 44 24q0 28 -82 28l19 78q-93 5 -143.5 47.5t-50.5 117.5l149 -1q0 -52 68 -52q60 0 60 28q0 20 -28 30t-67.5 17t-79 20
t-67.5 48.5t-28 92.5q0 72 61 111t166 40q99 0 154.5 -43t54.5 -118h-153q-1 48 -55 48q-55 0 -55 -31q0 -19 28 -28t67.5 -15.5t79 -19.5t67.5 -49t28 -94z" />
    <glyph glyph-name="Scaron" unicode="&#x160;" horiz-adv-x="630" 
d="M399 733h-168l-99 145h122l61 -60l62 60h121zM220 489q0 -24 21 -38.5t54.5 -22t73.5 -14.5t80.5 -20.5t74 -35t54.5 -62.5t21 -99q0 -94 -80 -149t-211 -55q-134 0 -206.5 56.5t-72.5 162.5h182q2 -71 104 -71q104 0 104 56q0 25 -21 40.5t-54.5 24t-73.5 16t-80.5 20.5
t-74 33t-54.5 59.5t-21 94.5q-1 93 75.5 151.5t199.5 58.5q128 0 200.5 -58.5t72.5 -161.5h-183q0 72 -92 72q-93 0 -93 -58z" />
    <glyph glyph-name="scaron" unicode="&#x161;" horiz-adv-x="508" 
d="M343 550h-168l-99 187h112l71 -87l72 87h111zM208 351q0 -19 28 -28t67.5 -15.5t79 -19.5t67.5 -49t28 -94q0 -73 -62 -111.5t-167 -38.5t-163 43t-58 123l149 -1q0 -52 68 -52q60 0 60 28q0 20 -28 30t-67.5 17t-79 20t-67.5 48.5t-28 92.5q0 72 61 111t166 40
q99 0 154.5 -43t54.5 -118h-153q-1 48 -55 48q-55 0 -55 -31z" />
    <glyph glyph-name="uni0162" unicode="&#x162;" horiz-adv-x="620" 
d="M400 0h-58l-5 -26q39 -9 59 -32.5t20 -56.5q0 -48 -38.5 -76t-93.5 -28q-42 0 -74 15l20 83q19 -13 53 -13q44 0 44 24q0 28 -82 28l20 82h-47v536h-210v150h603v-150h-211v-536z" />
    <glyph glyph-name="uni0163" unicode="&#x163;" horiz-adv-x="420" 
d="M399 350h-134v-139q0 -69 72 -69q28 0 55 10l5 -143q-40 -14 -93 -14q-16 0 -23 1l-5 -22q39 -9 59 -32.5t20 -56.5q0 -48 -38.5 -76t-93.5 -28q-43 0 -74 15l20 83q19 -13 53 -13q44 0 44 24q0 28 -82 28l22 93q-59 23 -90 72.5t-31 117.5v150h-70v139h80v133h170v-133
h134v-140z" />
    <glyph glyph-name="Tcaron" unicode="&#x164;" horiz-adv-x="620" 
d="M397 733h-168l-99 145h122l61 -60l62 60h121zM218 0v536h-210v150h603v-150h-211v-536h-182z" />
    <glyph glyph-name="tcaron" unicode="&#x165;" horiz-adv-x="420" 
d="M363 624q-35 0 -56.5 21t-21.5 55q0 35 22.5 56.5t57.5 21.5q79 0 79 -105q0 -71 -44 -116t-100 -45v65q22 0 42.5 14t20.5 33zM265 623v-133h134v-140h-134v-139q0 -69 72 -69q28 0 55 10l5 -143q-40 -14 -93 -14q-105 0 -162 56.5t-57 149.5v150h-70v139h80v133h170z
" />
    <glyph glyph-name="Tbar" unicode="&#x166;" horiz-adv-x="632" 
d="M617 536h-211v-154h126v-102h-126v-280h-182v280h-126v102h126v154h-210v150h603v-150z" />
    <glyph glyph-name="tbar" unicode="&#x167;" horiz-adv-x="422" 
d="M400 350h-134v-48h121v-92h-121q0 -68 72 -68q28 0 55 10l5 -143q-40 -14 -93 -14q-105 0 -162 56.5t-57 149.5v9h-63v92h63v49h-70v139h80v133h170v-133h134v-140z" />
    <glyph glyph-name="Utilde" unicode="&#x168;" horiz-adv-x="722" 
d="M308 776q-18 0 -28.5 -10t-10.5 -27h-112q0 158 131 158q37 0 79 -17.5t54 -17.5q15 0 24.5 10.5t9.5 26.5h112q0 -79 -32 -118.5t-88 -39.5q-41 0 -86 17.5t-53 17.5zM482 686h182v-407q0 -133 -81 -209.5t-221 -76.5q-142 0 -223 76t-81 210l1 407h182v-407
q0 -63 31 -96t90 -33t89.5 33t30.5 96v407z" />
    <glyph glyph-name="utilde" unicode="&#x169;" horiz-adv-x="579" 
d="M220 605q-39 0 -39 -42h-112q0 163 126 163q42 0 84.5 -20t59.5 -20q39 0 39 42h112q0 -163 -125 -163q-40 0 -83.5 20t-61.5 20zM348 490h180v-490h-175l-5 72q-43 -77 -137 -77q-83 0 -124 52.5t-41 131.5v311h180v-262q0 -34 16 -55t46 -21q25 0 42.5 21.5t17.5 51.5
v265z" />
    <glyph glyph-name="Umacron" unicode="&#x16a;" horiz-adv-x="722" 
d="M195 748v120h340v-120h-340zM482 686h182v-407q0 -133 -81 -209.5t-221 -76.5q-142 0 -223 76t-81 210l1 407h182v-407q0 -63 31 -96t90 -33t89.5 33t30.5 96v407z" />
    <glyph glyph-name="umacron" unicode="&#x16b;" horiz-adv-x="579" 
d="M460 700v-120h-340v120h340zM348 490h180v-490h-175l-5 72q-43 -77 -137 -77q-83 0 -124 52.5t-41 131.5v311h180v-262q0 -34 16 -55t46 -21q25 0 42.5 21.5t17.5 51.5v265z" />
    <glyph glyph-name="Ubreve" unicode="&#x16c;" horiz-adv-x="722" 
d="M534 878q0 -61 -48.5 -104.5t-122.5 -43.5q-75 0 -124 43.5t-49 104.5h123q0 -19 13 -32.5t36 -13.5t35 13t12 33h125zM482 686h182v-407q0 -133 -81 -209.5t-221 -76.5q-142 0 -223 76t-81 210l1 407h182v-407q0 -63 31 -96t90 -33t89.5 33t30.5 96v407z" />
    <glyph glyph-name="ubreve" unicode="&#x16d;" horiz-adv-x="579" 
d="M287 547q-78 0 -125.5 50t-47.5 138h125q0 -39 11 -55t36 -16t35 16t10 55h127q0 -88 -47 -138t-124 -50zM348 490h180v-490h-175l-5 72q-43 -77 -137 -77q-83 0 -124 52.5t-41 131.5v311h180v-262q0 -34 16 -55t46 -21q25 0 42.5 21.5t17.5 51.5v265z" />
    <glyph glyph-name="Uring" unicode="&#x16e;" horiz-adv-x="722" 
d="M363 718q-46 0 -78.5 29t-32.5 76t32.5 76t78.5 29t78 -29t32 -76t-32 -76t-78 -29zM363 791q14 0 23 9t9 23t-9 22.5t-23 8.5q-15 0 -23.5 -8.5t-8.5 -22.5t8.5 -23t23.5 -9zM482 686h182v-407q0 -133 -81 -209.5t-221 -76.5q-142 0 -223 76t-81 210l1 407h182v-407
q0 -63 31 -96t90 -33t89.5 33t30.5 96v407z" />
    <glyph glyph-name="uring" unicode="&#x16f;" horiz-adv-x="579" 
d="M287 537q-46 0 -78.5 29t-32.5 76t32.5 76t78.5 29t78 -29t32 -76t-32 -76t-78 -29zM287 673q-15 0 -23.5 -8.5t-8.5 -22.5t8.5 -23t23.5 -9q14 0 23 9t9 23t-9 22.5t-23 8.5zM348 490h180v-490h-175l-5 72q-43 -77 -137 -77q-83 0 -124 52.5t-41 131.5v311h180v-262
q0 -34 16 -55t46 -21q25 0 42.5 21.5t17.5 51.5v265z" />
    <glyph glyph-name="Uhungarumlaut" unicode="&#x170;" horiz-adv-x="722" 
d="M291 733h-131l59 145h190zM511 733h-131l59 145h190zM482 686h182v-407q0 -133 -81 -209.5t-221 -76.5q-142 0 -223 76t-81 210l1 407h182v-407q0 -63 31 -96t90 -33t89.5 33t30.5 96v407z" />
    <glyph glyph-name="uhungarumlaut" unicode="&#x171;" horiz-adv-x="579" 
d="M315 737l-108 -187h-151l49 187h210zM455 550h-151l49 187h210zM348 225v265h180v-490h-175l-5 72q-43 -77 -137 -77q-83 0 -124 52.5t-41 131.5v311h180v-262q0 -34 16 -55t46 -21q25 0 42.5 21.5t17.5 51.5z" />
    <glyph glyph-name="Uogonek" unicode="&#x172;" horiz-adv-x="722" 
d="M482 686h182v-407q0 -102 -48 -171.5t-136 -97.5q-10 -5 -21.5 -12t-30 -30t-18.5 -48q0 -41 40 -41q32 0 53 21l41 -68q-38 -45 -112 -45q-55 0 -87 29.5t-32 80.5q0 55 36 96q-137 4 -214 80t-77 206l1 407h182v-407q0 -63 31 -96t90 -33t89.5 33t30.5 96v407z" />
    <glyph glyph-name="uogonek" unicode="&#x173;" horiz-adv-x="579" 
d="M551 -110l41 -68q-38 -45 -112 -45q-55 0 -87 29.5t-32 80.5q0 66 53 113h-61l-5 72q-43 -77 -137 -77q-83 0 -124 52.5t-41 131.5v311h180v-262q0 -34 16 -55t46 -21q25 0 42.5 21.5t17.5 51.5v265h180v-490q-8 -4 -19.5 -10.5t-31 -30t-19.5 -49.5q0 -41 40 -41
q32 0 53 21z" />
    <glyph glyph-name="Wcircumflex" unicode="&#x174;" horiz-adv-x="981" 
d="M493 793l-61 -60h-122l99 145h168l99 -145h-121zM798 686h179l-178 -686h-212l-96 471l-97 -471h-212l-178 686h179l112 -523l98 523h195l99 -523z" />
    <glyph glyph-name="wcircumflex" unicode="&#x175;" horiz-adv-x="786" 
d="M393 638l-71 -87h-112l99 187h168l99 -187h-111zM599 490h181l-129 -490h-203l-41 182q-10 46 -12 70h-4q-3 -37 -12 -70l-41 -182h-203l-129 490h181l46 -251q5 -30 10 -73h4q7 51 12 73l58 251h152l58 -251q5 -22 12 -73h4q5 42 10 73z" />
    <glyph glyph-name="Ycircumflex" unicode="&#x176;" horiz-adv-x="637" 
d="M320 793l-61 -60h-122l99 145h168l99 -145h-121zM643 686l-233 -437v-249h-182v247l-234 439h191l134 -272l133 272h191z" />
    <glyph glyph-name="ycircumflex" unicode="&#x177;" horiz-adv-x="537" 
d="M267 638l-71 -87h-112l99 187h168l99 -187h-111zM356 490h181l-172 -490l-2 -6q-39 -109 -90.5 -156t-147.5 -47q-49 0 -87 9l9 145q22 -9 47 -9q34 0 58 14t28 42v7l-180 491h190l71 -269q2 -8 11 -60h4q6 45 10 60z" />
    <glyph glyph-name="Ydieresis" unicode="&#x178;" horiz-adv-x="637" 
d="M213 734q-40 0 -65 24t-25 62t25 62.5t65 24.5t64.5 -24t24.5 -63q0 -38 -24.5 -62t-64.5 -24zM431 734q-40 0 -65 24t-25 62t25 62.5t65 24.5t64.5 -24t24.5 -63q0 -38 -24.5 -62t-64.5 -24zM643 686l-233 -437v-249h-182v247l-234 439h191l134 -272l133 272h191z" />
    <glyph glyph-name="Zacute" unicode="&#x179;" horiz-adv-x="641" 
d="M494 878l-108 -145h-165l49 145h224zM260 150h343v-150h-569v150l341 386h-331v150h558l-1 -150z" />
    <glyph glyph-name="zacute" unicode="&#x17a;" horiz-adv-x="501" 
d="M418 737l-100 -187h-142l39 187h203zM257 140h212v-140h-438v124l215 226h-207v140h424v-124z" />
    <glyph glyph-name="Zdotaccent" unicode="&#x17b;" horiz-adv-x="641" 
d="M312 726q-48 0 -78 29t-30 74q0 46 30 75t78 29t77.5 -29t29.5 -75q0 -45 -29.5 -74t-77.5 -29zM260 150h343v-150h-569v150l341 386h-331v150h558l-1 -150z" />
    <glyph glyph-name="zdotaccent" unicode="&#x17c;" horiz-adv-x="501" 
d="M255 544q-48 0 -78 29t-30 74q0 46 30 75t78 29t77.5 -29t29.5 -75q0 -45 -29.5 -74t-77.5 -29zM257 140h212v-140h-438v124l215 226h-207v140h424v-124z" />
    <glyph glyph-name="Zcaron" unicode="&#x17d;" horiz-adv-x="641" 
d="M397 733h-168l-99 145h122l61 -60l62 60h121zM260 150h343v-150h-569v150l341 386h-331v150h558l-1 -150z" />
    <glyph glyph-name="zcaron" unicode="&#x17e;" horiz-adv-x="501" 
d="M337 551h-168l-99 187h112l71 -87l72 87h111zM257 140h212v-140h-438v124l215 226h-207v140h424v-124z" />
    <glyph glyph-name="uni018F" unicode="&#x18f;" horiz-adv-x="730" 
d="M697 349q1 -163 -92 -260t-253 -97q-153 0 -237 94.5t-84 253.5v42h479q-15 155 -151 155q-51 0 -87 -24.5t-49 -59.5h-182q16 99 96 170t219 71q159 0 250 -91t91 -254zM356 151q111 0 144 105h-286q14 -54 53.5 -80t88.5 -25z" />
    <glyph glyph-name="uni019D" unicode="&#x19d;" horiz-adv-x="747" 
d="M504 686h176v-686h-165l-273 418v-421q0 -92 -58 -149t-158 -57q-49 0 -87 9l9 145q22 -9 47 -9q71 0 71 69v681h165l273 -418v418z" />
    <glyph glyph-name="Gcaron" unicode="&#x1e6;" horiz-adv-x="748" 
d="M456 733h-168l-99 145h122l61 -60l62 60h121zM391 363h311v-363h-127v88q-69 -95 -213 -95q-150 0 -240 96.5t-90 253.5q0 159 94 255.5t255 96.5q139 0 220 -72t92 -189h-177q-10 44 -43.5 73.5t-92.5 29.5q-76 0 -120 -51t-44 -145q0 -89 42 -139.5t120 -50.5
q50 0 86 21.5t52 57.5h-125v133z" />
    <glyph glyph-name="gcaron" unicode="&#x1e7;" horiz-adv-x="602" 
d="M404 550h-168l-99 187h112l71 -87l72 87h111zM376 490h175v-481q0 -95 -71.5 -159t-193.5 -64q-104 0 -169 41.5t-72 125.5h165q9 -37 78 -37q38 0 60.5 23.5t22.5 59.5v69q-43 -71 -137 -71q-93 0 -149.5 69.5t-56.5 176.5q0 119 64 185.5t151 66.5q89 0 130 -57z
M290 148q32 0 56.5 22.5t24.5 56.5v37q0 32 -23.5 56t-57.5 24t-57 -27.5t-23 -73.5q0 -42 23 -68.5t57 -26.5z" />
    <glyph glyph-name="uni01EA" unicode="&#x1ea;" horiz-adv-x="766" 
d="M505 11q-68 -37 -68 -89q0 -41 40 -41q32 0 53 21l41 -68q-38 -45 -112 -45q-55 0 -87 29.5t-32 80.5q0 54 35 94q-152 3 -247.5 98.5t-95.5 252.5q0 159 98 255t253 96t253 -96t98 -255q0 -124 -61.5 -211.5t-167.5 -121.5zM216 344q0 -90 47.5 -142t119.5 -52
q73 0 120 52t47 142t-47.5 141.5t-119.5 51.5t-119.5 -51.5t-47.5 -141.5z" />
    <glyph glyph-name="uni01EB" unicode="&#x1eb;" horiz-adv-x="574" 
d="M391 13q-6 -3 -15.5 -9t-22.5 -17.5t-21.5 -28t-8.5 -34.5q0 -41 40 -41q32 0 53 21l41 -68q-38 -45 -112 -45q-55 0 -87 29.5t-32 80.5q0 53 35 95q-105 8 -169.5 76t-64.5 171q0 111 72 181.5t188 70.5q117 0 188.5 -68.5t71.5 -179.5q0 -82 -41.5 -144t-114.5 -90z
M209 245q0 -46 21 -75t57 -29t57 28.5t21 75.5q0 48 -20.5 76t-57.5 28q-36 0 -57 -28t-21 -76z" />
    <glyph glyph-name="Aringacute" unicode="&#x1fa;" horiz-adv-x="687" 
d="M506 0l-38 127h-251l-38 -127h-182l238 686h11q-13 24 -13 51q0 47 32.5 76t78.5 29q43 0 74 -26l32 62h105l-101 -144q0 -25 -13 -48h10l238 -686h-183zM344 768q-15 0 -23.5 -8.5t-8.5 -22.5t8.5 -23t23.5 -9q14 0 23 9t9 23t-9 22.5t-23 8.5zM258 263h169l-84 280z
" />
    <glyph glyph-name="aringacute" unicode="&#x1fb;" horiz-adv-x="561" 
d="M277 537q-46 0 -78.5 29t-32.5 76t32.5 76t78.5 29q43 0 75 -27l53 104h110l-128 -186q-1 -45 -33 -73t-77 -28zM277 673q-15 0 -23.5 -8.5t-8.5 -22.5t8.5 -23t23.5 -9q14 0 23 9t9 23t-9 22.5t-23 8.5zM545 143l9 -136q-36 -12 -83 -12q-90 0 -124 73h-10
q-39 -73 -148 -73q-78 0 -122 35.5t-44 98.5q0 161 277 161h28v12q0 63 -69 63q-26 0 -43.5 -13t-20.5 -34h-158q7 86 68 131.5t162 45.5q115 0 174.5 -55.5t59.5 -154.5v-121q0 -26 19 -26q10 0 25 5zM245 121q37 0 60 15t23 41v28h-38q-96 0 -96 -48q0 -36 51 -36z" />
    <glyph glyph-name="AEacute" unicode="&#x1fc;" horiz-adv-x="1016" 
d="M703 878l-108 -145h-165l49 145h224zM654 158h322v-158h-504v127h-224l-69 -127h-196l382 686h606v-158h-317v-108h273v-150h-273v-112zM323 263h149v272h-1z" />
    <glyph glyph-name="aeacute" unicode="&#x1fd;" horiz-adv-x="851" 
d="M603 737l-100 -187h-142l39 187h203zM823 239v-30h-328q16 -78 93 -78q57 0 73 38h162q-12 -72 -69.5 -123t-169.5 -51q-119 0 -192 79q-74 -79 -203 -79q-78 0 -122 35.5t-44 98.5q0 161 277 161h28v12q0 63 -69 63q-25 0 -42 -13t-20 -34h-158q7 85 68 131t160 46
q102 0 162 -47q66 47 154 47q116 0 178 -72t62 -184zM583 369q-71 0 -87 -69h165q-11 69 -78 69zM245 121q37 0 64 14.5t28 38.5q-5 15 -6 31h-41q-96 0 -96 -48q0 -36 51 -36z" />
    <glyph glyph-name="Oslashacute" unicode="&#x1fe;" horiz-adv-x="766" 
d="M553 868l-108 -145h-165l49 145h224zM627 608q107 -99 107 -264q0 -159 -98 -255t-253 -96q-69 0 -129 20l-37 -59h-136l72 114q-121 99 -121 276q0 159 98 255t253 96q80 0 146 -27l30 48h136zM216 344q0 -73 33 -123l192 306q-26 10 -58 10q-72 0 -119.5 -51.5
t-47.5 -141.5zM383 150q73 0 120 52t47 142q0 61 -23 105l-184 -294q22 -5 40 -5z" />
    <glyph glyph-name="oslashacute" unicode="&#x1ff;" horiz-adv-x="574" 
d="M460 737l-100 -187h-142l39 187h203zM456 443q91 -69 91 -196q0 -110 -72 -181t-188 -71q-57 0 -104 18l-28 -45h-90l52 81q-90 69 -90 194q0 111 72 181.5t188 70.5q56 0 104 -17l22 35h88zM209 245q0 -23 6 -43l92 145q-12 2 -20 2q-36 0 -57 -28t-21 -76zM287 141
q36 0 57 28.5t21 75.5q0 25 -6 45l-92 -146q9 -3 20 -3z" />
    <glyph glyph-name="Scommaaccent" unicode="&#x218;" horiz-adv-x="630" 
d="M220 489q0 -24 21 -38.5t54.5 -22t73.5 -14.5t80.5 -20.5t74 -35t54.5 -62.5t21 -99q0 -94 -80 -149t-211 -55q-134 0 -206.5 56.5t-72.5 162.5h182q2 -71 104 -71q104 0 104 56q0 25 -21 40.5t-54.5 24t-73.5 16t-80.5 20.5t-74 33t-54.5 59.5t-21 94.5
q-1 93 75.5 151.5t199.5 58.5q128 0 200.5 -58.5t72.5 -161.5h-183q0 72 -92 72q-93 0 -93 -58zM327 -43q80 0 79 -105q0 -81 -43.5 -131t-99.5 -50v66q23 0 43 18.5t20 47.5q-36 0 -57 21t-22 55q0 35 22.5 57t57.5 21z" />
    <glyph glyph-name="scommaaccent" unicode="&#x219;" horiz-adv-x="508" 
d="M208 351q0 -19 28 -28t67.5 -15.5t79 -19.5t67.5 -49t28 -94q0 -73 -62 -111.5t-167 -38.5t-163 43t-58 123l149 -1q0 -52 68 -52q60 0 60 28q0 20 -28 30t-67.5 17t-79 20t-67.5 48.5t-28 92.5q0 72 61 111t166 40q99 0 154.5 -43t54.5 -118h-153q-1 48 -55 48
q-55 0 -55 -31zM272 -43q80 0 79 -105q0 -81 -43.5 -131t-99.5 -50v66q23 0 43 18.5t20 47.5q-36 0 -57 21t-22 55q0 35 22.5 57t57.5 21z" />
    <glyph glyph-name="uni021A" unicode="&#x21a;" horiz-adv-x="620" 
d="M218 0v536h-210v150h603v-150h-211v-536h-182zM237 -263q23 0 43 18.5t20 47.5q-36 0 -57 21t-22 55q0 35 22.5 57t57.5 21q80 0 79 -105q0 -81 -43.5 -131t-99.5 -50v66z" />
    <glyph glyph-name="uni021B" unicode="&#x21b;" horiz-adv-x="420" 
d="M399 350h-134v-139q0 -69 72 -69q28 0 55 10l5 -143q-40 -14 -93 -14q-105 0 -162 56.5t-57 149.5v150h-70v139h80v133h170v-133h134v-140zM253 -43q80 0 79 -105q0 -81 -43.5 -131t-99.5 -50v66q23 0 43 18.5t20 47.5q-36 0 -57 21t-22 55q0 35 22.5 57t57.5 21z" />
    <glyph glyph-name="uni0232" unicode="&#x232;" horiz-adv-x="637" 
d="M492 868v-120h-340v120h340zM643 686l-233 -437v-249h-182v247l-234 439h191l134 -272l133 272h191z" />
    <glyph glyph-name="uni0233" unicode="&#x233;" horiz-adv-x="537" 
d="M440 700v-120h-340v120h340zM356 490h181l-172 -490l-2 -6q-39 -109 -90.5 -156t-147.5 -47q-49 0 -87 9l9 145q22 -9 47 -9q34 0 58 14t28 42v7l-180 491h190l71 -269q2 -8 11 -60h4q6 45 10 60z" />
    <glyph glyph-name="uni0237" unicode="&#x237;" horiz-adv-x="290" 
d="M19 -209q-49 0 -87 9l9 145q22 -9 47 -9q71 0 71 69v485h180v-493q0 -91 -59.5 -148.5t-160.5 -57.5z" />
    <glyph glyph-name="uni0259" unicode="&#x259;" horiz-adv-x="550" 
d="M274 495q109 0 179 -69.5t70 -179.5q0 -111 -72.5 -181t-182.5 -70q-116 0 -178 71t-62 185v30h324q-14 79 -86 79q-31 0 -50.5 -12.5t-25.5 -26.5h-162q12 71 73 122.5t173 51.5zM268 120q68 0 84 70h-164q12 -70 80 -70z" />
    <glyph glyph-name="uni0272" unicode="&#x272;" horiz-adv-x="591" 
d="M379 495q81 0 123.5 -54t42.5 -135v-306h-180v262q0 35 -16.5 55.5t-48.5 20.5q-31 0 -50 -21t-19 -52v-268q0 -90 -57.5 -148t-147.5 -58q-49 0 -87 9l9 145q22 -9 47 -9q24 0 40 18t16 51v485h175l5 -71q43 76 148 76z" />
    <glyph glyph-name="circumflex" unicode="&#x2c6;" horiz-adv-x="410" 
d="M24 550l99 187h168l99 -187h-111l-72 87l-71 -87h-112z" />
    <glyph glyph-name="caron" unicode="&#x2c7;" horiz-adv-x="381" 
d="M20 737h112l71 -87l72 87h111l-99 -187h-168z" />
    <glyph glyph-name="breve" unicode="&#x2d8;" horiz-adv-x="378" 
d="M362 735q0 -88 -47 -138t-124 -50q-78 0 -125.5 50t-47.5 138h125q0 -39 11 -55t36 -16t35 16t10 55h127z" />
    <glyph glyph-name="dotaccent" unicode="&#x2d9;" horiz-adv-x="256" 
d="M142 751q48 0 77.5 -29t29.5 -75q0 -45 -29.5 -74t-77.5 -29t-78 29t-30 74q0 46 30 75t78 29z" />
    <glyph glyph-name="ring" unicode="&#x2da;" horiz-adv-x="300" 
d="M150 537q-46 0 -78.5 29t-32.5 76t32.5 76t78.5 29t78 -29t32 -76t-32 -76t-78 -29zM150 610q14 0 23 9t9 23t-9 22.5t-23 8.5q-15 0 -23.5 -8.5t-8.5 -22.5t8.5 -23t23.5 -9z" />
    <glyph glyph-name="ogonek" unicode="&#x2db;" horiz-adv-x="299" 
d="M266 -178q-38 -45 -112 -45q-55 0 -87 29.5t-32 80.5q0 31 12 58t29.5 44t35 29t29.5 17l12 5l49 -40q-8 -4 -19.5 -10.5t-31 -30t-19.5 -49.5q0 -41 40 -41q32 0 53 21z" />
    <glyph glyph-name="tilde" unicode="&#x2dc;" horiz-adv-x="471" 
d="M177 605q-39 0 -39 -42h-112q0 163 126 163q42 0 84.5 -20t59.5 -20q39 0 39 42h112q0 -163 -125 -163q-40 0 -83.5 20t-61.5 20z" />
    <glyph glyph-name="hungarumlaut" unicode="&#x2dd;" horiz-adv-x="599" 
d="M193 550h-151l49 187h210zM441 550h-151l49 187h210z" />
    <glyph glyph-name="gravecomb" unicode="&#x300;" 
d="M-189 550l-100 187h203l39 -187h-142z" />
    <glyph glyph-name="acutecomb" unicode="&#x301;" 
d="M-129 550h-142l39 187h203z" />
    <glyph glyph-name="uni0302" unicode="&#x302;" 
d="M-390 550l99 187h168l99 -187h-111l-72 87l-71 -87h-112z" />
    <glyph glyph-name="tildecomb" unicode="&#x303;" 
d="M-293 605q-39 0 -39 -42h-112q0 163 126 163q42 0 84.5 -20t59.5 -20q39 0 39 42h112q0 -163 -125 -163q-40 0 -83.5 20t-61.5 20z" />
    <glyph glyph-name="uni0304" unicode="&#x304;" 
d="M-390 580v120h340v-120h-340z" />
    <glyph glyph-name="uni0306" unicode="&#x306;" 
d="M-18 735q0 -88 -47 -138t-124 -50q-78 0 -125.5 50t-47.5 138h125q0 -39 11 -55t36 -16t35 16t10 55h127z" />
    <glyph glyph-name="uni0307" unicode="&#x307;" 
d="M-141 751q48 0 77.5 -29t29.5 -75q0 -45 -29.5 -74t-77.5 -29t-78 29t-30 74q0 46 30 75t78 29z" />
    <glyph glyph-name="uni0308" unicode="&#x308;" 
d="M-337 726q40 0 64.5 -24t24.5 -63q0 -38 -24.5 -62t-64.5 -24t-65 24t-25 62t25 62.5t65 24.5zM-119 726q40 0 64.5 -24t24.5 -63q0 -38 -24.5 -62t-64.5 -24t-65 24t-25 62t25 62.5t65 24.5z" />
    <glyph glyph-name="uni030A" unicode="&#x30a;" 
d="M-151 537q-46 0 -78.5 29t-32.5 76t32.5 76t78.5 29t78 -29t32 -76t-32 -76t-78 -29zM-151 610q14 0 23 9t9 23t-9 22.5t-23 8.5q-15 0 -23.5 -8.5t-8.5 -22.5t8.5 -23t23.5 -9z" />
    <glyph glyph-name="uni030B" unicode="&#x30b;" 
d="M-369 550h-151l49 187h210zM-121 550h-151l49 187h210z" />
    <glyph glyph-name="uni030C" unicode="&#x30c;" 
d="M-386 737h112l71 -87l72 87h111l-99 -187h-168z" />
    <glyph glyph-name="dotbelowcomb" unicode="&#x323;" 
d="M-141 -37q48 0 77.5 -29t29.5 -75q0 -45 -29.5 -74t-77.5 -29t-78 29t-30 74q0 46 30 75t78 29z" />
    <glyph glyph-name="uni0326" unicode="&#x326;" 
d="M-188 -263q23 0 43 18.5t20 47.5q-36 0 -57 21t-22 55q0 35 22.5 57t57.5 21q80 0 79 -105q0 -81 -43.5 -131t-99.5 -50v66z" />
    <glyph glyph-name="uni0327" unicode="&#x327;" 
d="M-216 -121q20 -13 53 -13q44 0 44 24q0 28 -82 28l25 104h77l-10 -48q39 -9 59 -32.5t20 -56.5q0 -48 -38.5 -76t-93.5 -28q-42 0 -74 15z" />
    <glyph glyph-name="uni0328" unicode="&#x328;" 
d="M-33 -178q-38 -45 -112 -45q-55 0 -87 29.5t-32 80.5q0 31 12 58t29.5 44t35 29t29.5 17l12 5l49 -40q-8 -4 -19.5 -10.5t-31 -30t-19.5 -49.5q0 -41 40 -41q32 0 53 21z" />
    <glyph glyph-name="uni0335" unicode="&#x335;" 
d="M-414 253h364v-92h-364v92z" />
    <glyph glyph-name="uni0336" unicode="&#x336;" 
d="M-454 263h434v-102h-434v102z" />
    <glyph glyph-name="uni0337" unicode="&#x337;" 
d="M-407 358l339 193l44 -79l-339 -194z" />
    <glyph glyph-name="uni0338" unicode="&#x338;" 
d="M-111 524h88l-346 -545h-90z" />
    <glyph glyph-name="Wgrave" unicode="&#x1e80;" horiz-adv-x="981" 
d="M572 733h-165l-110 145h224zM798 686h179l-178 -686h-212l-96 471l-97 -471h-212l-178 686h179l112 -523l98 523h195l99 -523z" />
    <glyph glyph-name="wgrave" unicode="&#x1e81;" horiz-adv-x="786" 
d="M466 550h-142l-100 187h203zM599 490h181l-129 -490h-203l-41 182q-10 46 -12 70h-4q-3 -37 -12 -70l-41 -182h-203l-129 490h181l46 -251q5 -30 10 -73h4q7 51 12 73l58 251h152l58 -251q5 -22 12 -73h4q5 42 10 73z" />
    <glyph glyph-name="Wacute" unicode="&#x1e82;" horiz-adv-x="981" 
d="M674 878l-108 -145h-165l49 145h224zM798 686h179l-178 -686h-212l-96 471l-97 -471h-212l-178 686h179l112 -523l98 523h195l99 -523z" />
    <glyph glyph-name="wacute" unicode="&#x1e83;" horiz-adv-x="786" 
d="M558 737l-100 -187h-142l39 187h203zM599 490h181l-129 -490h-203l-41 182q-10 46 -12 70h-4q-3 -37 -12 -70l-41 -182h-203l-129 490h181l46 -251q5 -30 10 -73h4q7 51 12 73l58 251h152l58 -251q5 -22 12 -73h4q5 42 10 73z" />
    <glyph glyph-name="Wdieresis" unicode="&#x1e84;" horiz-adv-x="981" 
d="M386 734q-40 0 -65 24t-25 62t25 62.5t65 24.5t64.5 -24t24.5 -63q0 -38 -24.5 -62t-64.5 -24zM604 734q-40 0 -65 24t-25 62t25 62.5t65 24.5t64.5 -24t24.5 -63q0 -38 -24.5 -62t-64.5 -24zM798 686h179l-178 -686h-212l-96 471l-97 -471h-212l-178 686h179l112 -523
l98 523h195l99 -523z" />
    <glyph glyph-name="wdieresis" unicode="&#x1e85;" horiz-adv-x="786" 
d="M287 553q-40 0 -65 24t-25 62t25 62.5t65 24.5t64.5 -24t24.5 -63q0 -38 -24.5 -62t-64.5 -24zM505 553q-40 0 -65 24t-25 62t25 62.5t65 24.5t64.5 -24t24.5 -63q0 -38 -24.5 -62t-64.5 -24zM599 490h181l-129 -490h-203l-41 182q-10 46 -12 70h-4q-3 -37 -12 -70
l-41 -182h-203l-129 490h181l46 -251q5 -30 10 -73h4q7 51 12 73l58 251h152l58 -251q5 -22 12 -73h4q5 42 10 73z" />
    <glyph glyph-name="uni1E9E" unicode="&#x1e9e;" horiz-adv-x="691" 
d="M529 385q62 -22 97 -66t35 -107q0 -95 -71.5 -153.5t-189.5 -58.5h-57v137h57q35 0 56 18.5t21 56.5q0 37 -21 57.5t-56 20.5h-38v116l61 130h-110q-70 0 -70 -78v-458h-182v467q0 97 60 158t166 61h333v-116z" />
    <glyph glyph-name="uni1EA0" unicode="&#x1ea0;" horiz-adv-x="687" 
d="M689 0h-183l-38 127h-251l-38 -127h-182l238 686h216zM258 263h169l-84 280zM346 -37q48 0 77.5 -29t29.5 -75q0 -45 -29.5 -74t-77.5 -29t-78 29t-30 74q0 46 30 75t78 29z" />
    <glyph glyph-name="uni1EA1" unicode="&#x1ea1;" horiz-adv-x="561" 
d="M545 143l9 -136q-36 -12 -83 -12q-90 0 -124 73h-10q-39 -73 -148 -73q-78 0 -122 35.5t-44 98.5q0 161 277 161h28v12q0 63 -69 63q-26 0 -43.5 -13t-20.5 -34h-158q7 86 68 131.5t162 45.5q115 0 174.5 -55.5t59.5 -154.5v-121q0 -26 19 -26q10 0 25 5zM245 121
q37 0 60 15t23 41v28h-38q-96 0 -96 -48q0 -36 51 -36zM283 -37q48 0 77.5 -29t29.5 -75q0 -45 -29.5 -74t-77.5 -29t-78 29t-30 74q0 46 30 75t78 29z" />
    <glyph glyph-name="uni1EB8" unicode="&#x1eb8;" horiz-adv-x="609" 
d="M248 148h322v-148h-504v686h499v-148h-317v-122h273v-143h-273v-125zM329 -37q48 0 77.5 -29t29.5 -75q0 -45 -29.5 -74t-77.5 -29t-78 29t-30 74q0 46 30 75t78 29z" />
    <glyph glyph-name="uni1EB9" unicode="&#x1eb9;" horiz-adv-x="550" 
d="M522 239v-30h-324q15 -78 91 -78q55 0 71 38h162q-12 -72 -72.5 -123t-172.5 -51q-110 0 -180 69.5t-70 179.5q0 111 72.5 181t182.5 70q116 0 178 -72t62 -184zM284 369q-69 0 -85 -69h161q-11 69 -76 69zM283 -37q48 0 77.5 -29t29.5 -75q0 -45 -29.5 -74t-77.5 -29
t-78 29t-30 74q0 46 30 75t78 29z" />
    <glyph glyph-name="uni1EBC" unicode="&#x1ebc;" horiz-adv-x="609" 
d="M259 776q-18 0 -28.5 -10t-10.5 -27h-112q0 158 131 158q37 0 79 -17.5t54 -17.5q15 0 24.5 10.5t9.5 26.5h112q0 -79 -32 -118.5t-88 -39.5q-41 0 -85.5 17.5t-53.5 17.5zM248 148h322v-148h-504v686h499v-148h-317v-122h273v-143h-273v-125z" />
    <glyph glyph-name="uni1EBD" unicode="&#x1ebd;" horiz-adv-x="550" 
d="M212 605q-39 0 -39 -42h-112q0 163 126 163q42 0 84.5 -20t59.5 -20q39 0 39 42h112q0 -163 -125 -163q-40 0 -83.5 20t-61.5 20zM522 239v-30h-324q15 -78 91 -78q55 0 71 38h162q-12 -72 -72.5 -123t-172.5 -51q-110 0 -180 69.5t-70 179.5q0 111 72.5 181t182.5 70
q116 0 178 -72t62 -184zM284 369q-69 0 -85 -69h161q-11 69 -76 69z" />
    <glyph glyph-name="uni1ECA" unicode="&#x1eca;" horiz-adv-x="314" 
d="M66 0v686h182v-686h-182zM157 -37q48 0 77.5 -29t29.5 -75q0 -45 -29.5 -74t-77.5 -29t-78 29t-30 74q0 46 30 75t78 29z" />
    <glyph glyph-name="uni1ECB" unicode="&#x1ecb;" horiz-adv-x="282" 
d="M143 750q48 0 77.5 -29t29.5 -75q0 -45 -29.5 -74t-77.5 -29t-78 29t-30 74q0 46 30 75t78 29zM51 0v490h180v-490h-180zM141 -37q48 0 77.5 -29t29.5 -75q0 -45 -29.5 -74t-77.5 -29t-78 29t-30 74q0 46 30 75t78 29z" />
    <glyph glyph-name="uni1ECC" unicode="&#x1ecc;" horiz-adv-x="766" 
d="M383 -7q-155 0 -253 96t-98 255t98 255t253 96t253 -96t98 -255t-98 -255t-253 -96zM383 150q73 0 120 52t47 142t-47.5 141.5t-119.5 51.5t-119.5 -51.5t-47.5 -141.5t47.5 -142t119.5 -52zM383 -37q48 0 77.5 -29t29.5 -75q0 -45 -29.5 -74t-77.5 -29t-78 29t-30 74
q0 46 30 75t78 29z" />
    <glyph glyph-name="uni1ECD" unicode="&#x1ecd;" horiz-adv-x="574" 
d="M287 495q117 0 188.5 -68.5t71.5 -179.5q0 -110 -72 -181t-188 -71t-188 69.5t-72 178.5q0 111 72 181.5t188 70.5zM287 349q-36 0 -57 -28t-21 -76q0 -46 21 -75t57 -29t57 28.5t21 75.5q0 48 -20.5 76t-57.5 28zM287 -37q48 0 77.5 -29t29.5 -75q0 -45 -29.5 -74
t-77.5 -29t-78 29t-30 74q0 46 30 75t78 29z" />
    <glyph glyph-name="uni1EE4" unicode="&#x1ee4;" horiz-adv-x="722" 
d="M482 686h182v-407q0 -133 -81 -209.5t-221 -76.5q-142 0 -223 76t-81 210l1 407h182v-407q0 -63 31 -96t90 -33t89.5 33t30.5 96v407zM362 -37q48 0 77.5 -29t29.5 -75q0 -45 -29.5 -74t-77.5 -29t-78 29t-30 74q0 46 30 75t78 29z" />
    <glyph glyph-name="uni1EE5" unicode="&#x1ee5;" horiz-adv-x="579" 
d="M348 490h180v-490h-175l-5 72q-43 -77 -137 -77q-83 0 -124 52.5t-41 131.5v311h180v-262q0 -34 16 -55t46 -21q25 0 42.5 21.5t17.5 51.5v265zM301 -37q48 0 77.5 -29t29.5 -75q0 -45 -29.5 -74t-77.5 -29t-78 29t-30 74q0 46 30 75t78 29z" />
    <glyph glyph-name="Ygrave" unicode="&#x1ef2;" horiz-adv-x="637" 
d="M399 733h-165l-110 145h224zM643 686l-233 -437v-249h-182v247l-234 439h191l134 -272l133 272h191z" />
    <glyph glyph-name="ygrave" unicode="&#x1ef3;" horiz-adv-x="537" 
d="M340 550h-142l-100 187h203zM356 490h181l-172 -490l-2 -6q-39 -109 -90.5 -156t-147.5 -47q-49 0 -87 9l9 145q22 -9 47 -9q34 0 58 14t28 42v7l-180 491h190l71 -269q2 -8 11 -60h4q6 45 10 60z" />
    <glyph glyph-name="uni1EF8" unicode="&#x1ef8;" horiz-adv-x="637" 
d="M265 776q-18 0 -28.5 -10t-10.5 -27h-112q0 158 131 158q37 0 79 -17.5t54 -17.5q15 0 24.5 10.5t9.5 26.5h112q0 -79 -32 -118.5t-88 -39.5q-42 0 -86 17.5t-53 17.5zM643 686l-233 -437v-249h-182v247l-234 439h191l134 -272l133 272h191z" />
    <glyph glyph-name="uni1EF9" unicode="&#x1ef9;" horiz-adv-x="537" 
d="M200 605q-39 0 -39 -42h-112q0 163 126 163q42 0 84.5 -20t59.5 -20q39 0 39 42h112q0 -163 -125 -163q-40 0 -83.5 20t-61.5 20zM356 490h181l-172 -490l-2 -6q-39 -109 -90.5 -156t-147.5 -47q-49 0 -87 9l9 145q22 -9 47 -9q34 0 58 14t28 42v7l-180 491h190l71 -269
q2 -8 11 -60h4q6 45 10 60z" />
    <glyph glyph-name="endash" unicode="&#x2013;" horiz-adv-x="571" 
d="M48 222v140h475v-140h-475z" />
    <glyph glyph-name="emdash" unicode="&#x2014;" horiz-adv-x="824" 
d="M48 222v140h728v-140h-728z" />
    <glyph glyph-name="quoteleft" unicode="&#x2018;" horiz-adv-x="267" 
d="M215 680q-28 0 -55.5 -25.5t-27.5 -56.5q1 0 5 0.5t9 0.5q43 0 69 -29t26 -73q0 -48 -29.5 -74.5t-76.5 -26.5q-49 0 -79.5 31t-30.5 99q0 58 22 111.5t66.5 89t101.5 35.5v-82z" />
    <glyph glyph-name="quoteright" unicode="&#x2019;" horiz-adv-x="267" 
d="M55 478q28 0 55.5 25.5t27.5 56.5q-1 0 -5 -0.5t-9 -0.5q-43 0 -69 29t-26 73q0 48 29.5 74.5t76.5 26.5q49 0 79.5 -31t30.5 -99q0 -58 -22 -111.5t-66.5 -89t-101.5 -35.5v82z" />
    <glyph glyph-name="quotesinglbase" unicode="&#x201a;" horiz-adv-x="280" 
d="M56 -76q28 0 55.5 25.5t27.5 56.5q-1 0 -5 -0.5t-9 -0.5q-43 0 -69 29t-26 73q0 48 29.5 74.5t76.5 26.5q49 0 79.5 -31t30.5 -99q0 -58 -22 -111.5t-66.5 -89t-101.5 -35.5v82z" />
    <glyph glyph-name="quotedblleft" unicode="&#x201c;" horiz-adv-x="520" 
d="M215 680q-28 0 -55.5 -25.5t-27.5 -56.5q1 0 5 0.5t9 0.5q43 0 69 -29t26 -73q0 -48 -29.5 -74.5t-76.5 -26.5q-49 0 -79.5 31t-30.5 99q0 58 22 111.5t66.5 89t101.5 35.5v-82zM468 680q-28 0 -55.5 -25.5t-27.5 -56.5q1 0 5 0.5t9 0.5q43 0 69 -29t26 -73
q0 -48 -29.5 -74.5t-76.5 -26.5q-49 0 -79.5 31t-30.5 99q0 58 22 111.5t66.5 89t101.5 35.5v-82z" />
    <glyph glyph-name="quotedblright" unicode="&#x201d;" horiz-adv-x="520" 
d="M55 478q28 0 55.5 25.5t27.5 56.5q-1 0 -5 -0.5t-9 -0.5q-43 0 -69 29t-26 73q0 48 29.5 74.5t76.5 26.5q49 0 79.5 -31t30.5 -99q0 -58 -22 -111.5t-66.5 -89t-101.5 -35.5v82zM308 478q28 0 55.5 25.5t27.5 56.5q-1 0 -5 -0.5t-9 -0.5q-43 0 -69 29t-26 73
q0 48 29.5 74.5t76.5 26.5q49 0 79.5 -31t30.5 -99q0 -58 -22 -111.5t-66.5 -89t-101.5 -35.5v82z" />
    <glyph glyph-name="quotedblbase" unicode="&#x201e;" horiz-adv-x="532" 
d="M56 -86q28 0 55.5 25.5t27.5 56.5q-1 0 -5 -0.5t-9 -0.5q-43 0 -69 29t-26 73q0 48 29.5 74.5t76.5 26.5q49 0 79.5 -31t30.5 -99q0 -58 -22 -111.5t-66.5 -89t-101.5 -35.5v82zM309 -86q28 0 55.5 25.5t27.5 56.5q-1 0 -5 -0.5t-9 -0.5q-43 0 -69 29t-26 73
q0 48 29.5 74.5t76.5 26.5q49 0 79.5 -31t30.5 -99q0 -58 -22 -111.5t-66.5 -89t-101.5 -35.5v82z" />
    <glyph glyph-name="dagger" unicode="&#x2020;" horiz-adv-x="406" 
d="M363 605v-118h-97v-329h-126v329h-97v118h97v105h126v-105h97z" />
    <glyph glyph-name="daggerdbl" unicode="&#x2021;" horiz-adv-x="406" 
d="M363 487h-97v-106h97v-118h-97v-105h-126v105h-97v118h97v106h-97v118h97v105h126v-105h97v-118z" />
    <glyph glyph-name="bullet" unicode="&#x2022;" horiz-adv-x="407" 
d="M203 495q68 0 109.5 -40.5t41.5 -104.5t-41.5 -104.5t-109.5 -40.5q-67 0 -109 41t-42 104q0 64 42 104.5t109 40.5z" />
    <glyph glyph-name="ellipsis" unicode="&#x2026;" horiz-adv-x="764" 
d="M136 199q48 0 77.5 -28.5t30.5 -74.5q0 -45 -30 -74.5t-78 -29.5t-77.5 29.5t-29.5 74.5q0 46 29.5 74.5t77.5 28.5zM381 199q48 0 77.5 -28.5t30.5 -74.5q0 -45 -30 -74.5t-78 -29.5t-77.5 29.5t-29.5 74.5q0 46 29.5 74.5t77.5 28.5zM626 199q48 0 77.5 -28.5
t30.5 -74.5q0 -45 -30 -74.5t-78 -29.5t-77.5 29.5t-29.5 74.5q0 46 29.5 74.5t77.5 28.5z" />
    <glyph glyph-name="perthousand" unicode="&#x2030;" horiz-adv-x="1215" 
d="M576 695h122l-307 -695h-124zM409 494q0 -92 -51 -144t-141 -52t-141 52t-51 144t51 144.5t141 52.5t141 -52.5t51 -144.5zM217 414q61 0 61 80q0 81 -61 81t-61 -81q0 -80 61 -80zM999 388q90 0 141 -52.5t51 -144.5q0 -93 -51 -144.5t-141 -51.5q-79 0 -126 39
q-48 -39 -127 -39q-90 0 -141 51.5t-51 144.5q0 92 51 144.5t141 52.5q77 0 127 -39q48 39 126 39zM746 111q61 0 61 80q0 38 -16 59.5t-45 21.5t-45 -21.5t-16 -59.5q0 -80 61 -80zM999 111q61 0 61 80q0 38 -16 59.5t-45 21.5t-45 -21.5t-16 -59.5q0 -80 61 -80z" />
    <glyph glyph-name="guilsinglleft" unicode="&#x2039;" horiz-adv-x="331" 
d="M22 237v10l114 169h161l-121 -174l122 -175h-162z" />
    <glyph glyph-name="guilsinglright" unicode="&#x203a;" horiz-adv-x="331" 
d="M309 237l-114 -170h-162l122 175l-121 174h161l114 -169v-10z" />
    <glyph glyph-name="fraction" unicode="&#x2044;" horiz-adv-x="210" 
d="M-114 0l309 695h122l-307 -695h-124z" />
    <glyph glyph-name="Euro" unicode="&#x20ac;" horiz-adv-x="739" 
d="M421 151q71 0 103 65h183q-23 -101 -95.5 -162t-196.5 -61q-111 0 -189 61.5t-107 170.5h-93l15 101h64v18v12h-79l15 101h76q27 113 105.5 175.5t192.5 62.5q123 0 196.5 -60.5t96.5 -161.5h-187q-32 64 -101 64q-80 0 -113 -80h142l-15 -101h-145v-12v-18h160l-15 -101
h-124q34 -74 111 -74z" />
    <glyph glyph-name="trademark" unicode="&#x2122;" horiz-adv-x="745" 
d="M27 590v96h265v-96h-82v-193h-101v193h-82zM560 686h129v-289h-103l3 144l-50 -144h-79l-48 144l4 -144h-103v289h127l60 -159z" />
    <glyph glyph-name="oneeighth" unicode="&#x215b;" horiz-adv-x="917" 
d="M37 401h77v142h-80v95q51 0 79 14t47 48h86v-299h59v-112h-268v112zM536 696h135l-311 -696h-137zM844 221q48 -36 48 -91q0 -67 -47 -101t-127 -34t-127 34t-47 101q0 55 48 91q-34 32 -34 75q0 63 47 95t113 32q67 0 113.5 -32t46.5 -95q0 -44 -34 -75zM718 323
q-39 0 -39 -30t40 -30q17 0 28 7t10 23q1 15 -11 22.5t-28 7.5zM718 95q24 0 37 9t12 28q1 18 -12.5 27.5t-35.5 9.5t-36 -9.5t-14 -27.5q0 -37 49 -37z" />
    <glyph glyph-name="threeeighths" unicode="&#x215c;" horiz-adv-x="986" 
d="M589 696h135l-311 -696h-137zM366 392q2 -54 -43.5 -90t-127.5 -36q-74 0 -122 40t-48 99l131 -1q2 -23 40 -23q37 0 37 25q1 13 -8 18.5t-27 5.5h-37v91h22q39 0 39 28q0 25 -28 25q-29 0 -32 -37l-131 -1q0 70 44.5 111.5t116.5 41.5q70 0 116.5 -39.5t46.5 -96.5
q0 -46 -33 -76q44 -31 44 -85zM913 221q48 -36 48 -91q0 -67 -47 -101t-127 -34t-127 34t-47 101q0 55 48 91q-34 32 -34 75q0 63 47 95t113 32q67 0 113.5 -32t46.5 -95q0 -44 -34 -75zM787 323q-39 0 -39 -30t40 -30q17 0 28 7t10 23q1 15 -11 22.5t-28 7.5zM787 95
q24 0 37 9t12 28q1 18 -12.5 27.5t-35.5 9.5t-36 -9.5t-14 -27.5q0 -37 49 -37z" />
    <glyph glyph-name="fiveeighths" unicode="&#x215d;" horiz-adv-x="997" 
d="M602 695h122l-307 -695h-124zM375 407q0 -66 -52.5 -104.5t-126.5 -38.5q-72 0 -122 35t-50 97h125q1 -26 47 -26q52 0 52 37q0 38 -48 38q-26 0 -45 -12l-111 40l22 213h281v-103h-176l-4 -37q17 4 42 4q72 0 119 -36.5t47 -106.5zM922 221q48 -36 48 -91
q0 -67 -47 -101t-127 -34t-127 34t-47 101q0 55 48 91q-34 32 -34 75q0 63 47 95t113 32q67 0 113.5 -32t46.5 -95q0 -44 -34 -75zM796 323q-39 0 -39 -30t40 -30q17 0 28 7t10 23q1 15 -11 22.5t-28 7.5zM796 95q24 0 37 9t12 28q1 18 -12.5 27.5t-35.5 9.5t-36 -9.5
t-14 -27.5q1 -37 49 -37z" />
    <glyph glyph-name="seveneighths" unicode="&#x215e;" horiz-adv-x="919" 
d="M522 695h122l-307 -695h-124zM356 686v-94l-150 -303h-139l151 292v2h-194v103h332zM842 221q48 -36 48 -91q0 -67 -47 -101t-127 -34t-127 34t-47 101q0 55 48 91q-34 32 -34 75q0 63 47 95t113 32q67 0 113.5 -32t46.5 -95q0 -44 -34 -75zM716 323q-39 0 -39 -30
t40 -30q17 0 28 7t10 23q1 15 -11 22.5t-28 7.5zM716 95q24 0 37 9t12 28q1 18 -12.5 27.5t-35.5 9.5t-36 -9.5t-14 -27.5q1 -37 49 -37z" />
    <glyph glyph-name="minus" unicode="&#x2212;" horiz-adv-x="538" 
d="M51 272v149h436v-149h-436z" />
    <glyph glyph-name="approxequal" unicode="&#x2248;" horiz-adv-x="545" 
d="M56 368v138q45 32 120 32q36 0 104 -16t99 -16q69 0 113 34v-138q-46 -32 -112 -32q-37 0 -107.5 16t-99.5 16q-31 0 -65.5 -10t-51.5 -24zM56 150v138q45 32 120 32q36 0 104 -16t99 -16q69 0 113 34v-138q-46 -32 -112 -32q-37 0 -107.5 16t-99.5 16q-31 0 -65.5 -10
t-51.5 -24z" />
    <glyph glyph-name="notequal" unicode="&#x2260;" horiz-adv-x="538" 
d="M487 382h-143l-30 -71h173v-149h-237l-43 -100h-115l43 100h-84v149h148l30 71h-178v149h242l39 90h115l-39 -90h79v-149z" />
    <glyph glyph-name="uniF8FF" unicode="&#xf8ff;" horiz-adv-x="1464" 
d="M697 606q0 28 18 46.5t44 18.5t44.5 -18.5t18.5 -46.5q0 -26 -18.5 -44.5t-44.5 -18.5t-44 18.5t-18 44.5zM221 281h-120q0 141 9 326h101q10 -205 10 -326zM701 281q0 95 3 153h-62l3 -68q4 -4 15 -4q13 0 18 5v-77q-14 -15 -68 -15q-83 0 -83 68q0 13 2 51t2 40h-22v82
l120 31l1 -18h180q10 -66 10 -248h-119zM331 276q-92 0 -92 118q0 141 134 141q126 0 126 -122v-132h-84l-8 63q-13 -68 -76 -68zM1100 281h-115q0 27 1 58.5t1 38.5q0 30 -15 30q-18 0 -18 -30q0 -7 1.5 -38.5t1.5 -58.5h-115q0 182 10 248h81q6 -46 6 -79q2 15 6.5 31
t24.5 35t50 19q42 0 58.5 -26t18.5 -85zM1363 407q0 -131 -123 -131t-123 129q0 130 125 130q121 0 121 -128zM394 390q0 27 -25 27q-21 0 -21 -27q0 -31 21 -31q25 0 25 31zM1262 390q0 27 -22 27t-22 -27q0 -31 22 -31t22 31zM432 248h105q11 -60 11 -144t-34 -120
t-120 -36q-65 0 -89 18v86q25 -17 70 -17q21 0 34.5 6.5t17 12t3.5 10.5q-17 -11 -50 -11q-90 0 -90 86v14h-55l3 -68q6 -4 15 -4q12 0 17 5v-76q-19 -15 -68 -15q-45 0 -63.5 17.5t-18.5 56.5t3 84h-18v83l118 30l-1 -18h179v-124q0 -17 3 -22.5t12 -5.5q16 0 16 28v124z
M740 253q37 0 59 -30.5t22 -87.5q0 -140 -139 -140q1 -16 1 -41h-120q0 144 10 294h80q6 -39 6 -80q17 85 81 85zM1080 132q0 -22 -3 -36h-125q11 -19 50 -19q35 0 56 12v-78q-23 -16 -79 -16q-142 0 -142 127q0 61 33 96t93 35q56 0 86.5 -31.5t30.5 -89.5zM987 113
q3 28 -17 28q-23 0 -23 -28h40zM676 75q11 0 24.5 8.5t13.5 29.5q0 24 -21 24q-22 0 -22 -32q0 -15 5 -30zM1084 14q0 -24 24 -24q25 0 25 24q0 23 -25 23q-24 0 -24 -23zM1090 14q0 18 18 18q19 0 19 -18q0 -19 -19 -19q-18 0 -18 19zM1119 2l-7 9q8 0 8 8q0 7 -11 7h-11
v-24h5v9h5l4 -9h7zM1110 16h-7v6h7q4 0 4 -3t-4 -3z" />
    <glyph glyph-name="J.ss01" horiz-adv-x="469" 
d="M30 161q60 -5 98 -5q51 0 75 22t24 70v438h182v-433q0 -122 -70 -187.5t-206 -65.5q-45 0 -103 5v156z" />
    <glyph glyph-name="Jcircumflex.ss01" horiz-adv-x="469" 
d="M401 878l99 -145h-121l-62 60l-61 -60h-122l99 145h168zM30 161q60 -5 98 -5q51 0 75 22t24 70v438h182v-433q0 -122 -70 -187.5t-206 -65.5q-45 0 -103 5v156z" />
    <glyph glyph-name="K.ss01" horiz-adv-x="691" 
d="M695 141l9 -134q-36 -12 -85 -12q-52 0 -88.5 16t-54 36t-41.5 57l-106 168l-81 -97v-175h-182v686h182v-302l233 302h210l-240 -287l145 -225q24 -38 60 -38q22 0 39 5z" />
    <glyph glyph-name="Kcommaaccent.ss01" horiz-adv-x="691" 
d="M695 141l9 -134q-36 -12 -85 -12q-52 0 -88.5 16t-54 36t-41.5 57l-106 168l-81 -97v-175h-182v686h182v-302l233 302h210l-240 -287l145 -225q24 -38 60 -38q22 0 39 5zM371 -43q80 0 79 -105q0 -81 -43.5 -131t-99.5 -50v66q23 0 43 18.5t20 47.5q-36 0 -57 21t-22 55
q0 35 22.5 57t57.5 21z" />
    <glyph glyph-name="R.ss01" horiz-adv-x="671" 
d="M453 0l-110 230h-95v-230h-182v686h292q131 0 201.5 -59.5t70.5 -168.5q0 -131 -111 -191l130 -267h-196zM248 540v-171h110q43 0 65.5 22.5t22.5 62.5t-22.5 63t-65.5 23h-110z" />
    <glyph glyph-name="Racute.ss01" horiz-adv-x="671" 
d="M504 878l-108 -145h-165l49 145h224zM453 0l-110 230h-95v-230h-182v686h292q131 0 201.5 -59.5t70.5 -168.5q0 -131 -111 -191l130 -267h-196zM248 540v-171h110q43 0 65.5 22.5t22.5 62.5t-22.5 63t-65.5 23h-110z" />
    <glyph glyph-name="Rcaron.ss01" horiz-adv-x="671" 
d="M407 733h-168l-99 145h122l61 -60l62 60h121zM453 0l-110 230h-95v-230h-182v686h292q131 0 201.5 -59.5t70.5 -168.5q0 -131 -111 -191l130 -267h-196zM248 540v-171h110q43 0 65.5 22.5t22.5 62.5t-22.5 63t-65.5 23h-110z" />
    <glyph glyph-name="Rcommaaccent.ss01" horiz-adv-x="671" 
d="M519 267l130 -267h-196l-110 230h-95v-230h-182v686h292q131 0 201.5 -59.5t70.5 -168.5q0 -131 -111 -191zM248 540v-171h110q43 0 65.5 22.5t22.5 62.5t-22.5 63t-65.5 23h-110zM347 -43q80 0 79 -105q0 -81 -43.5 -131t-99.5 -50v66q23 0 43 18.5t20 47.5
q-36 0 -57 21t-22 55q0 35 22.5 57t57.5 21z" />
    <glyph glyph-name="i.loclTRK" horiz-adv-x="282" 
d="M143 750q48 0 77.5 -29t29.5 -75q0 -45 -29.5 -74t-77.5 -29t-78 29t-30 74q0 46 30 75t78 29zM51 0v490h180v-490h-180z" />
    <glyph glyph-name="a.ss01" horiz-adv-x="546" 
d="M267 495q114 0 174 -58t60 -157v-280h-163l-4 63q-37 -68 -150 -68q-77 0 -119 36t-42 99q0 160 272 160h33v7q0 29 -17.5 48.5t-49.5 19.5q-27 0 -45 -13t-21 -34h-158q9 86 70 131.5t160 45.5zM249 119q35 0 57 16.5t22 41.5v28h-43q-91 0 -91 -48q0 -38 55 -38z" />
    <glyph glyph-name="aacute.ss01" horiz-adv-x="546" 
d="M433 737l-100 -187h-142l39 187h203zM267 495q114 0 174 -58t60 -157v-280h-163l-4 63q-37 -68 -150 -68q-77 0 -119 36t-42 99q0 160 272 160h33v7q0 29 -17.5 48.5t-49.5 19.5q-27 0 -45 -13t-21 -34h-158q9 86 70 131.5t160 45.5zM249 119q35 0 57 16.5t22 41.5v28
h-43q-91 0 -91 -48q0 -38 55 -38z" />
    <glyph glyph-name="abreve.ss01" horiz-adv-x="546" 
d="M268 547q-78 0 -125.5 50t-47.5 138h125q0 -39 11 -55t36 -16t35 16t10 55h127q0 -88 -47 -138t-124 -50zM267 495q114 0 174 -58t60 -157v-280h-163l-4 63q-37 -68 -150 -68q-77 0 -119 36t-42 99q0 160 272 160h33v7q0 29 -17.5 48.5t-49.5 19.5q-27 0 -45 -13t-21 -34
h-158q9 86 70 131.5t160 45.5zM249 119q35 0 57 16.5t22 41.5v28h-43q-91 0 -91 -48q0 -38 55 -38z" />
    <glyph glyph-name="acircumflex.ss01" horiz-adv-x="546" 
d="M268 638l-71 -87h-112l99 187h168l99 -187h-111zM267 495q114 0 174 -58t60 -157v-280h-163l-4 63q-37 -68 -150 -68q-77 0 -119 36t-42 99q0 160 272 160h33v7q0 29 -17.5 48.5t-49.5 19.5q-27 0 -45 -13t-21 -34h-158q9 86 70 131.5t160 45.5zM249 119q35 0 57 16.5
t22 41.5v28h-43q-91 0 -91 -48q0 -38 55 -38z" />
    <glyph glyph-name="adieresis.ss01" horiz-adv-x="546" 
d="M162 553q-40 0 -65 24t-25 62t25 62.5t65 24.5t64.5 -24t24.5 -63q0 -38 -24.5 -62t-64.5 -24zM380 553q-40 0 -65 24t-25 62t25 62.5t65 24.5t64.5 -24t24.5 -63q0 -38 -24.5 -62t-64.5 -24zM267 495q114 0 174 -58t60 -157v-280h-163l-4 63q-37 -68 -150 -68
q-77 0 -119 36t-42 99q0 160 272 160h33v7q0 29 -17.5 48.5t-49.5 19.5q-27 0 -45 -13t-21 -34h-158q9 86 70 131.5t160 45.5zM249 119q35 0 57 16.5t22 41.5v28h-43q-91 0 -91 -48q0 -38 55 -38z" />
    <glyph glyph-name="uni1EA1.ss01" horiz-adv-x="546" 
d="M267 495q114 0 174 -58t60 -157v-280h-163l-4 63q-37 -68 -150 -68q-77 0 -119 36t-42 99q0 160 272 160h33v7q0 29 -17.5 48.5t-49.5 19.5q-27 0 -45 -13t-21 -34h-158q9 86 70 131.5t160 45.5zM249 119q35 0 57 16.5t22 41.5v28h-43q-91 0 -91 -48q0 -38 55 -38z
M283 -37q48 0 77.5 -29t29.5 -75q0 -45 -29.5 -74t-77.5 -29t-78 29t-30 74q0 46 30 75t78 29z" />
    <glyph glyph-name="agrave.ss01" horiz-adv-x="546" 
d="M341 550h-142l-100 187h203zM267 495q114 0 174 -58t60 -157v-280h-163l-4 63q-37 -68 -150 -68q-77 0 -119 36t-42 99q0 160 272 160h33v7q0 29 -17.5 48.5t-49.5 19.5q-27 0 -45 -13t-21 -34h-158q9 86 70 131.5t160 45.5zM249 119q35 0 57 16.5t22 41.5v28h-43
q-91 0 -91 -48q0 -38 55 -38z" />
    <glyph glyph-name="amacron.ss01" horiz-adv-x="546" 
d="M441 700v-120h-340v120h340zM267 495q114 0 174 -58t60 -157v-280h-163l-4 63q-37 -68 -150 -68q-77 0 -119 36t-42 99q0 160 272 160h33v7q0 29 -17.5 48.5t-49.5 19.5q-27 0 -45 -13t-21 -34h-158q9 86 70 131.5t160 45.5zM249 119q35 0 57 16.5t22 41.5v28h-43
q-91 0 -91 -48q0 -38 55 -38z" />
    <glyph glyph-name="aogonek.ss01" horiz-adv-x="546" 
d="M524 -110l41 -68q-38 -45 -112 -45q-55 0 -87 29.5t-32 80.5q0 66 53 113h-49l-4 63q-37 -68 -150 -68q-77 0 -119 36t-42 99q0 160 272 160h33v7q0 29 -17.5 48.5t-49.5 19.5q-27 0 -45 -13t-21 -34h-158q9 86 70 131.5t160 45.5q114 0 174 -58t60 -157v-280
q-8 -4 -19.5 -10.5t-31 -30t-19.5 -49.5q0 -41 40 -41q32 0 53 21zM249 119q35 0 57 16.5t22 41.5v28h-43q-91 0 -91 -48q0 -38 55 -38z" />
    <glyph glyph-name="aring.ss01" horiz-adv-x="546" 
d="M268 537q-46 0 -78.5 29t-32.5 76t32.5 76t78.5 29t78 -29t32 -76t-32 -76t-78 -29zM268 673q-15 0 -23.5 -8.5t-8.5 -22.5t8.5 -23t23.5 -9q14 0 23 9t9 23t-9 22.5t-23 8.5zM267 495q114 0 174 -58t60 -157v-280h-163l-4 63q-37 -68 -150 -68q-77 0 -119 36t-42 99
q0 160 272 160h33v7q0 29 -17.5 48.5t-49.5 19.5q-27 0 -45 -13t-21 -34h-158q9 86 70 131.5t160 45.5zM249 119q35 0 57 16.5t22 41.5v28h-43q-91 0 -91 -48q0 -38 55 -38z" />
    <glyph glyph-name="aringacute.ss01" horiz-adv-x="546" 
d="M268 537q-46 0 -78.5 29t-32.5 76t32.5 76t78.5 29q44 0 75 -26l52 103h108l-125 -183q0 -46 -32 -75t-78 -29zM268 673q-15 0 -23.5 -8.5t-8.5 -22.5t8.5 -23t23.5 -9q14 0 23 9t9 23t-9 22.5t-23 8.5zM267 495q114 0 174 -58t60 -157v-280h-163l-4 63q-37 -68 -150 -68
q-77 0 -119 36t-42 99q0 160 272 160h33v7q0 29 -17.5 48.5t-49.5 19.5q-27 0 -45 -13t-21 -34h-158q9 86 70 131.5t160 45.5zM249 119q35 0 57 16.5t22 41.5v28h-43q-91 0 -91 -48q0 -38 55 -38z" />
    <glyph glyph-name="atilde.ss01" horiz-adv-x="546" 
d="M201 605q-39 0 -39 -42h-112q0 163 126 163q42 0 84.5 -20t59.5 -20q39 0 39 42h112q0 -163 -125 -163q-40 0 -83.5 20t-61.5 20zM267 495q114 0 174 -58t60 -157v-280h-163l-4 63q-37 -68 -150 -68q-77 0 -119 36t-42 99q0 160 272 160h33v7q0 29 -17.5 48.5t-49.5 19.5
q-27 0 -45 -13t-21 -34h-158q9 86 70 131.5t160 45.5zM249 119q35 0 57 16.5t22 41.5v28h-43q-91 0 -91 -48q0 -38 55 -38z" />
    <glyph glyph-name="f.ss01" horiz-adv-x="424" 
d="M272 490h140v-140h-140v-350h-180v350h-70v140h70v35q0 94 53.5 147t145.5 53q90 0 144.5 -49t54.5 -127h-156q0 36 -31 36t-31 -36v-59z" />
    <glyph glyph-name="g.ss01" horiz-adv-x="600" 
d="M376 490h175v-459q0 -117 -76 -181t-220 -64q-86 0 -173 33v130q88 -33 162 -33q69 0 98 24t29 81v47q-43 -71 -137 -71q-93 0 -149.5 69.5t-56.5 176.5q0 119 64 185.5t151 66.5q89 0 130 -57zM290 148q32 0 56.5 22.5t24.5 56.5v37q0 32 -23.5 56t-57.5 24t-57 -27.5
t-23 -73.5q0 -42 23 -68.5t57 -26.5z" />
    <glyph glyph-name="gbreve.ss01" horiz-adv-x="600" 
d="M320 546q-78 0 -125.5 50t-47.5 138h125q0 -39 11 -55t36 -16t35 16t10 55h127q0 -88 -47 -138t-124 -50zM376 490h175v-459q0 -117 -76 -181t-220 -64q-86 0 -173 33v130q88 -33 162 -33q69 0 98 24t29 81v47q-43 -71 -137 -71q-93 0 -149.5 69.5t-56.5 176.5
q0 119 64 185.5t151 66.5q89 0 130 -57zM290 148q32 0 56.5 22.5t24.5 56.5v37q0 32 -23.5 56t-57.5 24t-57 -27.5t-23 -73.5q0 -42 23 -68.5t57 -26.5z" />
    <glyph glyph-name="gcaron.ss01" horiz-adv-x="600" 
d="M404 550h-168l-99 187h112l71 -87l72 87h111zM376 490h175v-459q0 -117 -76 -181t-220 -64q-86 0 -173 33v130q88 -33 162 -33q69 0 98 24t29 81v47q-43 -71 -137 -71q-93 0 -149.5 69.5t-56.5 176.5q0 119 64 185.5t151 66.5q89 0 130 -57zM290 148q32 0 56.5 22.5
t24.5 56.5v37q0 32 -23.5 56t-57.5 24t-57 -27.5t-23 -73.5q0 -42 23 -68.5t57 -26.5z" />
    <glyph glyph-name="gcircumflex.ss01" horiz-adv-x="600" 
d="M320 637l-71 -87h-112l99 187h168l99 -187h-111zM376 490h175v-459q0 -117 -76 -181t-220 -64q-86 0 -173 33v130q88 -33 162 -33q69 0 98 24t29 81v47q-43 -71 -137 -71q-93 0 -149.5 69.5t-56.5 176.5q0 119 64 185.5t151 66.5q89 0 130 -57zM290 148q32 0 56.5 22.5
t24.5 56.5v37q0 32 -23.5 56t-57.5 24t-57 -27.5t-23 -73.5q0 -42 23 -68.5t57 -26.5z" />
    <glyph glyph-name="gcommaaccent.ss01" horiz-adv-x="600" 
d="M322 533q-80 0 -79 105q0 81 43.5 131t99.5 50v-66q-23 0 -43 -18.5t-20 -47.5q36 0 57 -21t22 -55q0 -35 -22.5 -57t-57.5 -21zM376 490h175v-459q0 -117 -76 -181t-220 -64q-86 0 -173 33v130q88 -33 162 -33q69 0 98 24t29 81v47q-43 -71 -137 -71q-93 0 -149.5 69.5
t-56.5 176.5q0 119 64 185.5t151 66.5q89 0 130 -57zM290 148q32 0 56.5 22.5t24.5 56.5v37q0 32 -23.5 56t-57.5 24t-57 -27.5t-23 -73.5q0 -42 23 -68.5t57 -26.5z" />
    <glyph glyph-name="gdotaccent.ss01" horiz-adv-x="600" 
d="M322 544q-48 0 -78 29t-30 74q0 46 30 75t78 29t77.5 -29t29.5 -75q0 -45 -29.5 -74t-77.5 -29zM376 490h175v-459q0 -117 -76 -181t-220 -64q-86 0 -173 33v130q88 -33 162 -33q69 0 98 24t29 81v47q-43 -71 -137 -71q-93 0 -149.5 69.5t-56.5 176.5q0 119 64 185.5
t151 66.5q89 0 130 -57zM290 148q32 0 56.5 22.5t24.5 56.5v37q0 32 -23.5 56t-57.5 24t-57 -27.5t-23 -73.5q0 -42 23 -68.5t57 -26.5z" />
    <glyph glyph-name="j.ss01" horiz-adv-x="290" 
d="M267 646q0 -47 -32.5 -77t-80.5 -30t-80 30t-32 77t32 78t80 31t80.5 -31t32.5 -78zM25 -79q34 0 34 43v526h180v-526q0 -76 -59 -127t-155 -51q-94 0 -148 49.5t-54 123.5h168q0 -38 34 -38z" />
    <glyph glyph-name="uni0237.ss01" horiz-adv-x="290" 
d="M25 -79q34 0 34 43v526h180v-526q0 -76 -59 -127t-155 -51q-94 0 -148 49.5t-54 123.5h168q0 -38 34 -38z" />
    <glyph glyph-name="jcircumflex.ss01" horiz-adv-x="290" 
d="M-38 551l99 187h168l99 -187h-111l-72 87l-71 -87h-112zM25 -214q-94 0 -148 49.5t-54 123.5h168q0 -38 34 -38t34 43v526h180v-526q0 -76 -59 -127t-155 -51z" />
    <glyph glyph-name="l.ss01" horiz-adv-x="282" 
d="M51 0v710h180v-710h-180z" />
    <glyph glyph-name="lacute.ss01" horiz-adv-x="282" 
d="M216 747h-165l49 145h224zM51 0v710h180v-710h-180z" />
    <glyph glyph-name="lcaron.ss01" horiz-adv-x="349" 
d="M281 517q23 0 43 19t20 48q-36 0 -57 21t-21 55q0 35 22.5 56.5t57.5 21.5q79 0 79 -105q0 -81 -44 -131t-100 -50v65zM51 0v710h180v-710h-180z" />
    <glyph glyph-name="lcommaaccent.ss01" horiz-adv-x="282" 
d="M51 0v710h180v-710h-180zM75 -263q23 0 43 18.5t20 47.5q-36 0 -57 21t-22 55q0 35 22.5 57t57.5 21q80 0 79 -105q0 -81 -43.5 -131t-99.5 -50v66z" />
    <glyph glyph-name="ldot.ss01" horiz-adv-x="472" 
d="M51 0v710h180v-710h-180zM383 453q48 0 77.5 -28.5t30.5 -74.5q0 -45 -30 -74.5t-78 -29.5t-77.5 29.5t-29.5 74.5q0 46 29.5 74.5t77.5 28.5z" />
    <glyph glyph-name="lslash.ss01" horiz-adv-x="376" 
d="M381 423l-104 -60v-363h-180v260l-55 -31l-44 80l99 56v345h180v-242l60 34z" />
    <glyph glyph-name="t.ss01" horiz-adv-x="507" 
d="M343 187h156q0 -93 -53 -142.5t-154 -49.5t-154 51t-53 149v156h-70v139h80v143h170v-143h165v-140h-165v-163q0 -52 39 -52t39 52z" />
    <glyph glyph-name="tbar.ss01" horiz-adv-x="507" 
d="M343 187h156q0 -93 -53 -142.5t-154 -49.5t-154 51t-53 149v15h-62v92h62v49h-70v139h80v143h170v-143h165v-140h-165v-48h122v-92h-122v-23q0 -52 39 -52t39 52z" />
    <glyph glyph-name="tcaron.ss01" horiz-adv-x="507" 
d="M363 624q-35 0 -56.5 21t-21.5 55q0 35 22.5 56.5t57.5 21.5q79 0 79 -105q0 -71 -44 -116t-100 -45v65q22 0 42.5 14t20.5 33zM343 187h156q0 -93 -53 -142.5t-154 -49.5t-154 51t-53 149v156h-70v139h80v143h170v-143h165v-140h-165v-163q0 -52 39 -52t39 52z" />
    <glyph glyph-name="uni0163.ss01" horiz-adv-x="507" 
d="M499 187q0 -92 -52.5 -141.5t-152.5 -50.5l-4 -21q39 -9 59 -32.5t20 -56.5q0 -48 -38.5 -76t-93.5 -28q-43 0 -74 15l20 83q19 -13 53 -13q44 0 44 24q0 28 -82 28l20 85q-133 34 -133 192v156h-70v139h80v143h170v-143h165v-140h-165v-163q0 -52 39 -52t39 52h156z" />
    <glyph glyph-name="uni021B.ss01" horiz-adv-x="507" 
d="M343 187h156q0 -93 -53 -142.5t-154 -49.5t-154 51t-53 149v156h-70v139h80v143h170v-143h165v-140h-165v-163q0 -52 39 -52t39 52zM275 -43q80 0 79 -105q0 -81 -43.5 -131t-99.5 -50v66q23 0 43 18.5t20 47.5q-36 0 -57 21t-22 55q0 35 22.5 57t57.5 21z" />
    <glyph glyph-name="u.ss01" horiz-adv-x="605" 
d="M572 143l9 -136q-36 -12 -86 -12q-110 0 -137 92q-40 -92 -142 -92q-83 0 -126.5 53t-43.5 131v311h180v-262q0 -34 15.5 -55t43.5 -21q27 0 45 21.5t18 51.5v265h180v-326q0 -26 19 -26q10 0 25 5z" />
    <glyph glyph-name="uacute.ss01" horiz-adv-x="605" 
d="M452 737l-100 -187h-142l39 187h203zM572 143l9 -136q-36 -12 -86 -12q-110 0 -137 92q-40 -92 -142 -92q-83 0 -126.5 53t-43.5 131v311h180v-262q0 -34 15.5 -55t43.5 -21q27 0 45 21.5t18 51.5v265h180v-326q0 -26 19 -26q10 0 25 5z" />
    <glyph glyph-name="ubreve.ss01" horiz-adv-x="605" 
d="M287 547q-78 0 -125.5 50t-47.5 138h125q0 -39 11 -55t36 -16t35 16t10 55h127q0 -88 -47 -138t-124 -50zM572 143l9 -136q-36 -12 -86 -12q-110 0 -137 92q-40 -92 -142 -92q-83 0 -126.5 53t-43.5 131v311h180v-262q0 -34 15.5 -55t43.5 -21q27 0 45 21.5t18 51.5v265
h180v-326q0 -26 19 -26q10 0 25 5z" />
    <glyph glyph-name="ucircumflex.ss01" horiz-adv-x="605" 
d="M287 638l-71 -87h-112l99 187h168l99 -187h-111zM572 143l9 -136q-36 -12 -86 -12q-110 0 -137 92q-40 -92 -142 -92q-83 0 -126.5 53t-43.5 131v311h180v-262q0 -34 15.5 -55t43.5 -21q27 0 45 21.5t18 51.5v265h180v-326q0 -26 19 -26q10 0 25 5z" />
    <glyph glyph-name="udieresis.ss01" horiz-adv-x="605" 
d="M181 553q-40 0 -65 24t-25 62t25 62.5t65 24.5t64.5 -24t24.5 -63q0 -38 -24.5 -62t-64.5 -24zM399 553q-40 0 -65 24t-25 62t25 62.5t65 24.5t64.5 -24t24.5 -63q0 -38 -24.5 -62t-64.5 -24zM572 143l9 -136q-36 -12 -86 -12q-110 0 -137 92q-40 -92 -142 -92
q-83 0 -126.5 53t-43.5 131v311h180v-262q0 -34 15.5 -55t43.5 -21q27 0 45 21.5t18 51.5v265h180v-326q0 -26 19 -26q10 0 25 5z" />
    <glyph glyph-name="uni1EE5.ss01" horiz-adv-x="605" 
d="M572 143l9 -136q-36 -12 -86 -12q-110 0 -137 92q-40 -92 -142 -92q-83 0 -126.5 53t-43.5 131v311h180v-262q0 -34 15.5 -55t43.5 -21q27 0 45 21.5t18 51.5v265h180v-326q0 -26 19 -26q10 0 25 5zM293 -37q48 0 77.5 -29t29.5 -75q0 -45 -29.5 -74t-77.5 -29t-78 29
t-30 74q0 46 30 75t78 29z" />
    <glyph glyph-name="ugrave.ss01" horiz-adv-x="605" 
d="M360 550h-142l-100 187h203zM572 143l9 -136q-36 -12 -86 -12q-110 0 -137 92q-40 -92 -142 -92q-83 0 -126.5 53t-43.5 131v311h180v-262q0 -34 15.5 -55t43.5 -21q27 0 45 21.5t18 51.5v265h180v-326q0 -26 19 -26q10 0 25 5z" />
    <glyph glyph-name="uhungarumlaut.ss01" horiz-adv-x="605" 
d="M315 737l-108 -187h-151l49 187h210zM455 550h-151l49 187h210zM572 143l9 -136q-36 -12 -86 -12q-110 0 -137 92q-40 -92 -142 -92q-83 0 -126.5 53t-43.5 131v311h180v-262q0 -34 15.5 -55t43.5 -21q27 0 45 21.5t18 51.5v265h180v-326q0 -26 19 -26q10 0 25 5z" />
    <glyph glyph-name="umacron.ss01" horiz-adv-x="605" 
d="M460 700v-120h-340v120h340zM572 143l9 -136q-36 -12 -86 -12q-110 0 -137 92q-40 -92 -142 -92q-83 0 -126.5 53t-43.5 131v311h180v-262q0 -34 15.5 -55t43.5 -21q27 0 45 21.5t18 51.5v265h180v-326q0 -26 19 -26q10 0 25 5z" />
    <glyph glyph-name="uogonek.ss01" horiz-adv-x="605" 
d="M604 -103l41 -68q-38 -45 -112 -45q-55 0 -87 29.5t-32 80.5q0 60 44 104q-78 13 -100 89q-40 -92 -142 -92q-83 0 -126.5 53t-43.5 131v311h180v-262q0 -34 15.5 -55t43.5 -21q27 0 45 21.5t18 51.5v265h180v-326q0 -26 19 -26q10 0 25 5l9 -136q-8 -4 -19.5 -10.5
t-31 -30t-19.5 -49.5q0 -41 40 -41q32 0 53 21z" />
    <glyph glyph-name="uring.ss01" horiz-adv-x="605" 
d="M287 537q-46 0 -78.5 29t-32.5 76t32.5 76t78.5 29t78 -29t32 -76t-32 -76t-78 -29zM287 673q-15 0 -23.5 -8.5t-8.5 -22.5t8.5 -23t23.5 -9q14 0 23 9t9 23t-9 22.5t-23 8.5zM572 143l9 -136q-36 -12 -86 -12q-110 0 -137 92q-40 -92 -142 -92q-83 0 -126.5 53
t-43.5 131v311h180v-262q0 -34 15.5 -55t43.5 -21q27 0 45 21.5t18 51.5v265h180v-326q0 -26 19 -26q10 0 25 5z" />
    <glyph glyph-name="utilde.ss01" horiz-adv-x="605" 
d="M220 605q-39 0 -39 -42h-112q0 163 126 163q42 0 84.5 -20t59.5 -20q39 0 39 42h112q0 -163 -125 -163q-40 0 -83.5 20t-61.5 20zM572 143l9 -136q-36 -12 -86 -12q-110 0 -137 92q-40 -92 -142 -92q-83 0 -126.5 53t-43.5 131v311h180v-262q0 -34 15.5 -55t43.5 -21
q27 0 45 21.5t18 51.5v265h180v-326q0 -26 19 -26q10 0 25 5z" />
    <glyph glyph-name="y.ss01" horiz-adv-x="579" 
d="M348 490h180v-481q0 -102 -66.5 -162.5t-187.5 -60.5q-99 0 -162.5 43.5t-69.5 134.5h165q7 -48 68 -48q78 0 78 83v93q-43 -85 -143 -85q-81 0 -122.5 53t-41.5 131v299h180v-250q0 -34 16 -55t43 -21q28 0 45.5 21t17.5 52v253z" />
    <glyph glyph-name="yacute.ss01" horiz-adv-x="579" 
d="M455 737l-100 -187h-142l39 187h203zM348 490h180v-481q0 -102 -66.5 -162.5t-187.5 -60.5q-99 0 -162.5 43.5t-69.5 134.5h165q7 -48 68 -48q78 0 78 83v93q-43 -85 -143 -85q-81 0 -122.5 53t-41.5 131v299h180v-250q0 -34 16 -55t43 -21q28 0 45.5 21t17.5 52v253z
" />
    <glyph glyph-name="ycircumflex.ss01" horiz-adv-x="579" 
d="M290 637l-71 -87h-112l99 187h168l99 -187h-111zM348 490h180v-481q0 -102 -66.5 -162.5t-187.5 -60.5q-99 0 -162.5 43.5t-69.5 134.5h165q7 -48 68 -48q78 0 78 83v93q-43 -85 -143 -85q-81 0 -122.5 53t-41.5 131v299h180v-250q0 -34 16 -55t43 -21q28 0 45.5 21
t17.5 52v253z" />
    <glyph glyph-name="ydieresis.ss01" horiz-adv-x="579" 
d="M182 553q-40 0 -65 24t-25 62t25 62.5t65 24.5t64.5 -24t24.5 -63q0 -38 -24.5 -62t-64.5 -24zM400 553q-40 0 -65 24t-25 62t25 62.5t65 24.5t64.5 -24t24.5 -63q0 -38 -24.5 -62t-64.5 -24zM348 490h180v-481q0 -102 -66.5 -162.5t-187.5 -60.5q-99 0 -162.5 43.5
t-69.5 134.5h165q7 -48 68 -48q78 0 78 83v93q-43 -85 -143 -85q-81 0 -122.5 53t-41.5 131v299h180v-250q0 -34 16 -55t43 -21q28 0 45.5 21t17.5 52v253z" />
    <glyph glyph-name="ygrave.ss01" horiz-adv-x="579" 
d="M363 550h-142l-100 187h203zM348 490h180v-481q0 -102 -66.5 -162.5t-187.5 -60.5q-99 0 -162.5 43.5t-69.5 134.5h165q7 -48 68 -48q78 0 78 83v93q-43 -85 -143 -85q-81 0 -122.5 53t-41.5 131v299h180v-250q0 -34 16 -55t43 -21q28 0 45.5 21t17.5 52v253z" />
    <glyph glyph-name="uni0233.ss01" horiz-adv-x="579" 
d="M473 700v-120h-340v120h340zM348 490h180v-481q0 -102 -66.5 -162.5t-187.5 -60.5q-99 0 -162.5 43.5t-69.5 134.5h165q7 -48 68 -48q78 0 78 83v93q-43 -85 -143 -85q-81 0 -122.5 53t-41.5 131v299h180v-250q0 -34 16 -55t43 -21q28 0 45.5 21t17.5 52v253z" />
    <glyph glyph-name="uni1EF9.ss01" horiz-adv-x="579" 
d="M230 605q-39 0 -39 -42h-112q0 163 126 163q42 0 84.5 -20t59.5 -20q39 0 39 42h112q0 -163 -125 -163q-40 0 -83.5 20t-61.5 20zM348 490h180v-481q0 -102 -66.5 -162.5t-187.5 -60.5q-99 0 -162.5 43.5t-69.5 134.5h165q7 -48 68 -48q78 0 78 83v93q-43 -85 -143 -85
q-81 0 -122.5 53t-41.5 131v299h180v-250q0 -34 16 -55t43 -21q28 0 45.5 21t17.5 52v253z" />
    <glyph glyph-name="f.ss02" horiz-adv-x="414" 
d="M357 563q-48 0 -66.5 -16.5t-18.5 -52.5v-4h130v-140h-130v-350h-180v350h-70v140h70v14q0 94 58.5 150t171.5 56q54 0 81 -2v-147q-28 2 -46 2z" />
    <glyph glyph-name="g.ss02" horiz-adv-x="600" 
d="M376 490h175v-459q0 -116 -75 -175.5t-221 -59.5q-97 0 -173 6v130q90 -7 162 -7q71 0 99 20t28 76v47q-43 -71 -137 -71q-93 0 -149.5 69.5t-56.5 176.5q0 119 64 185.5t151 66.5q89 0 130 -57zM290 148q32 0 56.5 22.5t24.5 56.5v37q0 32 -23.5 56t-57.5 24t-57 -27.5
t-23 -73.5q0 -42 23 -68.5t57 -26.5z" />
    <glyph glyph-name="gbreve.ss02" horiz-adv-x="600" 
d="M320 546q-78 0 -125.5 50t-47.5 138h125q0 -39 11 -55t36 -16t35 16t10 55h127q0 -88 -47 -138t-124 -50zM376 490h175v-459q0 -116 -75 -175.5t-221 -59.5q-97 0 -173 6v130q90 -7 162 -7q71 0 99 20t28 76v47q-43 -71 -137 -71q-93 0 -149.5 69.5t-56.5 176.5
q0 119 64 185.5t151 66.5q89 0 130 -57zM290 148q32 0 56.5 22.5t24.5 56.5v37q0 32 -23.5 56t-57.5 24t-57 -27.5t-23 -73.5q0 -42 23 -68.5t57 -26.5z" />
    <glyph glyph-name="gcaron.ss02" horiz-adv-x="600" 
d="M404 550h-168l-99 187h112l71 -87l72 87h111zM376 490h175v-459q0 -116 -75 -175.5t-221 -59.5q-97 0 -173 6v130q90 -7 162 -7q71 0 99 20t28 76v47q-43 -71 -137 -71q-93 0 -149.5 69.5t-56.5 176.5q0 119 64 185.5t151 66.5q89 0 130 -57zM290 148q32 0 56.5 22.5
t24.5 56.5v37q0 32 -23.5 56t-57.5 24t-57 -27.5t-23 -73.5q0 -42 23 -68.5t57 -26.5z" />
    <glyph glyph-name="gcircumflex.ss02" horiz-adv-x="600" 
d="M320 637l-71 -87h-112l99 187h168l99 -187h-111zM376 490h175v-459q0 -116 -75 -175.5t-221 -59.5q-97 0 -173 6v130q90 -7 162 -7q71 0 99 20t28 76v47q-43 -71 -137 -71q-93 0 -149.5 69.5t-56.5 176.5q0 119 64 185.5t151 66.5q89 0 130 -57zM290 148q32 0 56.5 22.5
t24.5 56.5v37q0 32 -23.5 56t-57.5 24t-57 -27.5t-23 -73.5q0 -42 23 -68.5t57 -26.5z" />
    <glyph glyph-name="gcommaaccent.ss02" horiz-adv-x="602" 
d="M322 533q-80 0 -79 105q0 81 43.5 131t99.5 50v-66q-23 0 -43 -18.5t-20 -47.5q36 0 57 -21t22 -55q0 -35 -22.5 -57t-57.5 -21zM376 490h175v-459q0 -116 -75 -175.5t-221 -59.5q-97 0 -173 6v130q90 -7 162 -7q71 0 99 20t28 76v47q-43 -71 -137 -71q-93 0 -149.5 69.5
t-56.5 176.5q0 119 64 185.5t151 66.5q89 0 130 -57zM290 148q32 0 56.5 22.5t24.5 56.5v37q0 32 -23.5 56t-57.5 24t-57 -27.5t-23 -73.5q0 -42 23 -68.5t57 -26.5z" />
    <glyph glyph-name="gdotaccent.ss02" horiz-adv-x="600" 
d="M322 544q-48 0 -78 29t-30 74q0 46 30 75t78 29t77.5 -29t29.5 -75q0 -45 -29.5 -74t-77.5 -29zM376 490h175v-459q0 -116 -75 -175.5t-221 -59.5q-97 0 -173 6v130q90 -7 162 -7q71 0 99 20t28 76v47q-43 -71 -137 -71q-93 0 -149.5 69.5t-56.5 176.5q0 119 64 185.5
t151 66.5q89 0 130 -57zM290 148q32 0 56.5 22.5t24.5 56.5v37q0 32 -23.5 56t-57.5 24t-57 -27.5t-23 -73.5q0 -42 23 -68.5t57 -26.5z" />
    <glyph glyph-name="j.ss02" horiz-adv-x="290" 
d="M267 646q0 -47 -32.5 -77t-80.5 -30t-80 30t-32 77t32 78t80 31t80.5 -31t32.5 -78zM12 -208q-54 0 -81 2v147q28 -2 46 -2q46 0 64 16.5t18 52.5v482h180v-492q0 -94 -58 -150t-169 -56z" />
    <glyph glyph-name="uni0237.ss02" horiz-adv-x="290" 
d="M12 -208q-54 0 -81 2v147q28 -2 46 -2q46 0 64 16.5t18 52.5v482h180v-492q0 -94 -58 -150t-169 -56z" />
    <glyph glyph-name="jcircumflex.ss02" horiz-adv-x="290" 
d="M-38 551l99 187h168l99 -187h-111l-72 87l-71 -87h-112zM12 -208q-54 0 -81 2v147q28 -2 46 -2q46 0 64 16.5t18 52.5v482h180v-492q0 -94 -58 -150t-169 -56z" />
    <glyph glyph-name="t.ss02" horiz-adv-x="420" 
d="M399 350h-134v-134q0 -36 17.5 -52t61.5 -17q16 0 48 2v-147q-54 -2 -82 -2q-110 1 -167.5 57t-57.5 149v145h-70v139h80v133h170v-133h134v-140z" />
    <glyph glyph-name="tbar.ss02" horiz-adv-x="420" 
d="M399 350h-134v-48h122v-92h-122q2 -32 19.5 -47t59.5 -16q16 0 48 2v-147q-54 -2 -82 -2q-110 1 -167.5 57t-57.5 149v4h-62v92h62v49h-70v139h80v133h170v-133h134v-140z" />
    <glyph glyph-name="tcaron.ss02" horiz-adv-x="420" 
d="M363 624q-35 0 -56.5 21t-21.5 55q0 35 22.5 56.5t57.5 21.5q79 0 79 -105q0 -71 -44 -116t-100 -45v65q22 0 42.5 14t20.5 33zM265 623v-133h134v-140h-134v-134q0 -36 17.5 -52t61.5 -17q16 0 48 2v-147q-54 -2 -82 -2q-110 1 -167.5 57t-57.5 149v145h-70v139h80v133
h170z" />
    <glyph glyph-name="uni0163.ss02" horiz-adv-x="420" 
d="M399 350h-134v-134q0 -36 17.5 -52t61.5 -17q16 0 48 2v-147q-54 -2 -82 -2q-19 0 -28 1l-6 -27q39 -9 59 -32.5t20 -56.5q0 -48 -38.5 -76t-93.5 -28q-43 0 -74 15l20 83q19 -13 53 -13q44 0 44 24q0 28 -82 28l24 99q-123 47 -123 189v145h-70v139h80v133h170v-133h134
v-140z" />
    <glyph glyph-name="uni021B.ss02" horiz-adv-x="420" 
d="M399 350h-134v-134q0 -36 17.5 -52t61.5 -17q16 0 48 2v-147q-54 -2 -82 -2q-110 1 -167.5 57t-57.5 149v145h-70v139h80v133h170v-133h134v-140zM253 -43q80 0 79 -105q0 -81 -43.5 -131t-99.5 -50v66q23 0 43 18.5t20 47.5q-36 0 -57 21t-22 55q0 35 22.5 57t57.5 21z
" />
    <glyph glyph-name="y.ss02" horiz-adv-x="579" 
d="M348 490h180v-459q0 -235 -286 -235q-97 0 -173 6v130q90 -7 162 -7q67 0 94.5 20t27.5 76v71q-43 -85 -143 -85q-81 0 -122.5 53t-41.5 131v299h180v-250q0 -34 16 -55t43 -21q28 0 45.5 21t17.5 52v253z" />
    <glyph glyph-name="yacute.ss02" horiz-adv-x="579" 
d="M455 737l-100 -187h-142l39 187h203zM348 490h180v-459q0 -235 -286 -235q-97 0 -173 6v130q90 -7 162 -7q67 0 94.5 20t27.5 76v71q-43 -85 -143 -85q-81 0 -122.5 53t-41.5 131v299h180v-250q0 -34 16 -55t43 -21q28 0 45.5 21t17.5 52v253z" />
    <glyph glyph-name="ycircumflex.ss02" horiz-adv-x="579" 
d="M290 637l-71 -87h-112l99 187h168l99 -187h-111zM348 490h180v-459q0 -235 -286 -235q-97 0 -173 6v130q90 -7 162 -7q67 0 94.5 20t27.5 76v71q-43 -85 -143 -85q-81 0 -122.5 53t-41.5 131v299h180v-250q0 -34 16 -55t43 -21q28 0 45.5 21t17.5 52v253z" />
    <glyph glyph-name="ydieresis.ss02" horiz-adv-x="579" 
d="M182 553q-40 0 -65 24t-25 62t25 62.5t65 24.5t64.5 -24t24.5 -63q0 -38 -24.5 -62t-64.5 -24zM400 553q-40 0 -65 24t-25 62t25 62.5t65 24.5t64.5 -24t24.5 -63q0 -38 -24.5 -62t-64.5 -24zM348 490h180v-459q0 -235 -286 -235q-97 0 -173 6v130q90 -7 162 -7
q67 0 94.5 20t27.5 76v71q-43 -85 -143 -85q-81 0 -122.5 53t-41.5 131v299h180v-250q0 -34 16 -55t43 -21q28 0 45.5 21t17.5 52v253z" />
    <glyph glyph-name="ygrave.ss02" horiz-adv-x="579" 
d="M363 550h-142l-100 187h203zM348 490h180v-459q0 -235 -286 -235q-97 0 -173 6v130q90 -7 162 -7q67 0 94.5 20t27.5 76v71q-43 -85 -143 -85q-81 0 -122.5 53t-41.5 131v299h180v-250q0 -34 16 -55t43 -21q28 0 45.5 21t17.5 52v253z" />
    <glyph glyph-name="uni0233.ss02" horiz-adv-x="579" 
d="M473 700v-120h-340v120h340zM348 490h180v-459q0 -235 -286 -235q-97 0 -173 6v130q90 -7 162 -7q67 0 94.5 20t27.5 76v71q-43 -85 -143 -85q-81 0 -122.5 53t-41.5 131v299h180v-250q0 -34 16 -55t43 -21q28 0 45.5 21t17.5 52v253z" />
    <glyph glyph-name="uni1EF9.ss02" horiz-adv-x="579" 
d="M230 605q-39 0 -39 -42h-112q0 163 126 163q42 0 84.5 -20t59.5 -20q39 0 39 42h112q0 -163 -125 -163q-40 0 -83.5 20t-61.5 20zM348 490h180v-459q0 -235 -286 -235q-97 0 -173 6v130q90 -7 162 -7q67 0 94.5 20t27.5 76v71q-43 -85 -143 -85q-81 0 -122.5 53
t-41.5 131v299h180v-250q0 -34 16 -55t43 -21q28 0 45.5 21t17.5 52v253z" />
    <glyph glyph-name="y.ss03" horiz-adv-x="579" 
d="M348 490h180v-459q0 -118 -73.5 -181.5t-217.5 -63.5q-86 0 -173 33v130q88 -33 162 -33q69 0 98 24t29 81v71q-43 -85 -143 -85q-81 0 -122.5 53t-41.5 131v299h180v-250q0 -34 16 -55t43 -21q28 0 45.5 21t17.5 52v253z" />
    <glyph glyph-name="yacute.ss03" horiz-adv-x="579" 
d="M455 737l-100 -187h-142l39 187h203zM348 490h180v-459q0 -118 -73.5 -181.5t-217.5 -63.5q-86 0 -173 33v130q88 -33 162 -33q69 0 98 24t29 81v71q-43 -85 -143 -85q-81 0 -122.5 53t-41.5 131v299h180v-250q0 -34 16 -55t43 -21q28 0 45.5 21t17.5 52v253z" />
    <glyph glyph-name="ycircumflex.ss03" horiz-adv-x="579" 
d="M290 637l-71 -87h-112l99 187h168l99 -187h-111zM348 490h180v-459q0 -118 -73.5 -181.5t-217.5 -63.5q-86 0 -173 33v130q88 -33 162 -33q69 0 98 24t29 81v71q-43 -85 -143 -85q-81 0 -122.5 53t-41.5 131v299h180v-250q0 -34 16 -55t43 -21q28 0 45.5 21t17.5 52v253z
" />
    <glyph glyph-name="ydieresis.ss03" horiz-adv-x="579" 
d="M182 553q-40 0 -65 24t-25 62t25 62.5t65 24.5t64.5 -24t24.5 -63q0 -38 -24.5 -62t-64.5 -24zM400 553q-40 0 -65 24t-25 62t25 62.5t65 24.5t64.5 -24t24.5 -63q0 -38 -24.5 -62t-64.5 -24zM348 490h180v-459q0 -118 -73.5 -181.5t-217.5 -63.5q-86 0 -173 33v130
q88 -33 162 -33q69 0 98 24t29 81v71q-43 -85 -143 -85q-81 0 -122.5 53t-41.5 131v299h180v-250q0 -34 16 -55t43 -21q28 0 45.5 21t17.5 52v253z" />
    <glyph glyph-name="ygrave.ss03" horiz-adv-x="579" 
d="M363 550h-142l-100 187h203zM348 490h180v-459q0 -118 -73.5 -181.5t-217.5 -63.5q-86 0 -173 33v130q88 -33 162 -33q69 0 98 24t29 81v71q-43 -85 -143 -85q-81 0 -122.5 53t-41.5 131v299h180v-250q0 -34 16 -55t43 -21q28 0 45.5 21t17.5 52v253z" />
    <glyph glyph-name="uni0233.ss03" horiz-adv-x="579" 
d="M473 700v-120h-340v120h340zM348 490h180v-459q0 -118 -73.5 -181.5t-217.5 -63.5q-86 0 -173 33v130q88 -33 162 -33q69 0 98 24t29 81v71q-43 -85 -143 -85q-81 0 -122.5 53t-41.5 131v299h180v-250q0 -34 16 -55t43 -21q28 0 45.5 21t17.5 52v253z" />
    <glyph glyph-name="uni1EF9.ss03" horiz-adv-x="579" 
d="M230 605q-39 0 -39 -42h-112q0 163 126 163q42 0 84.5 -20t59.5 -20q39 0 39 42h112q0 -163 -125 -163q-40 0 -83.5 20t-61.5 20zM348 490h180v-459q0 -118 -73.5 -181.5t-217.5 -63.5q-86 0 -173 33v130q88 -33 162 -33q69 0 98 24t29 81v71q-43 -85 -143 -85
q-81 0 -122.5 53t-41.5 131v299h180v-250q0 -34 16 -55t43 -21q28 0 45.5 21t17.5 52v253z" />
    <glyph glyph-name="a.sc" horiz-adv-x="608" 
d="M440 0l-28 83h-216l-28 -83h-170l205 528h202l205 -528h-170zM238 206h132l-66 197z" />
    <glyph glyph-name="aacute.sc" horiz-adv-x="608" 
d="M468 774l-100 -187h-142l39 187h203zM440 0l-28 83h-216l-28 -83h-170l205 528h202l205 -528h-170zM238 206h132l-66 197z" />
    <glyph glyph-name="abreve.sc" horiz-adv-x="608" 
d="M314 584q-78 0 -125.5 50t-47.5 138h125q0 -39 11 -55t36 -16t35 16t10 55h127q0 -88 -47 -138t-124 -50zM440 0l-28 83h-216l-28 -83h-170l205 528h202l205 -528h-170zM238 206h132l-66 197z" />
    <glyph glyph-name="acircumflex.sc" horiz-adv-x="608" 
d="M303 675l-71 -87h-112l99 187h168l99 -187h-111zM440 0l-28 83h-216l-28 -83h-170l205 528h202l205 -528h-170zM238 206h132l-66 197z" />
    <glyph glyph-name="adieresis.sc" horiz-adv-x="608" 
d="M197 590q-40 0 -65 24t-25 62t25 62.5t65 24.5t64.5 -24t24.5 -63q0 -38 -24.5 -62t-64.5 -24zM415 590q-40 0 -65 24t-25 62t25 62.5t65 24.5t64.5 -24t24.5 -63q0 -38 -24.5 -62t-64.5 -24zM440 0l-28 83h-216l-28 -83h-170l205 528h202l205 -528h-170zM238 206h132
l-66 197z" />
    <glyph glyph-name="uni1EA1.sc" horiz-adv-x="608" 
d="M610 0h-170l-28 83h-216l-28 -83h-170l205 528h202zM238 206h132l-66 197zM304 -37q48 0 77.5 -29t29.5 -75q0 -45 -29.5 -74t-77.5 -29t-78 29t-30 74q0 46 30 75t78 29z" />
    <glyph glyph-name="agrave.sc" horiz-adv-x="608" 
d="M376 587h-142l-100 187h203zM440 0l-28 83h-216l-28 -83h-170l205 528h202l205 -528h-170zM238 206h132l-66 197z" />
    <glyph glyph-name="amacron.sc" horiz-adv-x="608" 
d="M476 737v-120h-340v120h340zM440 0l-28 83h-216l-28 -83h-170l205 528h202l205 -528h-170zM238 206h132l-66 197z" />
    <glyph glyph-name="aogonek.sc" horiz-adv-x="608" 
d="M633 -110l41 -68q-38 -45 -112 -45q-55 0 -87 29.5t-32 80.5q0 66 53 113h-56l-28 83h-216l-28 -83h-170l205 528h202l205 -528q-8 -4 -19.5 -10.5t-31 -30t-19.5 -49.5q0 -41 40 -41q32 0 53 21zM238 206h132l-66 197z" />
    <glyph glyph-name="aring.sc" horiz-adv-x="608" 
d="M303 574q-46 0 -78.5 29t-32.5 76t32.5 76t78.5 29t78 -29t32 -76t-32 -76t-78 -29zM303 710q-15 0 -23.5 -8.5t-8.5 -22.5t8.5 -23t23.5 -9q14 0 23 9t9 23t-9 22.5t-23 8.5zM440 0l-28 83h-216l-28 -83h-170l205 528h202l205 -528h-170zM238 206h132l-66 197z" />
    <glyph glyph-name="aringacute.sc" horiz-adv-x="608" 
d="M303 574q-46 0 -78.5 29t-32.5 76t32.5 76t78.5 29q43 0 74 -26l50 103h110l-124 -186q-1 -45 -33 -73t-77 -28zM303 710q-15 0 -23.5 -8.5t-8.5 -22.5t8.5 -23t23.5 -9q14 0 23 9t9 23t-9 22.5t-23 8.5zM440 0l-28 83h-216l-28 -83h-170l205 528h202l205 -528h-170z
M238 206h132l-66 197z" />
    <glyph glyph-name="atilde.sc" horiz-adv-x="608" 
d="M236 642q-39 0 -39 -42h-112q0 163 126 163q42 0 84.5 -20t59.5 -20q39 0 39 42h112q0 -163 -125 -163q-40 0 -83.5 20t-61.5 20zM440 0l-28 83h-216l-28 -83h-170l205 528h202l205 -528h-170zM238 206h132l-66 197z" />
    <glyph glyph-name="ae.sc" horiz-adv-x="818" 
d="M540 137h240v-137h-408v83h-160l-43 -83h-181l285 528h503v-136h-236v-60h198v-135h-198v-60zM276 206h96v184h-1z" />
    <glyph glyph-name="aeacute.sc" horiz-adv-x="818" 
d="M586 782l-100 -187h-142l39 187h203zM540 137h240v-137h-408v83h-160l-43 -83h-181l285 528h503v-136h-236v-60h198v-135h-198v-60zM276 206h96v184h-1z" />
    <glyph glyph-name="b.sc" horiz-adv-x="576" 
d="M435 270q44 -9 78.5 -43.5t34.5 -85.5q0 -59 -51 -100t-121 -41h-319v528h300q80 0 128 -37.5t48 -96.5q0 -52 -30.5 -81.5t-67.5 -39.5v-3zM366 362q0 44 -67 44h-79v-88h83q63 0 63 44zM315 122q30 0 48 11t18 32q0 20 -19 31.5t-50 11.5h-92v-86h95z" />
    <glyph glyph-name="c.sc" horiz-adv-x="623" 
d="M323 141q95 0 112 71h165q-12 -95 -81.5 -156t-202.5 -61q-124 0 -206 76t-82 195q0 120 81.5 195t206.5 75q132 0 202.5 -61t81.5 -155h-165q-8 27 -36.5 48t-76.5 21q-53 0 -88 -33.5t-34 -90.5t35.5 -90.5t87.5 -33.5z" />
    <glyph glyph-name="cacute.sc" horiz-adv-x="623" 
d="M381 587h-142l39 187h203zM323 141q95 0 112 71h165q-12 -95 -81.5 -156t-202.5 -61q-124 0 -206 76t-82 195q0 120 81.5 195t206.5 75q132 0 202.5 -61t81.5 -155h-165q-8 27 -36.5 48t-76.5 21q-53 0 -88 -33.5t-34 -90.5t35.5 -90.5t87.5 -33.5z" />
    <glyph glyph-name="ccaron.sc" horiz-adv-x="623" 
d="M133 775h112l71 -87l72 87h111l-99 -187h-168zM323 141q95 0 112 71h165q-12 -95 -81.5 -156t-202.5 -61q-124 0 -206 76t-82 195q0 120 81.5 195t206.5 75q132 0 202.5 -61t81.5 -155h-165q-8 27 -36.5 48t-76.5 21q-53 0 -88 -33.5t-34 -90.5t35.5 -90.5t87.5 -33.5z
" />
    <glyph glyph-name="ccedilla.sc" horiz-adv-x="623" 
d="M323 141q95 0 112 71h165q-11 -91 -76 -151.5t-188 -65.5l-4 -19q39 -9 59 -32.5t20 -56.5q0 -48 -38.5 -76t-93.5 -28q-42 0 -74 15l20 83q19 -13 53 -13q44 0 44 24q0 28 -82 28l19 80q-102 17 -166.5 89.5t-64.5 176.5q0 120 81.5 195t206.5 75q132 0 202.5 -61
t81.5 -155h-165q-8 27 -36.5 48t-76.5 21q-53 0 -88 -33.5t-34 -90.5t35.5 -90.5t87.5 -33.5z" />
    <glyph glyph-name="ccircumflex.sc" horiz-adv-x="623" 
d="M134 588l99 187h168l99 -187h-111l-72 87l-71 -87h-112zM323 141q95 0 112 71h165q-12 -95 -81.5 -156t-202.5 -61q-124 0 -206 76t-82 195q0 120 81.5 195t206.5 75q132 0 202.5 -61t81.5 -155h-165q-8 27 -36.5 48t-76.5 21q-53 0 -88 -33.5t-34 -90.5t35.5 -90.5
t87.5 -33.5z" />
    <glyph glyph-name="cdotaccent.sc" horiz-adv-x="623" 
d="M318 788q48 0 77.5 -29t29.5 -75q0 -45 -29.5 -74t-77.5 -29t-78 29t-30 74q0 46 30 75t78 29zM323 141q95 0 112 71h165q-12 -95 -81.5 -156t-202.5 -61q-124 0 -206 76t-82 195q0 120 81.5 195t206.5 75q132 0 202.5 -61t81.5 -155h-165q-8 27 -36.5 48t-76.5 21
q-53 0 -88 -33.5t-34 -90.5t35.5 -90.5t87.5 -33.5z" />
    <glyph glyph-name="d.sc" horiz-adv-x="637" 
d="M305 528q137 0 220.5 -70.5t83.5 -192.5q0 -123 -83.5 -194t-220.5 -71h-248v528h248zM305 135q132 0 132 130q0 129 -132 129h-79v-259h79z" />
    <glyph glyph-name="eth.sc" horiz-adv-x="644" 
d="M312 528q137 0 220.5 -70.5t83.5 -192.5q0 -123 -83.5 -194t-220.5 -71h-248v226h-53v92h53v210h248zM312 135q132 0 132 130q0 129 -132 129h-79v-76h101v-92h-101v-91h79z" />
    <glyph glyph-name="dcaron.sc" horiz-adv-x="637" 
d="M382 596h-168l-99 187h112l71 -87l72 87h111zM305 528q137 0 220.5 -70.5t83.5 -192.5q0 -123 -83.5 -194t-220.5 -71h-248v528h248zM305 135q132 0 132 130q0 129 -132 129h-79v-259h79z" />
    <glyph glyph-name="dcroat.sc" horiz-adv-x="644" 
d="M312 528q137 0 220.5 -70.5t83.5 -192.5q0 -123 -83.5 -194t-220.5 -71h-248v226h-53v92h53v210h248zM312 135q132 0 132 130q0 129 -132 129h-79v-76h101v-92h-101v-91h79z" />
    <glyph glyph-name="e.sc" horiz-adv-x="537" 
d="M226 137h274v-137h-443v528h439v-136h-270v-60h232v-135h-232v-60z" />
    <glyph glyph-name="eacute.sc" horiz-adv-x="537" 
d="M448 774l-100 -187h-142l39 187h203zM226 137h274v-137h-443v528h439v-136h-270v-60h232v-135h-232v-60z" />
    <glyph glyph-name="ebreve.sc" horiz-adv-x="537" 
d="M283 584q-78 0 -125.5 50t-47.5 138h125q0 -39 11 -55t36 -16t35 16t10 55h127q0 -88 -47 -138t-124 -50zM226 137h274v-137h-443v528h439v-136h-270v-60h232v-135h-232v-60z" />
    <glyph glyph-name="ecaron.sc" horiz-adv-x="537" 
d="M367 588h-168l-99 187h112l71 -87l72 87h111zM226 137h274v-137h-443v528h439v-136h-270v-60h232v-135h-232v-60z" />
    <glyph glyph-name="ecircumflex.sc" horiz-adv-x="537" 
d="M283 675l-71 -87h-112l99 187h168l99 -187h-111zM226 137h274v-137h-443v528h439v-136h-270v-60h232v-135h-232v-60z" />
    <glyph glyph-name="edieresis.sc" horiz-adv-x="537" 
d="M177 590q-40 0 -65 24t-25 62t25 62.5t65 24.5t64.5 -24t24.5 -63q0 -38 -24.5 -62t-64.5 -24zM395 590q-40 0 -65 24t-25 62t25 62.5t65 24.5t64.5 -24t24.5 -63q0 -38 -24.5 -62t-64.5 -24zM226 137h274v-137h-443v528h439v-136h-270v-60h232v-135h-232v-60z" />
    <glyph glyph-name="edotaccent.sc" horiz-adv-x="537" 
d="M285 581q-48 0 -78 29t-30 74q0 46 30 75t78 29t77.5 -29t29.5 -75q0 -45 -29.5 -74t-77.5 -29zM226 137h274v-137h-443v528h439v-136h-270v-60h232v-135h-232v-60z" />
    <glyph glyph-name="uni1EB9.sc" horiz-adv-x="537" 
d="M226 137h274v-137h-443v528h439v-136h-270v-60h232v-135h-232v-60zM288 -37q48 0 77.5 -29t29.5 -75q0 -45 -29.5 -74t-77.5 -29t-78 29t-30 74q0 46 30 75t78 29z" />
    <glyph glyph-name="egrave.sc" horiz-adv-x="537" 
d="M356 587h-142l-100 187h203zM226 137h274v-137h-443v528h439v-136h-270v-60h232v-135h-232v-60z" />
    <glyph glyph-name="emacron.sc" horiz-adv-x="537" 
d="M456 737v-120h-340v120h340zM226 137h274v-137h-443v528h439v-136h-270v-60h232v-135h-232v-60z" />
    <glyph glyph-name="eogonek.sc" horiz-adv-x="537" 
d="M523 -110l41 -68q-38 -45 -112 -45q-55 0 -87 29.5t-32 80.5q0 66 53 113h-329v528h439v-136h-270v-60h232v-135h-232v-60h274v-137q-8 -4 -19.5 -10.5t-31 -30t-19.5 -49.5q0 -41 40 -41q32 0 53 21z" />
    <glyph glyph-name="uni1EBD.sc" horiz-adv-x="537" 
d="M216 642q-39 0 -39 -42h-112q0 163 126 163q42 0 84.5 -20t59.5 -20q39 0 39 42h112q0 -163 -125 -163q-40 0 -83.5 20t-61.5 20zM226 137h274v-137h-443v528h439v-136h-270v-60h232v-135h-232v-60z" />
    <glyph glyph-name="uni0259.sc" horiz-adv-x="623" 
d="M299 535q131 0 213 -69.5t82 -194.5q0 -126 -83.5 -202t-216.5 -76q-124 0 -195 73t-71 187v43h390q-9 45 -40.5 69t-75.5 24q-78 0 -96 -46h-170q14 77 80.5 134.5t182.5 57.5zM299 133q75 0 105 55h-205q20 -55 100 -55z" />
    <glyph glyph-name="f.sc" horiz-adv-x="514" 
d="M488 392h-262v-96h231v-131h-231v-165h-169v528h431v-136z" />
    <glyph glyph-name="g.sc" horiz-adv-x="638" 
d="M599 286v-286h-118v58q-55 -63 -174 -63q-118 0 -198.5 76t-80.5 193q0 121 81.5 196.5t206.5 75.5q127 0 195.5 -57.5t78.5 -153.5h-164q-21 64 -104 64q-53 0 -88 -36t-34 -93q1 -60 33 -94.5t90 -34.5q70 0 105 40h-98v115h269z" />
    <glyph glyph-name="gbreve.sc" horiz-adv-x="638" 
d="M306 592q-78 0 -125.5 50t-47.5 138h125q0 -39 11 -55t36 -16t35 16t10 55h127q0 -88 -47 -138t-124 -50zM599 286v-286h-118v58q-55 -63 -174 -63q-118 0 -198.5 76t-80.5 193q0 121 81.5 196.5t206.5 75.5q127 0 195.5 -57.5t78.5 -153.5h-164q-21 64 -104 64
q-53 0 -88 -36t-34 -93q1 -60 33 -94.5t90 -34.5q70 0 105 40h-98v115h269z" />
    <glyph glyph-name="gcaron.sc" horiz-adv-x="638" 
d="M390 596h-168l-99 187h112l71 -87l72 87h111zM599 286v-286h-118v58q-55 -63 -174 -63q-118 0 -198.5 76t-80.5 193q0 121 81.5 196.5t206.5 75.5q127 0 195.5 -57.5t78.5 -153.5h-164q-21 64 -104 64q-53 0 -88 -36t-34 -93q1 -60 33 -94.5t90 -34.5q70 0 105 40h-98
v115h269z" />
    <glyph glyph-name="gcircumflex.sc" horiz-adv-x="638" 
d="M306 683l-71 -87h-112l99 187h168l99 -187h-111zM599 286v-286h-118v58q-55 -63 -174 -63q-118 0 -198.5 76t-80.5 193q0 121 81.5 196.5t206.5 75.5q127 0 195.5 -57.5t78.5 -153.5h-164q-21 64 -104 64q-53 0 -88 -36t-34 -93q1 -60 33 -94.5t90 -34.5q70 0 105 40h-98
v115h269z" />
    <glyph glyph-name="gcommaaccent.sc" horiz-adv-x="638" 
d="M599 286v-286h-118v58q-55 -63 -174 -63q-118 0 -198.5 76t-80.5 193q0 121 81.5 196.5t206.5 75.5q127 0 195.5 -57.5t78.5 -153.5h-164q-21 64 -104 64q-53 0 -88 -36t-34 -93q1 -60 33 -94.5t90 -34.5q70 0 105 40h-98v115h269zM303 -43q80 0 79 -105
q0 -81 -43.5 -131t-99.5 -50v66q23 0 43 18.5t20 47.5q-36 0 -57 21t-22 55q0 35 22.5 57t57.5 21z" />
    <glyph glyph-name="gdotaccent.sc" horiz-adv-x="638" 
d="M308 589q-48 0 -78 29t-30 74q0 46 30 75t78 29t77.5 -29t29.5 -75q0 -45 -29.5 -74t-77.5 -29zM599 286v-286h-118v58q-55 -63 -174 -63q-118 0 -198.5 76t-80.5 193q0 121 81.5 196.5t206.5 75.5q127 0 195.5 -57.5t78.5 -153.5h-164q-21 64 -104 64q-53 0 -88 -36
t-34 -93q1 -60 33 -94.5t90 -34.5q70 0 105 40h-98v115h269z" />
    <glyph glyph-name="h.sc" horiz-adv-x="657" 
d="M430 528h170v-528h-170v187h-203v-187h-170v528h170v-192h203v192z" />
    <glyph glyph-name="hbar.sc" horiz-adv-x="677" 
d="M661 484v-102h-51v-382h-170v187h-203v-187h-170v382h-51v102h51v44h170v-44h203v44h170v-44h51zM440 336v46h-203v-46h203z" />
    <glyph glyph-name="hcircumflex.sc" horiz-adv-x="657" 
d="M332 683l-71 -87h-112l99 187h168l99 -187h-111zM430 528h170v-528h-170v187h-203v-187h-170v528h170v-192h203v192z" />
    <glyph glyph-name="i.sc" horiz-adv-x="284" 
d="M57 0v528h170v-528h-170z" />
    <glyph glyph-name="iacute.sc" horiz-adv-x="284" 
d="M207 595h-142l39 187h203zM57 0v528h170v-528h-170z" />
    <glyph glyph-name="ibreve.sc" horiz-adv-x="284" 
d="M312 780q0 -88 -47 -138t-124 -50q-78 0 -125.5 50t-47.5 138h125q0 -39 11 -55t36 -16t35 16t10 55h127zM57 0v528h170v-528h-170z" />
    <glyph glyph-name="icircumflex.sc" horiz-adv-x="284" 
d="M-41 596l99 187h168l99 -187h-111l-72 87l-71 -87h-112zM57 0v528h170v-528h-170z" />
    <glyph glyph-name="idieresis.sc" horiz-adv-x="284" 
d="M36 771q40 0 64.5 -24t24.5 -63q0 -38 -24.5 -62t-64.5 -24t-65 24t-25 62t25 62.5t65 24.5zM254 771q40 0 64.5 -24t24.5 -63q0 -38 -24.5 -62t-64.5 -24t-65 24t-25 62t25 62.5t65 24.5zM57 0v528h170v-528h-170z" />
    <glyph glyph-name="i.sc.loclTRK" horiz-adv-x="284" 
d="M144 796q48 0 77.5 -29t29.5 -75q0 -45 -29.5 -74t-77.5 -29t-78 29t-30 74q0 46 30 75t78 29zM57 0v528h170v-528h-170z" />
    <glyph glyph-name="uni1ECB.sc" horiz-adv-x="284" 
d="M57 0v528h170v-528h-170zM142 -37q48 0 77.5 -29t29.5 -75q0 -45 -29.5 -74t-77.5 -29t-78 29t-30 74q0 46 30 75t78 29z" />
    <glyph glyph-name="igrave.sc" horiz-adv-x="284" 
d="M72 595l-100 187h203l39 -187h-142zM57 0v528h170v-528h-170z" />
    <glyph glyph-name="ij.sc" horiz-adv-x="798" 
d="M57 0v528h170v-528h-170zM471 202q1 -33 13.5 -46.5t39.5 -13.5q52 0 52 50v336h170v-336q0 -92 -56.5 -143.5t-165.5 -51.5q-218 0 -218 205h165z" />
    <glyph glyph-name="imacron.sc" horiz-adv-x="284" 
d="M-26 625v120h340v-120h-340zM57 0v528h170v-528h-170z" />
    <glyph glyph-name="iogonek.sc" horiz-adv-x="284" 
d="M250 -110l41 -68q-38 -45 -112 -45q-55 0 -87 29.5t-32 80.5q0 66 53 113h-56v528h170v-528q-8 -4 -19.5 -10.5t-31 -30t-19.5 -49.5q0 -41 40 -41q32 0 53 21z" />
    <glyph glyph-name="itilde.sc" horiz-adv-x="284" 
d="M74 650q-39 0 -39 -42h-112q0 163 126 163q42 0 84.5 -20t59.5 -20q39 0 39 42h112q0 -163 -125 -163q-40 0 -83.5 20t-61.5 20zM57 0v528h170v-528h-170z" />
    <glyph glyph-name="j.sc" horiz-adv-x="500" 
d="M173 202q1 -33 13.5 -46.5t39.5 -13.5q52 0 52 50v336h170v-336q0 -92 -56.5 -143.5t-165.5 -51.5q-218 0 -218 205h165z" />
    <glyph glyph-name="jcircumflex.sc" horiz-adv-x="500" 
d="M179 599l99 187h168l99 -187h-111l-72 87l-71 -87h-112zM173 202q1 -33 13.5 -46.5t39.5 -13.5q52 0 52 50v336h170v-336q0 -92 -56.5 -143.5t-165.5 -51.5q-218 0 -218 205h165z" />
    <glyph glyph-name="k.sc" horiz-adv-x="613" 
d="M432 0l-139 196l-66 -70v-126h-170v528h170v-213l190 213h194l-199 -222l212 -306h-192z" />
    <glyph glyph-name="kcommaaccent.sc" horiz-adv-x="613" 
d="M412 306l212 -306h-192l-139 196l-66 -70v-126h-170v528h170v-213l190 213h194zM308 -43q80 0 79 -105q0 -81 -43.5 -131t-99.5 -50v66q23 0 43 18.5t20 47.5q-36 0 -57 21t-22 55q0 35 22.5 57t57.5 21z" />
    <glyph glyph-name="l.sc" horiz-adv-x="505" 
d="M226 147h266v-147h-435v528h169v-381z" />
    <glyph glyph-name="lacute.sc" horiz-adv-x="505" 
d="M308 782l-100 -187h-142l39 187h203zM226 147h266v-147h-435v528h169v-381z" />
    <glyph glyph-name="lcaron.sc" horiz-adv-x="527" 
d="M400 390q-36 0 -57.5 21t-21.5 55q0 35 22.5 56.5t57.5 21.5q79 0 79 -105q0 -81 -43.5 -131t-99.5 -50v66q23 0 43 19t20 47zM226 147h266v-147h-435v528h169v-381z" />
    <glyph glyph-name="lcommaaccent.sc" horiz-adv-x="505" 
d="M226 147h266v-147h-435v528h169v-381zM279 -43q80 0 79 -105q0 -81 -43.5 -131t-99.5 -50v66q23 0 43 18.5t20 47.5q-36 0 -57 21t-22 55q0 35 22.5 57t57.5 21z" />
    <glyph glyph-name="ldot.sc" horiz-adv-x="529" 
d="M226 528v-381h266v-147h-435v528h169zM386 204q-48 0 -77.5 29.5t-29.5 74.5q0 46 29.5 74.5t77.5 28.5t77.5 -28.5t30.5 -74.5q0 -45 -30 -74.5t-78 -29.5z" />
    <glyph glyph-name="lslash.sc" horiz-adv-x="536" 
d="M257 147h266v-147h-435v200l-55 -31l-44 80l99 56v223h169v-126l71 40l44 -79l-115 -66v-150z" />
    <glyph glyph-name="m.sc" horiz-adv-x="799" 
d="M532 528h210l-1 -528h-163v324l-128 -324h-100l-129 327v-327h-163l-1 528h210l133 -343z" />
    <glyph glyph-name="n.sc" horiz-adv-x="657" 
d="M436 528h164v-528h-152l-227 300v-300h-164v528h152l227 -300v300z" />
    <glyph glyph-name="nacute.sc" horiz-adv-x="657" 
d="M494 782l-100 -187h-142l39 187h203zM436 528h164v-528h-152l-227 300v-300h-164v528h152l227 -300v300z" />
    <glyph glyph-name="ncaron.sc" horiz-adv-x="657" 
d="M413 596h-168l-99 187h112l71 -87l72 87h111zM436 528h164v-528h-152l-227 300v-300h-164v528h152l227 -300v300z" />
    <glyph glyph-name="ncommaaccent.sc" horiz-adv-x="657" 
d="M436 528h164v-528h-152l-227 300v-300h-164v528h152l227 -300v300zM327 -43q80 0 79 -105q0 -81 -43.5 -131t-99.5 -50v66q23 0 43 18.5t20 47.5q-36 0 -57 21t-22 55q0 35 22.5 57t57.5 21z" />
    <glyph glyph-name="eng.sc" horiz-adv-x="658" 
d="M436 528h164v-522q0 -73 -54 -120.5t-145 -47.5q-39 0 -77 6l8 133q18 -7 41 -7q59 0 59 47v3l-211 279v-299h-164v528h152l227 -300v300z" />
    <glyph glyph-name="uni0272.sc" horiz-adv-x="657" 
d="M436 528h164v-528h-152l-227 300v-294q0 -74 -52 -121t-142 -47q-40 0 -78 6l8 133q17 -7 41 -7q59 0 59 47v511h153l226 -299v299z" />
    <glyph glyph-name="ntilde.sc" horiz-adv-x="657" 
d="M262 650q-39 0 -39 -42h-112q0 163 126 163q42 0 84.5 -20t59.5 -20q39 0 39 42h112q0 -163 -125 -163q-40 0 -83.5 20t-61.5 20zM436 528h164v-528h-152l-227 300v-300h-164v528h152l227 -300v300z" />
    <glyph glyph-name="o.sc" horiz-adv-x="656" 
d="M327 -6q-135 0 -217 74t-82 197t82 197t217 74q136 0 218 -74t82 -197t-82 -197t-218 -74zM327 140q59 0 93.5 33t34.5 92t-34.5 91.5t-93.5 32.5q-58 0 -93 -32.5t-35 -91.5t35 -92t93 -33z" />
    <glyph glyph-name="oacute.sc" horiz-adv-x="656" 
d="M392 595h-142l39 187h203zM327 -6q-135 0 -217 74t-82 197t82 197t217 74q136 0 218 -74t82 -197t-82 -197t-218 -74zM327 140q59 0 93.5 33t34.5 92t-34.5 91.5t-93.5 32.5q-58 0 -93 -32.5t-35 -91.5t35 -92t93 -33z" />
    <glyph glyph-name="obreve.sc" horiz-adv-x="656" 
d="M498 780q0 -88 -47 -138t-124 -50q-78 0 -125.5 50t-47.5 138h125q0 -39 11 -55t36 -16t35 16t10 55h127zM327 -6q-135 0 -217 74t-82 197t82 197t217 74q136 0 218 -74t82 -197t-82 -197t-218 -74zM327 140q59 0 93.5 33t34.5 92t-34.5 91.5t-93.5 32.5q-58 0 -93 -32.5
t-35 -91.5t35 -92t93 -33z" />
    <glyph glyph-name="ocircumflex.sc" horiz-adv-x="656" 
d="M145 596l99 187h168l99 -187h-111l-72 87l-71 -87h-112zM327 -6q-135 0 -217 74t-82 197t82 197t217 74q136 0 218 -74t82 -197t-82 -197t-218 -74zM327 140q59 0 93.5 33t34.5 92t-34.5 91.5t-93.5 32.5q-58 0 -93 -32.5t-35 -91.5t35 -92t93 -33z" />
    <glyph glyph-name="odieresis.sc" horiz-adv-x="656" 
d="M222 771q40 0 64.5 -24t24.5 -63q0 -38 -24.5 -62t-64.5 -24t-65 24t-25 62t25 62.5t65 24.5zM440 771q40 0 64.5 -24t24.5 -63q0 -38 -24.5 -62t-64.5 -24t-65 24t-25 62t25 62.5t65 24.5zM327 -6q-135 0 -217 74t-82 197t82 197t217 74q136 0 218 -74t82 -197t-82 -197
t-218 -74zM327 140q59 0 93.5 33t34.5 92t-34.5 91.5t-93.5 32.5q-58 0 -93 -32.5t-35 -91.5t35 -92t93 -33z" />
    <glyph glyph-name="uni1ECD.sc" horiz-adv-x="656" 
d="M327 -6q-135 0 -217 74t-82 197t82 197t217 74q136 0 218 -74t82 -197t-82 -197t-218 -74zM327 140q59 0 93.5 33t34.5 92t-34.5 91.5t-93.5 32.5q-58 0 -93 -32.5t-35 -91.5t35 -92t93 -33zM328 -37q48 0 77.5 -29t29.5 -75q0 -45 -29.5 -74t-77.5 -29t-78 29t-30 74
q0 46 30 75t78 29z" />
    <glyph glyph-name="ograve.sc" horiz-adv-x="656" 
d="M258 595l-100 187h203l39 -187h-142zM327 -6q-135 0 -217 74t-82 197t82 197t217 74q136 0 218 -74t82 -197t-82 -197t-218 -74zM327 140q59 0 93.5 33t34.5 92t-34.5 91.5t-93.5 32.5q-58 0 -93 -32.5t-35 -91.5t35 -92t93 -33z" />
    <glyph glyph-name="ohungarumlaut.sc" horiz-adv-x="656" 
d="M247 595h-151l49 187h210zM495 595h-151l49 187h210zM327 -6q-135 0 -217 74t-82 197t82 197t217 74q136 0 218 -74t82 -197t-82 -197t-218 -74zM327 140q59 0 93.5 33t34.5 92t-34.5 91.5t-93.5 32.5q-58 0 -93 -32.5t-35 -91.5t35 -92t93 -33z" />
    <glyph glyph-name="omacron.sc" horiz-adv-x="656" 
d="M160 625v120h340v-120h-340zM327 -6q-135 0 -217 74t-82 197t82 197t217 74q136 0 218 -74t82 -197t-82 -197t-218 -74zM327 140q59 0 93.5 33t34.5 92t-34.5 91.5t-93.5 32.5q-58 0 -93 -32.5t-35 -91.5t35 -92t93 -33z" />
    <glyph glyph-name="uni01EB.sc" horiz-adv-x="656" 
d="M435 8q-12 -6 -24.5 -15t-26.5 -29.5t-14 -42.5q0 -41 40 -41q32 0 53 21l41 -68q-38 -45 -112 -45q-55 0 -87 29.5t-32 80.5q0 55 37 96q-129 5 -205.5 78.5t-76.5 192.5q0 123 82 197t217 74q136 0 218 -74t82 -197q0 -96 -51 -163.5t-141 -93.5zM199 265q0 -59 35 -92
t93 -33q59 0 93.5 33t34.5 92t-34.5 91.5t-93.5 32.5q-58 0 -93 -32.5t-35 -91.5z" />
    <glyph glyph-name="oslash.sc" horiz-adv-x="656" 
d="M515 485q112 -74 112 -220q0 -123 -82 -197t-218 -74q-59 0 -113 16l-26 -40h-96l48 75q-112 74 -112 220q0 123 82 197t217 74q63 0 116 -17l19 29h93zM199 265q0 -53 28 -84l131 205q-14 3 -31 3q-58 0 -93 -32.5t-35 -91.5zM327 140q59 0 93.5 33t34.5 92q0 51 -27 83
l-131 -206q20 -2 30 -2z" />
    <glyph glyph-name="oslashacute.sc" horiz-adv-x="656" 
d="M492 782l-100 -187h-142l39 187h203zM515 485q112 -74 112 -220q0 -123 -82 -197t-218 -74q-59 0 -113 16l-26 -40h-96l48 75q-112 74 -112 220q0 123 82 197t217 74q63 0 116 -17l19 29h93zM199 265q0 -53 28 -84l131 205q-14 3 -31 3q-58 0 -93 -32.5t-35 -91.5z
M327 140q59 0 93.5 33t34.5 92q0 51 -27 83l-131 -206q20 -2 30 -2z" />
    <glyph glyph-name="otilde.sc" horiz-adv-x="656" 
d="M260 650q-39 0 -39 -42h-112q0 163 126 163q42 0 84.5 -20t59.5 -20q39 0 39 42h112q0 -163 -125 -163q-40 0 -83.5 20t-61.5 20zM327 -6q-135 0 -217 74t-82 197t82 197t217 74q136 0 218 -74t82 -197t-82 -197t-218 -74zM327 140q59 0 93.5 33t34.5 92t-34.5 91.5
t-93.5 32.5q-58 0 -93 -32.5t-35 -91.5t35 -92t93 -33z" />
    <glyph glyph-name="oe.sc" horiz-adv-x="937" 
d="M626 137h274v-137h-443v16q-60 -22 -130 -22q-135 0 -217 74t-82 197t82 197t217 74q70 0 130 -22v14h439v-136h-270v-60h232v-135h-232v-60zM327 140q59 0 93.5 33t34.5 92t-34.5 91.5t-93.5 32.5q-58 0 -93 -32.5t-35 -91.5t35 -92t93 -33z" />
    <glyph glyph-name="p.sc" horiz-adv-x="580" 
d="M323 528q117 0 178 -48.5t61 -139.5q0 -93 -61 -141t-178 -48h-96v-151h-170v528h266zM323 285q68 0 68 55q0 53 -68 53h-96v-108h96z" />
    <glyph glyph-name="thorn.sc" horiz-adv-x="587" 
d="M323 458q117 0 178 -48.5t61 -140.5t-61 -140.5t-178 -48.5h-96v-80h-170v528h170v-70h96zM323 215q67 0 67 54t-67 54h-96v-108h96z" />
    <glyph glyph-name="q.sc" horiz-adv-x="656" 
d="M627 265q0 -97 -53 -165t-145 -93q38 -14 87 -14l5 -147q-96 0 -166 44t-93 109q-108 17 -171 88t-63 178q0 123 82 197t217 74q136 0 218 -74t82 -197zM327 140q59 0 93.5 33t34.5 92t-34.5 91.5t-93.5 32.5q-58 0 -93 -32.5t-35 -91.5t35 -92t93 -33z" />
    <glyph glyph-name="r.sc" horiz-adv-x="601" 
d="M567 123l8 -117q-40 -10 -75 -10q-67 0 -102 21t-59 65l-46 82h-67v-164h-169v528h256q116 0 179.5 -47t63.5 -133q0 -108 -100 -156l29 -46q17 -27 48 -27q18 0 34 4zM226 395v-106h87q73 0 73 53t-73 53h-87z" />
    <glyph glyph-name="racute.sc" horiz-adv-x="601" 
d="M451 782l-100 -187h-142l39 187h203zM567 123l8 -117q-40 -10 -75 -10q-67 0 -102 21t-59 65l-46 82h-67v-164h-169v528h256q116 0 179.5 -47t63.5 -133q0 -108 -100 -156l29 -46q17 -27 48 -27q18 0 34 4zM226 395v-106h87q73 0 73 53t-73 53h-87z" />
    <glyph glyph-name="rcaron.sc" horiz-adv-x="601" 
d="M370 596h-168l-99 187h112l71 -87l72 87h111zM567 123l8 -117q-40 -10 -75 -10q-67 0 -102 21t-59 65l-46 82h-67v-164h-169v528h256q116 0 179.5 -47t63.5 -133q0 -108 -100 -156l29 -46q17 -27 48 -27q18 0 34 4zM226 395v-106h87q73 0 73 53t-73 53h-87z" />
    <glyph glyph-name="rcommaaccent.sc" horiz-adv-x="601" 
d="M567 123l8 -117q-40 -10 -75 -10q-67 0 -102 21t-59 65l-46 82h-67v-164h-169v528h256q116 0 179.5 -47t63.5 -133q0 -108 -100 -156l29 -46q17 -27 48 -27q18 0 34 4zM226 395v-106h87q73 0 73 53t-73 53h-87zM308 -43q80 0 79 -105q0 -81 -43.5 -131t-99.5 -50v66
q23 0 43 18.5t20 47.5q-36 0 -57 21t-22 55q0 35 22.5 57t57.5 21z" />
    <glyph glyph-name="s.sc" horiz-adv-x="556" 
d="M201 370q0 -19 33.5 -27.5t81.5 -14.5t96.5 -18.5t82 -50t33.5 -99.5q0 -79 -69.5 -123.5t-185.5 -44.5t-181.5 46t-65.5 130l169 -1q2 -42 82 -42q83 0 85 35q0 21 -33.5 31t-82 17t-96.5 19.5t-81.5 48.5t-33.5 94q-1 73 66.5 119t176.5 46q112 0 176 -46.5t64 -129.5
l-169 1q0 44 -77 44q-71 0 -71 -34z" />
    <glyph glyph-name="sacute.sc" horiz-adv-x="556" 
d="M442 774l-100 -187h-142l39 187h203zM201 370q0 -19 33.5 -27.5t81.5 -14.5t96.5 -18.5t82 -50t33.5 -99.5q0 -79 -69.5 -123.5t-185.5 -44.5t-181.5 46t-65.5 130l169 -1q2 -42 82 -42q83 0 85 35q0 21 -33.5 31t-82 17t-96.5 19.5t-81.5 48.5t-33.5 94q-1 73 66.5 119
t176.5 46q112 0 176 -46.5t64 -129.5l-169 1q0 44 -77 44q-71 0 -71 -34z" />
    <glyph glyph-name="scaron.sc" horiz-adv-x="556" 
d="M361 588h-168l-99 187h112l71 -87l72 87h111zM201 370q0 -19 33.5 -27.5t81.5 -14.5t96.5 -18.5t82 -50t33.5 -99.5q0 -79 -69.5 -123.5t-185.5 -44.5t-181.5 46t-65.5 130l169 -1q2 -42 82 -42q83 0 85 35q0 21 -33.5 31t-82 17t-96.5 19.5t-81.5 48.5t-33.5 94
q-1 73 66.5 119t176.5 46q112 0 176 -46.5t64 -129.5l-169 1q0 44 -77 44q-71 0 -71 -34z" />
    <glyph glyph-name="scedilla.sc" horiz-adv-x="556" 
d="M528 160q0 -74 -62 -118t-168 -49l-4 -19q39 -9 59 -32.5t20 -56.5q0 -48 -38.5 -76t-93.5 -28q-43 0 -74 15l20 83q19 -13 53 -13q44 0 44 24q0 28 -82 28l18 77q-92 10 -143 54.5t-51 118.5l169 -1q2 -42 82 -42q83 0 85 35q0 21 -33.5 31t-82 17t-96.5 19.5
t-81.5 48.5t-33.5 94q-1 73 66.5 119t176.5 46q112 0 176 -46.5t64 -129.5l-169 1q0 44 -77 44q-71 0 -71 -34q0 -19 33.5 -27.5t81.5 -14.5t96.5 -18.5t82 -50t33.5 -99.5z" />
    <glyph glyph-name="scircumflex.sc" horiz-adv-x="556" 
d="M277 675l-71 -87h-112l99 187h168l99 -187h-111zM201 370q0 -19 33.5 -27.5t81.5 -14.5t96.5 -18.5t82 -50t33.5 -99.5q0 -79 -69.5 -123.5t-185.5 -44.5t-181.5 46t-65.5 130l169 -1q2 -42 82 -42q83 0 85 35q0 21 -33.5 31t-82 17t-96.5 19.5t-81.5 48.5t-33.5 94
q-1 73 66.5 119t176.5 46q112 0 176 -46.5t64 -129.5l-169 1q0 44 -77 44q-71 0 -71 -34z" />
    <glyph glyph-name="scommaaccent.sc" horiz-adv-x="556" 
d="M201 370q0 -19 33.5 -27.5t81.5 -14.5t96.5 -18.5t82 -50t33.5 -99.5q0 -79 -69.5 -123.5t-185.5 -44.5t-181.5 46t-65.5 130l169 -1q2 -42 82 -42q83 0 85 35q0 21 -33.5 31t-82 17t-96.5 19.5t-81.5 48.5t-33.5 94q-1 73 66.5 119t176.5 46q112 0 176 -46.5t64 -129.5
l-169 1q0 44 -77 44q-71 0 -71 -34zM271 -43q80 0 79 -105q0 -81 -43.5 -131t-99.5 -50v66q23 0 43 18.5t20 47.5q-36 0 -57 21t-22 55q0 35 22.5 57t57.5 21z" />
    <glyph glyph-name="germandbls.sc" horiz-adv-x="615" 
d="M478 301q110 -37 110 -132q0 -76 -63.5 -122.5t-166.5 -46.5h-48v125h48q59 0 59 44q0 45 -59 45h-42v103l41 72h-78q-30 0 -43.5 -13.5t-13.5 -43.5v-332h-170v343q0 82 54 133.5t149 51.5h296v-109z" />
    <glyph glyph-name="t.sc" horiz-adv-x="556" 
d="M193 0v390h-181v138h532v-138h-181v-390h-170z" />
    <glyph glyph-name="tbar.sc" horiz-adv-x="566" 
d="M549 390h-181v-94h110v-92h-110v-204h-170v204h-111v92h111v94h-181v138h532v-138z" />
    <glyph glyph-name="tcaron.sc" horiz-adv-x="556" 
d="M97 775h112l71 -87l72 87h111l-99 -187h-168zM193 0v390h-181v138h532v-138h-181v-390h-170z" />
    <glyph glyph-name="uni0163.sc" horiz-adv-x="556" 
d="M363 0h-53l-5 -26q39 -9 59 -32.5t20 -56.5q0 -48 -38.5 -76t-93.5 -28q-42 0 -74 15l20 83q20 -13 53 -13q44 0 44 24q0 28 -82 28l20 82h-40v390h-181v138h532v-138h-181v-390z" />
    <glyph glyph-name="uni021B.sc" horiz-adv-x="556" 
d="M193 0v390h-181v138h532v-138h-181v-390h-170zM216 -263q23 0 43 18.5t20 47.5q-36 0 -57 21t-22 55q0 35 22.5 57t57.5 21q80 0 79 -105q0 -81 -43.5 -131t-99.5 -50v66z" />
    <glyph glyph-name="u.sc" horiz-adv-x="635" 
d="M416 528h169v-309q0 -105 -71 -165t-196 -60q-126 0 -197.5 59.5t-70.5 164.5l1 309l169 1v-309q0 -79 98 -79t98 79v309z" />
    <glyph glyph-name="uacute.sc" horiz-adv-x="635" 
d="M383 587h-142l39 187h203zM416 528h169v-309q0 -105 -71 -165t-196 -60q-126 0 -197.5 59.5t-70.5 164.5l1 309l169 1v-309q0 -79 98 -79t98 79v309z" />
    <glyph glyph-name="ubreve.sc" horiz-adv-x="635" 
d="M489 772q0 -88 -47 -138t-124 -50q-78 0 -125.5 50t-47.5 138h125q0 -39 11 -55t36 -16t35 16t10 55h127zM416 528h169v-309q0 -105 -71 -165t-196 -60q-126 0 -197.5 59.5t-70.5 164.5l1 309l169 1v-309q0 -79 98 -79t98 79v309z" />
    <glyph glyph-name="ucircumflex.sc" horiz-adv-x="635" 
d="M135 588l99 187h168l99 -187h-111l-72 87l-71 -87h-112zM416 528h169v-309q0 -105 -71 -165t-196 -60q-126 0 -197.5 59.5t-70.5 164.5l1 309l169 1v-309q0 -79 98 -79t98 79v309z" />
    <glyph glyph-name="udieresis.sc" horiz-adv-x="635" 
d="M212 763q40 0 64.5 -24t24.5 -63q0 -38 -24.5 -62t-64.5 -24t-65 24t-25 62t25 62.5t65 24.5zM430 763q40 0 64.5 -24t24.5 -63q0 -38 -24.5 -62t-64.5 -24t-65 24t-25 62t25 62.5t65 24.5zM416 528h169v-309q0 -105 -71 -165t-196 -60q-126 0 -197.5 59.5t-70.5 164.5
l1 309l169 1v-309q0 -79 98 -79t98 79v309z" />
    <glyph glyph-name="uni1EE5.sc" horiz-adv-x="635" 
d="M416 528h169v-309q0 -105 -71 -165t-196 -60q-126 0 -197.5 59.5t-70.5 164.5l1 309l169 1v-309q0 -79 98 -79t98 79v309zM319 -37q48 0 77.5 -29t29.5 -75q0 -45 -29.5 -74t-77.5 -29t-78 29t-30 74q0 46 30 75t78 29z" />
    <glyph glyph-name="ugrave.sc" horiz-adv-x="635" 
d="M249 587l-100 187h203l39 -187h-142zM416 528h169v-309q0 -105 -71 -165t-196 -60q-126 0 -197.5 59.5t-70.5 164.5l1 309l169 1v-309q0 -79 98 -79t98 79v309z" />
    <glyph glyph-name="uhungarumlaut.sc" horiz-adv-x="635" 
d="M238 587h-151l49 187h210zM486 587h-151l49 187h210zM416 528h169v-309q0 -105 -71 -165t-196 -60q-126 0 -197.5 59.5t-70.5 164.5l1 309l169 1v-309q0 -79 98 -79t98 79v309z" />
    <glyph glyph-name="umacron.sc" horiz-adv-x="635" 
d="M151 617v120h340v-120h-340zM416 528h169v-309q0 -105 -71 -165t-196 -60q-126 0 -197.5 59.5t-70.5 164.5l1 309l169 1v-309q0 -79 98 -79t98 79v309z" />
    <glyph glyph-name="uogonek.sc" horiz-adv-x="635" 
d="M416 528h169v-309q0 -81 -43.5 -136.5t-123.5 -76.5q-11 -6 -24 -15t-27.5 -29.5t-14.5 -43.5q0 -41 40 -41q32 0 53 21l41 -68q-38 -45 -112 -45q-55 0 -87 29.5t-32 80.5q0 55 39 100q-115 5 -180 64t-64 159l1 309l169 1v-309q0 -79 98 -79t98 79v309z" />
    <glyph glyph-name="uring.sc" horiz-adv-x="635" 
d="M318 574q-46 0 -78.5 29t-32.5 76t32.5 76t78.5 29t78 -29t32 -76t-32 -76t-78 -29zM318 647q14 0 23 9t9 23t-9 22.5t-23 8.5q-15 0 -23.5 -8.5t-8.5 -22.5t8.5 -23t23.5 -9zM416 528h169v-309q0 -105 -71 -165t-196 -60q-126 0 -197.5 59.5t-70.5 164.5l1 309l169 1
v-309q0 -79 98 -79t98 79v309z" />
    <glyph glyph-name="utilde.sc" horiz-adv-x="635" 
d="M251 642q-39 0 -39 -42h-112q0 163 126 163q42 0 84.5 -20t59.5 -20q39 0 39 42h112q0 -163 -125 -163q-40 0 -83.5 20t-61.5 20zM416 528h169v-309q0 -105 -71 -165t-196 -60q-126 0 -197.5 59.5t-70.5 164.5l1 309l169 1v-309q0 -79 98 -79t98 79v309z" />
    <glyph glyph-name="v.sc" horiz-adv-x="597" 
d="M428 528h170l-205 -528h-189l-205 528h170l130 -376z" />
    <glyph glyph-name="w.sc" horiz-adv-x="867" 
d="M694 528h167l-152 -528h-199l-76 342l-77 -342h-199l-152 528h167l91 -387l79 387h182l78 -387z" />
    <glyph glyph-name="wacute.sc" horiz-adv-x="867" 
d="M600 774l-100 -187h-142l39 187h203zM694 528h167l-152 -528h-199l-76 342l-77 -342h-199l-152 528h167l91 -387l79 387h182l78 -387z" />
    <glyph glyph-name="wcircumflex.sc" horiz-adv-x="867" 
d="M435 675l-71 -87h-112l99 187h168l99 -187h-111zM694 528h167l-152 -528h-199l-76 342l-77 -342h-199l-152 528h167l91 -387l79 387h182l78 -387z" />
    <glyph glyph-name="wdieresis.sc" horiz-adv-x="867" 
d="M329 590q-40 0 -65 24t-25 62t25 62.5t65 24.5t64.5 -24t24.5 -63q0 -38 -24.5 -62t-64.5 -24zM547 590q-40 0 -65 24t-25 62t25 62.5t65 24.5t64.5 -24t24.5 -63q0 -38 -24.5 -62t-64.5 -24zM694 528h167l-152 -528h-199l-76 342l-77 -342h-199l-152 528h167l91 -387
l79 387h182l78 -387z" />
    <glyph glyph-name="wgrave.sc" horiz-adv-x="867" 
d="M508 587h-142l-100 187h203zM694 528h167l-152 -528h-199l-76 342l-77 -342h-199l-152 528h167l91 -387l79 387h182l78 -387z" />
    <glyph glyph-name="x.sc" horiz-adv-x="591" 
d="M593 0h-188l-108 171l-108 -171h-188l173 269l-170 259h189l103 -158l100 158h189l-166 -255z" />
    <glyph glyph-name="y.sc" horiz-adv-x="568" 
d="M570 528l-202 -345v-183h-169v185l-202 343h178l109 -194l108 194h178z" />
    <glyph glyph-name="yacute.sc" horiz-adv-x="568" 
d="M449 774l-100 -187h-142l39 187h203zM570 528l-202 -345v-183h-169v185l-202 343h178l109 -194l108 194h178z" />
    <glyph glyph-name="ycircumflex.sc" horiz-adv-x="568" 
d="M284 675l-71 -87h-112l99 187h168l99 -187h-111zM570 528l-202 -345v-183h-169v185l-202 343h178l109 -194l108 194h178z" />
    <glyph glyph-name="ydieresis.sc" horiz-adv-x="568" 
d="M178 590q-40 0 -65 24t-25 62t25 62.5t65 24.5t64.5 -24t24.5 -63q0 -38 -24.5 -62t-64.5 -24zM396 590q-40 0 -65 24t-25 62t25 62.5t65 24.5t64.5 -24t24.5 -63q0 -38 -24.5 -62t-64.5 -24zM570 528l-202 -345v-183h-169v185l-202 343h178l109 -194l108 194h178z" />
    <glyph glyph-name="ygrave.sc" horiz-adv-x="568" 
d="M357 587h-142l-100 187h203zM570 528l-202 -345v-183h-169v185l-202 343h178l109 -194l108 194h178z" />
    <glyph glyph-name="uni0233.sc" horiz-adv-x="568" 
d="M457 737v-120h-340v120h340zM570 528l-202 -345v-183h-169v185l-202 343h178l109 -194l108 194h178z" />
    <glyph glyph-name="uni1EF9.sc" horiz-adv-x="568" 
d="M217 642q-39 0 -39 -42h-112q0 163 126 163q42 0 84.5 -20t59.5 -20q39 0 39 42h112q0 -163 -125 -163q-40 0 -83.5 20t-61.5 20zM570 528l-202 -345v-183h-169v185l-202 343h178l109 -194l108 194h178z" />
    <glyph glyph-name="z.sc" horiz-adv-x="573" 
d="M267 138h269v-138h-502v140l267 250h-258v138h492l-1 -140z" />
    <glyph glyph-name="zacute.sc" horiz-adv-x="573" 
d="M445 774l-100 -187h-142l39 187h203zM267 138h269v-138h-502v140l267 250h-258v138h492l-1 -140z" />
    <glyph glyph-name="zcaron.sc" horiz-adv-x="573" 
d="M364 588h-168l-99 187h112l71 -87l72 87h111zM267 138h269v-138h-502v140l267 250h-258v138h492l-1 -140z" />
    <glyph glyph-name="zdotaccent.sc" horiz-adv-x="573" 
d="M282 581q-48 0 -78 29t-30 74q0 46 30 75t78 29t77.5 -29t29.5 -75q0 -45 -29.5 -74t-77.5 -29zM267 138h269v-138h-502v140l267 250h-258v138h492l-1 -140z" />
    <glyph glyph-name="k.sc.ss01" horiz-adv-x="613" 
d="M604 123l8 -117q-40 -10 -75 -10q-45 0 -77.5 13t-48 28.5t-35.5 44.5l-81 116l-68 -72v-126h-170v528h170v-213l190 213h194l-199 -222l110 -160q19 -27 48 -27q18 0 34 4z" />
    <glyph glyph-name="kcommaaccent.sc.ss01" horiz-adv-x="613" 
d="M604 123l8 -117q-40 -10 -75 -10q-45 0 -77.5 13t-48 28.5t-35.5 44.5l-81 116l-68 -72v-126h-170v528h170v-213l190 213h194l-199 -222l110 -160q19 -27 48 -27q18 0 34 4zM308 -43q80 0 79 -105q0 -81 -43.5 -131t-99.5 -50v66q23 0 43 18.5t20 47.5q-36 0 -57 21
t-22 55q0 35 22.5 57t57.5 21z" />
    <glyph glyph-name="r.sc.ss01" horiz-adv-x="595" 
d="M393 0l-84 163h-82v-163h-170v528h259q118 0 180 -47.5t62 -134.5q0 -101 -93 -151l111 -195h-183zM227 393v-103h89q71 0 71 51q0 52 -71 52h-89z" />
    <glyph glyph-name="racute.sc.ss01" horiz-adv-x="595" 
d="M451 782l-100 -187h-142l39 187h203zM393 0l-84 163h-82v-163h-170v528h259q118 0 180 -47.5t62 -134.5q0 -101 -93 -151l111 -195h-183zM227 393v-103h89q71 0 71 51q0 52 -71 52h-89z" />
    <glyph glyph-name="rcaron.sc.ss01" horiz-adv-x="595" 
d="M370 596h-168l-99 187h112l71 -87l72 87h111zM393 0l-84 163h-82v-163h-170v528h259q118 0 180 -47.5t62 -134.5q0 -101 -93 -151l111 -195h-183zM227 393v-103h89q71 0 71 51q0 52 -71 52h-89z" />
    <glyph glyph-name="rcommaaccent.sc.ss01" horiz-adv-x="595" 
d="M465 195l111 -195h-183l-84 163h-82v-163h-170v528h259q118 0 180 -47.5t62 -134.5q0 -101 -93 -151zM227 393v-103h89q71 0 71 51q0 52 -71 52h-89zM308 -43q80 0 79 -105q0 -81 -43.5 -131t-99.5 -50v66q23 0 43 18.5t20 47.5q-36 0 -57 21t-22 55q0 35 22.5 57
t57.5 21z" />
    <glyph glyph-name="zero.sinf" horiz-adv-x="439" 
d="M219 -85q-92 0 -143 55.5t-51 156.5q0 102 51 159t143 57t143 -57t51 -159q0 -101 -51 -156.5t-143 -55.5zM219 20q67 0 67 107q0 110 -67 110t-67 -110q0 -107 67 -107z" />
    <glyph glyph-name="one.sinf" horiz-adv-x="322" 
d="M240 23h69v-103h-279v103h85v155q-13 -2 -83 -2v104q86 0 111 58h97v-315z" />
    <glyph glyph-name="two.sinf" horiz-adv-x="380" 
d="M220 23h130v-103h-323v83l148 129q47 42 47 72q0 34 -33 34q-19 0 -29 -13t-10 -33l-126 -1q-1 67 45.5 110t119.5 43q74 0 115.5 -39t41.5 -101q0 -67 -73 -133z" />
    <glyph glyph-name="three.sinf" horiz-adv-x="397" 
d="M326 132q47 -32 47 -86q0 -63 -49.5 -97t-129.5 -34q-75 0 -123.5 36t-48.5 95l125 -1q2 -24 50 -24q49 0 49 29q0 17 -13 22.5t-46 5.5h-39v97h36q28 0 38.5 7.5t11.5 22.5q0 33 -38 33q-20 0 -30.5 -10t-11.5 -35l-125 -1q-1 69 44.5 110t119.5 41q73 0 120.5 -39
t47.5 -96q0 -46 -35 -76z" />
    <glyph glyph-name="four.sinf" horiz-adv-x="415" 
d="M394 100v-103h-51v-77h-125v77h-201v103l158 237h168v-237h51zM142 101v-1h81v126h-1z" />
    <glyph glyph-name="five.sinf" horiz-adv-x="387" 
d="M201 201q71 0 118.5 -36.5t47.5 -106.5q0 -66 -52.5 -104.5t-127.5 -38.5q-71 0 -121 35t-50 97h125q1 -26 47 -26q52 0 52 37q0 38 -48 38q-26 0 -45 -12l-111 40l22 213h281v-103h-176l-4 -37q17 4 42 4z" />
    <glyph glyph-name="six.sinf" horiz-adv-x="410" 
d="M227 186q66 0 111.5 -34.5t45.5 -95.5q0 -64 -45.5 -102.5t-121.5 -38.5q-92 0 -142.5 57t-50.5 156q0 101 50 157t141 56q73 0 118 -38.5t44 -98.5l-115 1q-1 31 -45 31q-60 0 -69 -75q35 25 79 25zM214 21q47 0 47 35q0 31 -48 31q-59 0 -54 -41q13 -25 55 -25z" />
    <glyph glyph-name="seven.sinf" horiz-adv-x="359" 
d="M49 -80l160 313v1h-194v103h332v-94l-160 -323h-138z" />
    <glyph glyph-name="eight.sinf" horiz-adv-x="396" 
d="M324 141q48 -36 48 -91q0 -67 -47 -101t-127 -34t-127 34t-47 101q0 55 48 91q-34 32 -34 75q0 63 47 95t113 32q67 0 113.5 -32t46.5 -95q0 -44 -34 -75zM198 243q-39 0 -39 -30t39 -30t39 30t-39 30zM198 15q49 0 49 37t-49 37q-22 0 -35.5 -9.5t-13.5 -27.5
q0 -37 49 -37z" />
    <glyph glyph-name="nine.sinf" horiz-adv-x="409" 
d="M192 341q94 0 143.5 -54.5t49.5 -158.5q0 -101 -50 -157t-141 -56q-72 0 -117.5 39t-44.5 98h116q0 -31 45 -31q59 0 68 74q-34 -24 -79 -24q-66 -1 -111.5 34t-45.5 96q0 63 46 101.5t121 38.5zM196 169q59 0 54 43q-14 24 -55 24q-47 0 -47 -36q0 -31 48 -31z" />
    <glyph glyph-name="zero.tf" horiz-adv-x="638" 
d="M319 -8q-139 0 -217.5 92.5t-78.5 259.5q0 168 78.5 260t217.5 92q140 0 218 -92t78 -260q0 -167 -78.5 -259.5t-217.5 -92.5zM319 150q112 0 112 194t-112 194t-112 -194t112 -194z" />
    <glyph glyph-name="one.tf" horiz-adv-x="638" 
d="M438 150h142v-150h-492v150h168v323q-61 -20 -165 -20v149q79 0 127 19t79 66h141v-537z" />
    <glyph glyph-name="two.tf" horiz-adv-x="638" 
d="M346 150h236v-150h-526v116l269 236q66 59 66 119q0 32 -19 49.5t-53 17.5q-39 0 -62.5 -23t-23.5 -69h-183q0 120 72.5 185t195.5 65q122 0 190 -61t67 -164q1 -73 -30 -126t-110 -120z" />
    <glyph glyph-name="three.tf" horiz-adv-x="638" 
d="M590 202q1 -93 -80 -151.5t-200 -58.5q-122 0 -196 64t-74 177l183 -1q0 -81 93 -81q42 0 66 16t24 44q-2 68 -91 68h-75v130h74q37 0 56.5 18t20.5 49q0 31 -22 46.5t-54 15.5q-35 0 -57.5 -21t-22.5 -61l-183 -1q0 112 69.5 176t189.5 65q114 1 189 -56t75 -154
q0 -87 -67 -137q82 -52 82 -147z" />
    <glyph glyph-name="four.tf" horiz-adv-x="638" 
d="M608 279v-150h-87v-129h-181v129h-316v140l276 418h221v-408h87zM201 280v-1h153v237h-1z" />
    <glyph glyph-name="five.tf" horiz-adv-x="638" 
d="M337 451q113 0 184.5 -59.5t72.5 -169.5q0 -107 -77.5 -168.5t-200.5 -61.5q-121 0 -198 59t-77 157h182q1 -27 26 -42t65 -15q44 0 70 18.5t26 52.5t-25.5 54t-72.5 20q-50 0 -92 -30l-151 46l46 375h434v-150h-295l-13 -99q47 13 96 13z" />
    <glyph glyph-name="six.tf" horiz-adv-x="638" 
d="M371 435q103 1 169 -57t66 -153q0 -101 -69 -167t-194 -66q-142 0 -223 93t-81 253q0 170 80.5 264t221.5 94q110 0 178 -56t68 -147h-183q0 45 -65 45q-106 0 -116 -155q59 52 148 52zM335 150q44 0 66.5 21t22.5 53q0 34 -22.5 55.5t-68.5 20.5q-50 0 -75.5 -32.5
t-10.5 -68.5q27 -49 88 -49z" />
    <glyph glyph-name="seven.tf" horiz-adv-x="638" 
d="M122 0l271 536v1h-347v150h543v-150l-266 -537h-201z" />
    <glyph glyph-name="eight.tf" horiz-adv-x="638" 
d="M508 357q88 -54 88 -155q0 -100 -72 -155t-205 -55q-134 0 -205.5 55.5t-71.5 154.5q0 101 88 155q-68 54 -68 139q0 97 69.5 148.5t187.5 51.5t187.5 -51.5t69.5 -148.5q0 -86 -68 -139zM319 557q-44 0 -66 -19t-22 -52q0 -69 89 -69q45 0 66.5 19t20.5 50
q1 32 -21 51.5t-67 19.5zM319 132q49 0 74 19.5t24 55.5q1 35 -24 55.5t-73 20.5t-73.5 -20.5t-25.5 -55.5q1 -75 98 -75z" />
    <glyph glyph-name="nine.tf" horiz-adv-x="638" 
d="M295 696q141 0 222 -93t81 -252q0 -170 -80 -264.5t-220 -94.5q-110 0 -178 56t-68 147h183q0 -45 64 -45q105 0 115 155q-59 -52 -147 -52q-102 -1 -168 57t-66 153q0 101 68.5 167t193.5 66zM305 388q50 0 75.5 33t8.5 69q-25 48 -86 48q-44 0 -66 -21t-22 -53
q0 -33 22.5 -55t67.5 -21z" />
    <glyph glyph-name="zero.dnom" horiz-adv-x="439" 
d="M219 -5q-92 0 -143 55.5t-51 156.5q0 102 51 159t143 57t143 -57t51 -159q0 -101 -51 -156.5t-143 -55.5zM219 100q67 0 67 107q0 110 -67 110t-67 -110q0 -107 67 -107z" />
    <glyph glyph-name="one.dnom" horiz-adv-x="322" 
d="M240 103h69v-103h-279v103h85v155q-13 -2 -83 -2v104q86 0 111 58h97v-315z" />
    <glyph glyph-name="two.dnom" horiz-adv-x="380" 
d="M220 103h130v-103h-323v83l148 129q48 43 47 72q0 34 -33 34q-19 0 -29 -13t-10 -33l-126 -1q-1 67 45.5 110t119.5 43q74 0 116 -39t41 -101q2 -66 -73 -133z" />
    <glyph glyph-name="three.dnom" horiz-adv-x="397" 
d="M324 212q48 -31 48 -86q0 -63 -49.5 -97t-129.5 -34q-76 0 -124 36t-48 95h125q1 -25 50 -25t49 29q0 17 -13 22.5t-46 5.5h-40v97h37q49 0 49 30q1 16 -8.5 24.5t-28.5 8.5q-41 0 -42 -45l-125 -1q-1 70 44.5 110.5t119.5 40.5q73 0 120.5 -38.5t46.5 -95.5
q0 -47 -35 -77z" />
    <glyph glyph-name="four.dnom" horiz-adv-x="415" 
d="M392 180v-103h-51v-77h-125v77h-201v103l158 237h168v-237h51zM140 181v-1h81v126h-1z" />
    <glyph glyph-name="five.dnom" horiz-adv-x="387" 
d="M201 281q71 0 118.5 -36.5t47.5 -106.5q0 -66 -52.5 -104.5t-127.5 -38.5q-71 0 -121 35t-50 97h125q1 -26 47 -26q52 0 52 37q0 38 -48 38q-26 0 -45 -12l-111 40l22 213h281v-103h-176l-4 -37q17 4 42 4z" />
    <glyph glyph-name="six.dnom" horiz-adv-x="410" 
d="M228 266q66 0 111.5 -34.5t45.5 -95.5q0 -64 -45.5 -102.5t-121.5 -38.5q-92 0 -142.5 57t-50.5 156q0 101 50 157t141 56q73 0 118 -38.5t44 -98.5l-115 1q-1 31 -45 31q-60 0 -69 -75q35 25 79 25zM215 101q47 0 47 35q0 31 -48 31q-59 0 -54 -41q12 -25 55 -25z" />
    <glyph glyph-name="seven.dnom" horiz-adv-x="359" 
d="M49 0l160 313v1h-194v103h332v-94l-160 -323h-138z" />
    <glyph glyph-name="eight.dnom" horiz-adv-x="396" 
d="M324 221q48 -36 48 -91q0 -67 -47 -101t-127 -34t-127 34t-47 101q0 55 48 91q-34 32 -34 75q0 63 47 95t113 32q67 0 113.5 -32t46.5 -95q0 -44 -34 -75zM198 323q-39 0 -39 -30t39 -30t39 30t-39 30zM198 95q24 0 37 9t12 28q1 18 -12.5 27.5t-36.5 9.5
q-22 0 -35.5 -9.5t-13.5 -27.5q0 -37 49 -37z" />
    <glyph glyph-name="nine.dnom" horiz-adv-x="409" 
d="M191 421q94 0 143.5 -54.5t49.5 -158.5q0 -101 -50 -157t-141 -56q-72 0 -117.5 39t-44.5 98h116q0 -31 45 -31q59 0 68 74q-34 -24 -79 -24q-66 -1 -111.5 34t-45.5 96q0 63 46 101.5t121 38.5zM195 249q59 0 54 43q-14 24 -55 24q-47 0 -47 -36q0 -31 48 -31z" />
    <glyph glyph-name="zero.numr" horiz-adv-x="439" 
d="M219 285q-92 0 -143 55.5t-51 157.5q0 101 51.5 158t142.5 57t142.5 -57t51.5 -158q0 -102 -51 -157.5t-143 -55.5zM219 391q67 0 67 107q0 110 -67 110t-67 -110q0 -107 67 -107z" />
    <glyph glyph-name="one.numr" horiz-adv-x="322" 
d="M240 396h69v-103h-279v103h85v155q-13 -2 -83 -2v103q86 0 111 58h97v-314z" />
    <glyph glyph-name="two.numr" horiz-adv-x="380" 
d="M220 392h130v-103h-323v83l148 129q48 43 47 72q0 34 -33 34q-19 0 -29 -13t-10 -33l-126 -1q-1 67 45.5 110t119.5 43q74 0 116 -39t41 -101q1 -66 -73 -133z" />
    <glyph glyph-name="three.numr" horiz-adv-x="397" 
d="M324 502q48 -31 48 -86q0 -63 -49.5 -97t-129.5 -34q-76 0 -124 36t-48 95h125q1 -25 50 -25t49 29q0 17 -13 22.5t-46 5.5h-40v97h37q49 0 49 30q1 16 -8.5 24.5t-28.5 8.5q-41 0 -42 -45l-125 -1q-1 70 44.5 110.5t119.5 40.5q73 0 120.5 -38.5t46.5 -95.5
q0 -47 -35 -77z" />
    <glyph glyph-name="four.numr" horiz-adv-x="415" 
d="M392 472v-102h-51v-77h-125v77h-201v103l158 237h168v-238h51zM141 474v-2h80v127h-1z" />
    <glyph glyph-name="five.numr" horiz-adv-x="387" 
d="M201 574q72 0 119 -36.5t47 -106.5q0 -66 -52.5 -104.5t-127.5 -38.5q-71 0 -121 35t-50 97h125q1 -26 47 -26q52 0 52 37q0 38 -48 38q-26 0 -45 -12l-111 40l22 213h281v-103h-176l-4 -37q17 4 42 4z" />
    <glyph glyph-name="six.numr" horiz-adv-x="410" 
d="M228 557q66 1 111.5 -34t45.5 -96q0 -63 -45.5 -101.5t-121.5 -38.5q-92 0 -142.5 56.5t-50.5 156.5q0 101 50 157t141 56q73 0 118 -39t44 -98h-115q-1 32 -45 32q-60 0 -69 -75q34 24 79 24zM215 392q47 0 47 36q0 31 -48 31q-59 0 -54 -43q14 -24 55 -24z" />
    <glyph glyph-name="seven.numr" horiz-adv-x="359" 
d="M48 293l160 312v2h-194v103h332v-94l-160 -323h-138z" />
    <glyph glyph-name="eight.numr" horiz-adv-x="396" 
d="M324 511q48 -36 48 -91q0 -67 -47 -101t-127 -34t-127 34.5t-47 100.5q0 55 48 91q-34 32 -34 75q0 63 47 95t113 32q67 0 113.5 -32t46.5 -95q0 -44 -34 -75zM198 614q-39 0 -39 -31q0 -30 39 -30t39 30q0 15 -11.5 23t-27.5 8zM198 385q24 0 37 9t12 28
q1 18 -12.5 27.5t-36.5 9.5q-22 0 -35.5 -9.5t-13.5 -27.5q0 -37 49 -37z" />
    <glyph glyph-name="nine.numr" horiz-adv-x="409" 
d="M191 713q94 0 143.5 -54.5t49.5 -158.5q0 -101 -50 -157t-141 -56q-72 0 -117.5 39t-44.5 98l116 -1q0 -31 45 -31q59 0 68 75q-34 -24 -79 -24q-66 -1 -111.5 34t-45.5 96q0 63 46 101.5t121 38.5zM195 541q59 0 54 42q-13 25 -55 25q-47 0 -47 -36q0 -31 48 -31z" />
    <glyph glyph-name="zero.sups" horiz-adv-x="439" 
d="M219 335q-92 0 -143 55.5t-51 156.5t51.5 158t142.5 57t142.5 -57t51.5 -158t-51 -156.5t-143 -55.5zM219 440q67 0 67 107q0 110 -67 110t-67 -110q0 -107 67 -107z" />
    <glyph glyph-name="one.sups" horiz-adv-x="322" 
d="M240 441h69v-103h-279v103h85v155q-13 -2 -83 -2v103q86 0 111 58h97v-314z" />
    <glyph glyph-name="two.sups" horiz-adv-x="380" 
d="M220 442h130v-103h-323v82l148 130q45 40 44 72q0 12 -1.5 18t-8 11t-19.5 5q-19 0 -29.5 -13t-10.5 -33l-126 -1q-1 66 45.5 109.5t119.5 43.5q74 0 116 -39.5t41 -100.5q1 -66 -73 -133z" />
    <glyph glyph-name="three.sups" horiz-adv-x="397" 
d="M372 464q1 -55 -50.5 -92.5t-128.5 -37.5q-75 0 -123.5 36t-48.5 95h125q2 -25 50 -25q49 0 49 27q-1 18 -13.5 24t-45.5 6h-39v97h36q28 0 38.5 7.5t11.5 23.5q0 32 -38 32q-18 0 -29.5 -8.5t-12.5 -36.5h-125q-1 69 44.5 109.5t119.5 40.5q73 0 120.5 -38.5t47.5 -95.5
q0 -47 -36 -77q48 -33 48 -87z" />
    <glyph glyph-name="four.sups" horiz-adv-x="415" 
d="M392 518v-102h-51v-77h-125v77h-201v103l158 237h168v-238h51zM141 520v-2h80v127h-1z" />
    <glyph glyph-name="five.sups" horiz-adv-x="387" 
d="M201 620q72 0 119 -36.5t47 -106.5q0 -66 -52.5 -104.5t-126.5 -38.5q-72 0 -122 35t-50 97h125q1 -26 47 -26q52 0 52 37q0 39 -48 39q-24 0 -45 -13l-111 40l22 213h281v-103h-176l-4 -37q17 4 42 4z" />
    <glyph glyph-name="six.sups" horiz-adv-x="410" 
d="M228 605q66 0 111.5 -34.5t45.5 -95.5q0 -64 -45.5 -102.5t-121.5 -38.5q-92 0 -142.5 57t-50.5 157q0 101 50 157t141 56q73 0 118 -39t44 -99l-125 1q-1 31 -35 31q-60 0 -69 -75q35 25 79 25zM215 440q47 0 47 35q0 33 -48 31q-59 0 -54 -41q12 -25 55 -25z" />
    <glyph glyph-name="seven.sups" horiz-adv-x="359" 
d="M48 339l160 313v1h-194v103h332v-94l-160 -323h-138z" />
    <glyph glyph-name="eight.sups" horiz-adv-x="396" 
d="M324 560q48 -35 48 -91q0 -67 -47 -101t-127 -34t-127 34.5t-47 100.5q0 56 48 91q-34 32 -34 75q0 63 47 95t113 32q67 0 113.5 -32t46.5 -95q0 -43 -34 -75zM198 663q-39 0 -39 -31q0 -30 39 -30t39 30q0 15 -11.5 23t-27.5 8zM198 434q24 0 37 9t12 28
q1 18 -12.5 27.5t-36.5 9.5q-22 0 -35.5 -10t-13.5 -27q0 -37 49 -37z" />
    <glyph glyph-name="nine.sups" horiz-adv-x="409" 
d="M191 761q94 0 143.5 -54.5t49.5 -159.5q0 -101 -50 -157t-141 -56q-72 0 -117.5 39t-44.5 98h126q0 -31 35 -31q59 0 68 74q-34 -24 -79 -24q-66 0 -111.5 34.5t-45.5 95.5q0 64 46 102.5t121 38.5zM195 589q59 0 54 41q-13 25 -55 25q-47 0 -47 -35q0 -33 48 -31z" />
    <glyph glyph-name="zero.sc" horiz-adv-x="600" 
d="M300 -7q-126 0 -197.5 72t-71.5 200t71.5 199.5t197.5 71.5t197.5 -71t71.5 -200q0 -128 -71.5 -200t-197.5 -72zM300 151q85 0 85 114q0 60 -21.5 86.5t-63.5 26.5q-43 0 -64 -26.5t-21 -86.5q0 -114 85 -114z" />
    <glyph glyph-name="one.sc" horiz-adv-x="428" 
d="M321 148h89v-148h-372v148h101v177q-43 -11 -96 -11v147q52 0 81.5 14t50.5 53h146v-380z" />
    <glyph glyph-name="two.sc" horiz-adv-x="504" 
d="M314 136h152v-136h-430v105l218 178q37 32 37 68q0 17 -11 27t-30 10q-52 0 -53 -55h-168q0 98 58.5 149t162.5 51q101 0 156 -49t54 -130q0 -59 -24.5 -100t-90.5 -94z" />
    <glyph glyph-name="three.sc" horiz-adv-x="511" 
d="M418 267q61 -38 61 -109q0 -76 -60.5 -120.5t-166.5 -44.5q-104 0 -165.5 51.5t-61.5 144.5l164 -1q0 -53 66 -53q28 0 43.5 9t15.5 24q-1 17 -16.5 28t-42.5 11h-65v112h65q23 0 35.5 12t12.5 29q-1 18 -15.5 26.5t-35.5 8.5q-24 0 -39 -14t-15 -38h-163q-1 89 56 140
t158 52q94 1 155.5 -44t62.5 -121q0 -65 -49 -103z" />
    <glyph glyph-name="four.sc" horiz-adv-x="535" 
d="M507 222v-133h-71v-89h-161v89h-258v123l224 316h195v-306h71zM175 223v-1h112v154h-1z" />
    <glyph glyph-name="five.sc" horiz-adv-x="499" 
d="M268 348q91 0 149 -46t59 -131q0 -83 -62.5 -130.5t-163.5 -47.5t-164 46t-63 122l164 -1q0 -11 16.5 -18t43.5 -7q30 0 47.5 9.5t16.5 26.5q1 16 -16.5 27.5t-50.5 11.5q-37 0 -65 -19l-133 38l41 299h352v-132h-232l-8 -56q34 8 69 8z" />
    <glyph glyph-name="six.sc" horiz-adv-x="539" 
d="M316 335q86 1 142 -43t56 -116q0 -78 -58.5 -130.5t-165.5 -52.5q-120 0 -190 73t-70 192q0 131 69 204.5t189 73.5q94 0 151.5 -44t58.5 -115h-164q0 18 -48 18q-41 0 -63 -22t-27 -74q50 36 120 36zM283 134q34 0 51.5 12t17.5 28q0 17 -17.5 30.5t-53.5 13.5
q-29 0 -48 -13.5t-22 -31.5q19 -39 72 -39z" />
    <glyph glyph-name="seven.sc" horiz-adv-x="476" 
d="M73 0l210 395v1h-266v132h441v-135l-205 -393h-180z" />
    <glyph glyph-name="eight.sc" horiz-adv-x="524" 
d="M427 272q66 -42 66 -116q0 -76 -59.5 -119.5t-171.5 -43.5q-113 0 -172 43.5t-59 119.5t67 117q-51 41 -51 106q0 77 57 116.5t158 39.5t158.5 -40t57.5 -116q0 -66 -51 -107zM262 414q-64 0 -66 -45q2 -44 67 -44q67 0 65 44q2 45 -66 45zM262 116q74 0 72 45
q1 21 -17 33.5t-54 12.5q-71 0 -73 -46q3 -45 72 -45z" />
    <glyph glyph-name="nine.sc" horiz-adv-x="538" 
d="M248 536q120 0 190 -73.5t70 -191.5q0 -131 -69 -204.5t-189 -73.5q-94 0 -151.5 44t-58.5 116l164 -1q0 -18 48 -18q41 0 63.5 22t27.5 75q-49 -37 -121 -37q-86 -1 -142 43t-56 116q0 78 58.5 130.5t165.5 52.5zM258 311q29 0 48 14t21 32q-20 38 -72 38q-34 0 -51 -12
t-17 -28q0 -18 17.5 -31t53.5 -13z" />
    <glyph glyph-name="exclam.case" horiz-adv-x="307" 
d="M151 503q-48 0 -77.5 28.5t-29.5 74.5q0 45 29.5 74.5t77.5 29.5t78 -29.5t30 -74.5q-1 -46 -30.5 -74.5t-77.5 -28.5zM249 0h-190l15 434h160z" />
    <glyph glyph-name="exclamdown.case" horiz-adv-x="308" 
d="M250 686l-15 -410h-160l-15 410h190zM152 207q48 0 77.5 -29t30.5 -75q0 -45 -30 -74t-78 -29t-77.5 29t-29.5 74q0 46 29.5 75t77.5 29z" />
    <glyph glyph-name="question.case" horiz-adv-x="505" 
d="M266 506q-48 1 -78 30t-30 74t30.5 74.5t77.5 28.5q47 1 77 -28.5t30 -75.5q0 -45 -29.5 -73.5t-77.5 -29.5zM308 212l173 1q0 -100 -60 -160.5t-164 -60.5q-103 0 -166.5 54t-64.5 146q0 34 15.5 64t37.5 51.5t44.5 40t38 38t15.5 37.5v15h171v-30q0 -36 -23 -70.5
t-51 -56.5t-51 -46.5t-23 -44.5q2 -41 48 -41q29 0 44.5 17t15.5 46z" />
    <glyph glyph-name="questiondown.case" horiz-adv-x="505" 
d="M247 713q104 0 167 -54t64 -146q0 -34 -15.5 -64t-37.5 -51t-44.5 -39.5t-38 -38t-15.5 -37.5v-15h-171v29q0 30 15 58t37 49t44 39.5t37 37t15 34.5q-2 42 -48 42q-29 0 -44.5 -17.5t-15.5 -46.5h-173q0 100 60 160t164 60zM238 199q48 0 78 -29t30 -74t-30 -74.5
t-78 -29.5t-77.5 30t-29.5 75t29.5 73.5t77.5 28.5z" />
    <glyph glyph-name="braceleft.case" horiz-adv-x="404" 
d="M23 397h10q26 0 45 17.5t19 52.5v48q0 93 61 147t176 54h35v-148h-25q-36 0 -57 -21t-21 -56v-68q0 -80 -47 -97q13 -5 30 -32t17 -67v-38q0 -35 21 -56t57 -21h25v-148h-35q-115 0 -176 54t-61 147v18q0 35 -19 52t-45 17h-10v145z" />
    <glyph glyph-name="braceright.case" horiz-adv-x="404" 
d="M381 397v-145h-10q-26 0 -45 -17t-19 -52v-18q0 -93 -61 -147t-176 -54h-35v148h25q36 0 57 21t21 56v38q0 40 17 67t30 32q-47 17 -47 97v68q0 35 -21 56t-57 21h-25v148h35q115 0 176 -54t61 -147v-48q0 -35 19 -52.5t45 -17.5h10z" />
    <glyph glyph-name="bracketleft.case" horiz-adv-x="420" 
d="M66 -36v752h321v-144h-155v-464h155v-144h-321z" />
    <glyph glyph-name="bracketright.case" horiz-adv-x="420" 
d="M354 -36h-321v144h155v464h-155v144h321v-752z" />
    <glyph glyph-name="parenleft.case" horiz-adv-x="337" 
d="M33 344q0 99 37.5 201t87.5 172h167q-114 -172 -114 -373q0 -208 114 -380h-167q-49 69 -87 175t-38 205z" />
    <glyph glyph-name="parenright.case" horiz-adv-x="337" 
d="M303 344q0 -99 -38 -205t-87 -175h-167q114 172 114 380q0 201 -114 373h167q50 -70 87.5 -172t37.5 -201z" />
    <glyph glyph-name="emdash.case" horiz-adv-x="830" 
d="M51 272v140h728v-140h-728z" />
    <glyph glyph-name="endash.case" horiz-adv-x="577" 
d="M51 272v140h475v-140h-475z" />
    <glyph glyph-name="hyphen.case" horiz-adv-x="477" 
d="M51 272v140h375v-140h-375z" />
    <glyph glyph-name="guillemotleft.case" horiz-adv-x="556" 
d="M24 327v10l114 169h161l-121 -174l122 -175h-162zM248 327v10l114 169h161l-121 -174l122 -175h-162z" />
    <glyph glyph-name="guillemotright.case" horiz-adv-x="556" 
d="M308 327l-114 -170h-162l122 175l-121 174h161l114 -169v-10zM532 327l-114 -170h-162l122 175l-121 174h161l114 -169v-10z" />
    <glyph glyph-name="guilsinglleft.case" horiz-adv-x="332" 
d="M24 327v10l114 169h161l-121 -174l122 -175h-162z" />
    <glyph glyph-name="guilsinglright.case" horiz-adv-x="332" 
d="M308 327l-114 -170h-162l122 175l-121 174h161l114 -169v-10z" />
    <glyph glyph-name="ampersand.sc" horiz-adv-x="557" 
d="M565 0h-148l-23 22q-60 -29 -140 -29q-104 0 -167.5 45.5t-63.5 118.5q1 90 91 139q-37 50 -37 94q0 67 48.5 107.5t128.5 40.5q76 0 122 -37t45 -97q1 -45 -28 -79t-97 -67l91 -87q15 30 15 76h124q0 -96 -51 -161zM252 431q-44 0 -46 -41q0 -25 15 -50l9 3q65 24 65 55
q0 33 -43 33zM267 110q11 0 31 2l-94 88l-9 8q-22 -15 -22 -42q1 -28 26.5 -42t67.5 -14z" />
    <glyph glyph-name="cent.sc" horiz-adv-x="544" 
d="M287 162q56 0 66 61h165q-7 -72 -48.5 -127t-119.5 -73v-107h-140v109q-82 21 -132 85.5t-50 154.5q0 92 50 156.5t132 85.5v109h140v-107q78 -18 119.5 -73t48.5 -128h-165q-11 62 -66 62q-35 0 -56 -26t-21 -79q0 -52 21.5 -77.5t55.5 -25.5z" />
    <glyph glyph-name="dollar.sc" horiz-adv-x="503" 
d="M481 154q0 -61 -44 -101t-120 -53v-84h-140v83q-76 13 -116.5 55.5t-40.5 110.5h153q2 -50 79 -50q76 0 78 39q0 20 -22.5 32t-56 16.5t-72.5 14.5t-72.5 24t-56 47t-22.5 82q-1 58 39.5 100.5t109.5 57.5v88h140v-86q73 -14 114 -57.5t41 -109.5h-154q0 52 -71 52
q-68 0 -68 -41q0 -19 22.5 -30t56 -15t72.5 -14t72.5 -24.5t56 -50t22.5 -86.5z" />
    <glyph glyph-name="Euro.sc" horiz-adv-x="627" 
d="M358 127q62 0 88 42h154q-20 -79 -81.5 -126.5t-165.5 -47.5q-94 0 -159.5 46t-91.5 129h-80l13 81h54v15v13h-67l13 81h67q24 83 90.5 129t160.5 46q104 0 166 -47.5t81 -125.5h-156q-29 41 -87 41q-60 0 -90 -43h94l-13 -81h-104v-14v-14h117l-13 -81h-80
q30 -43 90 -43z" />
    <glyph glyph-name="sterling.sc" horiz-adv-x="529" 
d="M291 403q-55 0 -56 -48q0 -25 6 -69h177v-81h-166v-6q0 -35 -19 -67h260v-132h-459v129q35 0 50 16t15 54v6h-63v81h52q-6 42 -6 69q2 81 59.5 130.5t152.5 49.5t152 -49.5t55 -131.5h-149q0 49 -61 49z" />
    <glyph glyph-name="yen.sc" horiz-adv-x="600" 
d="M584 535l-157 -267h81v-81h-126v-28h126v-81h-126v-78h-163v78h-129v81h129v28h-129v81h83l-157 267h170l114 -202l113 202h171z" />
    <glyph glyph-name="caroncomb.alt" 
d="M-183 246q23 0 43 19t20 47q-36 0 -57.5 21t-21.5 55q0 35 22.5 56.5t57.5 21.5q79 0 79 -105q0 -81 -43.5 -131t-99.5 -50v66z" />
    <glyph glyph-name="uni0306.case.001" 
d="M-15 710q0 -71 -47.5 -117t-123.5 -46t-124.5 46t-48.5 117h125q0 -49 47 -49q45 0 45 49h127z" />
    <glyph glyph-name="uni0308.case" 
d="M-321 724q40 0 64.5 -24t24.5 -63q0 -38 -24.5 -62t-64.5 -24t-65 24t-25 62t25 62.5t65 24.5zM-103 724q40 0 64.5 -24t24.5 -63q0 -38 -24.5 -62t-64.5 -24t-65 24t-25 62t25 62.5t65 24.5z" />
    <glyph glyph-name="uni0307.case" 
d="M-128 750q48 0 77.5 -29t29.5 -75q0 -45 -29.5 -74t-77.5 -29t-78 29t-30 74q0 46 30 75t78 29z" />
    <glyph glyph-name="gravecomb.case" 
d="M-202 550l-110 145h224l51 -145h-165z" />
    <glyph glyph-name="acutecomb.case" 
d="M-119 550h-165l49 145h224z" />
    <glyph glyph-name="uni030B.case" 
d="M-340 550h-131l59 145h190zM-120 550h-131l59 145h190z" />
    <glyph glyph-name="uni0302.case" 
d="M-123 695l99 -145h-121l-62 60l-61 -60h-122l99 145h168z" />
    <glyph glyph-name="uni030C.case" 
d="M-123 550h-168l-99 145h122l61 -60l62 60h121z" />
    <glyph glyph-name="uni0306.case" 
d="M-15 695q0 -61 -48.5 -104.5t-122.5 -43.5q-75 0 -124 43.5t-49 104.5h123q0 -19 13 -32.5t36 -13.5t35 13t12 33h125z" />
    <glyph glyph-name="uni030A.case" 
d="M-149 535q-46 0 -78.5 29t-32.5 76t32.5 76t78.5 29t78 -29t32 -76t-32 -76t-78 -29zM-149 608q14 0 23 9t9 23t-9 22.5t-23 8.5q-15 0 -23.5 -8.5t-8.5 -22.5t8.5 -23t23.5 -9z" />
    <glyph glyph-name="tildecomb.case" 
d="M-279 585q-18 0 -28.5 -10t-10.5 -27h-112q0 158 131 158q37 0 79 -17.5t54 -17.5q15 0 24.5 10.5t9.5 26.5h112q0 -79 -32 -118.5t-88 -39.5q-42 0 -86 17.5t-53 17.5z" />
    <glyph glyph-name="uni0304.case" 
d="M-390 565v120h340v-120h-340z" />
    <glyph glyph-name="uni0337.case" 
d="M-471 368l386 219l60 -103l-386 -220z" />
    <glyph glyph-name="uni0338.case" 
d="M63 745l-478 -762h-136l478 762h136z" />
    <glyph glyph-name="caron.alt" horiz-adv-x="240" 
d="M51 265q22 0 42.5 14t20.5 33q-36 0 -57 21t-21 55q0 35 22.5 56.5t57.5 21.5q79 0 79 -105q0 -71 -44 -116t-100 -45v65z" />
    <glyph glyph-name="acute.case" horiz-adv-x="324" 
d="M205 550h-165l49 145h224z" />
    <glyph glyph-name="breve.case" horiz-adv-x="378" 
d="M362 695q0 -61 -48.5 -104.5t-122.5 -43.5q-75 0 -124 43.5t-49 104.5h123q0 -19 13 -32.5t36 -13.5t35 13t12 33h125z" />
    <glyph glyph-name="caron.case" horiz-adv-x="409" 
d="M288 550h-168l-99 145h122l61 -60l62 60h121z" />
    <glyph glyph-name="circumflex.case" horiz-adv-x="410" 
d="M288 695l99 -145h-121l-62 60l-61 -60h-122l99 145h168z" />
    <glyph glyph-name="dieresis.case" horiz-adv-x="419" 
d="M104 724q40 0 64.5 -24t24.5 -63q0 -38 -24.5 -62t-64.5 -24t-65 24t-25 62t25 62.5t65 24.5zM322 724q40 0 64.5 -24t24.5 -63q0 -38 -24.5 -62t-64.5 -24t-65 24t-25 62t25 62.5t65 24.5z" />
    <glyph glyph-name="dotaccent.case" horiz-adv-x="256" 
d="M128 750q48 0 77.5 -29t29.5 -75q0 -45 -29.5 -74t-77.5 -29t-78 29t-30 74q0 46 30 75t78 29z" />
    <glyph glyph-name="grave.case" horiz-adv-x="324" 
d="M121 550l-110 145h224l51 -145h-165z" />
    <glyph glyph-name="hungarumlaut.case" horiz-adv-x="504" 
d="M163 550h-131l59 145h190zM383 550h-131l59 145h190z" />
    <glyph glyph-name="macron.case" horiz-adv-x="442" 
d="M50 565v120h340v-120h-340z" />
    <glyph glyph-name="ring.case" horiz-adv-x="300" 
d="M150 535q-46 0 -78.5 29t-32.5 76t32.5 76t78.5 29t78 -29t32 -76t-32 -76t-78 -29zM150 608q14 0 23 9t9 23t-9 22.5t-23 8.5q-15 0 -23.5 -8.5t-8.5 -22.5t8.5 -23t23.5 -9z" />
    <glyph glyph-name="tilde.case" horiz-adv-x="471" 
d="M171 585q-18 0 -28.5 -10t-10.5 -27h-112q0 158 131 158q37 0 79 -17.5t54 -17.5q15 0 24.5 10.5t9.5 26.5h112q0 -79 -32 -118.5t-88 -39.5q-42 0 -86 17.5t-53 17.5z" />
    <glyph glyph-name="IJacute" horiz-adv-x="874" 
d="M795 733h-165l49 145h224zM227 718h-165l49 145h224zM66 0v686h182v-686h-182zM497 238q1 -86 68 -86t67 87v447h182v-437q0 -118 -64 -185.5t-188 -67.5q-117 0 -179.5 62.5t-62.5 179.5h177z" />
    <glyph glyph-name="ijacute" horiz-adv-x="568" 
d="M225 555l-159 -7l61 186h210zM525 555l-159 -7l61 186h212zM51 0v491l180 5v-496h-180zM240 -57q13 -9 34 -9q62 0 62 90v467l181 5v-479q0 -109 -52 -172t-162 -63q-37 0 -65 9t-38 17l-10 9z" />
    </font>
</defs>
</svg>
