<svg width="14" height="14" viewBox="0 0 14 14" fill="none" xmlns="http://www.w3.org/2000/svg">
<path d="M2.62227 2.61792C1.72458 3.51389 1.72458 4.97049 2.62227 5.86646L4.72213 7.96229L3.7247 8.95781L1.62483 6.86198C0.175925 5.41585 0.175925 3.06852 1.62483 1.6224C3.07374 0.176271 5.42559 0.176271 6.8745 1.6224L8.97436 3.71823L7.97693 4.71375L5.87706 2.61792C4.97937 1.72195 3.51996 1.72195 2.62227 2.61792ZM5.2996 4.24219L9.49933 8.43385L8.4494 9.48177L4.24966 5.2901L5.2996 4.24219ZM6.8745 12.1016L4.77463 10.0057L5.77207 9.01021L7.87193 11.106C8.76963 12.002 10.229 12.002 11.1267 11.106C12.0244 10.2101 12.0244 8.75347 11.1267 7.8575L9.02686 5.76167L10.0243 4.76615L12.1242 6.86198C13.5731 8.3081 13.5731 10.6554 12.1242 12.1016C10.6753 13.5477 8.3234 13.5477 6.8745 12.1016Z" fill="black"/>
</svg>
