<svg width="50" height="50" viewBox="0 0 50 50" fill="none" xmlns="http://www.w3.org/2000/svg">
<circle cx="25" cy="25" r="25" fill="#1D1B4B"/>
<path d="M25 27.2513C22.6907 27.2513 20.8784 25.439 20.8784 23.2174C20.8784 20.9959 22.6907 19.1836 24.9123 19.1836H25C27.2215 19.1836 29.0338 20.9959 29.0338 23.2174C29.0338 25.439 27.2215 27.2513 25 27.2513ZM24.9123 20.6451C23.48 20.6451 22.34 21.8144 22.34 23.2174C22.34 24.6497 23.5092 25.7897 24.9123 25.7897C26.4323 25.7897 27.5723 24.6205 27.5723 23.2174C27.5723 21.7851 26.403 20.6451 25 20.6451H24.9123Z" fill="white"/>
<path d="M31.3139 19.4472C29.5601 19.4472 28.2155 18.0733 28.2155 16.4072C28.2155 14.741 29.5893 13.3672 31.2555 13.3672H31.3139C32.9801 13.3672 34.3539 14.741 34.3539 16.4072C34.3539 18.0733 32.9801 19.4472 31.3139 19.4472ZM31.2555 14.8287C30.3785 14.8287 29.677 15.5303 29.677 16.4072C29.677 17.2841 30.3785 17.9856 31.2555 17.9856C32.1908 17.9856 32.8924 17.2841 32.8924 16.4072C32.8924 15.5303 32.1908 14.8287 31.3139 14.8287H31.2555Z" fill="white"/>
<path d="M36.5462 27.4864H35.0847V22.5172C35.0847 22.2249 34.9678 22.0787 34.9385 22.0495H30.7585V20.6172H34.9678C35.8447 20.6172 36.5462 21.4649 36.5462 22.5172V27.4864Z" fill="white"/>
<path d="M18.7446 19.4472C17.02 19.4472 15.6461 18.0733 15.6461 16.4072C15.6461 14.741 17.02 13.3672 18.6861 13.3672H18.7446C20.4107 13.3672 21.7846 14.741 21.7846 16.4072C21.7846 18.0733 20.44 19.4472 18.7446 19.4472ZM18.6861 14.8287C17.8092 14.8287 17.1077 15.5303 17.1077 16.4072C17.1077 17.2841 17.8092 17.9856 18.6861 17.9856C19.6215 17.9856 20.323 17.2841 20.323 16.4072C20.323 15.5303 19.6215 14.8287 18.7446 14.8287H18.6861Z" fill="white"/>
<path d="M14.9154 27.4864H13.4539V22.5172C13.4539 21.4649 14.1262 20.6172 15.0031 20.6172H19.2123V22.0787H15.0031C15.0031 22.0787 14.8862 22.2541 14.8862 22.5172V27.4864H14.9154Z" fill="white"/>
<path d="M30.8462 36.6341H29.3846V30.7587C29.3846 30.3495 29.0631 30.0279 28.6539 30.0279H21.2585C20.8492 30.0279 20.5277 30.3495 20.5277 30.7587V36.6341H19.0662V30.7587C19.0662 29.5603 20.06 28.5664 21.2585 28.5664H28.6539C29.8523 28.5664 30.8462 29.5603 30.8462 30.7587V36.6341Z" fill="white"/>
</svg>
