<svg width="80" height="80" viewBox="0 0 80 80" fill="none" xmlns="http://www.w3.org/2000/svg">
<circle cx="40" cy="40" r="40" fill="#3A3597"/>
<path d="M53.3402 29.2484L47.1832 22.1992H26.6602V57.8023H53.2955V29.2484H53.3402ZM51.1094 30.0961H46.1571V24.43L51.1094 30.0961ZM51.1094 55.5715H28.8909V24.43H43.8817V32.3715H51.0648V55.5715H51.1094Z" fill="#E9EAF3"/>
<path d="M40 28.5781H31.2554V30.8089H40V28.5781Z" fill="#E9EAF3"/>
<path d="M39.5093 36.4768L37.7693 35.0938L33.6647 40.1799L32.7278 38.9753L30.9878 40.3584L33.6647 43.7491L39.5093 36.4768Z" fill="#E9EAF3"/>
<path d="M34.0661 49.6838L33.1292 48.4792L31.3892 49.8623L34.0661 53.2977L39.8661 45.9807L38.1261 44.5977L34.0661 49.6838Z" fill="#E9EAF3"/>
<path d="M48.8785 37.7695H42.2754V40.0003H48.8785V37.7695Z" fill="#E9EAF3"/>
<path d="M48.8785 42.4531H42.2754V44.6839H48.8785V42.4531Z" fill="#E9EAF3"/>
<path d="M48.8785 46.918H42.2754V49.1487H48.8785V46.918Z" fill="#E9EAF3"/>
</svg>
