<svg width="80" height="80" viewBox="0 0 80 80" fill="none" xmlns="http://www.w3.org/2000/svg">
<circle cx="40" cy="40" r="40" fill="#3A3597"/>
<path d="M53.4292 32.816V22.2422L51.1538 24.2945C45.8 29.2022 39.063 31.8791 32.1923 31.8791H27.5077C24.563 31.8791 22.1538 34.2883 22.1538 37.233C22.1538 39.9099 24.1169 42.096 26.7046 42.4976L31.4338 55.1683C32.0138 56.7745 33.5307 57.756 35.0923 57.756C35.5384 57.756 35.94 57.6668 36.3861 57.533C37.3677 57.176 38.1261 56.4622 38.5277 55.4806C38.9292 54.5437 38.9738 53.473 38.6169 52.536L35.0923 42.7653C40.9369 43.3899 46.5584 45.9776 51.1538 50.1714L53.4292 52.2237V41.6499C55.883 41.4268 57.8461 39.553 57.8461 37.233C57.8461 34.913 55.883 33.0837 53.4292 32.816ZM24.3846 37.233C24.3846 35.5376 25.7677 34.1099 27.5077 34.1099H30.6307V40.3114H27.5077C25.7677 40.356 24.3846 38.973 24.3846 37.233ZM36.52 53.2945C36.6984 53.7406 36.6538 54.1868 36.4753 54.5883C36.2969 54.9899 35.9846 55.3022 35.583 55.436C34.78 55.7483 33.843 55.3022 33.4861 54.4099L29.1138 42.5868H32.2369C32.3707 42.5868 32.5492 42.5868 32.683 42.6314L36.52 53.2945ZM51.1984 47.2714C45.8446 42.9437 39.42 40.5345 32.8615 40.356V34.1099C39.42 33.976 45.8446 31.5668 51.1984 27.2391V47.2714ZM53.4292 39.3745V35.0914C54.6784 35.3145 55.6153 36.1622 55.6153 37.233C55.6153 38.3037 54.6784 39.196 53.4292 39.3745Z" fill="#E9EAF3"/>
</svg>
