<svg width="80" height="80" viewBox="0 0 80 80" fill="none" xmlns="http://www.w3.org/2000/svg">
<circle cx="40" cy="40" r="40" fill="#3A3597"/>
<path d="M39.9999 43.4349C36.3537 43.4349 33.4922 40.6688 33.4922 37.278C33.4922 33.8872 36.3537 31.1211 39.8614 31.1211H39.9999C43.5076 31.1211 46.3691 33.8872 46.3691 37.278C46.3691 40.6688 43.5076 43.4349 39.9999 43.4349ZM39.8614 33.3519C37.5999 33.3519 35.7999 35.1365 35.7999 37.278C35.7999 39.4642 37.646 41.2042 39.8614 41.2042C42.2614 41.2042 44.0614 39.4196 44.0614 37.278C44.0614 35.0919 42.2153 33.3519 39.9999 33.3519H39.8614Z" fill="#E9EAF3"/>
<path d="M49.9691 31.5222C47.1999 31.5222 45.0768 29.4253 45.0768 26.8822C45.0768 24.3391 47.246 22.2422 49.8768 22.2422H49.9691C52.5999 22.2422 54.7691 24.3391 54.7691 26.8822C54.7691 29.4253 52.5999 31.5222 49.9691 31.5222ZM49.8768 24.473C48.4922 24.473 47.3845 25.5437 47.3845 26.8822C47.3845 28.2206 48.4922 29.2914 49.8768 29.2914C51.3537 29.2914 52.4614 28.2206 52.4614 26.8822C52.4614 25.5437 51.3537 24.473 49.9691 24.473H49.8768Z" fill="#E9EAF3"/>
<path d="M58.2307 43.7932H55.9231V36.2086C55.9231 35.7624 55.7384 35.5394 55.6923 35.4947H49.0923V33.3086H55.7384C57.1231 33.3086 58.2307 34.6024 58.2307 36.2086V43.7932Z" fill="#E9EAF3"/>
<path d="M30.1229 31.5222C27.3998 31.5222 25.2306 29.4253 25.2306 26.8822C25.2306 24.3391 27.3998 22.2422 30.0306 22.2422H30.1229C32.7537 22.2422 34.9229 24.3391 34.9229 26.8822C34.9229 29.4253 32.7998 31.5222 30.1229 31.5222ZM30.0306 24.473C28.646 24.473 27.5383 25.5437 27.5383 26.8822C27.5383 28.2206 28.646 29.2914 30.0306 29.2914C31.5075 29.2914 32.6152 28.2206 32.6152 26.8822C32.6152 25.5437 31.5075 24.473 30.1229 24.473H30.0306Z" fill="#E9EAF3"/>
<path d="M24.0767 43.7932H21.769V36.2086C21.769 34.6024 22.8306 33.3086 24.2152 33.3086H30.8614V35.5394H24.2152C24.2152 35.5394 24.0306 35.8071 24.0306 36.2086V43.7932H24.0767Z" fill="#E9EAF3"/>
<path d="M49.2304 57.7553H46.9227V48.7876C46.9227 48.1629 46.415 47.6722 45.7688 47.6722H34.0919C33.4458 47.6722 32.9381 48.1629 32.9381 48.7876V57.7553H30.6304V48.7876C30.6304 46.9583 32.1996 45.4414 34.0919 45.4414H45.7688C47.6611 45.4414 49.2304 46.9583 49.2304 48.7876V57.7553Z" fill="#E9EAF3"/>
</svg>
