<svg width="80" height="80" viewBox="0 0 80 80" fill="none" xmlns="http://www.w3.org/2000/svg">
<circle cx="40" cy="40" r="40" fill="#3A3597"/>
<path d="M21.02 55.6136H56.98V24.3828H21.02V55.6136ZM30.5677 50.4828C30.5677 46.1105 34.1369 42.5413 38.5092 42.5413C42.8816 42.5413 46.4508 46.1105 46.4508 50.4828C46.4508 51.509 46.2277 52.4905 45.8262 53.3828H43.2831C43.8185 52.5351 44.1308 51.509 44.1308 50.4828C44.1308 47.4044 41.6323 44.9059 38.5539 44.9059C35.4754 44.9059 32.9769 47.4044 32.9769 50.4828C32.9769 51.509 33.2893 52.5351 33.8246 53.3828H31.1923C30.8354 52.4459 30.5677 51.4644 30.5677 50.4828ZM35.2077 50.4828C35.2077 48.6536 36.7246 47.1367 38.5539 47.1367C40.3831 47.1367 41.9 48.6536 41.9 50.4828C41.9 51.6874 41.2754 52.7582 40.2493 53.3828H40.2939H36.9477C35.8769 52.8028 35.2077 51.6874 35.2077 50.4828ZM48.28 53.3828C48.4585 52.8028 48.5923 52.1782 48.6369 51.5982H52.3846V49.3674H48.6369C48.4139 47.4044 47.6554 45.6197 46.4508 44.1474L49.1277 41.4705L47.5662 39.8643L44.8893 42.5413C43.4169 41.3813 41.6323 40.6228 39.6693 40.3997V36.5628H37.4385V40.3551C35.4754 40.6228 33.6908 41.3813 32.2185 42.5413L29.5416 39.8643L27.9354 41.4259L30.6123 44.1028C29.4523 45.6197 28.6939 47.4044 28.4708 49.3674H24.6339V51.5982H28.3816C28.4262 52.2228 28.6046 52.8028 28.7385 53.3828H23.2508V35.3582H54.7492V53.3828H48.28ZM54.7492 33.1274H23.2508V26.6136H54.7492V33.1274Z" fill="#E9EAF3"/>
<path d="M52.563 28.5781H50.2876V30.8089H52.563V28.5781Z" fill="#E9EAF3"/>
<path d="M48.1016 28.5781H45.8262V30.8089H48.1016V28.5781Z" fill="#E9EAF3"/>
</svg>
